<svg width="487" height="600" viewBox="0 0 487 600" fill="none" xmlns="http://www.w3.org/2000/svg">
<path d="M261.719 296.396C271.844 309.048 283.087 322.935 290.975 332.644C299.746 306.282 288.032 269.446 274.964 241.907C271.844 259.031 267.488 277.154 261.719 296.396Z" fill="#4BB7FF"/>
<path d="M200.027 198.833C187.018 211.308 175.362 234.61 184.133 271.035C192.021 270.387 203.206 269.505 213.331 268.563C207.562 242.672 203.206 219.546 200.027 198.833Z" fill="#1FA5FF"/>
<path opacity="0.2" d="M228.048 328.584C155.289 49.3111 215.156 25.5971 237.761 16.0644C260.365 51.7237 320.173 144.462 247.356 339.705L228.048 328.584Z" fill="url(#paint0_linear_154_1260)"/>
<path opacity="0.1" d="M249.475 312.519C176.717 33.3056 236.525 9.5327 259.188 0C281.793 35.6594 341.601 128.397 268.783 323.641L249.475 312.519Z" fill="url(#paint1_linear_154_1260)"/>
<path opacity="0.15" d="M247.356 339.705C320.173 144.462 260.365 51.7237 237.761 16.0644V334.174L247.356 339.705Z" fill="url(#paint2_linear_154_1260)"/>
<path opacity="0.1" d="M259.424 114.392C259.424 131.398 249.417 139.401 237.055 132.281C224.693 125.161 214.686 105.566 214.686 88.56C214.686 71.5541 224.693 63.5514 237.055 70.6715C249.417 77.7916 259.424 97.3866 259.424 114.392Z" fill="#0263F3"/>
<path opacity="0.1" d="M255.009 402.904C249.888 394.548 247.415 383.956 245.237 374.659C242.706 363.949 240.587 354.828 235.289 352.533C229.225 349.885 226.518 356.594 222.691 365.891C220.454 371.363 217.805 377.836 213.92 383.779C209.741 379.366 205.326 375.718 200.675 373.07C181.191 361.831 164.944 371.54 161.117 394.724C158.468 392.724 155.819 390.899 153.111 389.311C121.853 371.305 96.541 391.723 96.541 435.032C96.541 478.283 121.853 527.947 153.053 545.953C183.369 563.43 208.151 544.658 209.564 503.997C215.274 514.589 222.868 523.475 231.286 528.3C233.464 529.536 235.583 530.477 237.584 531.065C249.711 557.722 267.783 580.671 287.974 592.322C324.471 613.388 354.081 589.615 354.14 539.245C354.14 488.874 324.53 430.913 288.033 409.847C275.965 402.904 264.722 400.785 255.009 402.904Z" fill="url(#paint3_linear_154_1260)"/>
<path opacity="0.3" d="M313.815 210.249L473.166 302.222L473.225 385.25L327.943 301.398L313.874 305.988L313.815 210.249Z" fill="url(#paint4_linear_154_1260)"/>
<path d="M426.839 316.815V294.278L487 328.996V351.533L426.839 316.815Z" fill="#4BB7FF"/>
<path opacity="0.1" d="M354.787 254.088L389.695 274.212V281.509L354.787 261.384V254.088Z" fill="#0263F3"/>
<path opacity="0.1" d="M354.846 268.681L417.833 305.046V312.343L354.846 275.978V268.681Z" fill="#0263F3"/>
<path opacity="0.15" d="M354.846 283.274L436.375 330.349V337.646L354.846 290.571V283.274Z" fill="#0263F3"/>
<path d="M346.192 256.736C346.192 263.562 342.131 266.798 337.127 263.915C332.123 261.031 328.062 253.146 328.062 246.32C328.062 239.494 332.123 236.258 337.127 239.141C342.189 242.025 346.192 249.91 346.192 256.736Z" fill="#4BB7FF"/>
<path opacity="0.3" d="M176.363 92.9732L17.0117 1.0592L17.0706 84.0878L162.352 167.881L176.421 188.712L176.363 92.9732Z" fill="url(#paint5_linear_154_1260)"/>
<path d="M0 33.4233V10.8861L60.1613 45.604V68.1411L0 33.4233Z" fill="#1FA5FF"/>
<path opacity="0.15" d="M135.392 89.5603L100.484 69.4357V76.7324L135.392 96.8569V89.5603Z" fill="#0263F3"/>
<path opacity="0.15" d="M135.392 104.154L68.1084 65.3167V72.6133L135.392 111.45V104.154Z" fill="#0263F3"/>
<path opacity="0.15" d="M135.392 118.747L53.8623 71.6718V78.9684L135.392 126.043V118.747Z" fill="#0263F3"/>
<path d="M143.986 102.094C143.986 108.92 148.048 116.805 153.052 119.688C158.055 122.572 162.117 119.335 162.117 112.509C162.117 105.684 158.055 97.7984 153.052 94.9151C148.048 92.0906 143.986 95.2681 143.986 102.094Z" fill="#1FA5FF"/>
<path opacity="0.2" d="M155.171 181.592L59.9844 126.691V176.237L155.171 231.139V181.592Z" fill="url(#paint6_linear_154_1260)"/>
<path opacity="0.15" d="M84.3555 152.641L116.967 171.471V177.414L84.3555 158.584V152.641Z" fill="#0263F3"/>
<path opacity="0.15" d="M84.3555 164.586L145.341 199.775V205.777L84.3555 170.588V164.586Z" fill="#0263F3"/>
<path d="M79.3509 154.406C79.3509 158.466 76.9374 160.408 73.9352 158.702C70.933 156.995 68.5195 152.288 68.5195 148.169C68.5195 144.108 70.933 142.167 73.9352 143.873C76.8785 145.638 79.3509 150.346 79.3509 154.406Z" fill="#1FA5FF"/>
<path opacity="0.2" d="M437.847 219.017L342.66 164.115V213.662L437.847 268.622V219.017Z" fill="url(#paint7_linear_154_1260)"/>
<path opacity="0.15" d="M367.031 190.124L399.643 208.954V214.898L367.031 196.068V190.124Z" fill="#0263F3"/>
<path opacity="0.15" d="M367.09 202.07L428.075 237.258V243.26L367.09 208.072V202.07Z" fill="#0263F3"/>
<path d="M362.027 191.89C362.027 195.95 359.613 197.892 356.611 196.185C353.609 194.479 351.195 189.771 351.195 185.652C351.195 181.592 353.609 179.65 356.611 181.357C359.613 183.122 362.027 187.829 362.027 191.89Z" fill="#4BB7FF"/>
<defs>
<linearGradient id="paint0_linear_154_1260" x1="322.584" y1="25.9659" x2="139.702" y2="342.931" gradientUnits="userSpaceOnUse">
<stop stop-color="#0263F3"/>
<stop offset="1" stop-color="#0263F3" stop-opacity="0"/>
</linearGradient>
<linearGradient id="paint1_linear_154_1260" x1="344.005" y1="9.90595" x2="161.124" y2="326.871" gradientUnits="userSpaceOnUse">
<stop stop-color="#0263F3"/>
<stop offset="1" stop-color="#0263F3" stop-opacity="0"/>
</linearGradient>
<linearGradient id="paint2_linear_154_1260" x1="288.46" y1="95.0693" x2="147.285" y2="349.897" gradientUnits="userSpaceOnUse">
<stop stop-color="white" stop-opacity="0"/>
<stop offset="1" stop-color="#4BB7FF"/>
</linearGradient>
<linearGradient id="paint3_linear_154_1260" x1="275.172" y1="402.444" x2="196.181" y2="539.349" gradientUnits="userSpaceOnUse">
<stop stop-color="#0263F3"/>
<stop offset="1" stop-color="#0263F3" stop-opacity="0"/>
</linearGradient>
<linearGradient id="paint4_linear_154_1260" x1="382.283" y1="212.937" x2="402.871" y2="379.977" gradientUnits="userSpaceOnUse">
<stop stop-color="#0263F3"/>
<stop offset="1" stop-color="#0263F3" stop-opacity="0"/>
</linearGradient>
<linearGradient id="paint5_linear_154_1260" x1="141.612" y1="59.7268" x2="59.3511" y2="124.159" gradientUnits="userSpaceOnUse">
<stop stop-color="#0263F3"/>
<stop offset="1" stop-color="#0263F3" stop-opacity="0"/>
</linearGradient>
<linearGradient id="paint6_linear_154_1260" x1="118.303" y1="160.306" x2="96.849" y2="197.489" gradientUnits="userSpaceOnUse">
<stop stop-color="#0263F3"/>
<stop offset="1" stop-color="#0263F3" stop-opacity="0"/>
</linearGradient>
<linearGradient id="paint7_linear_154_1260" x1="401.015" y1="197.776" x2="379.561" y2="234.959" gradientUnits="userSpaceOnUse">
<stop stop-color="#0263F3"/>
<stop offset="1" stop-color="#0263F3" stop-opacity="0"/>
</linearGradient>
</defs>
</svg>
