<svg width="35" height="35" viewBox="0 0 35 35" fill="none" xmlns="http://www.w3.org/2000/svg">
<rect width="35" height="35" rx="17.5" fill="#0C2650"/>
<path d="M28.5999 14.4886C27.9629 14.1444 26.2252 14.7238 25.7725 15.0244C25.6243 14.7522 25.4561 14.4541 25.2737 14.1488C24.3415 12.588 23.5509 11.6835 22.8566 11.3838C22.8288 11.3717 22.8 11.3621 22.7706 11.3549C22.7111 11.3404 21.2682 11 17.5 11C13.7318 11 12.289 11.3405 12.2294 11.3549C12.2 11.3621 12.1712 11.3717 12.1434 11.3838C11.4492 11.6836 10.6585 12.588 9.72627 14.1488C9.54394 14.4541 9.37571 14.7522 9.22754 15.0244C8.77484 14.7238 7.03702 14.1444 6.40014 14.4886C5.74296 14.8438 6.00628 15.9616 6.40014 16.2647C6.64604 16.454 7.3207 16.5116 8.03116 16.4628C7.87042 16.6838 7.74375 16.9325 7.658 17.2003C8.77841 17.4171 11.4122 17.4077 11.0185 18.2892C10.4426 19.5785 8.67006 19.4 7.57741 18.8268L7.78144 22.4619C7.78144 23.3114 8.4486 24 9.27158 24H10.1677C10.9907 24 11.6578 23.3114 11.6578 22.4619L11.6285 22.136H23.3715L23.3423 22.4619C23.3423 23.3114 24.0094 24 24.8324 24H25.7285C26.5515 24 27.2186 23.3114 27.2186 22.4619L27.4226 18.8268C26.33 19.4 24.5574 19.5785 23.9815 18.2892C23.5879 17.4077 26.2216 17.4171 27.3421 17.2003C27.2563 16.9324 27.1297 16.6837 26.9689 16.4628C27.6794 16.5116 28.354 16.454 28.5999 16.2647C28.9937 15.9616 29.2571 14.8438 28.5999 14.4886ZM20.3673 20.4277H14.6326L14.0367 18.1851H20.9632L20.3673 20.4277ZM10.2639 15.431C10.9772 14.1428 11.8888 12.7671 12.5258 12.45C12.7929 12.3959 14.2501 12.1348 17.5 12.1348C20.7536 12.1348 22.2104 12.3965 22.474 12.45C23.1102 12.7666 24.022 14.1425 24.7357 15.431H10.2639Z" fill="#1FA5FF"/>
</svg>
