<svg width="192" height="192" viewBox="0 0 192 192" fill="none" xmlns="http://www.w3.org/2000/svg">
<g filter="url(#filter0_d_629_1556)">
<g clip-path="url(#clip0_629_1556)">
<rect x="30" y="26" width="132" height="132" rx="66" fill="#000F28"/>
<circle cx="96" cy="92" r="58" fill="#0C2650"/>
<g filter="url(#filter1_d_629_1556)">
<rect x="62" y="56" width="68" height="70" rx="5" fill="#000F28"/>
<path d="M111.833 77.9994C111.833 69.2752 104.724 62.166 95.9998 62.166C87.2757 62.166 80.1665 69.2752 80.1665 77.9994C80.1665 82.591 82.1457 86.7235 85.2807 89.621C85.2807 89.6369 85.2807 89.6369 85.2648 89.6527C85.4232 89.811 85.6132 89.9377 85.7715 90.0802C85.8665 90.1594 85.9457 90.2385 86.0407 90.3019C86.3257 90.5394 86.6423 90.761 86.9432 90.9827C87.054 91.0619 87.149 91.1252 87.2598 91.2044C87.5607 91.4102 87.8773 91.6002 88.2098 91.7744C88.3207 91.8377 88.4473 91.9169 88.5582 91.9802C88.8748 92.1544 89.2073 92.3127 89.5557 92.4552C89.6823 92.5185 89.809 92.5819 89.9357 92.6294C90.284 92.7719 90.6323 92.8985 90.9807 93.0094C91.1073 93.0569 91.234 93.1044 91.3607 93.136C91.7407 93.2469 92.1207 93.3419 92.5007 93.4369C92.6115 93.4685 92.7223 93.5002 92.849 93.516C93.2923 93.611 93.7357 93.6744 94.1948 93.7219C94.2582 93.7219 94.3215 93.7377 94.3848 93.7535C94.9232 93.801 95.4615 93.8327 95.9998 93.8327C96.5382 93.8327 97.0765 93.801 97.599 93.7535C97.6623 93.7535 97.7257 93.7377 97.789 93.7219C98.2482 93.6744 98.6915 93.611 99.1348 93.516C99.2457 93.5002 99.3565 93.4527 99.4832 93.4369C99.8632 93.3419 100.259 93.2627 100.623 93.136C100.75 93.0885 100.877 93.041 101.003 93.0094C101.352 92.8827 101.716 92.7719 102.048 92.6294C102.175 92.5819 102.302 92.5185 102.428 92.4552C102.761 92.3127 103.093 92.1544 103.426 91.9802C103.552 91.9169 103.663 91.8377 103.774 91.7744C104.091 91.5844 104.407 91.4102 104.724 91.2044C104.835 91.141 104.93 91.0619 105.041 90.9827C105.357 90.761 105.658 90.5394 105.943 90.3019C106.038 90.2227 106.117 90.1435 106.212 90.0802C106.387 89.9377 106.561 89.7952 106.719 89.6527C106.719 89.6369 106.719 89.6369 106.703 89.621C109.854 86.7235 111.833 82.591 111.833 77.9994ZM103.822 85.8685C99.5307 82.9869 92.5007 82.9869 88.1782 85.8685C87.4815 86.3277 86.9115 86.866 86.4365 87.4519C84.0298 85.0135 82.5415 81.6727 82.5415 77.9994C82.5415 70.5735 88.574 64.541 95.9998 64.541C103.426 64.541 109.458 70.5735 109.458 77.9994C109.458 81.6727 107.97 85.0135 105.563 87.4519C105.104 86.866 104.518 86.3277 103.822 85.8685Z" fill="#48566D"/>
<path d="M96 69.9727C92.7225 69.9727 90.0625 72.6327 90.0625 75.9102C90.0625 79.1243 92.58 81.7368 95.9208 81.8318C95.9683 81.8318 96.0317 81.8318 96.0633 81.8318C96.095 81.8318 96.1425 81.8318 96.1742 81.8318C96.19 81.8318 96.2058 81.8318 96.2058 81.8318C99.4042 81.721 101.922 79.1243 101.938 75.9102C101.938 72.6327 99.2775 69.9727 96 69.9727Z" fill="#48566D"/>
<rect x="75" y="100" width="42" height="6" rx="1" fill="#48566D"/>
<rect x="75" y="111" width="42" height="6" rx="1" fill="#48566D"/>
</g>
</g>
</g>
<defs>
<filter id="filter0_d_629_1556" x="0" y="0" width="192" height="192" filterUnits="userSpaceOnUse" color-interpolation-filters="sRGB">
<feFlood flood-opacity="0" result="BackgroundImageFix"/>
<feColorMatrix in="SourceAlpha" type="matrix" values="0 0 0 0 0 0 0 0 0 0 0 0 0 0 0 0 0 0 127 0" result="hardAlpha"/>
<feOffset dy="4"/>
<feGaussianBlur stdDeviation="15"/>
<feComposite in2="hardAlpha" operator="out"/>
<feColorMatrix type="matrix" values="0 0 0 0 0.121569 0 0 0 0 0.647059 0 0 0 0 1 0 0 0 0.1 0"/>
<feBlend mode="normal" in2="BackgroundImageFix" result="effect1_dropShadow_629_1556"/>
<feBlend mode="normal" in="SourceGraphic" in2="effect1_dropShadow_629_1556" result="shape"/>
</filter>
<filter id="filter1_d_629_1556" x="32" y="30" width="128" height="130" filterUnits="userSpaceOnUse" color-interpolation-filters="sRGB">
<feFlood flood-opacity="0" result="BackgroundImageFix"/>
<feColorMatrix in="SourceAlpha" type="matrix" values="0 0 0 0 0 0 0 0 0 0 0 0 0 0 0 0 0 0 127 0" result="hardAlpha"/>
<feOffset dy="4"/>
<feGaussianBlur stdDeviation="15"/>
<feComposite in2="hardAlpha" operator="out"/>
<feColorMatrix type="matrix" values="0 0 0 0 0.121569 0 0 0 0 0.647059 0 0 0 0 1 0 0 0 0.03 0"/>
<feBlend mode="normal" in2="BackgroundImageFix" result="effect1_dropShadow_629_1556"/>
<feBlend mode="normal" in="SourceGraphic" in2="effect1_dropShadow_629_1556" result="shape"/>
</filter>
<clipPath id="clip0_629_1556">
<rect x="30" y="26" width="132" height="132" rx="66" fill="white"/>
</clipPath>
</defs>
</svg>
