<svg width="192" height="192" viewBox="0 0 192 192" fill="none" xmlns="http://www.w3.org/2000/svg">
<g filter="url(#filter0_d_103_1153)">
<g clip-path="url(#clip0_103_1153)">
<rect x="30" y="26" width="132" height="132" rx="66" fill="white"/>
<circle cx="96" cy="92" r="58" fill="#E8F5FF"/>
<g filter="url(#filter1_d_103_1153)">
<rect x="62" y="56" width="68" height="70" rx="5" fill="white"/>
<path d="M111.833 78C111.833 69.2758 104.724 62.1667 95.9998 62.1667C87.2757 62.1667 80.1665 69.2758 80.1665 78C80.1665 82.5917 82.1457 86.7242 85.2807 89.6217C85.2807 89.6375 85.2807 89.6375 85.2648 89.6533C85.4232 89.8117 85.6132 89.9383 85.7715 90.0808C85.8665 90.16 85.9457 90.2392 86.0407 90.3025C86.3257 90.54 86.6423 90.7617 86.9432 90.9833C87.054 91.0625 87.149 91.1258 87.2598 91.205C87.5607 91.4108 87.8773 91.6008 88.2098 91.775C88.3207 91.8383 88.4473 91.9175 88.5582 91.9808C88.8748 92.155 89.2073 92.3133 89.5557 92.4558C89.6823 92.5192 89.809 92.5825 89.9357 92.63C90.284 92.7725 90.6323 92.8992 90.9807 93.01C91.1073 93.0575 91.234 93.105 91.3607 93.1367C91.7407 93.2475 92.1207 93.3425 92.5007 93.4375C92.6115 93.4692 92.7223 93.5008 92.849 93.5167C93.2923 93.6117 93.7357 93.675 94.1948 93.7225C94.2582 93.7225 94.3215 93.7383 94.3848 93.7542C94.9232 93.8017 95.4615 93.8333 95.9998 93.8333C96.5382 93.8333 97.0765 93.8017 97.599 93.7542C97.6623 93.7542 97.7257 93.7383 97.789 93.7225C98.2482 93.675 98.6915 93.6117 99.1348 93.5167C99.2457 93.5008 99.3565 93.4533 99.4832 93.4375C99.8632 93.3425 100.259 93.2633 100.623 93.1367C100.75 93.0892 100.877 93.0417 101.003 93.01C101.352 92.8833 101.716 92.7725 102.048 92.63C102.175 92.5825 102.302 92.5192 102.428 92.4558C102.761 92.3133 103.093 92.155 103.426 91.9808C103.552 91.9175 103.663 91.8383 103.774 91.775C104.091 91.585 104.407 91.4108 104.724 91.205C104.835 91.1417 104.93 91.0625 105.041 90.9833C105.357 90.7617 105.658 90.54 105.943 90.3025C106.038 90.2233 106.117 90.1442 106.212 90.0808C106.387 89.9383 106.561 89.7958 106.719 89.6533C106.719 89.6375 106.719 89.6375 106.703 89.6217C109.854 86.7242 111.833 82.5917 111.833 78ZM103.822 85.8692C99.5307 82.9875 92.5007 82.9875 88.1782 85.8692C87.4815 86.3283 86.9115 86.8667 86.4365 87.4525C84.0298 85.0142 82.5415 81.6733 82.5415 78C82.5415 70.5742 88.574 64.5417 95.9998 64.5417C103.426 64.5417 109.458 70.5742 109.458 78C109.458 81.6733 107.97 85.0142 105.563 87.4525C105.104 86.8667 104.518 86.3283 103.822 85.8692Z" fill="#CDEBFF"/>
<path d="M96 69.9725C92.7225 69.9725 90.0625 72.6325 90.0625 75.91C90.0625 79.1242 92.58 81.7367 95.9208 81.8317C95.9683 81.8317 96.0317 81.8317 96.0633 81.8317C96.095 81.8317 96.1425 81.8317 96.1742 81.8317C96.19 81.8317 96.2058 81.8317 96.2058 81.8317C99.4042 81.7208 101.922 79.1242 101.938 75.91C101.938 72.6325 99.2775 69.9725 96 69.9725Z" fill="#CDEBFF"/>
<rect x="75" y="100" width="42" height="6" rx="1" fill="#E4F4FF"/>
<rect x="75" y="111" width="42" height="6" rx="1" fill="#E4F4FF"/>
</g>
</g>
</g>
<defs>
<filter id="filter0_d_103_1153" x="0" y="0" width="192" height="192" filterUnits="userSpaceOnUse" color-interpolation-filters="sRGB">
<feFlood flood-opacity="0" result="BackgroundImageFix"/>
<feColorMatrix in="SourceAlpha" type="matrix" values="0 0 0 0 0 0 0 0 0 0 0 0 0 0 0 0 0 0 127 0" result="hardAlpha"/>
<feOffset dy="4"/>
<feGaussianBlur stdDeviation="15"/>
<feComposite in2="hardAlpha" operator="out"/>
<feColorMatrix type="matrix" values="0 0 0 0 0.121569 0 0 0 0 0.647059 0 0 0 0 1 0 0 0 0.1 0"/>
<feBlend mode="normal" in2="BackgroundImageFix" result="effect1_dropShadow_103_1153"/>
<feBlend mode="normal" in="SourceGraphic" in2="effect1_dropShadow_103_1153" result="shape"/>
</filter>
<filter id="filter1_d_103_1153" x="32" y="30" width="128" height="130" filterUnits="userSpaceOnUse" color-interpolation-filters="sRGB">
<feFlood flood-opacity="0" result="BackgroundImageFix"/>
<feColorMatrix in="SourceAlpha" type="matrix" values="0 0 0 0 0 0 0 0 0 0 0 0 0 0 0 0 0 0 127 0" result="hardAlpha"/>
<feOffset dy="4"/>
<feGaussianBlur stdDeviation="15"/>
<feComposite in2="hardAlpha" operator="out"/>
<feColorMatrix type="matrix" values="0 0 0 0 0.121569 0 0 0 0 0.647059 0 0 0 0 1 0 0 0 0.03 0"/>
<feBlend mode="normal" in2="BackgroundImageFix" result="effect1_dropShadow_103_1153"/>
<feBlend mode="normal" in="SourceGraphic" in2="effect1_dropShadow_103_1153" result="shape"/>
</filter>
<clipPath id="clip0_103_1153">
<rect x="30" y="26" width="132" height="132" rx="66" fill="white"/>
</clipPath>
</defs>
</svg>
