<svg width="126" height="126" viewBox="0 0 126 126" fill="none" xmlns="http://www.w3.org/2000/svg">
<path d="M126 63C126 97.7939 97.7939 126 63 126C28.2061 126 0 97.7939 0 63C0 28.2061 28.2061 0 63 0C97.7939 0 126 28.2061 126 63ZM18.9 63C18.9 87.3558 38.6442 107.1 63 107.1C87.3558 107.1 107.1 87.3558 107.1 63C107.1 38.6442 87.3558 18.9 63 18.9C38.6442 18.9 18.9 38.6442 18.9 63Z" fill="#1FA5FF" fill-opacity="0.1"/>
<path d="M22.083 97.5456C18.0951 100.912 17.5514 106.939 21.4764 110.379C27.6029 115.749 34.7362 119.899 42.4955 122.57C53.2457 126.27 64.7969 126.992 75.9244 124.66C87.0518 122.328 97.3407 117.028 105.7 109.322C114.06 101.616 120.178 91.7915 123.406 80.8903C126.635 69.9891 126.853 58.4174 124.039 47.4021C121.224 36.3868 115.48 26.3385 107.418 18.3227C99.3551 10.3069 89.2736 4.62228 78.2421 1.87163C70.2798 -0.113745 62.0368 -0.517208 53.9744 0.649843C48.8092 1.39753 45.9832 6.74846 47.4944 11.744C49.0056 16.7395 54.2964 19.4535 59.499 19.0392C64.2343 18.6621 69.0202 19.0509 73.6695 20.2101C81.3915 22.1356 88.4486 26.1148 94.0925 31.7259C99.7363 37.337 103.757 44.3708 105.727 52.0815C107.697 59.7922 107.544 67.8924 105.285 75.5232C103.025 83.154 98.7417 90.0311 92.8901 95.4252C87.0385 100.819 79.8363 104.529 72.0471 106.162C64.2579 107.795 56.172 107.289 48.6468 104.699C44.1161 103.139 39.8903 100.859 36.1241 97.9642C31.9862 94.7836 26.0708 94.1787 22.083 97.5456Z" fill="url(#paint0_linear_905_3764)"/>
<defs>
<linearGradient id="paint0_linear_905_3764" x1="98.3571" y1="9" x2="43.0714" y2="113.143" gradientUnits="userSpaceOnUse">
<stop stop-color="#1FA5FF"/>
<stop offset="0.855361" stop-color="#1FA5FF" stop-opacity="0"/>
</linearGradient>
</defs>
</svg>
