<svg width="35" height="35" viewBox="0 0 35 35" fill="none" xmlns="http://www.w3.org/2000/svg">
<rect width="35" height="35" rx="17.5" fill="#0C2650"/>
<path d="M11.6301 19.7185C12.7588 18.2836 14.9117 18.2354 16.1024 19.6214V14.1924H11.6301V19.7185ZM13.8663 15.7763C14.4312 15.7763 14.8891 16.2342 14.8891 16.7991C14.8891 17.3641 14.4312 17.822 13.8663 17.822C13.3013 17.822 12.8434 17.364 12.8434 16.7991C12.8435 16.2342 13.3014 15.7763 13.8663 15.7763Z" fill="#1FA5FF"/>
<path d="M25.2001 10.3286H9.79989C8.73851 10.3286 7.875 11.1922 7.875 12.2535V22.7464C7.875 23.8078 8.73851 24.6713 9.79989 24.6713H25.2001C26.2615 24.6713 27.125 23.8078 27.125 22.7464V12.2535C27.125 11.1922 26.2615 10.3286 25.2001 10.3286ZM17.5 21.5064C17.5 21.8923 17.1871 22.2052 16.8012 22.2052H10.9314C10.5455 22.2052 10.2326 21.8923 10.2326 21.5064V13.4936C10.2326 13.1077 10.5455 12.7948 10.9314 12.7948H16.8012C17.1871 12.7948 17.5 13.1077 17.5 13.4936V21.5064ZM24.3806 22.2052H18.8469C18.461 22.2052 18.1481 21.8923 18.1481 21.5064C18.1481 21.1205 18.461 20.8076 18.8469 20.8076H24.3806C24.7665 20.8076 25.0793 21.1205 25.0793 21.5064C25.0793 21.8924 24.7665 22.2052 24.3806 22.2052ZM24.3806 20.3883H18.8469C18.461 20.3883 18.1481 20.0754 18.1481 19.6895C18.1481 19.3036 18.461 18.9907 18.8469 18.9907H24.3806C24.7665 18.9907 25.0793 19.3036 25.0793 19.6895C25.0793 20.0755 24.7665 20.3883 24.3806 20.3883ZM24.3806 18.5715H18.8469C18.461 18.5715 18.1481 18.2586 18.1481 17.8727C18.1481 17.4868 18.461 17.1739 18.8469 17.1739H24.3806C24.7665 17.1739 25.0793 17.4868 25.0793 17.8727C25.0793 18.2586 24.7665 18.5715 24.3806 18.5715ZM25.0793 15.9961C25.0793 16.382 24.7665 16.6949 24.3806 16.6949H18.8469C18.461 16.6949 18.1481 16.382 18.1481 15.9961V13.4936C18.1481 13.1077 18.461 12.7948 18.8469 12.7948H24.3806C24.7665 12.7948 25.0793 13.1077 25.0793 13.4936V15.9961Z" fill="#1FA5FF"/>
</svg>
