<svg width="120" height="120" viewBox="0 0 120 120" fill="none" xmlns="http://www.w3.org/2000/svg">
<g filter="url(#filter0_d_103_1346)">
<rect x="30" y="26" width="60" height="60" rx="30" fill="white"/>
<path d="M48.7288 41.04H54.5544V42.7766H48.7288C48.193 42.7766 47.7065 42.9983 47.3493 43.3493C46.9983 43.7065 46.7766 44.193 46.7766 44.7288V50.5544H45.04V44.7288C45.04 43.7127 45.4526 42.789 46.1239 42.1238C46.7951 41.4527 47.7188 41.04 48.7288 41.04ZM65.4793 41.04H71.3049C72.321 41.04 73.2447 41.4526 73.9099 42.1239C74.5812 42.7952 74.9937 43.7127 74.9937 44.7289V50.5545H73.2572V44.7289C73.2572 44.1931 73.0355 43.7066 72.6845 43.3494C72.3273 42.9984 71.8408 42.7767 71.305 42.7767H65.4794V41.04H65.4793ZM74.9999 61.4793V67.3049C74.9999 68.321 74.5873 69.2447 73.916 69.9099C73.2447 70.5812 72.3272 70.9937 71.311 70.9937H65.4854V69.2572H71.311C71.8468 69.2572 72.3333 69.0355 72.6905 68.6845C73.0415 68.3273 73.2632 67.8408 73.2632 67.305V61.4793H74.9999ZM54.5606 71H48.735C47.7189 71 46.7952 70.5874 46.13 69.9161C45.4587 69.2448 45.0462 68.3211 45.0462 67.3111V61.4855H46.7827V67.3111C46.7827 67.8469 47.0044 68.3334 47.3554 68.6906C47.7126 69.0416 48.1991 69.2633 48.7349 69.2633H54.5605L54.5606 71Z" fill="#1FA5FF"/>
<path d="M54.8499 58.6161H55.2132L57.3317 57.4644L57.6766 56.1157C57.1715 55.6045 56.6542 54.7424 56.1739 53.6832C56.137 53.6893 56.0939 53.6956 56.0568 53.6956C55.4965 53.6956 54.9423 53.0859 54.8191 52.3346C54.7205 51.7496 54.9177 51.2446 55.2748 51.0537C54.8006 48.6397 54.4865 44.9324 58.6433 44.0149C61.1374 43.4668 62.0304 45.3883 62.1351 45.6037C63.6439 44.7539 64.6045 46.0286 64.8509 46.6998C65.2944 47.913 65.1527 50.1731 64.9248 51.1707C65.1772 51.4109 65.3004 51.842 65.2143 52.3285C65.0911 53.0674 64.5553 53.671 64.0011 53.6894C63.5576 54.6687 62.9603 55.4999 62.3569 56.1097L62.7018 57.4584H62.7325L64.7894 58.6101H65.1835C67.8993 58.6101 70.1223 60.7531 70.1223 63.3519V67.1947H49.9048V63.3519C49.9048 60.7408 52.1279 58.6101 54.8437 58.6101L54.8499 58.6161Z" fill="#1FA5FF"/>
</g>
<defs>
<filter id="filter0_d_103_1346" x="0" y="0" width="120" height="120" filterUnits="userSpaceOnUse" color-interpolation-filters="sRGB">
<feFlood flood-opacity="0" result="BackgroundImageFix"/>
<feColorMatrix in="SourceAlpha" type="matrix" values="0 0 0 0 0 0 0 0 0 0 0 0 0 0 0 0 0 0 127 0" result="hardAlpha"/>
<feOffset dy="4"/>
<feGaussianBlur stdDeviation="15"/>
<feComposite in2="hardAlpha" operator="out"/>
<feColorMatrix type="matrix" values="0 0 0 0 0.121569 0 0 0 0 0.647059 0 0 0 0 1 0 0 0 0.1 0"/>
<feBlend mode="normal" in2="BackgroundImageFix" result="effect1_dropShadow_103_1346"/>
<feBlend mode="normal" in="SourceGraphic" in2="effect1_dropShadow_103_1346" result="shape"/>
</filter>
</defs>
</svg>
