<svg width="60" height="60" viewBox="0 0 60 60" fill="none" xmlns="http://www.w3.org/2000/svg">
<rect width="60" height="60" rx="30" fill="white"/>
<path d="M41.25 42.5H18.75C18.2375 42.5 17.8125 42.075 17.8125 41.5625C17.8125 41.05 18.2375 40.625 18.75 40.625H41.25C41.7625 40.625 42.1875 41.05 42.1875 41.5625C42.1875 42.075 41.7625 42.5 41.25 42.5Z" fill="#1FA5FF"/>
<path d="M38.775 19.3501C36.35 16.9251 33.975 16.8626 31.4875 19.3501L29.975 20.8626C29.85 20.9876 29.8 21.1876 29.85 21.3626C30.8 24.6751 33.45 27.3251 36.7625 28.2751C36.8125 28.2876 36.8625 28.3001 36.9125 28.3001C37.05 28.3001 37.175 28.2501 37.275 28.1501L38.775 26.6376C40.0125 25.4126 40.6125 24.2251 40.6125 23.0251C40.625 21.7876 40.025 20.5876 38.775 19.3501Z" fill="#1FA5FF"/>
<path d="M34.5125 29.4125C34.15 29.2375 33.8 29.0625 33.4625 28.8625C33.1875 28.7 32.925 28.525 32.6625 28.3375C32.45 28.2 32.2 28 31.9625 27.8C31.9375 27.7875 31.85 27.7125 31.75 27.6125C31.3375 27.2625 30.875 26.8125 30.4625 26.3125C30.425 26.2875 30.3625 26.2 30.275 26.0875C30.15 25.9375 29.9375 25.6875 29.75 25.4C29.6 25.2125 29.425 24.9375 29.2625 24.6625C29.0625 24.325 28.8875 23.9875 28.7125 23.6375C28.6577 23.52 28.6066 23.4038 28.5583 23.2891C28.417 22.9531 27.9813 22.8563 27.7235 23.114L20.425 30.4125C20.2625 30.575 20.1125 30.8875 20.075 31.1L19.4 35.8875C19.275 36.7375 19.5125 37.5375 20.0375 38.075C20.4875 38.5125 21.1125 38.75 21.7875 38.75C21.9375 38.75 22.0875 38.7375 22.2375 38.7125L27.0375 38.0375C27.2625 38 27.575 37.85 27.725 37.6875L35.0163 30.3962C35.2759 30.1366 35.1776 29.6924 34.8387 29.5513C34.7324 29.507 34.6241 29.4609 34.5125 29.4125Z" fill="#1FA5FF"/>
</svg>
