<svg width="50" height="50" viewBox="0 0 50 50" fill="none" xmlns="http://www.w3.org/2000/svg">
<rect width="50" height="50" rx="25" fill="#0C2650"/>
<path d="M15.8521 28.4578C17.6111 26.2217 20.9661 26.1465 22.8218 28.3065V19.8457H15.8521V28.4578ZM19.3369 22.3141C20.2173 22.3141 20.931 23.0278 20.931 23.9082C20.931 24.7886 20.2173 25.5022 19.3369 25.5022C18.4565 25.5022 17.7429 24.7885 17.7429 23.9082C17.743 23.0278 18.4567 22.3141 19.3369 22.3141Z" fill="#1FA5FF"/>
<path d="M37.0002 13.8242H12.9998C11.3457 13.8242 10 15.17 10 16.824V33.1767C10 34.8308 11.3457 36.1765 12.9998 36.1765H37.0002C38.6543 36.1765 40 34.8308 40 33.1767V16.824C40.0001 15.17 38.6543 13.8242 37.0002 13.8242ZM25 31.2441C25 31.8455 24.5124 32.3331 23.9109 32.3331H14.7632C14.1617 32.3331 13.6741 31.8455 13.6741 31.2441V18.7566C13.6741 18.1552 14.1617 17.6676 14.7632 17.6676H23.9109C24.5124 17.6676 25 18.1552 25 18.7566V31.2441ZM35.7229 32.3331H27.0991C26.4977 32.3331 26.0101 31.8455 26.0101 31.2441C26.0101 30.6427 26.4977 30.1551 27.0991 30.1551H35.7229C36.3243 30.1551 36.812 30.6427 36.812 31.2441C36.812 31.8456 36.3244 32.3331 35.7229 32.3331ZM35.7229 29.5016H27.0991C26.4977 29.5016 26.0101 29.014 26.0101 28.4126C26.0101 27.8112 26.4977 27.3236 27.0991 27.3236H35.7229C36.3243 27.3236 36.812 27.8112 36.812 28.4126C36.812 29.0141 36.3244 29.5016 35.7229 29.5016ZM35.7229 26.6702H27.0991C26.4977 26.6702 26.0101 26.1826 26.0101 25.5812C26.0101 24.9798 26.4977 24.4922 27.0991 24.4922H35.7229C36.3243 24.4922 36.812 24.9798 36.812 25.5812C36.812 26.1827 36.3244 26.6702 35.7229 26.6702ZM36.812 22.6567C36.812 23.2581 36.3243 23.7457 35.7229 23.7457H27.0991C26.4977 23.7457 26.0101 23.2581 26.0101 22.6567V18.7566C26.0101 18.1552 26.4977 17.6676 27.0991 17.6676H35.7229C36.3243 17.6676 36.812 18.1552 36.812 18.7566V22.6567Z" fill="#1FA5FF"/>
</svg>
