<svg width="192" height="192" viewBox="0 0 192 192" fill="none" xmlns="http://www.w3.org/2000/svg">
<g filter="url(#filter0_d_629_1941)">
<rect x="30" y="26" width="132" height="132" rx="66" fill="#000F28"/>
<circle cx="96" cy="92" r="58" fill="#0C2650"/>
<path d="M121.375 86.5623V75.6875C121.375 73.6864 119.751 72.0625 117.75 72.0625H70.625C68.6239 72.0623 67 73.6864 67 75.6875V106.5C67 108.501 68.6239 110.125 70.625 110.125H117.75C119.751 110.125 121.375 108.501 121.375 106.5V95.625C123.376 95.625 125 94.0011 125 92.0001V90.1875C125.001 88.1865 123.378 86.5623 121.375 86.5623Z" fill="#4BB7FF"/>
<path d="M76.0625 63H112.313C114.314 63 115.938 64.6239 115.938 66.6267V92.0001C115.938 94.0029 114.314 95.625 112.313 95.625H76.0625C74.0614 95.625 72.4375 94.0011 72.4375 92.0001V66.6267C72.4375 64.6239 74.0614 63 76.0625 63Z" fill="#CCEAFF"/>
<path d="M83.7912 72.1005C83.7912 72.1005 85.9899 72.0625 88.067 72.0625C90.146 72.0625 90.5139 75.5571 90.5139 75.5571C90.5139 75.5571 90.5519 79.2128 90.5519 80.1138C90.5519 81.0165 88.763 82.8054 88.763 82.8054V84.6414L94.2023 86.8164V90.1877H77.8643L77.8823 86.7458L83.327 84.6597V82.8616C83.327 82.8616 81.5182 81.2431 81.5182 80.114V75.5569C81.5182 75.5569 81.6741 72.1005 83.7912 72.1005Z" fill="#4BB7FF"/>
<path d="M108.688 79.3125H96V82.9375H108.688V79.3125Z" fill="#4BB7FF"/>
<path d="M108.688 72.0625H96V75.6892H108.688V72.0625Z" fill="#4BB7FF"/>
<path d="M112.313 63H76.0625C74.0614 63 72.4375 64.6239 72.4375 66.6267V68.4375H115.938V66.6267C115.938 64.6239 114.315 63 112.313 63Z" fill="#4BB7FF"/>
<path d="M70.625 77.5017L110.5 82.9375C112.501 82.9375 114.125 84.5614 114.125 86.5625V117.375C114.125 119.376 112.501 121 110.5 121L70.625 115.563C68.6239 115.563 67 113.939 67 111.938V73.875C67 75.8905 68.6239 77.5017 70.625 77.5017Z" fill="#1FA5FF"/>
<path d="M105.969 95.625C107.469 95.625 108.687 96.843 108.687 98.3437C108.687 99.8444 107.469 101.062 105.969 101.062C104.468 101.062 103.25 99.8461 103.25 98.3437C103.25 96.8412 104.468 95.625 105.969 95.625Z" fill="#E4E7E7"/>
<path d="M70.625 115.563L110.5 121C112.501 121 114.125 119.376 114.125 117.375V110.125L70.625 104.687C68.6239 104.687 67 103.076 67 101.062V111.938C67 113.94 68.6239 115.563 70.625 115.563Z" fill="#4BB7FF"/>
<path d="M115.937 93.8125C115.937 93.8125 125 91.922 125 90.1875V95.625C125 95.625 123.376 99.25 121.375 99.25L115.937 101.063C113.935 101.063 112.312 99.4387 112.312 97.4376C112.312 95.4364 113.937 93.8125 115.937 93.8125Z" fill="#1FA5FF"/>
<rect x="105" y="107" width="26" height="26" rx="13" fill="#04D400"/>
<g clip-path="url(#clip0_629_1941)">
<path d="M124.59 117.298L117.204 124.683C116.657 125.23 115.77 125.23 115.223 124.683L111.41 120.87C110.863 120.323 110.863 119.436 111.41 118.889C111.958 118.342 112.845 118.342 113.392 118.889L116.214 121.711L122.608 115.317C123.156 114.769 124.043 114.77 124.59 115.317C125.137 115.864 125.137 116.751 124.59 117.298Z" fill="white"/>
</g>
<rect x="105" y="107" width="26" height="26" rx="13" stroke="#0C2650" stroke-width="2"/>
</g>
<defs>
<filter id="filter0_d_629_1941" x="0" y="0" width="192" height="192" filterUnits="userSpaceOnUse" color-interpolation-filters="sRGB">
<feFlood flood-opacity="0" result="BackgroundImageFix"/>
<feColorMatrix in="SourceAlpha" type="matrix" values="0 0 0 0 0 0 0 0 0 0 0 0 0 0 0 0 0 0 127 0" result="hardAlpha"/>
<feOffset dy="4"/>
<feGaussianBlur stdDeviation="15"/>
<feComposite in2="hardAlpha" operator="out"/>
<feColorMatrix type="matrix" values="0 0 0 0 0.121569 0 0 0 0 0.647059 0 0 0 0 1 0 0 0 0.1 0"/>
<feBlend mode="normal" in2="BackgroundImageFix" result="effect1_dropShadow_629_1941"/>
<feBlend mode="normal" in="SourceGraphic" in2="effect1_dropShadow_629_1941" result="shape"/>
</filter>
<clipPath id="clip0_629_1941">
<rect width="14" height="14" fill="white" transform="translate(111 113)"/>
</clipPath>
</defs>
</svg>
