<svg width="192" height="192" viewBox="0 0 192 192" fill="none" xmlns="http://www.w3.org/2000/svg">
<g filter="url(#filter0_d_103_1136)">
<rect x="30" y="26" width="132" height="132" rx="66" fill="white"/>
<circle cx="96" cy="92" r="58" fill="#E8F5FF"/>
<path d="M121.375 86.5623V75.6875C121.375 73.6864 119.751 72.0625 117.75 72.0625H70.625C68.6239 72.0623 67 73.6864 67 75.6875V106.5C67 108.501 68.6239 110.125 70.625 110.125H117.75C119.751 110.125 121.375 108.501 121.375 106.5V95.625C123.376 95.625 125 94.0011 125 92.0001V90.1875C125.001 88.1865 123.378 86.5623 121.375 86.5623Z" fill="#4BB7FF"/>
<path d="M76.0625 62.9998H112.313C114.314 62.9998 115.938 64.6237 115.938 66.6265V91.9998C115.938 94.0027 114.314 95.6248 112.313 95.6248H76.0625C74.0614 95.6248 72.4375 94.0009 72.4375 91.9998V66.6265C72.4375 64.6237 74.0614 62.9998 76.0625 62.9998Z" fill="#CCEAFF"/>
<path d="M83.7912 72.1005C83.7912 72.1005 85.9899 72.0625 88.067 72.0625C90.146 72.0625 90.5139 75.5571 90.5139 75.5571C90.5139 75.5571 90.5519 79.2128 90.5519 80.1138C90.5519 81.0165 88.763 82.8054 88.763 82.8054V84.6414L94.2023 86.8164V90.1877H77.8643L77.8823 86.7458L83.327 84.6597V82.8616C83.327 82.8616 81.5182 81.2431 81.5182 80.114V75.5569C81.5182 75.5569 81.6741 72.1005 83.7912 72.1005Z" fill="#4BB7FF"/>
<path d="M108.688 79.3125H96V82.9375H108.688V79.3125Z" fill="#4BB7FF"/>
<path d="M108.688 72.0623H96V75.689H108.688V72.0623Z" fill="#4BB7FF"/>
<path d="M112.313 62.9998H76.0625C74.0614 62.9998 72.4375 64.6237 72.4375 66.6265V68.4373H115.938V66.6265C115.938 64.6237 114.315 62.9998 112.313 62.9998Z" fill="#4BB7FF"/>
<path d="M70.625 77.5015L110.5 82.9373C112.501 82.9373 114.125 84.5612 114.125 86.5622V117.375C114.125 119.376 112.501 121 110.5 121L70.625 115.562C68.6239 115.562 67 113.938 67 111.937V73.8748C67 75.8903 68.6239 77.5015 70.625 77.5015Z" fill="#1FA5FF"/>
<path d="M105.969 95.625C107.469 95.625 108.687 96.843 108.687 98.3437C108.687 99.8444 107.469 101.062 105.969 101.062C104.468 101.062 103.25 99.8461 103.25 98.3437C103.25 96.8412 104.468 95.625 105.969 95.625Z" fill="#E4E7E7"/>
<path d="M70.625 115.563L110.5 121C112.501 121 114.125 119.376 114.125 117.375V110.125L70.625 104.687C68.6239 104.687 67 103.076 67 101.062V111.938C67 113.94 68.6239 115.563 70.625 115.563Z" fill="#4BB7FF"/>
<path d="M115.937 93.8125C115.937 93.8125 125 91.922 125 90.1875V95.625C125 95.625 123.376 99.25 121.375 99.25L115.937 101.063C113.935 101.063 112.312 99.4387 112.312 97.4376C112.312 95.4364 113.937 93.8125 115.937 93.8125Z" fill="#1FA5FF"/>
</g>
<defs>
<filter id="filter0_d_103_1136" x="0" y="0" width="192" height="192" filterUnits="userSpaceOnUse" color-interpolation-filters="sRGB">
<feFlood flood-opacity="0" result="BackgroundImageFix"/>
<feColorMatrix in="SourceAlpha" type="matrix" values="0 0 0 0 0 0 0 0 0 0 0 0 0 0 0 0 0 0 127 0" result="hardAlpha"/>
<feOffset dy="4"/>
<feGaussianBlur stdDeviation="15"/>
<feComposite in2="hardAlpha" operator="out"/>
<feColorMatrix type="matrix" values="0 0 0 0 0.121569 0 0 0 0 0.647059 0 0 0 0 1 0 0 0 0.1 0"/>
<feBlend mode="normal" in2="BackgroundImageFix" result="effect1_dropShadow_103_1136"/>
<feBlend mode="normal" in="SourceGraphic" in2="effect1_dropShadow_103_1136" result="shape"/>
</filter>
</defs>
</svg>
