<svg width="30" height="30" viewBox="0 0 30 30" fill="none" xmlns="http://www.w3.org/2000/svg">
<rect width="30" height="30" rx="15" fill="#0C2650"/>
<path d="M20.1933 9.81289C18.2199 7.84622 15.0199 7.84622 13.0599 9.81289C11.6799 11.1796 11.2666 13.1462 11.7999 14.8796L8.6666 18.0129C8.4466 18.2396 8.29327 18.6862 8.33993 19.0062L8.53993 20.4596C8.61327 20.9396 9.05993 21.3929 9.53993 21.4596L10.9933 21.6596C11.3133 21.7062 11.7599 21.5596 11.9866 21.3262L12.5333 20.7796C12.6666 20.6529 12.6666 20.4396 12.5333 20.3062L11.2399 19.0129C11.0466 18.8196 11.0466 18.4996 11.2399 18.3062C11.4333 18.1129 11.7533 18.1129 11.9466 18.3062L13.2466 19.6062C13.3733 19.7329 13.5866 19.7329 13.7133 19.6062L15.1266 18.1996C16.8533 18.7396 18.8199 18.3196 20.1933 16.9529C22.1599 14.9862 22.1599 11.7796 20.1933 9.81289ZM16.6666 14.9996C15.7466 14.9996 14.9999 14.2529 14.9999 13.3329C14.9999 12.4129 15.7466 11.6662 16.6666 11.6662C17.5866 11.6662 18.3333 12.4129 18.3333 13.3329C18.3333 14.2529 17.5866 14.9996 16.6666 14.9996Z" fill="#1FA5FF"/>
</svg>
