<svg width="30" height="30" viewBox="0 0 30 30" fill="none" xmlns="http://www.w3.org/2000/svg">
<rect width="30" height="30" rx="15" fill="white"/>
<path d="M20.1933 9.81338C18.2199 7.84671 15.0199 7.84671 13.0599 9.81338C11.6799 11.18 11.2666 13.1467 11.7999 14.88L8.6666 18.0134C8.4466 18.24 8.29327 18.6867 8.33993 19.0067L8.53993 20.46C8.61327 20.94 9.05993 21.3934 9.53993 21.46L10.9933 21.66C11.3133 21.7067 11.7599 21.56 11.9866 21.3267L12.5333 20.78C12.6666 20.6534 12.6666 20.44 12.5333 20.3067L11.2399 19.0134C11.0466 18.82 11.0466 18.5 11.2399 18.3067C11.4333 18.1134 11.7533 18.1134 11.9466 18.3067L13.2466 19.6067C13.3733 19.7334 13.5866 19.7334 13.7133 19.6067L15.1266 18.2C16.8533 18.74 18.8199 18.32 20.1933 16.9534C22.1599 14.9867 22.1599 11.78 20.1933 9.81338ZM16.6666 15C15.7466 15 14.9999 14.2534 14.9999 13.3334C14.9999 12.4134 15.7466 11.6667 16.6666 11.6667C17.5866 11.6667 18.3333 12.4134 18.3333 13.3334C18.3333 14.2534 17.5866 15 16.6666 15Z" fill="#1FA5FF"/>
</svg>
