<svg width="83" height="61" viewBox="0 0 83 61" fill="none" xmlns="http://www.w3.org/2000/svg">
<path d="M64.8533 60.6965H51.4383H47.8259H47.0458V42.7024H52.9307C54.4232 42.7024 55.3051 41.0065 54.4232 39.7854L42.9755 23.9452C42.2462 22.9276 40.7368 22.9276 40.0076 23.9452L28.5599 39.7854C27.678 41.0065 28.5429 42.7024 30.0523 42.7024H35.9373V60.6965H35.1571H31.5447H15.9928C7.08909 60.2047 0 51.8776 0 42.8551C0 36.6309 3.37495 31.2039 8.37801 28.2699C7.92011 27.0318 7.68267 25.709 7.68267 24.3183C7.68267 17.9585 12.8214 12.8197 19.1812 12.8197C20.555 12.8197 21.8778 13.0572 23.1159 13.5151C26.7961 5.71368 34.7331 0.303589 43.9591 0.303589C55.8987 0.320548 65.7352 9.46174 66.8545 21.1129C76.0296 22.6902 83 31.1869 83 40.803C83 51.0805 74.9951 59.9842 64.8533 60.6965Z" fill="#1FA5FF" fill-opacity="0.4"/>
</svg>
