<svg width="36" height="36" viewBox="0 0 36 36" fill="none" xmlns="http://www.w3.org/2000/svg">
<rect width="36" height="36" rx="18" fill="#0C2650"/>
<path d="M15 8C12.38 8 10.25 10.13 10.25 12.75C10.25 15.32 12.26 17.4 14.88 17.49C14.96 17.48 15.04 17.48 15.1 17.49C15.12 17.49 15.13 17.49 15.15 17.49C15.16 17.49 15.16 17.49 15.17 17.49C17.73 17.4 19.74 15.32 19.75 12.75C19.75 10.13 17.62 8 15 8Z" fill="#1FA5FF"/>
<path d="M20.08 20.1499C17.29 18.2899 12.74 18.2899 9.92996 20.1499C8.65996 20.9999 7.95996 22.1499 7.95996 23.3799C7.95996 24.6099 8.65996 25.7499 9.91996 26.5899C11.32 27.5299 13.16 27.9999 15 27.9999C16.84 27.9999 18.68 27.5299 20.08 26.5899C21.34 25.7399 22.04 24.5999 22.04 23.3599C22.03 22.1299 21.34 20.9899 20.08 20.1499Z" fill="#1FA5FF"/>
<path d="M25.9899 13.3401C26.1499 15.2801 24.7699 16.9801 22.8599 17.2101C22.8499 17.2101 22.8499 17.2101 22.8399 17.2101H22.8099C22.7499 17.2101 22.6899 17.2101 22.6399 17.2301C21.6699 17.2801 20.7799 16.9701 20.1099 16.4001C21.1399 15.4801 21.7299 14.1001 21.6099 12.6001C21.5399 11.7901 21.2599 11.0501 20.8399 10.4201C21.2199 10.2301 21.6599 10.1101 22.1099 10.0701C24.0699 9.9001 25.8199 11.3601 25.9899 13.3401Z" fill="#1FA5FF"/>
<path d="M27.9902 22.5904C27.9102 23.5604 27.2902 24.4004 26.2502 24.9704C25.2502 25.5204 23.9902 25.7804 22.7402 25.7504C23.4602 25.1004 23.8802 24.2904 23.9602 23.4304C24.0602 22.1904 23.4702 21.0004 22.2902 20.0504C21.6202 19.5204 20.8402 19.1004 19.9902 18.7904C22.2002 18.1504 24.9802 18.5804 26.6902 19.9604C27.6102 20.7004 28.0802 21.6304 27.9902 22.5904Z" fill="#1FA5FF"/>
</svg>
