<svg width="36" height="36" viewBox="0 0 36 36" fill="none" xmlns="http://www.w3.org/2000/svg">
<rect width="36" height="36" rx="18" fill="#0C2650"/>
<path d="M14.75 9.5V8C14.75 7.59 14.41 7.25 14 7.25C13.59 7.25 13.25 7.59 13.25 8V9.56C13.5 9.53 13.73 9.5 14 9.5H14.75Z" fill="#1FA5FF"/>
<path d="M22.75 9.56V8C22.75 7.59 22.41 7.25 22 7.25C21.59 7.25 21.25 7.59 21.25 8V9.5H22C22.27 9.5 22.5 9.53 22.75 9.56Z" fill="#1FA5FF"/>
<path d="M22.75 9.56V11C22.75 11.41 22.41 11.75 22 11.75C21.59 11.75 21.25 11.41 21.25 11V9.5H14.75V11C14.75 11.41 14.41 11.75 14 11.75C13.59 11.75 13.25 11.41 13.25 11V9.56C10.3 9.83 9 11.73 9 14.5V23C9 26 10.5 28 14 28H22C25.5 28 27 26 27 23V14.5C27 11.73 25.7 9.83 22.75 9.56ZM18 22.75H14C13.59 22.75 13.25 22.41 13.25 22C13.25 21.59 13.59 21.25 14 21.25H18C18.41 21.25 18.75 21.59 18.75 22C18.75 22.41 18.41 22.75 18 22.75ZM22 17.75H14C13.59 17.75 13.25 17.41 13.25 17C13.25 16.59 13.59 16.25 14 16.25H22C22.41 16.25 22.75 16.59 22.75 17C22.75 17.41 22.41 17.75 22 17.75Z" fill="#1FA5FF"/>
</svg>
