<svg width="30" height="30" viewBox="0 0 30 30" fill="none" xmlns="http://www.w3.org/2000/svg">
<rect width="30" height="30" rx="15" fill="white"/>
<path d="M21.6136 18.1667C21.3936 19.9401 19.9402 21.3934 18.1669 21.6134C17.0936 21.7467 16.0936 21.4534 15.3136 20.8801C14.8669 20.5534 14.9736 19.8601 15.5069 19.7001C17.5136 19.0934 19.0936 17.5067 19.7069 15.5001C19.8669 14.9734 20.5602 14.8667 20.8869 15.3067C21.4536 16.0934 21.7469 17.0934 21.6136 18.1667Z" fill="#1FA5FF"/>
<path d="M13.6602 8.33325C10.7202 8.33325 8.3335 10.7199 8.3335 13.6599C8.3335 16.5999 10.7202 18.9866 13.6602 18.9866C16.6002 18.9866 18.9868 16.5999 18.9868 13.6599C18.9802 10.7199 16.6002 8.33325 13.6602 8.33325ZM13.0335 12.9133L14.6402 13.4733C15.2202 13.6799 15.5002 14.0866 15.5002 14.7133C15.5002 15.4333 14.9268 16.0266 14.2268 16.0266H14.1668V16.0599C14.1668 16.3333 13.9402 16.5599 13.6668 16.5599C13.3935 16.5599 13.1668 16.3333 13.1668 16.0599V16.0199C12.4268 15.9866 11.8335 15.3666 11.8335 14.5933C11.8335 14.3199 12.0602 14.0933 12.3335 14.0933C12.6068 14.0933 12.8335 14.3199 12.8335 14.5933C12.8335 14.8333 13.0068 15.0266 13.2202 15.0266H14.2202C14.3735 15.0266 14.4935 14.8866 14.4935 14.7133C14.4935 14.4799 14.4535 14.4666 14.3002 14.4133L12.6935 13.8533C12.1202 13.6533 11.8335 13.2466 11.8335 12.6133C11.8335 11.8933 12.4068 11.2999 13.1068 11.2999H13.1668V11.2733C13.1668 10.9999 13.3935 10.7733 13.6668 10.7733C13.9402 10.7733 14.1668 10.9999 14.1668 11.2733V11.3133C14.9068 11.3466 15.5002 11.9666 15.5002 12.7399C15.5002 13.0133 15.2735 13.2399 15.0002 13.2399C14.7268 13.2399 14.5002 13.0133 14.5002 12.7399C14.5002 12.4999 14.3268 12.3066 14.1135 12.3066H13.1135C12.9602 12.3066 12.8402 12.4466 12.8402 12.6199C12.8335 12.8466 12.8735 12.8599 13.0335 12.9133Z" fill="#1FA5FF"/>
</svg>
