<svg width="30" height="30" viewBox="0 0 30 30" fill="none" xmlns="http://www.w3.org/2000/svg">
<rect width="30" height="30" rx="15" fill="white"/>
<path d="M18.333 9.33325H11.6663C9.66634 9.33325 8.33301 10.3333 8.33301 12.6666V17.3333C8.33301 19.6666 9.66634 20.6666 11.6663 20.6666H18.333C20.333 20.6666 21.6663 19.6666 21.6663 17.3333V12.6666C21.6663 10.3333 20.333 9.33325 18.333 9.33325ZM12.333 18.8333H10.333C10.0597 18.8333 9.83301 18.6066 9.83301 18.3333C9.83301 18.0599 10.0597 17.8333 10.333 17.8333H12.333C12.6063 17.8333 12.833 18.0599 12.833 18.3333C12.833 18.6066 12.6063 18.8333 12.333 18.8333ZM14.9997 16.9999C13.893 16.9999 12.9997 16.1066 12.9997 14.9999C12.9997 13.8933 13.893 12.9999 14.9997 12.9999C16.1063 12.9999 16.9997 13.8933 16.9997 14.9999C16.9997 16.1066 16.1063 16.9999 14.9997 16.9999ZM19.6663 12.1666H17.6663C17.393 12.1666 17.1663 11.9399 17.1663 11.6666C17.1663 11.3933 17.393 11.1666 17.6663 11.1666H19.6663C19.9397 11.1666 20.1663 11.3933 20.1663 11.6666C20.1663 11.9399 19.9397 12.1666 19.6663 12.1666Z" fill="#1FA5FF"/>
</svg>
