<svg width="36" height="36" viewBox="0 0 36 36" fill="none" xmlns="http://www.w3.org/2000/svg">
<rect width="36" height="36" rx="18" fill="#EFF6FF"/>
<path d="M18.75 20.5201H18.98C19.31 20.5201 19.59 20.2201 19.59 19.8501C19.59 19.3801 19.48 19.3201 19.16 19.2101L18.75 19.0701V20.5201Z" fill="#1FA5FF"/>
<path d="M18 8C12.48 8 8 12.48 8 18C8 23.52 12.48 28 18 28C23.52 28 28 23.52 28 18C28 12.48 23.52 8 18 8ZM13.58 22.42C13.87 22.71 13.87 23.19 13.58 23.48C13.43 23.63 13.24 23.7 13.05 23.7C12.86 23.7 12.67 23.63 12.52 23.48C11.06 22.02 10.25 20.07 10.25 18C10.25 15.93 11.06 13.98 12.52 12.52C12.81 12.23 13.29 12.23 13.58 12.52C13.87 12.81 13.87 13.29 13.58 13.58C12.4 14.76 11.75 16.33 11.75 18C11.75 19.67 12.4 21.24 13.58 22.42ZM19.65 17.78C20.61 18.12 21.08 18.79 21.08 19.84C21.08 21.04 20.14 22.01 18.97 22.01H18.74V22.19C18.74 22.6 18.4 22.94 17.99 22.94C17.58 22.94 17.24 22.6 17.24 22.19V22.01H17.21C15.94 22.01 14.9 20.94 14.9 19.63C14.9 19.22 15.24 18.88 15.65 18.88C16.06 18.88 16.4 19.22 16.4 19.63C16.4 20.12 16.76 20.51 17.21 20.51H17.24V18.53L16.34 18.21C15.38 17.87 14.91 17.2 14.91 16.15C14.91 14.95 15.85 13.98 17.02 13.98H17.25V13.8C17.25 13.39 17.59 13.05 18 13.05C18.41 13.05 18.75 13.39 18.75 13.8V13.98H18.78C20.05 13.98 21.09 15.05 21.09 16.36C21.09 16.77 20.75 17.11 20.34 17.11C19.93 17.11 19.59 16.77 19.59 16.36C19.59 15.87 19.23 15.48 18.78 15.48H18.75V17.46L19.65 17.78ZM23.48 23.48C23.33 23.63 23.14 23.7 22.95 23.7C22.76 23.7 22.57 23.63 22.42 23.48C22.13 23.19 22.13 22.71 22.42 22.42C23.6 21.24 24.25 19.67 24.25 18C24.25 16.33 23.6 14.76 22.42 13.58C22.13 13.29 22.13 12.81 22.42 12.52C22.71 12.23 23.19 12.23 23.48 12.52C24.94 13.98 25.75 15.93 25.75 18C25.75 20.07 24.94 22.02 23.48 23.48Z" fill="#1FA5FF"/>
<path d="M16.4199 16.16C16.4199 16.63 16.5299 16.69 16.8499 16.8L17.2599 16.94V15.48H17.0299C16.6899 15.48 16.4199 15.79 16.4199 16.16Z" fill="#1FA5FF"/>
</svg>
