<svg width="36" height="36" viewBox="0 0 36 36" fill="none" xmlns="http://www.w3.org/2000/svg">
<rect width="36" height="36" rx="18" fill="#0C2650"/>
<path d="M16.25 16.03C16.25 16.57 16.4 16.65 16.74 16.77L17.25 16.95V15.25H16.95C16.57 15.25 16.25 15.6 16.25 16.03Z" fill="#1FA5FF"/>
<path d="M18.75 20.7498H19.05C19.44 20.7498 19.75 20.3998 19.75 19.9698C19.75 19.4298 19.6 19.3498 19.26 19.2298L18.75 19.0498V20.7498Z" fill="#1FA5FF"/>
<path d="M25.58 11.48L23.53 13.53C23.38 13.68 23.19 13.75 23 13.75C22.81 13.75 22.62 13.68 22.47 13.53C22.18 13.24 22.18 12.76 22.47 12.47L24.52 10.42C22.76 8.92 20.49 8 18 8C12.48 8 8 12.48 8 18C8 23.52 12.48 28 18 28C23.52 28 28 23.52 28 18C28 15.51 27.08 13.24 25.58 11.48ZM19.75 17.82C20.39 18.05 21.25 18.51 21.25 19.98C21.25 21.23 20.26 22.26 19.05 22.26H18.75V22.51C18.75 22.92 18.41 23.26 18 23.26C17.59 23.26 17.25 22.92 17.25 22.51V22.26H17.17C15.84 22.26 14.75 21.14 14.75 19.76C14.75 19.34 15.09 19 15.5 19C15.91 19 16.25 19.34 16.25 19.75C16.25 20.3 16.66 20.75 17.17 20.75H17.25V18.53L16.25 18.18C15.61 17.95 14.75 17.49 14.75 16.02C14.75 14.77 15.74 13.74 16.95 13.74H17.25V13.5C17.25 13.09 17.59 12.75 18 12.75C18.41 12.75 18.75 13.09 18.75 13.5V13.75H18.83C20.16 13.75 21.25 14.87 21.25 16.25C21.25 16.66 20.91 17 20.5 17C20.09 17 19.75 16.66 19.75 16.25C19.75 15.7 19.34 15.25 18.83 15.25H18.75V17.47L19.75 17.82Z" fill="#1FA5FF"/>
<path d="M28.69 7.71C28.61 7.53 28.47 7.38 28.28 7.3C28.19 7.27 28.1 7.25 28 7.25H24C23.59 7.25 23.25 7.59 23.25 8C23.25 8.41 23.59 8.75 24 8.75H26.19L24.52 10.42C24.9 10.75 25.25 11.1 25.58 11.48L27.25 9.81V12C27.25 12.41 27.59 12.75 28 12.75C28.41 12.75 28.75 12.41 28.75 12V8C28.75 7.9 28.73 7.81 28.69 7.71Z" fill="#1FA5FF"/>
</svg>
