<svg width="37" height="36" viewBox="0 0 37 36" fill="none" xmlns="http://www.w3.org/2000/svg">
<rect x="0.5" width="36" height="36" rx="18" fill="#0C2650"/>
<path d="M23.9839 27.41L23.6486 28.7808C22.6426 29.1779 21.8389 29.4801 21.2405 29.6879C20.6415 29.8963 19.9454 30 19.1524 30C17.9345 30 16.9872 29.7017 16.3116 29.1091C15.6359 28.5141 15.298 27.7602 15.298 26.8456C15.298 26.4915 15.3225 26.1274 15.3735 25.7563C15.4249 25.3849 15.5067 24.9665 15.6185 24.4989L16.8758 20.0489C16.9876 19.6228 17.0827 19.2191 17.1588 18.8373C17.2361 18.4578 17.2733 18.1087 17.2733 17.7945C17.2733 17.2262 17.1556 16.8287 16.9214 16.6052C16.6871 16.3824 16.2402 16.2692 15.5766 16.2692C15.2516 16.2692 14.9175 16.3213 14.577 16.4219C14.235 16.523 13.9427 16.6207 13.6973 16.7115L14.0335 15.3396C14.8571 15.0042 15.6443 14.7171 16.3974 14.4787C17.1505 14.2398 17.862 14.1202 18.535 14.1202C19.7445 14.1202 20.6778 14.4125 21.3332 14.9971C21.9887 15.5822 22.3162 16.3406 22.3162 17.2752C22.3162 17.4686 22.2947 17.8093 22.2485 18.2963C22.2033 18.7844 22.1192 19.2315 21.9966 19.6383L20.7447 24.0704C20.6421 24.4264 20.5499 24.8333 20.4696 25.2913C20.3868 25.7462 20.3472 26.0938 20.3472 26.327C20.3472 26.9155 20.4784 27.3173 20.7415 27.5309C21.0065 27.7445 21.463 27.8507 22.1113 27.8507C22.4156 27.8507 22.7619 27.7967 23.1467 27.6907C23.5305 27.5847 23.8103 27.4915 23.9839 27.41ZM24.3014 8.80273C24.3014 9.57493 24.0104 10.2344 23.4255 10.7767C22.8422 11.3209 22.1392 11.5932 21.3169 11.5932C20.492 11.5932 19.7873 11.3209 19.1973 10.7767C18.6084 10.2342 18.3133 9.57493 18.3133 8.80273C18.3133 8.03203 18.6084 7.37147 19.1973 6.82232C19.7863 6.27403 20.4922 6 21.3169 6C22.139 6 22.8422 6.27468 23.4255 6.82232C24.0108 7.37147 24.3014 8.03225 24.3014 8.80273Z" fill="#1FA5FF"/>
</svg>
