<svg width="68" height="68" viewBox="0 0 68 68" fill="none" xmlns="http://www.w3.org/2000/svg">
<rect width="68" height="68" rx="34" fill="#1FA5FF"/>
<path d="M41.8926 48.8992L41.3617 51.0696C39.7688 51.6983 38.4965 52.1768 37.549 52.5058C36.6005 52.8358 35.4984 53 34.2427 53C32.3144 53 30.8145 52.5276 29.7448 51.5893C28.675 50.6473 28.14 49.4536 28.14 48.0055C28.14 47.4449 28.1788 46.8683 28.2595 46.2809C28.3409 45.6927 28.4704 45.0303 28.6475 44.2899L30.6381 37.2441C30.8152 36.5694 30.9657 35.9302 31.0863 35.3257C31.2086 34.7249 31.2675 34.1722 31.2675 33.6746C31.2675 32.7748 31.0812 32.1454 30.7103 31.7916C30.3394 31.4387 29.6317 31.2596 28.581 31.2596C28.0664 31.2596 27.5375 31.342 26.9984 31.5014C26.4569 31.6615 25.9941 31.8161 25.6055 31.9598L26.1378 29.7876C27.4418 29.2567 28.6883 28.802 29.8807 28.4247C31.073 28.0463 32.1996 27.8569 33.2653 27.8569C35.1803 27.8569 36.6581 28.3198 37.6958 29.2454C38.7335 30.1718 39.2522 31.3727 39.2522 32.8524C39.2522 33.1586 39.2181 33.6981 39.1449 34.4691C39.0734 35.2419 38.9402 35.9499 38.7461 36.594L36.764 43.6115C36.6015 44.1751 36.4554 44.8195 36.3284 45.5445C36.1973 46.2648 36.1346 46.8152 36.1346 47.1844C36.1346 48.1162 36.3423 48.7524 36.7589 49.0906C37.1784 49.4288 37.9011 49.597 38.9276 49.597C39.4095 49.597 39.9579 49.5115 40.5671 49.3436C41.1747 49.1757 41.6178 49.0282 41.8926 48.8992ZM42.3953 19.4377C42.3953 20.6603 41.9345 21.7045 41.0085 22.5631C40.0849 23.4247 38.9719 23.8559 37.6699 23.8559C36.3638 23.8559 35.2481 23.4247 34.3139 22.5631C33.3814 21.7042 32.9141 20.6603 32.9141 19.4377C32.9141 18.2174 33.3814 17.1715 34.3139 16.302C35.2464 15.4339 36.3641 15 37.6699 15C38.9716 15 40.0849 15.4349 41.0085 16.302C41.9352 17.1715 42.3953 18.2177 42.3953 19.4377Z" fill="white"/>
</svg>
