<svg width="28" height="28" viewBox="0 0 28 28" fill="none" xmlns="http://www.w3.org/2000/svg">
<path fill-rule="evenodd" clip-rule="evenodd" d="M14 0C21.7268 0 28 6.2732 28 14C28 21.7268 21.7268 28 14 28C6.2732 28 0 21.7268 0 14C0 6.2732 6.2732 0 14 0ZM22.1724 21.3784V21.1028L20.8934 19.847C20.7804 19.7609 20.7244 19.6194 20.7478 19.4794V10.2526C20.7244 10.1125 20.7804 9.97106 20.8934 9.88498L22.2031 8.62925V8.35357H17.6689L14.4366 16.4166L10.7601 8.35357H6.00365V8.62925L7.53555 10.4746C7.686 10.6101 7.76273 10.8093 7.74233 11.0107V18.262C7.7869 18.5235 7.70448 18.7907 7.5203 18.9817L5.79688 21.0721V21.3477H10.6835V21.0721L8.96016 18.9817C8.77455 18.7911 8.687 18.5256 8.72271 18.262V11.9908L13.012 21.3477H13.5098L17.194 11.9908V19.4488C17.194 19.6479 17.194 19.6862 17.0637 19.8163L15.7387 21.1028V21.3784H22.1724Z" fill="white"/>
</svg>
