<svg width="28" height="28" viewBox="0 0 28 28" fill="none" xmlns="http://www.w3.org/2000/svg">
<path fill-rule="evenodd" clip-rule="evenodd" d="M14 28C21.732 28 28 21.732 28 14C28 6.26801 21.732 0 14 0C6.26801 0 0 6.26801 0 14C0 21.732 6.26801 28 14 28Z" fill="white"/>
<path fill-rule="evenodd" clip-rule="evenodd" d="M19.1571 8.6039C18.5929 7.96247 17.789 7.5538 16.8993 7.53899C15.1911 7.51055 13.806 8.95401 13.806 10.7629C13.806 11.0196 13.8334 11.27 13.8862 11.5103C11.3154 11.3435 9.03615 10.0049 7.51059 7.98698C7.24433 8.47051 7.09176 9.03566 7.09176 9.64105C7.09176 10.7871 7.63784 11.8042 8.46783 12.4048C7.96079 12.3824 7.48383 12.2289 7.0668 11.9771C7.0665 11.9909 7.0665 12.0046 7.0665 12.0186C7.0665 13.6191 8.13274 14.9618 9.54779 15.2746C9.28824 15.3481 9.01497 15.3866 8.73288 15.3847C8.53356 15.3834 8.33975 15.3613 8.15091 15.3216C8.54449 16.6342 9.6868 17.5919 11.0404 17.6236C9.98178 18.5024 8.64807 19.0257 7.1988 19.0227C6.94913 19.0222 6.70292 19.0061 6.46094 18.9751C7.82985 19.9143 9.45574 20.4612 11.2026 20.4617C16.8921 20.4631 20.0034 15.5119 20.0034 11.2173C20.0034 11.0764 20.0003 10.9362 19.9944 10.7968C20.5988 10.3464 21.1232 9.78182 21.5379 9.13708C20.9832 9.38712 20.387 9.55319 19.7613 9.62284C20.3999 9.22983 20.8905 8.60082 21.1214 7.84653C20.5236 8.20901 19.8617 8.46895 19.1571 8.6039Z" fill="#1FA5FF"/>
</svg>
