<svg width="36" height="36" viewBox="0 0 36 36" fill="none" xmlns="http://www.w3.org/2000/svg">
<rect width="36" height="36" rx="18" fill="#0C2650"/>
<path d="M22.19 8H13.81C10.17 8 8 10.17 8 13.81V22.18C8 25.83 10.17 28 13.81 28H22.18C25.82 28 27.99 25.83 27.99 22.19V13.81C28 10.17 25.83 8 22.19 8ZM17.03 23.66C17.32 23.95 17.32 24.43 17.03 24.72C16.88 24.87 16.69 24.94 16.5 24.94C16.31 24.94 16.12 24.87 15.97 24.72L14.25 23L12.53 24.72C12.38 24.86 12.19 24.94 12 24.94C11.81 24.94 11.62 24.87 11.47 24.72C11.18 24.43 11.18 23.95 11.47 23.66L13.19 21.94L11.47 20.22C11.18 19.93 11.18 19.45 11.47 19.16C11.76 18.87 12.24 18.87 12.53 19.16L14.25 20.88L15.97 19.16C16.26 18.87 16.74 18.87 17.03 19.16C17.32 19.45 17.32 19.93 17.03 20.22L15.31 21.94L17.03 23.66ZM16.5 14.81H12C11.59 14.81 11.25 14.47 11.25 14.06C11.25 13.65 11.59 13.31 12 13.31H16.5C16.91 13.31 17.25 13.65 17.25 14.06C17.25 14.47 16.91 14.81 16.5 14.81ZM24 24.56H19.5C19.09 24.56 18.75 24.22 18.75 23.81C18.75 23.4 19.09 23.06 19.5 23.06H24C24.41 23.06 24.75 23.4 24.75 23.81C24.75 24.22 24.41 24.56 24 24.56ZM24 20.81H19.5C19.09 20.81 18.75 20.47 18.75 20.06C18.75 19.65 19.09 19.31 19.5 19.31H24C24.41 19.31 24.75 19.65 24.75 20.06C24.75 20.47 24.41 20.81 24 20.81ZM24 14.81H22.52V16.31C22.52 16.72 22.18 17.06 21.77 17.06C21.36 17.06 21.02 16.72 21.02 16.31V14.81H19.5C19.09 14.81 18.75 14.47 18.75 14.06C18.75 13.65 19.09 13.31 19.5 13.31H21.02V11.81C21.02 11.4 21.36 11.06 21.77 11.06C22.18 11.06 22.52 11.4 22.52 11.81V13.31H24C24.41 13.31 24.75 13.65 24.75 14.06C24.75 14.47 24.41 14.81 24 14.81Z" fill="#1FA5FF"/>
</svg>
