<svg width="426" height="526" viewBox="0 0 426 526" fill="none" xmlns="http://www.w3.org/2000/svg">
<path opacity="0.1" d="M388.484 0L0.845703 223.746L0.902062 525.831L388.54 302.085L388.484 0Z" fill="url(#paint0_linear_154_1132)"/>
<path opacity="0.2" d="M388.484 0L1.35254 223.464V264.437L388.484 40.9731V0Z" fill="url(#paint1_linear_154_1132)"/>
<path d="M425.061 136.84L324.854 194.664V222.449L425.061 164.625V136.84Z" fill="#1FA5FF"/>
<path d="M148.788 291.771L48.6377 349.596V377.381L148.788 319.556V291.771Z" fill="#1FA5FF"/>
<path opacity="0.15" d="M214.503 329.194L18.9365 442.081V526L214.503 413.113V329.194Z" fill="url(#paint2_linear_154_1132)"/>
<path opacity="0.07" d="M195.566 319.726L0 432.613V516.532L195.566 403.644V319.726Z" fill="url(#paint3_linear_154_1132)"/>
<path opacity="0.15" d="M200.019 354.612L170.543 371.632V399.417L200.019 382.397V354.612Z" fill="white"/>
<path opacity="0.15" d="M163.724 376.536L134.248 393.556V421.341L163.724 404.321V376.536Z" fill="white"/>
<path opacity="0.15" d="M127.428 397.107L97.9521 414.127V441.912L127.428 424.892V397.107Z" fill="white"/>
<path opacity="0.15" d="M91.1331 419.03L61.6572 436.05V463.836L91.1331 446.815V419.03Z" fill="white"/>
<path opacity="0.15" d="M362.333 113.564L139.939 241.95V251.418L362.333 123.032V113.564Z" fill="white"/>
<path opacity="0.15" d="M362.333 132.669L170.43 243.415V252.883L362.333 142.138V132.669Z" fill="white"/>
<path opacity="0.15" d="M362.333 151.55L199.061 245.782V255.251L362.333 161.018V151.55Z" fill="white"/>
<path opacity="0.15" d="M415.874 204.133L253.053 298.083V382.002L415.874 288.051V204.133Z" fill="url(#paint4_linear_154_1132)"/>
<path opacity="0.07" d="M396.938 194.665L234.116 288.615V372.534L396.938 278.583V194.665Z" fill="url(#paint5_linear_154_1132)"/>
<path opacity="0.15" d="M404.772 230.734L275.371 305.41V314.879L404.715 240.203L404.772 230.734Z" fill="white"/>
<path opacity="0.15" d="M404.772 249.84L301.184 309.637V319.105L404.772 259.308V249.84Z" fill="white"/>
<path opacity="0.2" d="M346.327 44.8052C346.327 50.9484 349.934 53.8227 354.33 51.2865C358.726 48.7504 362.333 41.7055 362.333 35.6187C362.333 29.4755 358.726 26.6012 354.33 29.1374C349.878 31.6735 346.327 38.7184 346.327 44.8052Z" fill="white"/>
<path opacity="0.3" d="M356.867 367.461C356.867 378.621 359.346 385.778 364.306 388.878C369.266 391.978 375.916 391.132 384.257 386.285C392.598 381.439 399.249 374.675 404.208 365.827C409.168 357.035 411.648 347.003 411.648 335.844C411.648 324.685 409.168 317.527 404.208 314.427C399.249 311.328 392.598 312.173 384.257 317.02C375.916 321.811 369.266 328.63 364.306 337.478C359.346 346.27 356.867 356.246 356.867 367.461ZM374.338 357.373C374.338 351.286 375.24 346.383 377.1 342.551C378.959 338.718 381.327 336.013 384.201 334.322C387.188 332.575 389.611 332.575 391.471 334.21C393.218 335.957 394.12 339.845 394.12 345.876C394.12 351.963 393.218 356.922 391.471 360.755C389.611 364.587 387.188 367.349 384.201 369.04C381.327 370.73 378.959 370.73 377.1 369.04C375.296 367.349 374.338 363.404 374.338 357.373ZM326.714 353.09L305.242 365.489L365.715 454.311L387.188 441.912L326.714 353.09ZM280.5 471.67C280.5 482.829 282.98 489.986 287.939 493.086C292.899 496.186 299.549 495.34 307.891 490.493C316.232 485.703 322.882 478.883 327.842 470.035C332.801 461.243 335.281 451.211 335.281 440.052C335.281 428.893 332.801 421.735 327.842 418.636C322.882 415.536 316.232 416.381 307.891 421.228C299.549 426.019 292.899 432.838 287.939 441.686C282.98 450.478 280.5 460.51 280.5 471.67ZM297.971 461.581C297.971 455.494 298.873 450.591 300.733 446.759C302.593 442.926 304.96 440.221 307.834 438.53C310.821 436.783 313.245 436.783 315.104 438.418C316.852 440.165 317.753 444.054 317.753 450.084C317.753 456.171 316.852 461.13 315.104 464.963C313.245 468.795 310.821 471.557 307.834 473.248C304.96 474.938 302.593 474.938 300.733 473.248C298.929 471.613 297.971 467.668 297.971 461.581Z" fill="url(#paint6_linear_154_1132)"/>
<defs>
<linearGradient id="paint0_linear_154_1132" x1="119.143" y1="187.563" x2="263.709" y2="331.843" gradientUnits="userSpaceOnUse">
<stop stop-color="#0263F3"/>
<stop offset="1" stop-color="#4A93FF" stop-opacity="0"/>
</linearGradient>
<linearGradient id="paint1_linear_154_1132" x1="292.425" y1="-32.9563" x2="145.428" y2="216.043" gradientUnits="userSpaceOnUse">
<stop stop-color="#0263F3"/>
<stop offset="1" stop-color="#4A93FF" stop-opacity="0"/>
</linearGradient>
<linearGradient id="paint2_linear_154_1132" x1="98.5527" y1="396.139" x2="132.022" y2="454.125" gradientUnits="userSpaceOnUse">
<stop stop-color="#0263F3"/>
<stop offset="1" stop-color="#4A93FF" stop-opacity="0"/>
</linearGradient>
<linearGradient id="paint3_linear_154_1132" x1="79.6" y1="386.664" x2="113.069" y2="444.649" gradientUnits="userSpaceOnUse">
<stop stop-color="#0263F3"/>
<stop offset="1" stop-color="#4A93FF" stop-opacity="0"/>
</linearGradient>
<linearGradient id="paint4_linear_154_1132" x1="316.304" y1="261.598" x2="349.774" y2="319.584" gradientUnits="userSpaceOnUse">
<stop stop-color="#0263F3"/>
<stop offset="1" stop-color="#4A93FF" stop-opacity="0"/>
</linearGradient>
<linearGradient id="paint5_linear_154_1132" x1="297.352" y1="252.122" x2="330.822" y2="310.107" gradientUnits="userSpaceOnUse">
<stop stop-color="#0263F3"/>
<stop offset="1" stop-color="#4A93FF" stop-opacity="0"/>
</linearGradient>
<linearGradient id="paint6_linear_154_1132" x1="315.464" y1="360.871" x2="395.767" y2="473.449" gradientUnits="userSpaceOnUse">
<stop stop-color="#0263F3"/>
<stop offset="1" stop-color="#4A93FF" stop-opacity="0"/>
</linearGradient>
</defs>
</svg>
