<svg width="291" height="43" viewBox="0 0 291 43" fill="none" xmlns="http://www.w3.org/2000/svg">
<path fill-rule="evenodd" clip-rule="evenodd" d="M25.2118 1.17707C23.6412 -0.39281 21.0954 -0.392295 19.5255 1.17824L6.42362 14.2855L6.41246 14.2823L6.37105 14.2867C6.3881 14.2949 6.40484 14.303 6.42124 14.3112C4.12289 14.552 3.14774 15.2426 3.1367 16.1296C3.14059 16.4595 3.27596 16.8158 3.5246 17.1857L3.51265 17.1977C5.60209 20.3491 15.9531 24.5062 23.2761 21.6896C17.7878 24.4338 4.86249 24.9777 1.06613 19.6496C0.241684 20.5415 -0.103261 21.7136 0.0266404 22.84C1.02953 28.3676 12.2419 29.8757 23.4544 21.8668L25.8808 24.2931C22.8615 27.395 18.4018 45.4124 25.0285 42.6615C25.1857 42.5548 25.3191 42.4593 25.5006 42.322L25.7959 42.0432C25.7789 42.0474 25.762 42.0514 25.7451 42.0554L43.4929 25.3005C45.1407 23.7447 45.178 21.1352 43.5752 19.533L25.2118 1.17707ZM23.2791 6.63733L23.8856 4.21101L24.4922 6.63733L26.3119 7.24391L24.4922 7.85051L23.8856 10.2768L23.2791 7.85051L21.4593 7.24391L23.2791 6.63733ZM15.7711 14.558L16.1754 12.9404L16.5798 14.558L17.793 14.9623L16.5798 15.3667L16.1754 16.9843L15.7711 15.3667L14.558 14.9623L15.7711 14.558ZM29.8553 28.2019L29.4509 29.8194L28.2378 30.2239L29.4509 30.6283L29.8553 32.2457L30.2597 30.6283L31.4729 30.2239L30.2597 29.8194L29.8553 28.2019Z" fill="#1FA5FF"/>
<path fill-rule="evenodd" clip-rule="evenodd" d="M44.8594 2.7832C41.0652 2.7832 37.467 4.46851 35.0379 7.38332L26.3964 17.7532L31.3864 10.2682L23.1034 13.818C22.0515 14.2689 21.7876 15.6394 22.5967 16.4487L25.2623 19.1141L23.9013 20.7472L26.8954 23.7412L28.5284 22.3803L31.194 25.0458C32.0031 25.8549 33.3737 25.591 33.8245 24.5392L37.3743 16.2562L29.8894 21.2462L40.2593 12.6046C43.1741 10.1757 44.8594 6.57743 44.8594 2.7832ZM36.626 11.0169C37.4527 11.8436 38.7931 11.8436 39.6199 11.0169C40.4467 10.1901 40.4467 8.84962 39.6199 8.0229C38.7931 7.19609 37.4527 7.19609 36.626 8.0229C35.7991 8.84962 35.7991 10.1901 36.626 11.0169Z" fill="#048EEB"/>
<path opacity="0.6" d="M0.969727 19.5098C2.95211 26.3016 15.0046 25.9475 23.2737 21.6903C17.7366 24.4572 4.6381 24.9856 0.969727 19.5098Z" fill="#696969"/>
<path opacity="0.6" d="M25.0285 42.6615C19.4447 44.9794 21.7325 32.5513 24.3972 26.7266C22.4548 31.9039 20.7968 43.317 25.7959 42.0431L25.5006 42.322C25.3191 42.4593 25.1857 42.5547 25.0285 42.6615Z" fill="#696969"/>
<path d="M60.9479 30.5331C60.7629 30.5331 60.6031 30.4658 60.4685 30.3313C60.3339 30.1967 60.2666 30.0369 60.2666 29.8518V13.5508C60.2666 13.3658 60.3339 13.206 60.4685 13.0714C60.6031 12.9368 60.7629 12.8695 60.9479 12.8695H68.5937C70.9489 12.8695 72.7994 13.391 74.1452 14.434C75.5078 15.477 76.1891 17.0163 76.1891 19.0518C76.1891 21.0705 75.5162 22.5761 74.1704 23.5686C72.8246 24.5443 70.9657 25.0322 68.5937 25.0322H66.8274V29.8518C66.8274 30.0369 66.7601 30.1967 66.6255 30.3313C66.4909 30.4658 66.3311 30.5331 66.1461 30.5331H60.9479ZM68.4676 20.3639C68.7704 20.3639 69.0395 20.2546 69.275 20.0359C69.5106 19.8004 69.6283 19.4555 69.6283 19.0013C69.6283 18.6144 69.5358 18.278 69.3507 17.992C69.1657 17.706 68.8713 17.563 68.4676 17.563H66.7012V20.3639H68.4676Z" fill="white"/>
<path d="M78.7397 30.5331C78.5546 30.5331 78.3948 30.4658 78.2602 30.3313C78.1256 30.1967 78.0584 30.0369 78.0584 29.8518V13.5508C78.0584 13.3658 78.1256 13.206 78.2602 13.0714C78.3948 12.9368 78.5546 12.8695 78.7397 12.8695H86.2088C88.6313 12.8695 90.5238 13.4163 91.8864 14.5097C93.2491 15.5864 93.9304 17.0836 93.9304 19.0013C93.9304 20.0948 93.6864 21.0621 93.1986 21.9032C92.7107 22.7275 92.0462 23.4088 91.2051 23.9471L94.3089 29.7004C94.3593 29.8014 94.3846 29.8939 94.3846 29.978C94.3846 30.1294 94.3257 30.264 94.2079 30.3817C94.107 30.4827 93.9808 30.5331 93.8294 30.5331H88.6565C88.3537 30.5331 88.1098 30.4658 87.9247 30.3313C87.7565 30.1799 87.6388 30.02 87.5715 29.8518L85.4014 25.0322H84.3668V29.8518C84.3668 30.0369 84.2995 30.1967 84.1649 30.3313C84.0303 30.4658 83.8705 30.5331 83.6855 30.5331H78.7397ZM86.2088 20.2378C86.5789 20.2378 86.8649 20.12 87.0668 19.8845C87.2687 19.6322 87.3696 19.3209 87.3696 18.9509C87.3696 18.5808 87.2687 18.2611 87.0668 17.992C86.8817 17.706 86.5958 17.563 86.2088 17.563H84.3668V20.2378H86.2088Z" fill="white"/>
<path d="M104.12 30.7855C101.596 30.7855 99.586 30.2051 98.0888 29.0443C96.5916 27.8836 95.7925 26.1929 95.6916 23.9724C95.6748 23.5182 95.6664 22.7864 95.6664 21.777C95.6664 20.7509 95.6748 20.0023 95.6916 19.5312C95.7421 18.0845 96.1206 16.8396 96.8271 15.7966C97.5505 14.7536 98.5346 13.963 99.7795 13.4247C101.024 12.8863 102.471 12.6172 104.12 12.6172C105.768 12.6172 107.215 12.8863 108.46 13.4247C109.705 13.963 110.68 14.7536 111.387 15.7966C112.11 16.8396 112.497 18.0845 112.548 19.5312C112.581 20.4733 112.598 21.2219 112.598 21.777C112.598 22.3322 112.581 23.064 112.548 23.9724C112.447 26.1929 111.648 27.8836 110.151 29.0443C108.653 30.2051 106.643 30.7855 104.12 30.7855ZM104.12 25.8649C104.692 25.8649 105.137 25.6967 105.457 25.3602C105.794 25.0238 105.97 24.5107 105.987 23.821C106.021 22.8453 106.037 22.1303 106.037 21.6761C106.037 21.1882 106.021 20.4901 105.987 19.5817C105.97 18.892 105.794 18.3789 105.457 18.0424C105.121 17.706 104.675 17.5378 104.12 17.5378C103.565 17.5378 103.119 17.706 102.782 18.0424C102.446 18.3789 102.269 18.892 102.252 19.5817C102.236 20.0359 102.227 20.734 102.227 21.6761C102.227 22.6182 102.236 23.3331 102.252 23.821C102.269 24.5107 102.437 25.0238 102.757 25.3602C103.093 25.6967 103.548 25.8649 104.12 25.8649Z" fill="white"/>
<path d="M121.738 30.7855C120.324 30.7855 119.012 30.5415 117.801 30.0537C116.59 29.5658 115.614 28.8593 114.874 27.9341C114.134 26.992 113.755 25.8817 113.738 24.6032C113.738 24.4518 113.789 24.3256 113.89 24.2247C114.008 24.1069 114.142 24.0481 114.294 24.0481H119.441C119.71 24.0481 119.912 24.1154 120.047 24.2499C120.198 24.3677 120.341 24.5696 120.476 24.8555C120.644 25.2256 120.829 25.4864 121.031 25.6378C121.25 25.7892 121.552 25.8649 121.939 25.8649C122.427 25.8649 122.797 25.7135 123.05 25.4107C123.302 25.0911 123.428 24.5612 123.428 23.821V17.992H115.934C115.749 17.992 115.589 17.9247 115.454 17.7901C115.32 17.6555 115.252 17.4957 115.252 17.3107V13.5508C115.252 13.3658 115.32 13.206 115.454 13.0714C115.589 12.9368 115.749 12.8695 115.934 12.8695H129.282C129.467 12.8695 129.627 12.9368 129.762 13.0714C129.896 13.206 129.964 13.3658 129.964 13.5508V24.0228C129.964 25.52 129.602 26.7817 128.879 27.8079C128.172 28.8172 127.196 29.5658 125.952 30.0537C124.724 30.5415 123.319 30.7855 121.738 30.7855Z" fill="white"/>
<path d="M133.273 30.5331C133.088 30.5331 132.928 30.4658 132.794 30.3313C132.659 30.1967 132.592 30.0369 132.592 29.8518V13.5508C132.592 13.3658 132.659 13.206 132.794 13.0714C132.928 12.9368 133.088 12.8695 133.273 12.8695H146.218C146.403 12.8695 146.563 12.9368 146.697 13.0714C146.832 13.206 146.899 13.3658 146.899 13.5508V17.1088C146.899 17.2938 146.832 17.4537 146.697 17.5882C146.563 17.7228 146.403 17.7901 146.218 17.7901H138.648V19.3798H145.663C145.848 19.3798 146.008 19.4471 146.142 19.5817C146.277 19.7163 146.344 19.8761 146.344 20.0611V23.3415C146.344 23.5266 146.277 23.6864 146.142 23.821C146.008 23.9555 145.848 24.0228 145.663 24.0228H138.648V25.6126H146.42C146.605 25.6126 146.765 25.6798 146.899 25.8144C147.034 25.949 147.101 26.1088 147.101 26.2939V29.8518C147.101 30.0369 147.034 30.1967 146.899 30.3313C146.765 30.4658 146.605 30.5331 146.42 30.5331H133.273Z" fill="white"/>
<path d="M157.298 30.7855C154.758 30.7855 152.739 30.2303 151.242 29.12C149.745 27.9929 148.946 26.2686 148.845 23.9471C148.828 23.4929 148.82 22.7527 148.82 21.7266C148.82 20.6836 148.828 19.9266 148.845 19.4555C148.946 17.2013 149.762 15.5022 151.293 14.3583C152.824 13.1976 154.825 12.6172 157.298 12.6172C158.812 12.6172 160.2 12.8443 161.462 13.2985C162.74 13.7527 163.775 14.4677 164.566 15.4434C165.373 16.4022 165.785 17.6135 165.802 19.077C165.802 19.2284 165.743 19.363 165.625 19.4808C165.525 19.5817 165.398 19.6322 165.247 19.6322H160.099C159.83 19.6322 159.628 19.5817 159.494 19.4808C159.376 19.3798 159.267 19.1864 159.166 18.9004C158.981 18.3957 158.737 18.0424 158.434 17.8406C158.131 17.6387 157.744 17.5378 157.273 17.5378C156.684 17.5378 156.23 17.6976 155.911 18.0172C155.591 18.32 155.423 18.8415 155.406 19.5817C155.389 20.0359 155.381 20.734 155.381 21.6761C155.381 22.6182 155.389 23.3331 155.406 23.821C155.423 24.5612 155.591 25.0911 155.911 25.4107C156.23 25.7135 156.684 25.8649 157.273 25.8649C158.232 25.8649 158.863 25.4107 159.166 24.5023C159.25 24.2163 159.351 24.0228 159.468 23.9219C159.603 23.821 159.813 23.7705 160.099 23.7705H165.247C165.398 23.7705 165.525 23.8294 165.625 23.9471C165.743 24.0481 165.802 24.1742 165.802 24.3256C165.785 25.7892 165.373 27.0088 164.566 27.9845C163.775 28.9434 162.74 29.65 161.462 30.1042C160.2 30.5584 158.812 30.7855 157.298 30.7855Z" fill="white"/>
<path d="M172.398 30.5331C172.213 30.5331 172.053 30.4658 171.919 30.3313C171.784 30.1967 171.717 30.0369 171.717 29.8518V18.2948H167.528C167.343 18.2948 167.183 18.2275 167.049 18.0929C166.914 17.9583 166.847 17.7985 166.847 17.6135V13.5508C166.847 13.3658 166.914 13.206 167.049 13.0714C167.183 12.9368 167.343 12.8695 167.528 12.8695H182.315C182.5 12.8695 182.66 12.9368 182.794 13.0714C182.929 13.206 182.996 13.3658 182.996 13.5508V17.6135C182.996 17.7985 182.929 17.9583 182.794 18.0929C182.66 18.2275 182.5 18.2948 182.315 18.2948H178.126V29.8518C178.126 30.0369 178.059 30.1967 177.924 30.3313C177.79 30.4658 177.63 30.5331 177.445 30.5331H172.398Z" fill="white"/>
<path d="M191.294 30.7855C189.898 30.7855 188.686 30.5668 187.66 30.1294C186.651 29.692 185.877 29.12 185.339 28.4135C184.8 27.6901 184.514 26.9163 184.481 26.092C184.481 25.9574 184.531 25.8397 184.632 25.7387C184.75 25.621 184.885 25.5621 185.036 25.5621H186.323C186.642 25.5621 186.861 25.7303 186.979 26.0668C187.13 26.7733 187.559 27.3789 188.266 27.8836C188.989 28.3883 189.999 28.6406 191.294 28.6406C192.69 28.6406 193.742 28.3967 194.448 27.9088C195.155 27.4042 195.508 26.706 195.508 25.8144C195.508 25.2425 195.331 24.7798 194.978 24.4266C194.642 24.0733 194.137 23.7621 193.464 23.4929C192.791 23.2238 191.782 22.8873 190.436 22.4836C189.124 22.1135 188.081 21.7182 187.307 21.2976C186.533 20.877 185.953 20.3555 185.566 19.7331C185.179 19.1107 184.985 18.3284 184.985 17.3864C184.985 16.4779 185.229 15.6621 185.717 14.9387C186.222 14.2153 186.937 13.6518 187.862 13.248C188.787 12.8275 189.889 12.6172 191.168 12.6172C192.48 12.6172 193.607 12.8527 194.549 13.3237C195.491 13.7779 196.206 14.3583 196.694 15.0649C197.182 15.7714 197.443 16.4779 197.476 17.1845C197.476 17.3191 197.426 17.4368 197.325 17.5378C197.241 17.6387 197.115 17.6892 196.946 17.6892H195.609C195.256 17.6892 195.037 17.5294 194.953 17.2097C194.852 16.5032 194.457 15.9228 193.767 15.4686C193.077 14.9976 192.211 14.7621 191.168 14.7621C190.024 14.7621 189.124 14.9807 188.468 15.4181C187.812 15.8555 187.484 16.5032 187.484 17.3611C187.484 17.9331 187.635 18.4041 187.938 18.7742C188.257 19.1443 188.737 19.4724 189.376 19.7583C190.015 20.0275 190.949 20.3387 192.177 20.692C193.607 21.0789 194.734 21.4826 195.558 21.9032C196.383 22.3069 196.997 22.82 197.4 23.4425C197.804 24.0481 198.006 24.8219 198.006 25.764C198.006 27.3285 197.4 28.5565 196.189 29.4481C194.978 30.3397 193.346 30.7855 191.294 30.7855Z" fill="white"/>
<path d="M205.557 30.5331C205.389 30.5331 205.246 30.4827 205.129 30.3817C205.028 30.264 204.977 30.121 204.977 29.9528V15.1153H200.132C199.964 15.1153 199.821 15.0649 199.703 14.9639C199.602 14.8462 199.552 14.7032 199.552 14.535V13.4751C199.552 13.3069 199.602 13.1639 199.703 13.0462C199.821 12.9284 199.964 12.8695 200.132 12.8695H212.295C212.48 12.8695 212.623 12.9284 212.724 13.0462C212.842 13.1471 212.9 13.2901 212.9 13.4751V14.535C212.9 14.7032 212.842 14.8462 212.724 14.9639C212.606 15.0649 212.463 15.1153 212.295 15.1153H207.475V29.9528C207.475 30.121 207.416 30.264 207.299 30.3817C207.181 30.4827 207.038 30.5331 206.87 30.5331H205.557Z" fill="white"/>
<path d="M212.67 30.5331C212.536 30.5331 212.418 30.4827 212.317 30.3817C212.216 30.2808 212.166 30.163 212.166 30.0285C212.166 29.8939 212.174 29.8014 212.191 29.7509L218.449 13.4247C218.584 13.0546 218.853 12.8695 219.256 12.8695H220.972C221.376 12.8695 221.645 13.0546 221.78 13.4247L228.013 29.7509L228.063 30.0285C228.063 30.163 228.013 30.2808 227.912 30.3817C227.811 30.4827 227.693 30.5331 227.558 30.5331H226.271C226.086 30.5331 225.943 30.4911 225.842 30.407C225.742 30.306 225.674 30.2051 225.641 30.1042L224.253 26.521H215.976L214.588 30.1042C214.555 30.2051 214.479 30.306 214.361 30.407C214.26 30.4911 214.126 30.5331 213.957 30.5331H212.67ZM223.521 24.3509L220.114 15.3929L216.708 24.3509H223.521Z" fill="white"/>
<path d="M231.341 30.5331C231.173 30.5331 231.03 30.4827 230.912 30.3817C230.812 30.264 230.761 30.121 230.761 29.9528V13.4751C230.761 13.2901 230.812 13.1471 230.912 13.0462C231.03 12.9284 231.173 12.8695 231.341 12.8695H237.498C239.433 12.8695 240.947 13.3237 242.041 14.2321C243.134 15.1406 243.681 16.4527 243.681 18.1686C243.681 19.4471 243.361 20.4985 242.722 21.3228C242.099 22.1471 241.216 22.7191 240.072 23.0387L243.958 29.7509C244.009 29.8518 244.034 29.9443 244.034 30.0285C244.034 30.163 243.975 30.2808 243.857 30.3817C243.756 30.4827 243.639 30.5331 243.504 30.5331H242.293C242.041 30.5331 241.839 30.4743 241.687 30.3565C241.553 30.2387 241.427 30.0705 241.309 29.8518L237.65 23.4425H233.234V29.9528C233.234 30.121 233.175 30.264 233.057 30.3817C232.94 30.4827 232.797 30.5331 232.628 30.5331H231.341ZM237.398 21.2976C239.904 21.2976 241.157 20.2462 241.157 18.1434C241.157 16.0406 239.904 14.9892 237.398 14.9892H233.234V21.2976H237.398Z" fill="white"/>
<path d="M251.54 30.5331C251.372 30.5331 251.229 30.4827 251.111 30.3817C251.01 30.264 250.96 30.121 250.96 29.9528V15.1153H246.115C245.947 15.1153 245.804 15.0649 245.686 14.9639C245.585 14.8462 245.534 14.7032 245.534 14.535V13.4751C245.534 13.3069 245.585 13.1639 245.686 13.0462C245.804 12.9284 245.947 12.8695 246.115 12.8695H258.277C258.462 12.8695 258.605 12.9284 258.706 13.0462C258.824 13.1471 258.883 13.2901 258.883 13.4751V14.535C258.883 14.7032 258.824 14.8462 258.706 14.9639C258.589 15.0649 258.446 15.1153 258.277 15.1153H253.458V29.9528C253.458 30.121 253.399 30.264 253.281 30.3817C253.163 30.4827 253.02 30.5331 252.852 30.5331H251.54Z" fill="white"/>
<path d="M262.292 30.5331C262.124 30.5331 261.981 30.4827 261.863 30.3817C261.762 30.264 261.712 30.121 261.712 29.9528V13.4751C261.712 13.2901 261.762 13.1471 261.863 13.0462C261.981 12.9284 262.124 12.8695 262.292 12.8695H272.714C272.882 12.8695 273.016 12.9284 273.117 13.0462C273.235 13.1471 273.294 13.2901 273.294 13.4751V14.434C273.294 14.6022 273.244 14.7452 273.143 14.863C273.042 14.9639 272.899 15.0144 272.714 15.0144H264.134V20.5406H272.159C272.327 20.5406 272.461 20.5995 272.562 20.7172C272.68 20.8181 272.739 20.9611 272.739 21.1462V22.0798C272.739 22.2481 272.68 22.3911 272.562 22.5088C272.461 22.6097 272.327 22.6602 272.159 22.6602H264.134V28.3883H272.916C273.101 28.3883 273.244 28.4387 273.345 28.5397C273.445 28.6406 273.496 28.7836 273.496 28.9686V29.9528C273.496 30.121 273.437 30.264 273.319 30.3817C273.218 30.4827 273.084 30.5331 272.916 30.5331H262.292Z" fill="white"/>
<path d="M277.595 30.5331C277.427 30.5331 277.284 30.4827 277.166 30.3817C277.065 30.264 277.015 30.121 277.015 29.9528V13.4751C277.015 13.2901 277.065 13.1471 277.166 13.0462C277.284 12.9284 277.427 12.8695 277.595 12.8695H283.752C285.687 12.8695 287.201 13.3237 288.294 14.2321C289.388 15.1406 289.934 16.4527 289.934 18.1686C289.934 19.4471 289.615 20.4985 288.975 21.3228C288.353 22.1471 287.47 22.7191 286.326 23.0387L290.212 29.7509C290.262 29.8518 290.288 29.9443 290.288 30.0285C290.288 30.163 290.229 30.2808 290.111 30.3817C290.01 30.4827 289.892 30.5331 289.758 30.5331H288.546C288.294 30.5331 288.092 30.4743 287.941 30.3565C287.806 30.2387 287.68 30.0705 287.562 29.8518L283.903 23.4425H279.488V29.9528C279.488 30.121 279.429 30.264 279.311 30.3817C279.193 30.4827 279.05 30.5331 278.882 30.5331H277.595ZM283.651 21.2976C286.158 21.2976 287.411 20.2462 287.411 18.1434C287.411 16.0406 286.158 14.9892 283.651 14.9892H279.488V21.2976H283.651Z" fill="white"/>
</svg>
