<svg width="21" height="21" viewBox="0 0 21 21" fill="none" xmlns="http://www.w3.org/2000/svg">
<path d="M18.8386 13.9392C18.6986 13.7029 18.3049 13.3354 17.3249 13.5104C16.7824 13.6067 16.2311 13.6504 15.6799 13.6242C13.6411 13.5367 11.7949 12.6004 10.5086 11.1567C9.37112 9.88794 8.67112 8.23419 8.66237 6.44919C8.66237 5.45169 8.85487 4.48919 9.24862 3.57919C9.63362 2.69544 9.36237 2.23169 9.16987 2.03919C8.96862 1.83794 8.49612 1.55794 7.56862 1.94294C3.98987 3.44794 1.77612 7.03544 2.03862 10.8767C2.30112 14.4904 4.83862 17.5792 8.19862 18.7429C9.00362 19.0229 9.85237 19.1892 10.7274 19.2242C10.8674 19.2329 11.0074 19.2417 11.1474 19.2417C14.0786 19.2417 16.8261 17.8592 18.5586 15.5054C19.1449 14.6917 18.9874 14.1754 18.8386 13.9392Z" fill="white"/>
</svg>
