<svg width="344" height="51" viewBox="0 0 344 51" fill="none" xmlns="http://www.w3.org/2000/svg">
<path fill-rule="evenodd" clip-rule="evenodd" d="M29.8518 1.3937C27.9921 -0.465103 24.9778 -0.464493 23.119 1.39509L7.60583 16.9147L7.59261 16.9108L7.54359 16.916C7.56378 16.9257 7.5836 16.9353 7.60302 16.945C4.88168 17.2301 3.72705 18.0479 3.71398 19.0981C3.71859 19.4888 3.87887 19.9107 4.17327 20.3486L4.15912 20.3628C6.6331 24.0942 18.8891 29.0164 27.5599 25.6814C21.0615 28.9306 5.75739 29.5746 1.26235 23.2659C0.286164 24.322 -0.122265 25.7098 0.0315433 27.0435C1.21901 33.5885 14.495 35.374 27.771 25.8912L30.6439 28.7641C27.069 32.4368 21.7885 53.7701 29.6348 50.513C29.8209 50.3866 29.9789 50.2736 30.1937 50.111L30.5434 49.7808C30.5233 49.7858 30.5032 49.7905 30.4833 49.7953L51.4973 29.9568C53.4485 28.1147 53.4927 25.025 51.5948 23.1279L29.8518 1.3937ZM27.5634 7.85887L28.2816 4.98601L28.9997 7.85887L31.1544 8.57709L28.9997 9.29533L28.2816 12.1682L27.5634 9.29533L25.4087 8.57709L27.5634 7.85887ZM18.6736 17.2372L19.1524 15.3219L19.6312 17.2372L21.0677 17.716L19.6312 18.1948L19.1524 20.1101L18.6736 18.1948L17.2372 17.716L18.6736 17.2372ZM35.3499 33.3923L34.8711 35.3074L33.4347 35.7863L34.8711 36.2651L35.3499 38.1803L35.8287 36.2651L37.2652 35.7863L35.8287 35.3074L35.3499 33.3923Z" fill="#1FA5FF"/>
<path fill-rule="evenodd" clip-rule="evenodd" d="M53.1157 3.29492C48.6232 3.29492 44.3628 5.2904 41.4866 8.74165L31.2548 21.0201L37.1631 12.1574L27.3557 16.3606C26.1102 16.8944 25.7977 18.5172 26.7558 19.4754L29.9119 22.6313L28.3005 24.5651L31.8456 28.1101L33.7792 26.4986L36.9353 29.6547C37.8933 30.6128 39.5162 30.3003 40.0499 29.0549L44.2531 19.2476L35.3906 25.1559L47.669 14.9239C51.1202 12.0479 53.1157 7.78744 53.1157 3.29492ZM43.3669 13.0439C44.3458 14.0228 45.933 14.0228 46.9119 13.0439C47.8908 12.0649 47.8908 10.4778 46.9119 9.49894C45.933 8.51996 44.3458 8.51996 43.3669 9.49894C42.388 10.4778 42.388 12.0649 43.3669 13.0439Z" fill="#048EEB"/>
<path opacity="0.6" d="M1.14844 23.1016C3.49566 31.1434 17.7663 30.7241 27.5572 25.6834C21.0011 28.9595 5.49194 29.5852 1.14844 23.1016Z" fill="#696969"/>
<path opacity="0.6" d="M29.6346 50.5131C23.0231 53.2576 25.732 38.5423 28.8871 31.6455C26.5873 37.7757 24.6241 51.2893 30.5432 49.7809L30.1935 50.1111C29.9786 50.2737 29.8207 50.3867 29.6346 50.5131Z" fill="#696969"/>
<path d="M72.1646 36.1517C71.9455 36.1517 71.7563 36.072 71.5969 35.9127C71.4376 35.7533 71.3579 35.5641 71.3579 35.345V16.044C71.3579 15.8249 71.4376 15.6356 71.5969 15.4763C71.7563 15.3169 71.9455 15.2373 72.1646 15.2373H81.2176C84.0062 15.2373 86.1972 15.8547 87.7907 17.0897C89.4041 18.3246 90.2108 20.1472 90.2108 22.5573C90.2108 24.9475 89.414 26.7302 87.8206 27.9054C86.2271 29.0607 84.0261 29.6383 81.2176 29.6383H79.1261V35.345C79.1261 35.5641 79.0465 35.7533 78.8871 35.9127C78.7278 36.072 78.5385 36.1517 78.3194 36.1517H72.1646ZM81.0682 24.111C81.4267 24.111 81.7454 23.9815 82.0243 23.7225C82.3031 23.4437 82.4426 23.0354 82.4426 22.4976C82.4426 22.0394 82.333 21.6411 82.1139 21.3024C81.8948 20.9638 81.5462 20.7945 81.0682 20.7945H78.9767V24.111H81.0682Z" fill="white"/>
<path d="M93.2308 36.1517C93.0117 36.1517 92.8224 36.072 92.6631 35.9127C92.5037 35.7533 92.4241 35.5641 92.4241 35.345V16.044C92.4241 15.8249 92.5037 15.6356 92.6631 15.4763C92.8224 15.3169 93.0117 15.2373 93.2308 15.2373H102.075C104.943 15.2373 107.184 15.8846 108.797 17.1793C110.41 18.4541 111.217 20.2268 111.217 22.4976C111.217 23.7923 110.928 24.9376 110.351 25.9335C109.773 26.9095 108.986 27.7162 107.99 28.3536L111.665 35.1657C111.725 35.2852 111.755 35.3948 111.755 35.4944C111.755 35.6737 111.685 35.833 111.546 35.9724C111.426 36.0919 111.277 36.1517 111.098 36.1517H104.973C104.614 36.1517 104.325 36.072 104.106 35.9127C103.907 35.7334 103.768 35.5442 103.688 35.345L101.119 29.6383H99.8935V35.345C99.8935 35.5641 99.8138 35.7533 99.6545 35.9127C99.4951 36.072 99.3059 36.1517 99.0868 36.1517H93.2308ZM102.075 23.9616C102.513 23.9616 102.851 23.8221 103.09 23.5433C103.329 23.2445 103.449 22.876 103.449 22.4378C103.449 21.9996 103.329 21.6211 103.09 21.3024C102.871 20.9638 102.533 20.7945 102.075 20.7945H99.8935V23.9616H102.075Z" fill="white"/>
<path d="M123.282 36.4505C120.294 36.4505 117.914 35.7633 116.141 34.3889C114.368 33.0145 113.422 31.0127 113.303 28.3835C113.283 27.8457 113.273 26.9792 113.273 25.7841C113.273 24.5691 113.283 23.6827 113.303 23.125C113.362 21.412 113.81 19.938 114.647 18.7031C115.504 17.4681 116.669 16.532 118.143 15.8946C119.617 15.2572 121.33 14.9385 123.282 14.9385C125.234 14.9385 126.947 15.2572 128.421 15.8946C129.895 16.532 131.05 17.4681 131.887 18.7031C132.743 19.938 133.201 21.412 133.261 23.125C133.301 24.2404 133.321 25.1268 133.321 25.7841C133.321 26.4414 133.301 27.3079 133.261 28.3835C133.141 31.0127 132.195 33.0145 130.423 34.3889C128.65 35.7633 126.27 36.4505 123.282 36.4505ZM123.282 30.6243C123.959 30.6243 124.487 30.4251 124.865 30.0268C125.264 29.6284 125.473 29.0209 125.493 28.2042C125.533 27.0489 125.552 26.2024 125.552 25.6646C125.552 25.087 125.533 24.2603 125.493 23.1847C125.473 22.3681 125.264 21.7606 124.865 21.3622C124.467 20.9638 123.939 20.7646 123.282 20.7646C122.624 20.7646 122.097 20.9638 121.698 21.3622C121.3 21.7606 121.091 22.3681 121.071 23.1847C121.051 23.7225 121.041 24.5492 121.041 25.6646C121.041 26.78 121.051 27.6266 121.071 28.2042C121.091 29.0209 121.29 29.6284 121.668 30.0268C122.067 30.4251 122.605 30.6243 123.282 30.6243Z" fill="white"/>
<path d="M144.142 36.4505C142.469 36.4505 140.915 36.1617 139.481 35.584C138.047 35.0064 136.892 34.1698 136.015 33.0743C135.139 31.9588 134.691 30.6442 134.671 29.1304C134.671 28.9512 134.731 28.8018 134.85 28.6823C134.989 28.5428 135.149 28.4731 135.328 28.4731H141.423C141.742 28.4731 141.981 28.5528 142.14 28.7121C142.319 28.8516 142.489 29.0906 142.648 29.4292C142.847 29.8674 143.066 30.1761 143.305 30.3554C143.564 30.5347 143.923 30.6243 144.381 30.6243C144.959 30.6243 145.397 30.445 145.696 30.0865C145.994 29.7081 146.144 29.0806 146.144 28.2042V21.3024H137.27C137.051 21.3024 136.862 21.2228 136.702 21.0634C136.543 20.9041 136.463 20.7148 136.463 20.4957V16.044C136.463 15.8249 136.543 15.6356 136.702 15.4763C136.862 15.3169 137.051 15.2373 137.27 15.2373H153.075C153.295 15.2373 153.484 15.3169 153.643 15.4763C153.803 15.6356 153.882 15.8249 153.882 16.044V28.4432C153.882 30.216 153.454 31.7099 152.597 32.9249C151.761 34.12 150.606 35.0064 149.132 35.584C147.678 36.1617 146.014 36.4505 144.142 36.4505Z" fill="white"/>
<path d="M157.801 36.1517C157.582 36.1517 157.392 36.072 157.233 35.9127C157.074 35.7533 156.994 35.5641 156.994 35.345V16.044C156.994 15.8249 157.074 15.6356 157.233 15.4763C157.392 15.3169 157.582 15.2373 157.801 15.2373H173.128C173.347 15.2373 173.536 15.3169 173.696 15.4763C173.855 15.6356 173.935 15.8249 173.935 16.044V20.2567C173.935 20.4758 173.855 20.665 173.696 20.8244C173.536 20.9837 173.347 21.0634 173.128 21.0634H164.165V22.9457H172.471C172.69 22.9457 172.879 23.0254 173.038 23.1847C173.198 23.3441 173.277 23.5333 173.277 23.7524V27.6365C173.277 27.8556 173.198 28.0449 173.038 28.2042C172.879 28.3636 172.69 28.4432 172.471 28.4432H164.165V30.3255H173.367C173.586 30.3255 173.775 30.4052 173.935 30.5646C174.094 30.7239 174.174 30.9131 174.174 31.1322V35.345C174.174 35.5641 174.094 35.7533 173.935 35.9127C173.775 36.072 173.586 36.1517 173.367 36.1517H157.801Z" fill="white"/>
<path d="M186.248 36.4505C183.24 36.4505 180.85 35.7932 179.077 34.4785C177.304 33.144 176.358 31.1024 176.238 28.3536C176.219 27.8158 176.209 26.9394 176.209 25.7244C176.209 24.4894 176.219 23.5931 176.238 23.0354C176.358 20.3663 177.324 18.3545 179.137 17C180.949 15.6257 183.32 14.9385 186.248 14.9385C188.04 14.9385 189.683 15.2074 191.177 15.7452C192.691 16.283 193.916 17.1295 194.852 18.2848C195.808 19.4201 196.296 20.8543 196.316 22.5872C196.316 22.7665 196.247 22.9258 196.107 23.0652C195.988 23.1847 195.838 23.2445 195.659 23.2445H189.564C189.245 23.2445 189.006 23.1847 188.847 23.0652C188.707 22.9457 188.578 22.7167 188.458 22.378C188.239 21.7805 187.951 21.3622 187.592 21.1232C187.233 20.8842 186.775 20.7646 186.218 20.7646C185.52 20.7646 184.983 20.9539 184.604 21.3323C184.226 21.6909 184.027 22.3083 184.007 23.1847C183.987 23.7225 183.977 24.5492 183.977 25.6646C183.977 26.78 183.987 27.6266 184.007 28.2042C184.027 29.0806 184.226 29.7081 184.604 30.0865C184.983 30.445 185.52 30.6243 186.218 30.6243C187.353 30.6243 188.1 30.0865 188.458 29.0109C188.558 28.6723 188.678 28.4432 188.817 28.3237C188.976 28.2042 189.225 28.1445 189.564 28.1445H195.659C195.838 28.1445 195.988 28.2142 196.107 28.3536C196.247 28.4731 196.316 28.6225 196.316 28.8018C196.296 30.5347 195.808 31.9788 194.852 33.134C193.916 34.2694 192.691 35.106 191.177 35.6438C189.683 36.1816 188.04 36.4505 186.248 36.4505Z" fill="white"/>
<path d="M204.126 36.1517C203.907 36.1517 203.718 36.072 203.559 35.9127C203.399 35.7533 203.32 35.5641 203.32 35.345V21.661H198.36C198.141 21.661 197.952 21.5813 197.792 21.422C197.633 21.2626 197.553 21.0734 197.553 20.8543V16.044C197.553 15.8249 197.633 15.6356 197.792 15.4763C197.952 15.3169 198.141 15.2373 198.36 15.2373H215.868C216.087 15.2373 216.277 15.3169 216.436 15.4763C216.595 15.6356 216.675 15.8249 216.675 16.044V20.8543C216.675 21.0734 216.595 21.2626 216.436 21.422C216.277 21.5813 216.087 21.661 215.868 21.661H210.909V35.345C210.909 35.5641 210.829 35.7533 210.67 35.9127C210.51 36.072 210.321 36.1517 210.102 36.1517H204.126Z" fill="white"/>
<path d="M226.5 36.4505C224.846 36.4505 223.412 36.1915 222.197 35.6737C221.002 35.1558 220.086 34.4785 219.448 33.642C218.811 32.7855 218.472 31.8692 218.433 30.8932C218.433 30.7339 218.492 30.5944 218.612 30.4749C218.751 30.3355 218.911 30.2658 219.09 30.2658H220.614C220.992 30.2658 221.251 30.465 221.391 30.8633C221.57 31.6999 222.078 32.417 222.914 33.0145C223.771 33.6121 224.966 33.9109 226.5 33.9109C228.153 33.9109 229.398 33.622 230.234 33.0444C231.071 32.4469 231.489 31.6202 231.489 30.5646C231.489 29.8873 231.28 29.3396 230.862 28.9213C230.463 28.503 229.866 28.1345 229.069 27.8158C228.272 27.4971 227.077 27.0987 225.484 26.6207C223.93 26.1825 222.695 25.7144 221.779 25.2164C220.863 24.7185 220.176 24.101 219.717 23.364C219.259 22.627 219.03 21.7008 219.03 20.5854C219.03 19.5098 219.319 18.5437 219.897 17.6872C220.494 16.8307 221.341 16.1635 222.436 15.6854C223.532 15.1875 224.836 14.9385 226.35 14.9385C227.904 14.9385 229.238 15.2173 230.354 15.7751C231.469 16.3129 232.316 17 232.893 17.8366C233.471 18.6732 233.78 19.5098 233.82 20.3464C233.82 20.5057 233.76 20.6451 233.64 20.7646C233.541 20.8842 233.391 20.9439 233.192 20.9439H231.609C231.19 20.9439 230.932 20.7547 230.832 20.3762C230.712 19.5397 230.244 18.8525 229.428 18.3147C228.611 17.7569 227.585 17.4781 226.35 17.4781C224.996 17.4781 223.93 17.737 223.153 18.2549C222.377 18.7728 221.988 19.5397 221.988 20.5555C221.988 21.2327 222.167 21.7904 222.526 22.2287C222.904 22.6669 223.472 23.0553 224.229 23.3939C224.986 23.7126 226.091 24.0811 227.545 24.4994C229.238 24.9575 230.573 25.4355 231.549 25.9335C232.525 26.4115 233.252 27.0191 233.73 27.756C234.208 28.4731 234.447 29.3894 234.447 30.5048C234.447 32.3572 233.73 33.8113 232.296 34.867C230.862 35.9226 228.93 36.4505 226.5 36.4505Z" fill="white"/>
<path d="M243.388 36.1517C243.189 36.1517 243.02 36.0919 242.88 35.9724C242.761 35.833 242.701 35.6637 242.701 35.4645V17.8964H236.965C236.765 17.8964 236.596 17.8366 236.457 17.7171C236.337 17.5777 236.277 17.4084 236.277 17.2092V15.9543C236.277 15.7551 236.337 15.5858 236.457 15.4464C236.596 15.307 236.765 15.2373 236.965 15.2373H251.366C251.585 15.2373 251.754 15.307 251.874 15.4464C252.013 15.5659 252.083 15.7352 252.083 15.9543V17.2092C252.083 17.4084 252.013 17.5777 251.874 17.7171C251.734 17.8366 251.565 17.8964 251.366 17.8964H245.659V35.4645C245.659 35.6637 245.589 35.833 245.45 35.9724C245.31 36.0919 245.141 36.1517 244.942 36.1517H243.388Z" fill="white"/>
<path d="M251.81 36.1517C251.651 36.1517 251.512 36.0919 251.392 35.9724C251.273 35.8529 251.213 35.7135 251.213 35.5541C251.213 35.3948 251.223 35.2852 251.243 35.2255L258.652 15.8946C258.812 15.4564 259.13 15.2373 259.608 15.2373H261.64C262.118 15.2373 262.437 15.4564 262.596 15.8946L269.976 35.2255L270.036 35.5541C270.036 35.7135 269.976 35.8529 269.857 35.9724C269.737 36.0919 269.598 36.1517 269.438 36.1517H267.914C267.695 36.1517 267.526 36.1019 267.407 36.0023C267.287 35.8828 267.207 35.7633 267.168 35.6438L265.524 31.4011H255.724L254.081 35.6438C254.041 35.7633 253.952 35.8828 253.812 36.0023C253.693 36.1019 253.533 36.1517 253.334 36.1517H251.81ZM264.658 28.8316L260.624 18.225L256.591 28.8316H264.658Z" fill="white"/>
<path d="M273.918 36.1517C273.718 36.1517 273.549 36.0919 273.41 35.9724C273.29 35.833 273.23 35.6637 273.23 35.4645V15.9543C273.23 15.7352 273.29 15.5659 273.41 15.4464C273.549 15.307 273.718 15.2373 273.918 15.2373H281.208C283.498 15.2373 285.291 15.7751 286.586 16.8507C287.88 17.9263 288.528 19.4799 288.528 21.5116C288.528 23.0254 288.149 24.2703 287.392 25.2463C286.655 26.2223 285.61 26.8995 284.255 27.278L288.856 35.2255C288.916 35.345 288.946 35.4545 288.946 35.5541C288.946 35.7135 288.876 35.8529 288.737 35.9724C288.617 36.0919 288.478 36.1517 288.319 36.1517H286.885C286.586 36.1517 286.347 36.082 286.167 35.9426C286.008 35.8031 285.859 35.6039 285.719 35.345L281.387 27.756H276.158V35.4645C276.158 35.6637 276.089 35.833 275.949 35.9724C275.81 36.0919 275.641 36.1517 275.441 36.1517H273.918ZM281.088 25.2164C284.056 25.2164 285.54 23.9715 285.54 21.4817C285.54 18.9919 284.056 17.747 281.088 17.747H276.158V25.2164H281.088Z" fill="white"/>
<path d="M297.834 36.1517C297.634 36.1517 297.465 36.0919 297.326 35.9724C297.206 35.833 297.146 35.6637 297.146 35.4645V17.8964H291.41C291.211 17.8964 291.041 17.8366 290.902 17.7171C290.782 17.5777 290.723 17.4084 290.723 17.2092V15.9543C290.723 15.7551 290.782 15.5858 290.902 15.4464C291.041 15.307 291.211 15.2373 291.41 15.2373H305.811C306.03 15.2373 306.199 15.307 306.319 15.4464C306.458 15.5659 306.528 15.7352 306.528 15.9543V17.2092C306.528 17.4084 306.458 17.5777 306.319 17.7171C306.179 17.8366 306.01 17.8964 305.811 17.8964H300.104V35.4645C300.104 35.6637 300.035 35.833 299.895 35.9724C299.756 36.0919 299.586 36.1517 299.387 36.1517H297.834Z" fill="white"/>
<path d="M310.565 36.1517C310.365 36.1517 310.196 36.0919 310.057 35.9724C309.937 35.833 309.877 35.6637 309.877 35.4645V15.9543C309.877 15.7352 309.937 15.5659 310.057 15.4464C310.196 15.307 310.365 15.2373 310.565 15.2373H322.904C323.103 15.2373 323.263 15.307 323.382 15.4464C323.521 15.5659 323.591 15.7352 323.591 15.9543V17.0897C323.591 17.2889 323.531 17.4582 323.412 17.5976C323.292 17.7171 323.123 17.7769 322.904 17.7769H312.746V24.3201H322.247C322.446 24.3201 322.605 24.3898 322.725 24.5292C322.864 24.6488 322.934 24.8181 322.934 25.0372V26.1426C322.934 26.3418 322.864 26.5111 322.725 26.6506C322.605 26.7701 322.446 26.8298 322.247 26.8298H312.746V33.6121H323.143C323.362 33.6121 323.531 33.6718 323.651 33.7914C323.77 33.9109 323.83 34.0802 323.83 34.2993V35.4645C323.83 35.6637 323.761 35.833 323.621 35.9724C323.502 36.0919 323.342 36.1517 323.143 36.1517H310.565Z" fill="white"/>
<path d="M328.684 36.1517C328.485 36.1517 328.315 36.0919 328.176 35.9724C328.056 35.833 327.997 35.6637 327.997 35.4645V15.9543C327.997 15.7352 328.056 15.5659 328.176 15.4464C328.315 15.307 328.485 15.2373 328.684 15.2373H335.974C338.265 15.2373 340.057 15.7751 341.352 16.8507C342.647 17.9263 343.294 19.4799 343.294 21.5116C343.294 23.0254 342.916 24.2703 342.159 25.2463C341.422 26.2223 340.376 26.8995 339.021 27.278L343.623 35.2255C343.682 35.345 343.712 35.4545 343.712 35.5541C343.712 35.7135 343.643 35.8529 343.503 35.9724C343.384 36.0919 343.244 36.1517 343.085 36.1517H341.651C341.352 36.1517 341.113 36.082 340.934 35.9426C340.774 35.8031 340.625 35.6039 340.485 35.345L336.153 27.756H330.925V35.4645C330.925 35.6637 330.855 35.833 330.715 35.9724C330.576 36.0919 330.407 36.1517 330.208 36.1517H328.684ZM335.854 25.2164C338.822 25.2164 340.306 23.9715 340.306 21.4817C340.306 18.9919 338.822 17.747 335.854 17.747H330.925V25.2164H335.854Z" fill="white"/>
</svg>
