<svg width="37" height="36" viewBox="0 0 37 36" fill="none" xmlns="http://www.w3.org/2000/svg">
<rect x="0.5" y="0.000488281" width="36" height="36" rx="18" fill="#EFF6FF"/>
<path d="M17.2499 14.0806V16.9406L16.2399 16.5906C15.7299 16.4106 15.4199 16.2406 15.4199 15.3706C15.4199 14.6606 15.9499 14.0806 16.5999 14.0806H17.2499Z" fill="#1FA5FF"/>
<path d="M20.58 20.6305C20.58 21.3405 20.05 21.9205 19.4 21.9205H18.75V19.0605L19.76 19.4105C20.27 19.5905 20.58 19.7605 20.58 20.6305Z" fill="#1FA5FF"/>
<path d="M22.19 8.00049H13.81C10.17 8.00049 8 10.1705 8 13.8105V22.1905C8 25.8305 10.17 28.0005 13.81 28.0005H22.19C25.83 28.0005 28 25.8305 28 22.1905V13.8105C28 10.1705 25.83 8.00049 22.19 8.00049ZM20.26 18.0005C21.04 18.2705 22.08 18.8405 22.08 20.6305C22.08 22.1705 20.88 23.4205 19.4 23.4205H18.75V24.0005C18.75 24.4105 18.41 24.7505 18 24.7505C17.59 24.7505 17.25 24.4105 17.25 24.0005V23.4205H16.89C15.25 23.4205 13.92 22.0305 13.92 20.3305C13.92 19.9205 14.25 19.5805 14.67 19.5805C15.08 19.5805 15.42 19.9205 15.42 20.3305C15.42 21.2105 16.08 21.9205 16.89 21.9205H17.25V18.5305L15.74 18.0005C14.96 17.7305 13.92 17.1605 13.92 15.3705C13.92 13.8305 15.12 12.5805 16.6 12.5805H17.25V12.0005C17.25 11.5905 17.59 11.2505 18 11.2505C18.41 11.2505 18.75 11.5905 18.75 12.0005V12.5805H19.11C20.75 12.5805 22.08 13.9705 22.08 15.6705C22.08 16.0805 21.75 16.4205 21.33 16.4205C20.92 16.4205 20.58 16.0805 20.58 15.6705C20.58 14.7905 19.92 14.0805 19.11 14.0805H18.75V17.4705L20.26 18.0005Z" fill="#1FA5FF"/>
</svg>
