<svg width="37" height="36" viewBox="0 0 37 36" fill="none" xmlns="http://www.w3.org/2000/svg">
<rect x="0.5" width="36" height="36" rx="18" fill="#0C2650"/>
<path d="M17.2499 14.0801V16.9401L16.2399 16.5901C15.7299 16.4101 15.4199 16.2401 15.4199 15.3701C15.4199 14.6601 15.9499 14.0801 16.5999 14.0801H17.2499Z" fill="#1FA5FF"/>
<path d="M20.58 20.6296C20.58 21.3396 20.05 21.9196 19.4 21.9196H18.75V19.0596L19.76 19.4096C20.27 19.5896 20.58 19.7596 20.58 20.6296Z" fill="#1FA5FF"/>
<path d="M22.19 8H13.81C10.17 8 8 10.17 8 13.81V22.19C8 25.83 10.17 28 13.81 28H22.19C25.83 28 28 25.83 28 22.19V13.81C28 10.17 25.83 8 22.19 8ZM20.26 18C21.04 18.27 22.08 18.84 22.08 20.63C22.08 22.17 20.88 23.42 19.4 23.42H18.75V24C18.75 24.41 18.41 24.75 18 24.75C17.59 24.75 17.25 24.41 17.25 24V23.42H16.89C15.25 23.42 13.92 22.03 13.92 20.33C13.92 19.92 14.25 19.58 14.67 19.58C15.08 19.58 15.42 19.92 15.42 20.33C15.42 21.21 16.08 21.92 16.89 21.92H17.25V18.53L15.74 18C14.96 17.73 13.92 17.16 13.92 15.37C13.92 13.83 15.12 12.58 16.6 12.58H17.25V12C17.25 11.59 17.59 11.25 18 11.25C18.41 11.25 18.75 11.59 18.75 12V12.58H19.11C20.75 12.58 22.08 13.97 22.08 15.67C22.08 16.08 21.75 16.42 21.33 16.42C20.92 16.42 20.58 16.08 20.58 15.67C20.58 14.79 19.92 14.08 19.11 14.08H18.75V17.47L20.26 18Z" fill="#1FA5FF"/>
</svg>
