<svg width="37" height="36" viewBox="0 0 37 36" fill="none" xmlns="http://www.w3.org/2000/svg">
<rect x="0.5" width="36" height="36" rx="18" fill="#0C2650"/>
<path d="M26.9098 12.9595V14.7895C26.9098 15.4295 26.6098 16.0295 26.0898 16.3995L15.0898 24.4595C14.3798 24.9795 13.4098 24.9795 12.7098 24.4495L11.2698 23.3695C10.6198 22.8795 10.0898 21.8195 10.0898 21.0095V12.9595C10.0898 11.8395 10.9498 10.5995 11.9998 10.2095L17.4698 8.15945C18.0398 7.94945 18.9598 7.94945 19.5298 8.15945L24.9998 10.2095C26.0498 10.5995 26.9098 11.8395 26.9098 12.9595Z" fill="#1FA5FF"/>
<path d="M25.3196 18.3394C25.9796 17.8594 26.9096 18.3294 26.9096 19.1494V21.0294C26.9096 21.8394 26.3796 22.8894 25.7296 23.3794L20.2596 27.4694C19.7796 27.8194 19.1396 27.9994 18.4996 27.9994C17.8596 27.9994 17.2196 27.8194 16.7396 27.4594L15.9096 26.8394C15.3696 26.4394 15.3696 25.6294 15.9196 25.2294L25.3196 18.3394Z" fill="#1FA5FF"/>
</svg>
