<svg width="37" height="36" viewBox="0 0 37 36" fill="none" xmlns="http://www.w3.org/2000/svg">
<rect x="0.5" width="36" height="36" rx="18" fill="#0C2650"/>
<path d="M25.5002 10.1103L20.5102 8.24031C19.6802 7.93031 18.3202 7.93031 17.4902 8.24031L12.5002 10.1103C11.3502 10.5403 10.4102 11.9003 10.4102 13.1203V20.5503C10.4102 21.7303 11.1902 23.2803 12.1402 23.9903L16.4402 27.2003C17.8502 28.2603 20.1702 28.2603 21.5802 27.2003L25.8802 23.9903C26.8302 23.2803 27.6102 21.7303 27.6102 20.5503V13.1203C27.5902 11.9003 26.6502 10.5403 25.5002 10.1103ZM18.9302 13.0303C20.1102 13.0303 21.0702 13.9903 21.0702 15.1703C21.0702 16.3303 20.1602 17.2603 19.0102 17.3003H18.9902H18.9702C18.9502 17.3003 18.9302 17.3003 18.9102 17.3003C17.7102 17.2603 16.8102 16.3303 16.8102 15.1703C16.8002 13.9903 17.7602 13.0303 18.9302 13.0303ZM21.1902 22.3603C20.5802 22.7603 19.7902 22.9703 19.0002 22.9703C18.2102 22.9703 17.4102 22.7703 16.8102 22.3603C16.2402 21.9803 15.9302 21.4603 15.9202 20.8903C15.9202 20.3303 16.2402 19.7903 16.8102 19.4103C18.0202 18.6103 19.9902 18.6103 21.2002 19.4103C21.7702 19.7903 22.0902 20.3103 22.0902 20.8803C22.0802 21.4403 21.7602 21.9803 21.1902 22.3603Z" fill="#1FA5FF"/>
</svg>
