<svg width="37" height="36" viewBox="0 0 37 36" fill="none" xmlns="http://www.w3.org/2000/svg">
<rect x="0.5" width="36" height="36" rx="18" fill="#EFF6FF"/>
<path d="M25.0398 10.1198L19.5398 8.05984C18.9698 7.84984 18.0398 7.84984 17.4698 8.05984L11.9698 10.1198C10.9098 10.5198 10.0498 11.7598 10.0498 12.8898V20.9898C10.0498 21.7998 10.5798 22.8698 11.2298 23.3498L16.7298 27.4598C17.6998 28.1898 19.2898 28.1898 20.2598 27.4598L25.7598 23.3498C26.4098 22.8598 26.9398 21.7998 26.9398 20.9898V12.8898C26.9498 11.7598 26.0898 10.5198 25.0398 10.1198ZM21.9798 15.7198L17.6798 20.0198C17.5298 20.1698 17.3398 20.2398 17.1498 20.2398C16.9598 20.2398 16.7698 20.1698 16.6198 20.0198L15.0198 18.3998C14.7298 18.1098 14.7298 17.6298 15.0198 17.3398C15.3098 17.0498 15.7898 17.0498 16.0798 17.3398L17.1598 18.4198L20.9298 14.6498C21.2198 14.3598 21.6998 14.3598 21.9898 14.6498C22.2798 14.9398 22.2798 15.4298 21.9798 15.7198Z" fill="#1FA5FF"/>
</svg>
