<svg width="291" height="43" viewBox="0 0 291 43" fill="none" xmlns="http://www.w3.org/2000/svg">
<path fill-rule="evenodd" clip-rule="evenodd" d="M25.2118 1.17707C23.6412 -0.39281 21.0954 -0.392295 19.5255 1.17824L6.42362 14.2855L6.41246 14.2823L6.37105 14.2867C6.3881 14.2949 6.40484 14.303 6.42124 14.3112C4.12289 14.552 3.14774 15.2426 3.1367 16.1296C3.14059 16.4595 3.27596 16.8158 3.5246 17.1857L3.51265 17.1977C5.60209 20.3491 15.9531 24.5062 23.2761 21.6896C17.7878 24.4338 4.86249 24.9777 1.06613 19.6496C0.241684 20.5415 -0.103261 21.7136 0.0266404 22.84C1.02953 28.3676 12.2419 29.8757 23.4544 21.8668L25.8808 24.2931C22.8615 27.395 18.4018 45.4124 25.0285 42.6615C25.1857 42.5548 25.3191 42.4593 25.5006 42.322L25.7959 42.0432C25.7789 42.0474 25.762 42.0514 25.7451 42.0554L43.4929 25.3005C45.1407 23.7447 45.178 21.1352 43.5752 19.533L25.2118 1.17707ZM23.2791 6.63733L23.8856 4.21101L24.4922 6.63733L26.3119 7.24391L24.4922 7.85051L23.8856 10.2768L23.2791 7.85051L21.4593 7.24391L23.2791 6.63733ZM15.7711 14.558L16.1754 12.9404L16.5798 14.558L17.793 14.9623L16.5798 15.3667L16.1754 16.9843L15.7711 15.3667L14.558 14.9623L15.7711 14.558ZM29.8553 28.2019L29.4509 29.8194L28.2378 30.2239L29.4509 30.6283L29.8553 32.2457L30.2597 30.6283L31.4729 30.2239L30.2597 29.8194L29.8553 28.2019Z" fill="#1FA5FF"/>
<path fill-rule="evenodd" clip-rule="evenodd" d="M44.8599 2.78256C41.0657 2.78256 37.4675 4.46787 35.0384 7.38268L26.3969 17.7526L31.3869 10.2675L23.1039 13.8174C22.052 14.2682 21.7881 15.6387 22.5972 16.448L25.2627 19.1134L23.9018 20.7466L26.8959 23.7406L28.5289 22.3796L31.1945 25.0451C32.0036 25.8543 33.3742 25.5904 33.825 24.5386L37.3748 16.2556L29.8899 21.2456L40.2598 12.604C43.1746 10.175 44.8599 6.57679 44.8599 2.78256ZM36.6264 11.0162C37.4532 11.843 38.7936 11.843 39.6204 11.0162C40.4471 10.1894 40.4471 8.84898 39.6204 8.02226C38.7936 7.19545 37.4532 7.19545 36.6264 8.02226C35.7996 8.84898 35.7996 10.1894 36.6264 11.0162Z" fill="#048EEB"/>
<path opacity="0.6" d="M0.969727 19.5101C2.95211 26.302 15.0046 25.9479 23.2737 21.6906C17.7366 24.4575 4.6381 24.986 0.969727 19.5101Z" fill="#696969"/>
<path opacity="0.6" d="M25.028 42.6614C19.4442 44.9793 21.732 32.5513 24.3967 26.7265C22.4544 31.9038 20.7963 43.3169 25.7954 42.043L25.5001 42.3219C25.3186 42.4592 25.1852 42.5546 25.028 42.6614Z" fill="#696969"/>
<path d="M60.9479 30.5329C60.7629 30.5329 60.6031 30.4656 60.4685 30.331C60.3339 30.1964 60.2666 30.0366 60.2666 29.8516V13.5506C60.2666 13.3655 60.3339 13.2057 60.4685 13.0712C60.6031 12.9366 60.7629 12.8693 60.9479 12.8693H68.5937C70.9489 12.8693 72.7994 13.3908 74.1452 14.4338C75.5078 15.4768 76.1891 17.016 76.1891 19.0515C76.1891 21.0702 75.5162 22.5759 74.1704 23.5684C72.8246 24.5441 70.9657 25.0319 68.5937 25.0319H66.8274V29.8516C66.8274 30.0366 66.7601 30.1964 66.6255 30.331C66.4909 30.4656 66.3311 30.5329 66.1461 30.5329H60.9479ZM68.4676 20.3637C68.7704 20.3637 69.0395 20.2544 69.275 20.0357C69.5106 19.8001 69.6283 19.4553 69.6283 19.0011C69.6283 18.6142 69.5358 18.2777 69.3507 17.9917C69.1657 17.7057 68.8713 17.5628 68.4676 17.5628H66.7012V20.3637H68.4676Z" fill="#212121"/>
<path d="M78.7397 30.5329C78.5546 30.5329 78.3948 30.4656 78.2602 30.331C78.1256 30.1964 78.0584 30.0366 78.0584 29.8516V13.5506C78.0584 13.3655 78.1256 13.2057 78.2602 13.0712C78.3948 12.9366 78.5546 12.8693 78.7397 12.8693H86.2088C88.6313 12.8693 90.5238 13.416 91.8864 14.5095C93.2491 15.5861 93.9304 17.0833 93.9304 19.0011C93.9304 20.0945 93.6864 21.0618 93.1986 21.903C92.7107 22.7273 92.0462 23.4086 91.2051 23.9469L94.3089 29.7002C94.3593 29.8011 94.3846 29.8936 94.3846 29.9777C94.3846 30.1292 94.3257 30.2637 94.2079 30.3815C94.107 30.4824 93.9808 30.5329 93.8294 30.5329H88.6565C88.3537 30.5329 88.1098 30.4656 87.9247 30.331C87.7565 30.1796 87.6388 30.0198 87.5715 29.8516L85.4014 25.0319H84.3668V29.8516C84.3668 30.0366 84.2995 30.1964 84.1649 30.331C84.0303 30.4656 83.8705 30.5329 83.6855 30.5329H78.7397ZM86.2088 20.2375C86.5789 20.2375 86.8649 20.1198 87.0668 19.8843C87.2687 19.6319 87.3696 19.3207 87.3696 18.9506C87.3696 18.5805 87.2687 18.2609 87.0668 17.9917C86.8817 17.7057 86.5958 17.5628 86.2088 17.5628H84.3668V20.2375H86.2088Z" fill="#212121"/>
<path d="M104.12 30.7852C101.596 30.7852 99.586 30.2049 98.0888 29.0441C96.5916 27.8833 95.7925 26.1927 95.6916 23.9721C95.6748 23.5179 95.6664 22.7861 95.6664 21.7768C95.6664 20.7506 95.6748 20.002 95.6916 19.531C95.7421 18.0843 96.1206 16.8394 96.8271 15.7964C97.5505 14.7534 98.5346 13.9627 99.7795 13.4244C101.024 12.8861 102.471 12.6169 104.12 12.6169C105.768 12.6169 107.215 12.8861 108.46 13.4244C109.705 13.9627 110.68 14.7534 111.387 15.7964C112.11 16.8394 112.497 18.0843 112.548 19.531C112.581 20.473 112.598 21.2216 112.598 21.7768C112.598 22.3319 112.581 23.0637 112.548 23.9721C112.447 26.1927 111.648 27.8833 110.151 29.0441C108.653 30.2049 106.643 30.7852 104.12 30.7852ZM104.12 25.8647C104.692 25.8647 105.137 25.6964 105.457 25.36C105.794 25.0235 105.97 24.5104 105.987 23.8207C106.021 22.845 106.037 22.1301 106.037 21.6759C106.037 21.188 106.021 20.4899 105.987 19.5815C105.97 18.8917 105.794 18.3786 105.457 18.0422C105.121 17.7057 104.675 17.5375 104.12 17.5375C103.565 17.5375 103.119 17.7057 102.782 18.0422C102.446 18.3786 102.269 18.8917 102.252 19.5815C102.236 20.0357 102.227 20.7338 102.227 21.6759C102.227 22.6179 102.236 23.3329 102.252 23.8207C102.269 24.5104 102.437 25.0235 102.757 25.36C103.093 25.6964 103.548 25.8647 104.12 25.8647Z" fill="#212121"/>
<path d="M121.738 30.7852C120.324 30.7852 119.012 30.5413 117.801 30.0535C116.59 29.5656 115.614 28.8591 114.874 27.9338C114.134 26.9918 113.755 25.8815 113.738 24.603C113.738 24.4516 113.789 24.3254 113.89 24.2245C114.008 24.1067 114.142 24.0478 114.294 24.0478H119.441C119.71 24.0478 119.912 24.1151 120.047 24.2497C120.198 24.3675 120.341 24.5693 120.476 24.8553C120.644 25.2254 120.829 25.4861 121.031 25.6375C121.25 25.7889 121.552 25.8647 121.939 25.8647C122.427 25.8647 122.797 25.7132 123.05 25.4104C123.302 25.0908 123.428 24.5609 123.428 23.8207V17.9917H115.934C115.749 17.9917 115.589 17.9244 115.454 17.7899C115.32 17.6553 115.252 17.4955 115.252 17.3104V13.5506C115.252 13.3655 115.32 13.2057 115.454 13.0712C115.589 12.9366 115.749 12.8693 115.934 12.8693H129.282C129.467 12.8693 129.627 12.9366 129.762 13.0712C129.896 13.2057 129.964 13.3655 129.964 13.5506V24.0226C129.964 25.5198 129.602 26.7815 128.879 27.8076C128.172 28.817 127.196 29.5656 125.952 30.0535C124.724 30.5413 123.319 30.7852 121.738 30.7852Z" fill="#212121"/>
<path d="M133.273 30.5329C133.088 30.5329 132.928 30.4656 132.794 30.331C132.659 30.1964 132.592 30.0366 132.592 29.8516V13.5506C132.592 13.3655 132.659 13.2057 132.794 13.0712C132.928 12.9366 133.088 12.8693 133.273 12.8693H146.218C146.403 12.8693 146.563 12.9366 146.697 13.0712C146.832 13.2057 146.899 13.3655 146.899 13.5506V17.1085C146.899 17.2936 146.832 17.4534 146.697 17.588C146.563 17.7226 146.403 17.7899 146.218 17.7899H138.648V19.3796H145.663C145.848 19.3796 146.008 19.4469 146.142 19.5815C146.277 19.716 146.344 19.8758 146.344 20.0609V23.3413C146.344 23.5263 146.277 23.6861 146.142 23.8207C146.008 23.9553 145.848 24.0226 145.663 24.0226H138.648V25.6123H146.42C146.605 25.6123 146.765 25.6796 146.899 25.8142C147.034 25.9488 147.101 26.1086 147.101 26.2936V29.8516C147.101 30.0366 147.034 30.1964 146.899 30.331C146.765 30.4656 146.605 30.5329 146.42 30.5329H133.273Z" fill="#212121"/>
<path d="M157.298 30.7852C154.758 30.7852 152.739 30.2301 151.242 29.1198C149.745 27.9927 148.946 26.2684 148.845 23.9469C148.828 23.4927 148.82 22.7525 148.82 21.7263C148.82 20.6833 148.828 19.9263 148.845 19.4553C148.946 17.2011 149.762 15.502 151.293 14.3581C152.824 13.1973 154.825 12.6169 157.298 12.6169C158.812 12.6169 160.2 12.844 161.462 13.2983C162.74 13.7525 163.775 14.4674 164.566 15.4431C165.373 16.402 165.785 17.6132 165.802 19.0768C165.802 19.2282 165.743 19.3628 165.625 19.4805C165.525 19.5815 165.398 19.6319 165.247 19.6319H160.099C159.83 19.6319 159.628 19.5815 159.494 19.4805C159.376 19.3796 159.267 19.1861 159.166 18.9001C158.981 18.3955 158.737 18.0422 158.434 17.8403C158.131 17.6385 157.744 17.5375 157.273 17.5375C156.684 17.5375 156.23 17.6973 155.911 18.017C155.591 18.3198 155.423 18.8413 155.406 19.5815C155.389 20.0357 155.381 20.7338 155.381 21.6759C155.381 22.6179 155.389 23.3329 155.406 23.8207C155.423 24.5609 155.591 25.0908 155.911 25.4104C156.23 25.7132 156.684 25.8647 157.273 25.8647C158.232 25.8647 158.863 25.4104 159.166 24.502C159.25 24.216 159.351 24.0226 159.468 23.9217C159.603 23.8207 159.813 23.7703 160.099 23.7703H165.247C165.398 23.7703 165.525 23.8291 165.625 23.9469C165.743 24.0478 165.802 24.174 165.802 24.3254C165.785 25.7889 165.373 27.0086 164.566 27.9843C163.775 28.9432 162.74 29.6497 161.462 30.1039C160.2 30.5581 158.812 30.7852 157.298 30.7852Z" fill="#212121"/>
<path d="M172.398 30.5329C172.213 30.5329 172.053 30.4656 171.919 30.331C171.784 30.1964 171.717 30.0366 171.717 29.8516V18.2945H167.528C167.343 18.2945 167.183 18.2272 167.049 18.0927C166.914 17.9581 166.847 17.7983 166.847 17.6132V13.5506C166.847 13.3655 166.914 13.2057 167.049 13.0712C167.183 12.9366 167.343 12.8693 167.528 12.8693H182.315C182.5 12.8693 182.66 12.9366 182.794 13.0712C182.929 13.2057 182.996 13.3655 182.996 13.5506V17.6132C182.996 17.7983 182.929 17.9581 182.794 18.0927C182.66 18.2272 182.5 18.2945 182.315 18.2945H178.126V29.8516C178.126 30.0366 178.059 30.1964 177.924 30.331C177.79 30.4656 177.63 30.5329 177.445 30.5329H172.398Z" fill="#212121"/>
<path d="M191.294 30.7852C189.898 30.7852 188.686 30.5665 187.66 30.1292C186.651 29.6918 185.877 29.1198 185.339 28.4133C184.8 27.6899 184.514 26.9161 184.481 26.0918C184.481 25.9572 184.531 25.8394 184.632 25.7385C184.75 25.6207 184.885 25.5618 185.036 25.5618H186.323C186.642 25.5618 186.861 25.7301 186.979 26.0665C187.13 26.7731 187.559 27.3787 188.266 27.8833C188.989 28.388 189.999 28.6404 191.294 28.6404C192.69 28.6404 193.742 28.3964 194.448 27.9086C195.155 27.4039 195.508 26.7058 195.508 25.8142C195.508 25.2422 195.331 24.7796 194.978 24.4263C194.642 24.0731 194.137 23.7618 193.464 23.4927C192.791 23.2235 191.782 22.8871 190.436 22.4833C189.124 22.1132 188.081 21.7179 187.307 21.2973C186.533 20.8768 185.953 20.3553 185.566 19.7329C185.179 19.1104 184.985 18.3282 184.985 17.3861C184.985 16.4777 185.229 15.6618 185.717 14.9384C186.222 14.2151 186.937 13.6515 187.862 13.2478C188.787 12.8272 189.889 12.6169 191.168 12.6169C192.48 12.6169 193.607 12.8525 194.549 13.3235C195.491 13.7777 196.206 14.3581 196.694 15.0646C197.182 15.7712 197.443 16.4777 197.476 17.1842C197.476 17.3188 197.426 17.4366 197.325 17.5375C197.241 17.6385 197.115 17.6889 196.946 17.6889H195.609C195.256 17.6889 195.037 17.5291 194.953 17.2095C194.852 16.5029 194.457 15.9226 193.767 15.4684C193.077 14.9973 192.211 14.7618 191.168 14.7618C190.024 14.7618 189.124 14.9805 188.468 15.4179C187.812 15.8553 187.484 16.5029 187.484 17.3609C187.484 17.9328 187.635 18.4039 187.938 18.774C188.257 19.1441 188.737 19.4721 189.376 19.7581C190.015 20.0272 190.949 20.3385 192.177 20.6917C193.607 21.0787 194.734 21.4824 195.558 21.903C196.383 22.3067 196.997 22.8198 197.4 23.4422C197.804 24.0478 198.006 24.8217 198.006 25.7637C198.006 27.3282 197.4 28.5562 196.189 29.4478C194.978 30.3394 193.346 30.7852 191.294 30.7852Z" fill="#212121"/>
<path d="M205.557 30.5329C205.389 30.5329 205.246 30.4824 205.129 30.3815C205.028 30.2637 204.977 30.1207 204.977 29.9525V15.1151H200.132C199.964 15.1151 199.821 15.0646 199.703 14.9637C199.602 14.8459 199.552 14.7029 199.552 14.5347V13.4749C199.552 13.3067 199.602 13.1637 199.703 13.0459C199.821 12.9282 199.964 12.8693 200.132 12.8693H212.295C212.48 12.8693 212.623 12.9282 212.724 13.0459C212.842 13.1469 212.9 13.2898 212.9 13.4749V14.5347C212.9 14.7029 212.842 14.8459 212.724 14.9637C212.606 15.0646 212.463 15.1151 212.295 15.1151H207.475V29.9525C207.475 30.1207 207.416 30.2637 207.299 30.3815C207.181 30.4824 207.038 30.5329 206.87 30.5329H205.557Z" fill="#212121"/>
<path d="M212.67 30.5329C212.536 30.5329 212.418 30.4824 212.317 30.3815C212.216 30.2806 212.166 30.1628 212.166 30.0282C212.166 29.8936 212.174 29.8011 212.191 29.7506L218.449 13.4244C218.584 13.0543 218.853 12.8693 219.256 12.8693H220.972C221.376 12.8693 221.645 13.0543 221.78 13.4244L228.013 29.7506L228.063 30.0282C228.063 30.1628 228.013 30.2806 227.912 30.3815C227.811 30.4824 227.693 30.5329 227.558 30.5329H226.271C226.086 30.5329 225.943 30.4908 225.842 30.4067C225.742 30.3058 225.674 30.2049 225.641 30.1039L224.253 26.5207H215.976L214.588 30.1039C214.555 30.2049 214.479 30.3058 214.361 30.4067C214.26 30.4908 214.126 30.5329 213.957 30.5329H212.67ZM223.521 24.3506L220.114 15.3927L216.708 24.3506H223.521Z" fill="#212121"/>
<path d="M231.341 30.5329C231.173 30.5329 231.03 30.4824 230.912 30.3815C230.812 30.2637 230.761 30.1207 230.761 29.9525V13.4749C230.761 13.2898 230.812 13.1469 230.912 13.0459C231.03 12.9282 231.173 12.8693 231.341 12.8693H237.498C239.433 12.8693 240.947 13.3235 242.041 14.2319C243.134 15.1403 243.681 16.4525 243.681 18.1684C243.681 19.4469 243.361 20.4983 242.722 21.3226C242.099 22.1469 241.216 22.7188 240.072 23.0385L243.958 29.7506C244.009 29.8516 244.034 29.9441 244.034 30.0282C244.034 30.1628 243.975 30.2806 243.857 30.3815C243.756 30.4824 243.639 30.5329 243.504 30.5329H242.293C242.041 30.5329 241.839 30.474 241.687 30.3563C241.553 30.2385 241.427 30.0703 241.309 29.8516L237.65 23.4422H233.234V29.9525C233.234 30.1207 233.175 30.2637 233.057 30.3815C232.94 30.4824 232.797 30.5329 232.628 30.5329H231.341ZM237.398 21.2973C239.904 21.2973 241.157 20.2459 241.157 18.1431C241.157 16.0403 239.904 14.9889 237.398 14.9889H233.234V21.2973H237.398Z" fill="#212121"/>
<path d="M251.54 30.5329C251.372 30.5329 251.229 30.4824 251.111 30.3815C251.01 30.2637 250.96 30.1207 250.96 29.9525V15.1151H246.115C245.947 15.1151 245.804 15.0646 245.686 14.9637C245.585 14.8459 245.534 14.7029 245.534 14.5347V13.4749C245.534 13.3067 245.585 13.1637 245.686 13.0459C245.804 12.9282 245.947 12.8693 246.115 12.8693H258.277C258.462 12.8693 258.605 12.9282 258.706 13.0459C258.824 13.1469 258.883 13.2898 258.883 13.4749V14.5347C258.883 14.7029 258.824 14.8459 258.706 14.9637C258.589 15.0646 258.446 15.1151 258.277 15.1151H253.458V29.9525C253.458 30.1207 253.399 30.2637 253.281 30.3815C253.163 30.4824 253.02 30.5329 252.852 30.5329H251.54Z" fill="#212121"/>
<path d="M262.292 30.5329C262.124 30.5329 261.981 30.4824 261.863 30.3815C261.762 30.2637 261.712 30.1207 261.712 29.9525V13.4749C261.712 13.2898 261.762 13.1469 261.863 13.0459C261.981 12.9282 262.124 12.8693 262.292 12.8693H272.714C272.882 12.8693 273.016 12.9282 273.117 13.0459C273.235 13.1469 273.294 13.2898 273.294 13.4749V14.4338C273.294 14.602 273.244 14.745 273.143 14.8627C273.042 14.9637 272.899 15.0141 272.714 15.0141H264.134V20.5403H272.159C272.327 20.5403 272.461 20.5992 272.562 20.717C272.68 20.8179 272.739 20.9609 272.739 21.1459V22.0796C272.739 22.2478 272.68 22.3908 272.562 22.5086C272.461 22.6095 272.327 22.66 272.159 22.66H264.134V28.388H272.916C273.101 28.388 273.244 28.4385 273.345 28.5394C273.445 28.6404 273.496 28.7834 273.496 28.9684V29.9525C273.496 30.1207 273.437 30.2637 273.319 30.3815C273.218 30.4824 273.084 30.5329 272.916 30.5329H262.292Z" fill="#212121"/>
<path d="M277.595 30.5329C277.427 30.5329 277.284 30.4824 277.166 30.3815C277.065 30.2637 277.015 30.1207 277.015 29.9525V13.4749C277.015 13.2898 277.065 13.1469 277.166 13.0459C277.284 12.9282 277.427 12.8693 277.595 12.8693H283.752C285.687 12.8693 287.201 13.3235 288.294 14.2319C289.388 15.1403 289.934 16.4525 289.934 18.1684C289.934 19.4469 289.615 20.4983 288.975 21.3226C288.353 22.1469 287.47 22.7188 286.326 23.0385L290.212 29.7506C290.262 29.8516 290.288 29.9441 290.288 30.0282C290.288 30.1628 290.229 30.2806 290.111 30.3815C290.01 30.4824 289.892 30.5329 289.758 30.5329H288.546C288.294 30.5329 288.092 30.474 287.941 30.3563C287.806 30.2385 287.68 30.0703 287.562 29.8516L283.903 23.4422H279.488V29.9525C279.488 30.1207 279.429 30.2637 279.311 30.3815C279.193 30.4824 279.05 30.5329 278.882 30.5329H277.595ZM283.651 21.2973C286.158 21.2973 287.411 20.2459 287.411 18.1431C287.411 16.0403 286.158 14.9889 283.651 14.9889H279.488V21.2973H283.651Z" fill="#212121"/>
</svg>
