<svg width="358" height="50" viewBox="0 0 358 50" fill="none" xmlns="http://www.w3.org/2000/svg">
<path d="M66.4852 19.5572C65.7824 19.3844 64.9605 19.1998 64.0134 19.0062C63.0093 18.806 61.9876 18.7062 60.9637 18.7084C60.3749 18.7159 59.787 18.7596 59.2036 18.8394C58.6797 18.9001 58.1611 18.9997 57.652 19.1372V40.2822H49.8164V14.0982C51.4469 13.5449 53.1063 13.0807 54.7871 12.7074C56.8851 12.2491 59.0278 12.0283 61.1752 12.0492C61.5951 12.0492 62.1014 12.076 62.7 12.1266C63.2986 12.1773 63.8913 12.2517 64.4869 12.3381C65.0825 12.4245 65.6782 12.5317 66.2738 12.6538C66.7952 12.7537 67.3058 12.9033 67.7987 13.1005L66.4852 19.5572Z" fill="white"/>
<path d="M97.3542 26.3951C97.3765 28.4197 97.0564 30.4336 96.4073 32.3514C95.829 34.0681 94.8977 35.6446 93.6733 36.9795C92.4749 38.2681 91.0132 39.2838 89.3876 39.9577C87.611 40.6809 85.7068 41.0384 83.7888 41.0089C81.8884 41.0357 80.0021 40.6781 78.2434 39.9577C76.6174 39.2846 75.1556 38.2688 73.9578 36.9795C72.7279 35.6392 71.7799 34.0653 71.1702 32.3514C70.4868 30.441 70.1489 28.424 70.1725 26.3951C70.1439 24.3635 70.4912 22.3441 71.197 20.4388C71.8239 18.7377 72.7895 17.1815 74.0353 15.8643C75.2545 14.596 76.7226 13.5932 78.3476 12.9189C80.0724 12.2068 81.9229 11.8493 83.7888 11.8676C85.6723 11.8459 87.5409 12.2034 89.2834 12.9189C90.9027 13.5892 92.3629 14.5927 93.569 15.8643C94.7977 17.1851 95.746 18.7413 96.3565 20.4388C97.0432 22.3484 97.3811 24.3659 97.3542 26.3951ZM89.3638 26.3951C89.3638 23.9729 88.8814 22.0708 87.9164 20.6889C86.9515 19.3071 85.5757 18.6122 83.7888 18.6042C82.0019 18.6042 80.612 19.2991 79.6193 20.6889C78.6266 22.0788 78.1362 23.9808 78.1481 26.3951C78.1481 28.8134 78.6385 30.7323 79.6193 32.1519C80.0723 32.8356 80.694 33.3909 81.4244 33.764C82.1548 34.137 82.9693 34.3152 83.7888 34.2813C84.6032 34.3177 85.4129 34.1416 86.1387 33.7704C86.8645 33.3991 87.4813 32.8455 87.9284 32.1638C88.8854 30.7363 89.3638 28.8134 89.3638 26.3951Z" fill="white"/>
<path d="M100.824 50C100.094 49.9847 99.3653 49.932 98.6408 49.8421C97.7205 49.7463 96.8129 49.5527 95.9336 49.2644L96.985 42.903C97.4569 43.0643 97.9408 43.1878 98.4323 43.2723C98.9808 43.3488 99.5344 43.3836 100.088 43.3766C101.315 43.3766 102.174 43.0082 102.664 42.2716C103.155 41.535 103.4 40.4659 103.4 39.0642V12.6181H111.235V39.2756C111.235 42.9209 110.342 45.6201 108.555 47.3732C106.768 49.1264 104.191 50.002 100.824 50ZM111.971 4.62771C111.971 6.06319 111.506 7.1929 110.577 8.01686C109.668 8.81336 108.5 9.2524 107.291 9.2524C106.082 9.2524 104.914 8.81336 104.004 8.01686C103.075 7.19489 102.611 6.06517 102.611 4.62771C102.611 3.19025 103.075 2.05954 104.004 1.23558C104.914 0.439085 106.082 0 107.291 0C108.5 0 109.668 0.439085 110.577 1.23558C111.506 2.06152 111.971 3.19224 111.971 4.62771V4.62771Z" fill="white"/>
<path d="M117.281 26.6572C117.235 24.457 117.618 22.2689 118.41 20.2155C119.085 18.4981 120.098 16.9336 121.388 15.6142C122.592 14.4044 124.032 13.4563 125.62 12.8296C127.184 12.2041 128.853 11.8827 130.537 11.8826C134.462 11.8826 137.563 13.0828 139.841 15.4832C142.118 17.8836 143.258 21.4156 143.26 26.0794C143.26 26.5351 143.242 27.0325 143.206 27.5685C143.17 28.1046 143.137 28.593 143.102 29.013H125.331C125.4 29.7802 125.639 30.5224 126.03 31.1862C126.421 31.85 126.954 32.4189 127.592 32.8518C128.922 33.7989 130.709 34.2724 132.952 34.2724C134.372 34.2744 135.789 34.1418 137.184 33.8763C138.347 33.6782 139.485 33.3526 140.576 32.9054L141.628 39.2667C141.084 39.5216 140.522 39.7328 139.945 39.8981C139.175 40.123 138.393 40.3069 137.604 40.4491C136.746 40.6079 135.826 40.739 134.843 40.8422C133.866 40.9482 132.884 41.0009 131.901 41.0001C129.411 41.0001 127.246 40.6327 125.405 39.8981C123.678 39.2368 122.117 38.2049 120.831 36.8753C119.611 35.5763 118.695 34.0218 118.151 32.3247C117.56 30.4941 117.266 28.5807 117.281 26.6572V26.6572ZM135.683 23.6582C135.649 22.9984 135.534 22.3453 135.341 21.7135C135.156 21.0994 134.852 20.5277 134.447 20.0308C134.027 19.5281 133.508 19.1167 132.922 18.8217C132.208 18.4842 131.424 18.3218 130.635 18.3481C129.858 18.3296 129.086 18.4821 128.375 18.7949C127.77 19.0755 127.232 19.4816 126.796 19.9861C126.369 20.4894 126.04 21.0682 125.825 21.6926C125.598 22.333 125.431 22.993 125.325 23.6642L135.683 23.6582Z" fill="white"/>
<path d="M147.986 26.4457C147.973 24.5168 148.303 22.6009 148.96 20.7872C149.572 19.0632 150.536 17.4849 151.789 16.1521C153.042 14.8193 154.558 13.761 156.242 13.044C158.137 12.2462 160.178 11.8526 162.234 11.8885C163.594 11.8772 164.951 12.009 166.284 12.2816C167.508 12.5448 168.705 12.9238 169.858 13.4133L168.229 19.6674C167.439 19.3702 166.632 19.1245 165.81 18.9318C164.844 18.7111 163.856 18.6052 162.865 18.6161C160.552 18.6161 158.826 19.3339 157.686 20.7693C156.546 22.2048 155.977 24.0979 155.977 26.4487C155.977 28.9385 156.512 30.8663 157.582 32.2323C158.652 33.5983 160.518 34.2823 163.181 34.2842C164.203 34.2773 165.222 34.1887 166.23 34.0192C167.26 33.8626 168.266 33.5806 169.226 33.1793L170.331 39.5943C169.227 40.0362 168.084 40.3704 166.915 40.592C165.425 40.8833 163.91 41.024 162.391 41.0119C159.87 41.0119 157.697 40.6357 155.872 39.8832C154.163 39.2079 152.626 38.1564 151.378 36.8067C150.187 35.4843 149.307 33.9121 148.802 32.2055C148.243 30.3373 147.968 28.3957 147.986 26.4457V26.4457Z" fill="white"/>
<path d="M175.325 5.72973L183.161 4.46997V12.6182H192.572V19.1374H183.161V28.8641C183.161 30.514 183.45 31.8284 184.027 32.8072C184.605 33.786 185.771 34.2774 187.524 34.2814C188.397 34.2781 189.268 34.1984 190.127 34.0431C190.96 33.902 191.779 33.6826 192.572 33.3879L193.677 39.4842C192.651 39.8966 191.596 40.2311 190.52 40.4849C189.121 40.79 187.692 40.9309 186.261 40.9048C184.123 40.9048 182.353 40.6159 180.951 40.0381C179.644 39.5281 178.486 38.6963 177.586 37.6199C176.714 36.5201 176.112 35.2321 175.826 33.8584C175.478 32.253 175.31 30.6139 175.325 28.9713V5.72973Z" fill="white"/>
<path d="M207.817 37.9623C210.658 37.9623 212.867 37.4441 214.443 36.4077C216.02 35.3713 216.808 33.6936 216.808 31.3746C216.849 30.2115 216.586 29.0577 216.045 28.0271C215.541 27.136 214.851 26.3633 214.023 25.7607C213.127 25.1191 212.156 24.5899 211.131 24.1853C210.045 23.7505 208.906 23.2889 207.712 22.8005C206.33 22.2669 204.979 21.6564 203.665 20.9719C202.557 20.4058 201.531 19.6915 200.615 18.8484C199.794 18.0895 199.14 17.1674 198.695 16.1413C198.235 15.007 198.012 13.7909 198.039 12.5675C198.039 9.45032 199.073 7.08468 201.14 5.47052C203.207 3.85635 206.085 3.05026 209.776 3.05225C210.744 3.05183 211.711 3.12249 212.668 3.26369C213.563 3.39358 214.449 3.5776 215.322 3.81468C216.089 4.02418 216.844 4.27873 217.582 4.57707C218.182 4.8126 218.755 5.11214 219.292 5.47052L218.029 8.46656C216.892 7.7115 215.641 7.14341 214.324 6.78389C212.793 6.35417 211.209 6.14263 209.618 6.15551C208.549 6.14584 207.481 6.25977 206.438 6.49502C205.54 6.69463 204.691 7.07015 203.939 7.59991C203.245 8.10067 202.677 8.75762 202.283 9.51783C201.861 10.3847 201.656 11.3416 201.688 12.3054C201.656 13.2895 201.873 14.2657 202.319 15.1436C202.751 15.9311 203.352 16.6135 204.079 17.1419C204.906 17.7464 205.797 18.2578 206.736 18.6668C207.752 19.1234 208.856 19.5969 210.047 20.0873C211.483 20.683 212.841 21.2786 214.121 21.8742C215.323 22.423 216.446 23.1302 217.46 23.9768C218.411 24.7895 219.181 25.793 219.72 26.9222C220.32 28.2597 220.608 29.7159 220.563 31.181C220.563 34.4788 219.415 36.9497 217.118 38.5936C214.82 40.2376 211.71 41.0615 207.787 41.0655C206.503 41.0743 205.219 40.9867 203.948 40.8034C202.901 40.6505 201.864 40.4307 200.845 40.1453C200.057 39.9271 199.285 39.6555 198.534 39.3322C198.028 39.1154 197.536 38.8688 197.06 38.5936L198.218 35.4934C198.567 35.7019 199.04 35.949 199.636 36.229C200.32 36.543 201.024 36.8155 201.741 37.045C203.713 37.6686 205.77 37.9791 207.838 37.9652L207.817 37.9623Z" fill="white"/>
<path d="M230.165 13.1036H241.006V15.9953H230.165V30.4543C230.134 31.7188 230.266 32.9821 230.558 34.2128C230.749 35.0388 231.138 35.8063 231.69 36.4494C232.169 36.9687 232.791 37.3345 233.477 37.5007C234.235 37.6826 235.012 37.7706 235.791 37.7627C236.968 37.8024 238.143 37.6329 239.261 37.2624C239.964 37.0044 240.647 36.6938 241.304 36.3332L242.146 39.1744C241.331 39.6278 240.467 39.9884 239.57 40.2495C238.279 40.6602 236.929 40.8613 235.574 40.8451C234.135 40.8852 232.701 40.6632 231.342 40.1899C230.26 39.7951 229.312 39.1023 228.608 38.1916C227.88 37.2017 227.386 36.0606 227.16 34.8531C226.859 33.2941 226.719 31.7084 226.74 30.1208V5.10422L230.159 4.47583L230.165 13.1036Z" fill="white"/>
<path d="M255.56 12.4603C257.111 12.4202 258.655 12.6791 260.108 13.2228C261.268 13.6737 262.305 14.3944 263.131 15.3253C263.918 16.2494 264.492 17.3353 264.814 18.506C265.172 19.8076 265.349 21.1527 265.338 22.5027V39.642C264.836 39.7834 264.327 39.8977 263.813 39.9845C263.15 40.1096 262.379 40.2416 261.502 40.3806C260.623 40.5206 259.652 40.6338 258.583 40.7201C257.514 40.8065 256.418 40.8512 255.307 40.8512C253.969 40.8641 252.635 40.7059 251.337 40.3806C250.197 40.1009 249.124 39.5945 248.183 38.8915C247.28 38.1989 246.559 37.2976 246.081 36.2648C245.539 35.0312 245.278 33.6924 245.318 32.3455C245.282 31.0338 245.57 29.7335 246.158 28.5603C246.719 27.5097 247.533 26.6152 248.526 25.9574C249.632 25.2404 250.862 24.7354 252.153 24.4683C253.656 24.1421 255.19 23.9832 256.728 23.9948C257.219 23.9948 257.734 24.0216 258.279 24.0752C258.824 24.1288 259.349 24.1973 259.855 24.2867C260.361 24.376 260.802 24.4624 261.171 24.5487C261.432 24.6022 261.688 24.6809 261.934 24.784V23.1013C261.935 22.177 261.864 21.254 261.722 20.3406C261.593 19.4776 261.28 18.6526 260.802 17.9223C260.3 17.1788 259.611 16.5809 258.804 16.189C257.946 15.7522 256.816 15.5328 255.414 15.5309C253.415 15.5309 251.926 15.6708 250.947 15.9508C249.964 16.2486 249.247 16.46 248.791 16.6357L248.317 13.6367C249.205 13.2708 250.131 13.007 251.078 12.8505C252.556 12.5772 254.057 12.4465 255.56 12.4603ZM255.873 37.8045C257.207 37.8045 258.374 37.7598 259.372 37.6705C260.228 37.6033 261.079 37.49 261.922 37.331V27.7621C261.326 27.522 260.71 27.3366 260.081 27.2082C258.938 26.9864 257.775 26.8866 256.612 26.9104C255.732 26.9135 254.853 26.9752 253.982 27.095C253.101 27.2082 252.248 27.4753 251.459 27.8843C250.702 28.2734 250.052 28.8418 249.565 29.5401C249.075 30.239 248.83 31.1672 248.83 32.3247C248.804 33.2105 248.974 34.0911 249.327 34.9038C249.642 35.5807 250.132 36.1608 250.748 36.5835C251.418 37.0304 252.168 37.343 252.957 37.5037C253.915 37.7111 254.893 37.8119 255.873 37.8045V37.8045Z" fill="white"/>
<path d="M283.32 12.5646C284.386 12.5604 285.45 12.6491 286.5 12.8297C287.212 12.9271 287.911 13.1029 288.585 13.3538L287.903 16.2992C287.352 16.0852 286.779 15.9353 286.194 15.8525C285.072 15.6744 283.937 15.5947 282.801 15.6143C281.611 15.5885 280.422 15.6943 279.254 15.93C278.652 16.0505 278.061 16.227 277.491 16.4571V40.2824H274.063V14.3724C275.241 13.884 276.453 13.4857 277.691 13.1811C279.534 12.7404 281.425 12.5332 283.32 12.5646V12.5646Z" fill="white"/>
<path d="M296.936 13.1036H307.767V15.9954H296.936V30.4544C296.904 31.7191 297.037 32.9826 297.332 34.2129C297.522 35.0387 297.909 35.8061 298.46 36.4495C298.94 36.9674 299.562 37.3329 300.247 37.5008C301.005 37.6824 301.782 37.7704 302.561 37.7628C303.738 37.803 304.913 37.6335 306.031 37.2625C306.737 37.0082 307.423 36.7006 308.083 36.3422L308.923 39.1834C308.107 39.6368 307.243 39.9974 306.347 40.2585C305.056 40.6693 303.708 40.8704 302.353 40.8542C300.913 40.894 299.478 40.672 298.118 40.199C297.037 39.8025 296.09 39.11 295.384 38.2006C294.659 37.2098 294.165 36.069 293.94 34.8621C293.639 33.3031 293.498 31.7174 293.52 30.1298V5.11325L296.936 4.48486V13.1036Z" fill="white"/>
<path d="M312.446 26.6571C312.402 24.5351 312.749 22.4231 313.471 20.4268C314.074 18.789 314.984 17.281 316.151 15.9834C317.202 14.8299 318.494 13.9227 319.936 13.3269C321.329 12.7545 322.82 12.4601 324.326 12.4602C327.656 12.4602 330.311 13.5522 332.293 15.7362C334.274 17.9202 335.267 21.2676 335.271 25.7786C335.271 26.0585 335.262 26.3384 335.244 26.6184C335.226 26.9162 335.199 27.1634 335.166 27.4076H316.079C316.187 30.7372 317.011 33.2964 318.551 35.0853C320.092 36.8742 322.546 37.7677 325.913 37.7657C327.77 37.7657 329.242 37.59 330.33 37.2385C331.138 36.9965 331.928 36.6979 332.695 36.3451L333.326 39.2905C332.443 39.7175 331.518 40.0519 330.565 40.2882C329.011 40.7004 327.408 40.8949 325.8 40.8659C323.418 40.8659 321.386 40.5155 319.704 39.8146C318.105 39.1772 316.681 38.1687 315.549 36.8722C314.439 35.5657 313.63 34.0301 313.182 32.3752C312.673 30.5124 312.426 28.588 312.446 26.6571ZM331.742 24.5009C331.672 21.6617 331.006 19.4539 329.743 17.8775C328.481 16.3011 326.694 15.5069 324.383 15.495C323.248 15.4778 322.125 15.7299 321.107 16.2306C320.147 16.719 319.29 17.3885 318.584 18.2021C317.854 19.047 317.284 20.0179 316.901 21.0671C316.496 22.1651 316.257 23.3174 316.193 24.486L331.742 24.5009Z" fill="white"/>
<path d="M352.142 12.5645C353.208 12.5602 354.272 12.6489 355.322 12.8296C356.035 12.9274 356.734 13.1031 357.407 13.3538L356.722 16.2992C356.172 16.0843 355.598 15.9344 355.013 15.8524C353.892 15.6743 352.758 15.5946 351.624 15.6142C350.432 15.5883 349.242 15.6941 348.074 15.9299C347.472 16.0502 346.883 16.2267 346.314 16.457V40.2823H342.889V14.3723C344.066 13.8839 345.278 13.4857 346.516 13.181C348.358 12.7407 350.248 12.5336 352.142 12.5645V12.5645Z" fill="white"/>
<path d="M25.6397 19.1434V16.3796L24.6182 17.4488C25.0649 18.1904 25.3866 18.7324 25.6397 19.1434Z" fill="white"/>
<path d="M17.7601 8.04065C18.3651 8.5857 18.9378 9.16542 19.4755 9.77691L24.458 8.99067L24.86 8.92516L25.1578 9.22297L26.3789 10.4142L27.1414 10.3636C27.7191 10.3319 28.3068 10.315 28.9044 10.313C29.995 10.305 31.0844 10.3837 32.1625 10.5483C33.0409 10.6697 33.8887 10.9556 34.6612 11.3911C35.3232 11.7718 35.8688 12.3258 36.2396 12.9933C36.633 13.7753 36.8225 14.644 36.7906 15.5188C36.7906 17.6214 36.0718 19.0588 34.6343 19.8312C33.1968 20.6035 31.0585 20.9887 28.2193 20.9867H26.4861C26.4947 21.2808 26.4215 21.5716 26.2747 21.8266C27.6912 22.2355 29.1573 22.447 30.6317 22.455C33.4907 22.455 35.9924 21.5615 37.7138 19.9712C39.3488 18.4345 40.948 15.6618 40.5281 12.4871C40.0665 9.00559 37.7197 6.3044 33.5533 4.44603L31.2005 3.40367C30.3011 3.34014 29.3601 3.30835 28.3773 3.30835C26.8703 3.30835 25.1171 3.37882 23.1178 3.51979C21.2113 3.64743 19.3146 3.89313 17.4385 4.25542V7.76963C17.5427 7.856 17.644 7.94535 17.7601 8.04065Z" fill="white"/>
<path d="M25.3041 28.709C24.0668 28.1501 22.9123 27.4236 21.8732 26.5498L21.2239 27.2377C21.0715 27.4019 20.8873 27.5332 20.6825 27.6239C20.4777 27.7145 20.2566 27.7625 20.0327 27.7649C19.8768 27.7642 19.7221 27.7391 19.574 27.6904C19.4519 27.6517 19.2196 27.5743 17.4297 26.6302V35.7017L25.6346 43.5015V28.8489C25.5274 28.8013 25.4143 28.7596 25.3041 28.709Z" fill="white"/>
<path d="M44.4472 8.72869C41.3142 4.72604 34.9886 3.88619 33.8718 3.69559C37.0793 5.11915 40.7216 7.7161 41.3172 12.365C41.7699 15.778 40.0901 18.8217 38.2496 20.549C35.203 23.411 30.0597 24.0662 24.8241 22.2138L25.4197 21.5884C25.5238 21.4852 25.5968 21.3548 25.6305 21.2121C25.6642 21.0695 25.6573 20.9202 25.6103 20.7813C25.4912 20.4835 24.6187 19.0331 23.5793 17.3534L25.5001 15.3432L30.6821 15.7422L24.5739 9.78591L19.1388 10.6466C18.5413 9.933 17.8945 9.26226 17.203 8.63933C13.3314 5.16382 7.97068 2.33456 0.823093 2.38519C0.711132 2.38625 0.600519 2.40993 0.497938 2.45481C0.395358 2.49968 0.302925 2.56482 0.226152 2.64633C0.14938 2.72783 0.089885 2.82401 0.0512142 2.92909C0.0125434 3.03417 -0.00457842 3.14595 0.001045 3.25777C0.199258 7.71888 1.66307 12.0315 4.22122 15.6916C5.6622 17.7405 7.417 19.5496 9.42108 21.0523L8.82545 26.2313L15.0379 32.0774L14.4095 26.9193L16.1964 25.0579C17.9624 26.008 19.5021 26.815 19.8089 26.9163C19.9504 26.9547 20.1 26.9528 20.2405 26.9107C20.381 26.8686 20.5069 26.788 20.604 26.678L21.7953 25.4183C22.9218 26.4694 24.2125 27.3295 25.6163 27.9646C32.4661 31.053 42.4846 28.73 45.7725 21.6837C47.5118 18.0057 47.5832 12.7284 44.4472 8.72869ZM13.2629 14.7684C12.8506 15.1988 12.3198 15.4974 11.7379 15.6263C11.1559 15.7551 10.5488 15.7086 9.9933 15.4924C9.43781 15.2763 8.95886 14.9002 8.61706 14.4119C8.27526 13.9236 8.08597 13.3449 8.07306 12.749C8.06015 12.153 8.22431 11.5666 8.54465 11.064C8.86498 10.5613 9.32714 10.1649 9.87275 9.92486C10.4184 9.68485 11.0229 9.61205 11.6099 9.71561C12.1969 9.81916 12.74 10.0944 13.1705 10.5066C13.4574 10.7796 13.6877 11.1064 13.848 11.4685C14.0084 11.8305 14.0959 12.2206 14.1053 12.6165C14.1147 13.0124 14.0459 13.4062 13.9029 13.7755C13.7599 14.1447 13.5453 14.4821 13.2718 14.7684H13.2629Z" fill="white"/>
</svg>
