<svg width="51" height="51" viewBox="0 0 51 51" fill="none" xmlns="http://www.w3.org/2000/svg">
<rect width="51" height="51" rx="25.5" fill="white"/>
<path d="M25.5 31.625C28.8827 31.625 31.625 28.8827 31.625 25.5C31.625 22.1173 28.8827 19.375 25.5 19.375C22.1173 19.375 19.375 22.1173 19.375 25.5C19.375 28.8827 22.1173 31.625 25.5 31.625Z" fill="#000915"/>
<path d="M25.5 35.09C25.0188 35.09 24.625 34.7313 24.625 34.25V34.18C24.625 33.6988 25.0188 33.305 25.5 33.305C25.9813 33.305 26.375 33.6988 26.375 34.18C26.375 34.6613 25.9813 35.09 25.5 35.09ZM31.7475 32.6225C31.52 32.6225 31.3013 32.535 31.1263 32.3688L31.0125 32.255C30.6713 31.9137 30.6713 31.3625 31.0125 31.0213C31.3538 30.68 31.905 30.68 32.2463 31.0213L32.36 31.135C32.7013 31.4763 32.7013 32.0275 32.36 32.3688C32.1938 32.535 31.975 32.6225 31.7475 32.6225ZM19.2525 32.6225C19.025 32.6225 18.8063 32.535 18.6313 32.3688C18.29 32.0275 18.29 31.4763 18.6313 31.135L18.745 31.0213C19.0863 30.68 19.6375 30.68 19.9788 31.0213C20.32 31.3625 20.32 31.9137 19.9788 32.255L19.865 32.3688C19.6988 32.535 19.4713 32.6225 19.2525 32.6225ZM34.25 26.375H34.18C33.6988 26.375 33.305 25.9813 33.305 25.5C33.305 25.0188 33.6988 24.625 34.18 24.625C34.6613 24.625 35.09 25.0188 35.09 25.5C35.09 25.9813 34.7313 26.375 34.25 26.375ZM16.82 26.375H16.75C16.2688 26.375 15.875 25.9813 15.875 25.5C15.875 25.0188 16.2688 24.625 16.75 24.625C17.2313 24.625 17.66 25.0188 17.66 25.5C17.66 25.9813 17.3013 26.375 16.82 26.375ZM31.6338 20.2413C31.4063 20.2413 31.1875 20.1537 31.0125 19.9875C30.6713 19.6463 30.6713 19.095 31.0125 18.7538L31.1263 18.64C31.4675 18.2988 32.0188 18.2988 32.36 18.64C32.7013 18.9813 32.7013 19.5325 32.36 19.8738L32.2463 19.9875C32.08 20.1537 31.8613 20.2413 31.6338 20.2413ZM19.3663 20.2413C19.1388 20.2413 18.92 20.1537 18.745 19.9875L18.6313 19.865C18.29 19.5238 18.29 18.9725 18.6313 18.6313C18.9725 18.29 19.5238 18.29 19.865 18.6313L19.9788 18.745C20.32 19.0863 20.32 19.6375 19.9788 19.9788C19.8125 20.1538 19.585 20.2413 19.3663 20.2413ZM25.5 17.66C25.0188 17.66 24.625 17.3013 24.625 16.82V16.75C24.625 16.2688 25.0188 15.875 25.5 15.875C25.9813 15.875 26.375 16.2688 26.375 16.75C26.375 17.2313 25.9813 17.66 25.5 17.66Z" fill="#000915"/>
</svg>
