<svg width="50" height="50" viewBox="0 0 50 50" fill="none" xmlns="http://www.w3.org/2000/svg">
<rect width="50" height="50" rx="25" fill="white"/>
<path d="M25 12.5C18.1075 12.5 12.5 18.1075 12.5 25C12.5 31.8925 18.1075 37.5 25 37.5C31.8925 37.5 37.5 31.8925 37.5 25C37.5 18.1075 31.8925 12.5 25 12.5ZM25 35C19.4863 35 15 30.5138 15 25C15 23.54 15.3225 22.1562 15.8863 20.905C16.0788 21.0175 16.2713 21.1325 16.4562 21.25C16.9513 21.5625 17.445 21.875 18.0638 22.11C18.6813 22.3438 19.4237 22.5 20.4125 22.5C21.4025 22.5 22.145 22.3438 22.7638 22.1088C23.3825 21.8738 23.8775 21.5625 24.3725 21.25C24.8675 20.9375 25.3625 20.625 25.9812 20.39C26.5988 20.1563 27.3413 20 28.3313 20C29.3212 20 30.0637 20.1562 30.6812 20.3912C31.3 20.625 31.795 20.9375 32.29 21.25C32.785 21.5625 33.28 21.875 33.8988 22.11C34.1213 22.1937 34.3663 22.2625 34.625 22.3238C34.8638 23.1763 35 24.0712 35 25C35 30.5138 30.5138 35 25 35Z" fill="#1FA5FF"/>
<path d="M20.625 27.5C21.6605 27.5 22.5 26.6605 22.5 25.625C22.5 24.5895 21.6605 23.75 20.625 23.75C19.5895 23.75 18.75 24.5895 18.75 25.625C18.75 26.6605 19.5895 27.5 20.625 27.5Z" fill="#1FA5FF"/>
<path d="M29.375 27.5C30.4105 27.5 31.25 26.6605 31.25 25.625C31.25 24.5895 30.4105 23.75 29.375 23.75C28.3395 23.75 27.5 24.5895 27.5 25.625C27.5 26.6605 28.3395 27.5 29.375 27.5Z" fill="#1FA5FF"/>
</svg>
