<svg width="35" height="35" viewBox="0 0 35 35" fill="none" xmlns="http://www.w3.org/2000/svg">
<rect width="35" height="35" rx="17.5" fill="white"/>
<path d="M22.2302 11.1416V7.68486C22.2302 7.19202 21.726 6.86118 21.2743 7.05741L11.7986 11.1461C11.8351 11.1438 11.8739 11.1416 11.9104 11.1416H22.2302Z" fill="#1FA5FF"/>
<path d="M24.229 28.0875V12.7388C24.229 12.2346 23.8206 11.8262 23.3164 11.8262H22.2303H11.9127C11.4084 11.8262 11 12.2346 11 12.7388V28.0875C11 28.2769 11.057 28.4525 11.1552 28.5986C11.3194 28.8404 11.5978 29.0001 11.9127 29.0001H23.3164C23.8206 29.0001 24.229 28.5917 24.229 28.0875ZM22.2303 21.3794C21.9839 22.0046 21.6097 22.5796 21.1191 23.0702C20.1814 24.0079 18.9379 24.5235 17.6122 24.5235C16.2866 24.5235 15.0431 24.0079 14.1053 23.0702C13.1676 22.1324 12.6519 20.8889 12.6519 19.5633C12.6519 18.2376 13.1676 16.9941 14.1053 16.0564C15.0431 15.1186 16.2866 14.603 17.6122 14.603C18.9379 14.603 20.1814 15.1186 21.1191 16.0564C21.6097 16.5469 21.9839 17.1196 22.2303 17.7471C22.4539 18.3175 22.5725 18.9312 22.5725 19.5633C22.5725 20.1953 22.4562 20.8067 22.2303 21.3794Z" fill="#1FA5FF"/>
<path d="M19.6635 19.9033H17.9568V21.3293H19.4809C19.5813 20.8844 19.6429 20.403 19.6635 19.9033Z" fill="#1FA5FF"/>
<path d="M14.881 19.9033H13.3523C13.3934 20.4076 13.5211 20.889 13.7219 21.3293H15.0476C14.9563 20.8844 14.8992 20.4053 14.881 19.9033Z" fill="#1FA5FF"/>
<path d="M20.9776 16.9278C20.5395 16.3711 19.9668 15.9239 19.3074 15.6387C19.5606 15.9946 19.7774 16.4304 19.9462 16.9278H20.9776Z" fill="#1FA5FF"/>
<path d="M20.1401 17.6123C20.2542 18.1097 20.325 18.6505 20.3455 19.2209H21.8742C21.8286 18.6459 21.6688 18.1029 21.4156 17.6123H20.1401Z" fill="#1FA5FF"/>
<path d="M17.9568 23.7727C18.0823 23.7247 18.2078 23.6517 18.331 23.5514C18.5774 23.3506 18.8101 23.0471 19.0064 22.6706C19.1113 22.4676 19.2048 22.2508 19.2847 22.0181H17.9568V23.7727Z" fill="#1FA5FF"/>
<path d="M16.2227 22.6685C16.4189 23.045 16.6516 23.3507 16.8981 23.5492C17.0213 23.6496 17.1468 23.7226 17.2723 23.7705V22.0137H15.9443C16.0242 22.2487 16.1178 22.4654 16.2227 22.6685Z" fill="#1FA5FF"/>
<path d="M15.7482 21.3313H17.2723V19.9053H15.5657C15.5862 20.4027 15.6478 20.8841 15.7482 21.3313Z" fill="#1FA5FF"/>
<path d="M14.1167 22.0161C14.5685 22.6595 15.1936 23.1706 15.9215 23.4878C15.6386 23.0885 15.4013 22.5888 15.2233 22.0161H14.1167Z" fill="#1FA5FF"/>
<path d="M15.5657 19.2184H17.2723V17.6099H15.7938C15.6661 18.1095 15.5885 18.6526 15.5657 19.2184Z" fill="#1FA5FF"/>
<path d="M19.3074 23.4853C20.0352 23.1705 20.6604 22.6571 21.1122 22.0137H20.0056C19.8299 22.5886 19.5926 23.086 19.3074 23.4853Z" fill="#1FA5FF"/>
<path d="M20.1814 21.3313H21.507C21.7078 20.8909 21.8356 20.4095 21.8766 19.9053H20.3479C20.3297 20.405 20.2727 20.8841 20.1814 21.3313Z" fill="#1FA5FF"/>
<path d="M16.2227 16.4554C16.1451 16.6037 16.0744 16.7611 16.0105 16.9277H17.2722V15.3511C17.1468 15.399 17.0213 15.472 16.8981 15.5724C16.6516 15.7732 16.4189 16.0766 16.2227 16.4554Z" fill="#1FA5FF"/>
<path d="M15.0863 17.6123H13.8109C13.5599 18.1006 13.3979 18.6459 13.3523 19.2209H14.881C14.9015 18.6505 14.9723 18.1097 15.0863 17.6123Z" fill="#1FA5FF"/>
<path d="M19.0064 16.4556C18.8101 16.0791 18.5774 15.7733 18.331 15.5748C18.2078 15.4744 18.0823 15.4014 17.9568 15.3535V16.9301H19.2185C19.1547 16.7613 19.0839 16.6039 19.0064 16.4556Z" fill="#1FA5FF"/>
<path d="M19.4353 17.6123H17.9568V19.2209H19.6635C19.6406 18.6527 19.5631 18.1097 19.4353 17.6123Z" fill="#1FA5FF"/>
<path d="M15.9192 15.6362C15.2598 15.9214 14.6871 16.3686 14.249 16.9254H15.2803C15.4515 16.4302 15.6659 15.9922 15.9192 15.6362Z" fill="#1FA5FF"/>
</svg>
