<svg width="50" height="50" viewBox="0 0 50 50" fill="none" xmlns="http://www.w3.org/2000/svg">
<rect width="50" height="50" rx="25" fill="white"/>
<path d="M15.8521 28.4573C17.6111 26.2212 20.9661 26.146 22.8218 28.306V19.8452H15.8521V28.4573ZM19.3369 22.3137C20.2173 22.3137 20.931 23.0273 20.931 23.9077C20.931 24.7881 20.2173 25.5017 19.3369 25.5017C18.4565 25.5017 17.7429 24.788 17.7429 23.9077C17.743 23.0273 18.4567 22.3137 19.3369 22.3137Z" fill="#1FA5FF"/>
<path d="M37.0002 13.8237H12.9998C11.3457 13.8237 10 15.1695 10 16.8236V33.1762C10 34.8303 11.3457 36.176 12.9998 36.176H37.0002C38.6543 36.176 40 34.8303 40 33.1762V16.8236C40.0001 15.1695 38.6543 13.8237 37.0002 13.8237ZM25 31.2436C25 31.845 24.5124 32.3326 23.9109 32.3326H14.7632C14.1617 32.3326 13.6741 31.845 13.6741 31.2436V18.7562C13.6741 18.1548 14.1617 17.6671 14.7632 17.6671H23.9109C24.5124 17.6671 25 18.1548 25 18.7562V31.2436ZM35.7229 32.3326H27.0991C26.4977 32.3326 26.0101 31.845 26.0101 31.2436C26.0101 30.6422 26.4977 30.1546 27.0991 30.1546H35.7229C36.3243 30.1546 36.812 30.6422 36.812 31.2436C36.812 31.8451 36.3244 32.3326 35.7229 32.3326ZM35.7229 29.5012H27.0991C26.4977 29.5012 26.0101 29.0135 26.0101 28.4121C26.0101 27.8107 26.4977 27.3231 27.0991 27.3231H35.7229C36.3243 27.3231 36.812 27.8107 36.812 28.4121C36.812 29.0137 36.3244 29.5012 35.7229 29.5012ZM35.7229 26.6697H27.0991C26.4977 26.6697 26.0101 26.1821 26.0101 25.5807C26.0101 24.9793 26.4977 24.4917 27.0991 24.4917H35.7229C36.3243 24.4917 36.812 24.9793 36.812 25.5807C36.812 26.1822 36.3244 26.6697 35.7229 26.6697ZM36.812 22.6562C36.812 23.2576 36.3243 23.7453 35.7229 23.7453H27.0991C26.4977 23.7453 26.0101 23.2576 26.0101 22.6562V18.7562C26.0101 18.1548 26.4977 17.6671 27.0991 17.6671H35.7229C36.3243 17.6671 36.812 18.1548 36.812 18.7562V22.6562Z" fill="#1FA5FF"/>
</svg>
