<svg width="192" height="192" viewBox="0 0 192 192" fill="none" xmlns="http://www.w3.org/2000/svg">
<g filter="url(#filter0_d_103_1235)">
<rect x="30" y="26" width="132" height="132" rx="66" fill="white"/>
<circle cx="96" cy="92" r="58" fill="#E8F5FF"/>
<path d="M121.375 86.5625V75.6876C121.375 73.6865 119.751 72.0626 117.75 72.0626H70.625C68.6239 72.0624 67 73.6865 67 75.6876V106.5C67 108.501 68.6239 110.125 70.625 110.125H117.75C119.751 110.125 121.375 108.501 121.375 106.5V95.6252C123.376 95.6252 125 94.0012 125 92.0002V90.1876C125.001 88.1866 123.378 86.5625 121.375 86.5625Z" fill="#4BB7FF"/>
<path d="M76.0625 62.9998H112.313C114.314 62.9998 115.938 64.6237 115.938 66.6265V91.9998C115.938 94.0027 114.314 95.6248 112.313 95.6248H76.0625C74.0614 95.6248 72.4375 94.0009 72.4375 91.9998V66.6265C72.4375 64.6237 74.0614 62.9998 76.0625 62.9998Z" fill="#CCEAFF"/>
<path d="M83.7912 72.1006C83.7912 72.1006 85.9899 72.0626 88.067 72.0626C90.146 72.0626 90.5139 75.5572 90.5139 75.5572C90.5139 75.5572 90.5519 79.213 90.5519 80.1139C90.5519 81.0166 88.763 82.8055 88.763 82.8055V84.6415L94.2023 86.8165V90.1878H77.8643L77.8823 86.746L83.327 84.6598V82.8618C83.327 82.8618 81.5182 81.2432 81.5182 80.1141V75.557C81.5182 75.557 81.6741 72.1006 83.7912 72.1006Z" fill="#4BB7FF"/>
<path d="M108.688 79.3124H96V82.9373H108.688V79.3124Z" fill="#4BB7FF"/>
<path d="M108.688 72.0623H96V75.689H108.688V72.0623Z" fill="#4BB7FF"/>
<path d="M112.313 62.9998H76.0625C74.0614 62.9998 72.4375 64.6237 72.4375 66.6265V68.4373H115.938V66.6265C115.938 64.6237 114.315 62.9998 112.313 62.9998Z" fill="#4BB7FF"/>
<path d="M70.625 77.5016L110.5 82.9374C112.501 82.9374 114.125 84.5613 114.125 86.5623V117.375C114.125 119.376 112.501 121 110.5 121L70.625 115.563C68.6239 115.563 67 113.938 67 111.937V73.8749C67 75.8904 68.6239 77.5016 70.625 77.5016Z" fill="#1FA5FF"/>
<path d="M105.969 95.625C107.469 95.625 108.687 96.843 108.687 98.3437C108.687 99.8444 107.469 101.062 105.969 101.062C104.468 101.062 103.25 99.8461 103.25 98.3437C103.25 96.8412 104.468 95.625 105.969 95.625Z" fill="#E4E7E7"/>
<path d="M70.625 115.563L110.5 121C112.501 121 114.125 119.376 114.125 117.375V110.125L70.625 104.687C68.6239 104.687 67 103.076 67 101.062V111.938C67 113.94 68.6239 115.563 70.625 115.563Z" fill="#4BB7FF"/>
<path d="M115.937 93.8123C115.937 93.8123 125 91.9218 125 90.1874V95.6249C125 95.6249 123.376 99.2499 121.375 99.2499L115.937 101.062C113.935 101.062 112.312 99.4385 112.312 97.4375C112.312 95.4363 113.937 93.8123 115.937 93.8123Z" fill="#1FA5FF"/>
<rect x="105" y="107" width="26" height="26" rx="13" fill="#04D400"/>
<g clip-path="url(#clip0_103_1235)">
<path d="M124.59 117.298L117.204 124.683C116.657 125.23 115.77 125.23 115.223 124.683L111.41 120.871C110.863 120.324 110.863 119.436 111.41 118.889C111.958 118.342 112.845 118.342 113.392 118.889L116.214 121.711L122.608 115.317C123.156 114.77 124.043 114.77 124.59 115.317C125.137 115.864 125.137 116.751 124.59 117.298Z" fill="white"/>
</g>
<rect x="105" y="107" width="26" height="26" rx="13" stroke="#E8F5FF" stroke-width="2"/>
</g>
<defs>
<filter id="filter0_d_103_1235" x="0" y="0" width="192" height="192" filterUnits="userSpaceOnUse" color-interpolation-filters="sRGB">
<feFlood flood-opacity="0" result="BackgroundImageFix"/>
<feColorMatrix in="SourceAlpha" type="matrix" values="0 0 0 0 0 0 0 0 0 0 0 0 0 0 0 0 0 0 127 0" result="hardAlpha"/>
<feOffset dy="4"/>
<feGaussianBlur stdDeviation="15"/>
<feComposite in2="hardAlpha" operator="out"/>
<feColorMatrix type="matrix" values="0 0 0 0 0.121569 0 0 0 0 0.647059 0 0 0 0 1 0 0 0 0.1 0"/>
<feBlend mode="normal" in2="BackgroundImageFix" result="effect1_dropShadow_103_1235"/>
<feBlend mode="normal" in="SourceGraphic" in2="effect1_dropShadow_103_1235" result="shape"/>
</filter>
<clipPath id="clip0_103_1235">
<rect width="14" height="14" fill="white" transform="translate(111 113)"/>
</clipPath>
</defs>
</svg>
