<svg width="32" height="32" viewBox="0 0 32 32" fill="none" xmlns="http://www.w3.org/2000/svg">
<path d="M22.9564 1.58763C20.8529 0.5705 18.493 0 15.9999 0C13.5068 0 11.1469 0.5705 9.04341 1.58763L7.6521 16L9.04341 30.4124C11.1469 31.4295 13.5068 32 15.9999 32C18.493 32 20.8529 31.4295 22.9564 30.4124L24.3477 16L22.9564 1.58763Z" fill="#D80027"/>
<path d="M9.0435 1.58838C3.69163 4.17632 0 9.65688 0 16.0002C0 22.3435 3.69163 27.8241 9.0435 30.412V1.58838Z" fill="black"/>
<path d="M22.9565 1.58838V30.412C28.3084 27.8241 32 22.3435 32 16.0002C32 9.65688 28.3084 4.17632 22.9565 1.58838Z" fill="#496E2D"/>
<path d="M16 10.4346C12.9264 10.4346 10.4348 12.9262 10.4348 15.9998C10.4348 19.0733 12.9264 21.5649 16 21.5649C19.0736 21.5649 21.5652 19.0733 21.5652 15.9998C21.5652 12.9262 19.0736 10.4346 16 10.4346ZM16 19.478C14.079 19.478 12.5218 17.9207 12.5218 15.9998C12.5218 14.0788 14.0791 12.5215 16 12.5215C17.9209 12.5215 19.4783 14.0788 19.4783 15.9998C19.4783 17.9207 17.921 19.478 16 19.478Z" fill="#FFDA44"/>
<path d="M16 13.9126C15.2315 13.9126 14.6086 14.5355 14.6086 15.3039V17.3908H17.3913V15.3039C17.3913 14.5355 16.7684 13.9126 16 13.9126Z" fill="#FFDA44"/>
</svg>
