<svg width="32" height="32" viewBox="0 0 32 32" fill="none" xmlns="http://www.w3.org/2000/svg">
<g clip-path="url(#clip0_903_2474)">
<path d="M32.4083 10.5312H-0.408203V21.4701H32.4083V10.5312Z" fill="#103B9B"/>
<path d="M25.2296 -0.408203H6.77043C2.80576 -0.408203 -0.408203 2.80577 -0.408203 6.77044V10.5307H32.4081V6.77044C32.4082 2.80577 29.1942 -0.408203 25.2296 -0.408203Z" fill="#ED1F34"/>
<path d="M-0.408203 25.2299C-0.408203 29.1945 2.80576 32.4085 6.77036 32.4085H25.2296C29.1942 32.4085 32.4081 29.1945 32.4081 25.2299V21.4697H-0.408203V25.2299Z" fill="#F2A643"/>
<path d="M26.3833 -3H5.61672C0.865461 -3 -3 0.865461 -3 5.61672V26.3834C-3 31.1345 0.865461 35 5.61672 35H26.3834C31.1345 35 35 31.1345 35 26.3833V5.61672C35 0.865461 31.1345 -3 26.3833 -3ZM5.61672 -1.91841H26.3834C30.5382 -1.91841 33.9185 1.46181 33.9185 5.61672V9.30614H29.5368C29.238 9.30614 28.996 9.54824 28.996 9.84697C28.996 10.1456 29.2381 10.3877 29.5368 10.3877H33.9184V21.6123H-1.91841V10.3877H27.0755C27.3742 10.3877 27.6163 10.1456 27.6163 9.84697C27.6163 9.54831 27.3742 9.30614 27.0755 9.30614H-1.91841V5.61672C-1.91841 1.46181 1.46181 -1.91841 5.61672 -1.91841ZM26.3833 33.9184H5.61672C1.46181 33.9184 -1.91841 30.5382 -1.91841 26.3833V22.6939H33.9184V26.3833C33.9184 30.5382 30.5381 33.9184 26.3833 33.9184Z" fill="black"/>
</g>
<defs>
<clipPath id="clip0_903_2474">
<rect width="32" height="32" rx="16" fill="white"/>
</clipPath>
</defs>
</svg>
