<svg width="32" height="32" viewBox="0 0 32 32" fill="none" xmlns="http://www.w3.org/2000/svg">
<path d="M0.000244141 16C0.000244141 21.7948 3.08105 26.8699 7.6941 29.6777V2.32227C3.08105 5.12949 0.000244141 10.2049 0.000244141 16Z" fill="#F3F4F5"/>
<path d="M15.9998 0C15.9998 0 21.9406 21.8013 22.1859 22.0466C23.8038 21.9016 25.3878 21.2385 26.6674 20.0443C27.6948 19.085 28.3943 17.9053 28.7629 16.6482C28.6692 18.9726 27.6968 21.2628 25.8617 22.9753C24.6021 24.1511 23.0984 24.9021 21.5271 25.2361L15.9998 31.9997C24.8365 31.9997 31.9999 24.8364 31.9999 16.0001C31.9999 7.16283 24.8366 0 15.9998 0Z" fill="#036535"/>
<path d="M15.4819 31.9909C15.4435 31.9899 15.4046 31.9879 15.3662 31.9863C15.4049 31.9881 15.4433 31.9899 15.4819 31.9909Z" fill="#036535"/>
<path d="M15.3662 0.0133145C15.4046 0.0117669 15.4435 0.0102866 15.4819 0.00927734C15.4433 0.0102866 15.4048 0.0117669 15.3662 0.0133145Z" fill="#036535"/>
<path d="M25.8617 22.9751C27.6971 21.2625 28.6692 18.9724 28.7629 16.6479C28.3943 17.9053 27.6948 19.0848 26.6674 20.0441C25.3878 21.2382 23.8038 21.9014 22.186 22.0464C22.0155 23.1646 21.7964 24.2372 21.5271 25.2359C23.0984 24.9019 24.6021 24.1508 25.8617 22.9751Z" fill="#F3F4F5"/>
<path d="M15.4819 0.00935271C15.654 0.00403714 15.8266 0 15.9998 0C15.8281 0 15.6555 0.00403714 15.4819 0.00935271Z" fill="#263778"/>
<path d="M15.9998 31.9995C15.8265 31.9995 15.654 31.996 15.4819 31.9907C15.6555 31.9963 15.8281 31.9995 15.9998 31.9995Z" fill="#263778"/>
<path d="M21.5271 25.236C18.487 25.8825 15.1927 24.9658 12.9177 22.5276C9.46653 18.8296 9.66664 13.0347 13.3644 9.58377C15.1995 7.87095 17.551 7.05874 19.876 7.12542C18.5961 7.40607 17.3714 8.02254 16.3437 8.98177C13.2888 11.8327 13.1236 16.6203 15.9746 19.6751C17.6311 21.4499 19.9414 22.2474 22.186 22.0466C23.6179 12.6533 21.5568 0 15.9998 0C15.8265 0 15.654 0.00403714 15.4819 0.00935271C15.4435 0.010362 15.4046 0.0119096 15.3662 0.0133899C12.564 0.122796 9.94628 0.951891 7.69409 2.32243V29.6778C9.94628 31.0481 12.5638 31.8775 15.3662 31.9866C15.4046 31.9881 15.4435 31.9902 15.4819 31.9912C15.654 31.9965 15.8265 32 15.9998 32C18.6181 31.9997 20.4605 29.1902 21.5271 25.236Z" fill="#0C723E"/>
<path d="M15.9747 19.6751C13.1238 16.6203 13.289 11.8327 16.3438 8.98172C17.3715 8.02249 18.5962 7.40609 19.8761 7.12538C17.5511 7.05869 15.1994 7.8709 13.3645 9.58372C9.66648 13.0347 9.46637 18.8295 12.9176 22.5275C15.1925 24.9654 18.4868 25.8822 21.527 25.236C21.7963 24.2373 22.0156 23.1647 22.1859 22.0465C19.9415 22.2474 17.631 21.4501 15.9747 19.6751Z" fill="#F3F4F5"/>
<path d="M23.8469 9.2373L25.1654 10.7422L27.0046 9.95329L25.9802 11.6724L27.2991 13.1778L25.3473 12.7352L24.3231 14.4542L24.1407 12.4619L22.1897 12.0188L24.0288 11.2298L23.8469 9.2373Z" fill="#F3F4F5"/>
</svg>
