<svg width="24" height="25" viewBox="0 0 24 25" fill="none" xmlns="http://www.w3.org/2000/svg">
<path fill-rule="evenodd" clip-rule="evenodd" d="M13.1106 3.56211C13.1106 7.48017 16.023 10.7231 19.7944 11.2617C19.8367 13.4076 20.7891 15.4247 22.4311 16.8141C22.875 17.1934 23.1231 17.733 23.1231 18.3026C23.1231 19.3763 22.2498 20.2496 21.1761 20.2496H16.4481C16.4481 20.2496 16.4481 20.2497 16.4481 20.2497C16.4481 22.7074 14.4556 24.6997 11.9979 24.6997C9.54025 24.6997 7.54801 22.7074 7.54801 20.2497C7.54801 20.2497 7.54801 20.2496 7.54801 20.2496H2.81985C1.74633 20.2496 0.873047 19.3763 0.873047 18.3026C0.873047 17.733 1.12116 17.1934 1.55383 16.8241C3.246 15.3935 4.21055 13.3153 4.21055 11.1136V8.01204C4.21055 3.71774 7.70388 0.224609 11.998 0.224609C12.6089 0.224609 13.2007 0.302425 13.7702 0.435851C13.3485 1.39387 13.1106 2.44947 13.1106 3.56211Z" fill="#1E293B"/>
</svg>
