<svg width="52" height="51" viewBox="0 0 52 51" fill="none" xmlns="http://www.w3.org/2000/svg">
<path d="M31.4527 25.501C31.4527 28.2359 29.2355 30.4531 26.5005 30.4531C23.7655 30.4531 21.5483 28.2359 21.5483 25.501C21.5483 22.766 23.7655 20.5488 26.5005 20.5488C29.2355 20.5488 31.4527 22.766 31.4527 25.501Z" fill="#F1F5F9" stroke="#F1F5F9"/>
<path d="M26.5 14V16.3001" stroke="#F1F5F9" stroke-width="3" stroke-miterlimit="10" stroke-linecap="round"/>
<path d="M18.3691 17.3672L19.9943 18.9938" stroke="#F1F5F9" stroke-width="3" stroke-miterlimit="10" stroke-linecap="round"/>
<path d="M15 25.5H17.3001" stroke="#F1F5F9" stroke-width="3" stroke-miterlimit="10" stroke-linecap="round"/>
<path d="M18.3691 33.632L19.9958 32.0059" stroke="#F1F5F9" stroke-width="3" stroke-miterlimit="10" stroke-linecap="round"/>
<path d="M26.5 36.9983V34.6973" stroke="#F1F5F9" stroke-width="3" stroke-miterlimit="10" stroke-linecap="round"/>
<path d="M34.632 33.632L33.0049 32.0059" stroke="#F1F5F9" stroke-width="3" stroke-miterlimit="10" stroke-linecap="round"/>
<path d="M38.0003 25.5H35.7002" stroke="#F1F5F9" stroke-width="3" stroke-miterlimit="10" stroke-linecap="round"/>
<path d="M34.632 17.3672L33.0049 18.9938" stroke="#F1F5F9" stroke-width="3" stroke-miterlimit="10" stroke-linecap="round"/>
<rect x="1.5" y="1" width="49" height="49" rx="7" stroke="#F1F5F9" stroke-width="2"/>
</svg>
