<svg width="70" height="69" viewBox="0 0 70 69" fill="none" xmlns="http://www.w3.org/2000/svg">
<path d="M59.8624 7.68848L38.3135 23.6932L42.2984 14.2506L59.8624 7.68848Z" fill="#E2761B" stroke="#E2761B" stroke-linecap="round" stroke-linejoin="round"/>
<path d="M10.1162 7.68848L31.4919 23.8448L27.7019 14.2506L10.1162 7.68848Z" fill="#E4761B" stroke="#E4761B" stroke-linecap="round" stroke-linejoin="round"/>
<path d="M52.1093 44.7871L46.3701 53.58L58.6498 56.9585L62.1799 44.982L52.1093 44.7871Z" fill="#E4761B" stroke="#E4761B" stroke-linecap="round" stroke-linejoin="round"/>
<path d="M7.8418 44.982L11.3503 56.9585L23.6299 53.58L17.8908 44.7871L7.8418 44.982Z" fill="#E4761B" stroke="#E4761B" stroke-linecap="round" stroke-linejoin="round"/>
<path d="M22.9365 29.9305L19.5146 35.1066L31.7077 35.648L31.2745 22.5454L22.9365 29.9305Z" fill="#E4761B" stroke="#E4761B" stroke-linecap="round" stroke-linejoin="round"/>
<path d="M47.0413 29.9303L38.595 22.3936L38.3135 35.6478L50.4848 35.1064L47.0413 29.9303Z" fill="#E4761B" stroke="#E4761B" stroke-linecap="round" stroke-linejoin="round"/>
<path d="M23.6299 53.5801L30.95 50.0067L24.6261 45.0688L23.6299 53.5801Z" fill="#E4761B" stroke="#E4761B" stroke-linecap="round" stroke-linejoin="round"/>
<path d="M39.0283 50.0067L46.3701 53.5801L45.3522 45.0688L39.0283 50.0067Z" fill="#E4761B" stroke="#E4761B" stroke-linecap="round" stroke-linejoin="round"/>
<path d="M46.3701 53.5798L39.0283 50.0063L39.6131 54.7926L39.5481 56.8067L46.3701 53.5798Z" fill="#D7C1B3" stroke="#D7C1B3" stroke-linecap="round" stroke-linejoin="round"/>
<path d="M23.6299 53.5798L30.4519 56.8067L30.4086 54.7926L30.95 50.0063L23.6299 53.5798Z" fill="#D7C1B3" stroke="#D7C1B3" stroke-linecap="round" stroke-linejoin="round"/>
<path d="M30.5605 41.907L24.4531 40.1095L28.7629 38.1387L30.5605 41.907Z" fill="#233447" stroke="#233447" stroke-linecap="round" stroke-linejoin="round"/>
<path d="M39.418 41.907L41.2155 38.1387L45.547 40.1095L39.418 41.907Z" fill="#233447" stroke="#233447" stroke-linecap="round" stroke-linejoin="round"/>
<path d="M23.6298 53.5799L24.6693 44.7871L17.8906 44.982L23.6298 53.5799Z" fill="#CD6116" stroke="#CD6116" stroke-linecap="round" stroke-linejoin="round"/>
<path d="M45.3301 44.7871L46.3696 53.5799L52.1088 44.982L45.3301 44.7871Z" fill="#CD6116" stroke="#CD6116" stroke-linecap="round" stroke-linejoin="round"/>
<path d="M50.4848 35.1064L38.3135 35.6479L39.4397 41.9068L41.2372 38.1385L45.5686 40.1093L50.4848 35.1064Z" fill="#CD6116" stroke="#CD6116" stroke-linecap="round" stroke-linejoin="round"/>
<path d="M24.4535 40.1093L28.7849 38.1385L30.5608 41.9068L31.7087 35.6479L19.5156 35.1064L24.4535 40.1093Z" fill="#CD6116" stroke="#CD6116" stroke-linecap="round" stroke-linejoin="round"/>
<path d="M19.5156 35.1064L24.6267 45.0688L24.4535 40.1093L19.5156 35.1064Z" fill="#E4751F" stroke="#E4751F" stroke-linecap="round" stroke-linejoin="round"/>
<path d="M45.5691 40.1093L45.3525 45.0688L50.4853 35.1064L45.5691 40.1093Z" fill="#E4751F" stroke="#E4751F" stroke-linecap="round" stroke-linejoin="round"/>
<path d="M31.7084 35.6479L30.5605 41.9069L31.9899 49.292L32.3148 39.5679L31.7084 35.6479Z" fill="#E4751F" stroke="#E4751F" stroke-linecap="round" stroke-linejoin="round"/>
<path d="M38.3142 35.6479L37.7295 39.5463L37.9894 49.292L39.4404 41.9069L38.3142 35.6479Z" fill="#E4751F" stroke="#E4751F" stroke-linecap="round" stroke-linejoin="round"/>
<path d="M39.4393 41.9069L37.9883 49.2921L39.0278 50.0067L45.3517 45.0689L45.5683 40.1094L39.4393 41.9069Z" fill="#F6851B" stroke="#F6851B" stroke-linecap="round" stroke-linejoin="round"/>
<path d="M24.4531 40.1094L24.6264 45.0689L30.9503 50.0067L31.9899 49.2921L30.5605 41.9069L24.4531 40.1094Z" fill="#F6851B" stroke="#F6851B" stroke-linecap="round" stroke-linejoin="round"/>
<path d="M39.548 56.807L39.6129 54.7929L39.0715 54.3164H30.9067L30.4086 54.7929L30.4519 56.807L23.6299 53.5801L26.0122 55.5292L30.8417 58.8861H39.1365L43.9877 55.5292L46.37 53.5801L39.548 56.807Z" fill="#C0AD9E" stroke="#C0AD9E" stroke-linecap="round" stroke-linejoin="round"/>
<path d="M39.0278 50.0067L37.9882 49.292H31.9892L30.9496 50.0067L30.4082 54.7929L30.9063 54.3165H39.0711L39.6125 54.7929L39.0278 50.0067Z" fill="#161616" stroke="#161616" stroke-linecap="round" stroke-linejoin="round"/>
<path d="M60.7712 24.7327L62.6121 15.8966L59.8616 7.68848L39.0273 23.1518L47.0405 29.9305L58.3673 33.244L60.8795 30.3203L59.7966 29.5406L61.5292 27.9597L60.1865 26.9201L61.9191 25.599L60.7712 24.7327Z" fill="#763D16" stroke="#763D16" stroke-linecap="round" stroke-linejoin="round"/>
<path d="M7.38672 15.8966L9.22759 24.7327L8.05809 25.599L9.79067 26.9201L8.46958 27.9597L10.2022 29.5406L9.1193 30.3203L11.6099 33.244L22.9366 29.9305L30.9498 23.1518L10.1155 7.68848L7.38672 15.8966Z" fill="#763D16" stroke="#763D16" stroke-linecap="round" stroke-linejoin="round"/>
<path d="M58.3676 33.2437L47.0408 29.9302L50.4843 35.1063L45.3516 45.0686L52.1086 44.982H62.1792L58.3676 33.2437Z" fill="#F6851B" stroke="#F6851B" stroke-linecap="round" stroke-linejoin="round"/>
<path d="M22.9369 29.9307L11.6102 33.2442L7.8418 44.9825H17.8908L24.6262 45.0691L19.5151 35.1067L22.9369 29.9307Z" fill="#F6851B" stroke="#F6851B" stroke-linecap="round" stroke-linejoin="round"/>
<path d="M38.3132 35.6479L39.0279 23.1516L42.3198 14.2505H27.7012L30.9498 23.1516L31.7078 35.6479L31.9677 39.5895L31.9893 49.2919H37.9884L38.0317 39.5895L38.3132 35.6479Z" fill="#F6851B" stroke="#F6851B" stroke-linecap="round" stroke-linejoin="round"/>
</svg>
