<svg width="345" height="213" viewBox="0 0 345 213" fill="none" xmlns="http://www.w3.org/2000/svg">
<g filter="url(#filter0_d_823_1639)">
<rect x="30" y="26" width="285" height="153" rx="10" fill="white"/>
<path d="M110.143 126.444C103.715 126.444 97.6808 123.9 93.1387 119.283C92.603 118.744 92.603 117.867 93.1387 117.322C93.6689 116.783 94.5325 116.783 95.0626 117.322C99.091 121.417 104.447 123.672 110.143 123.672C115.838 123.672 121.189 121.417 125.218 117.322C129.246 113.228 131.465 107.789 131.465 102C131.465 96.2111 129.246 90.7667 125.218 86.6778C121.189 82.5833 115.838 80.3278 110.143 80.3278C104.447 80.3278 99.091 82.5833 95.0626 86.6778C89.6843 92.1444 87.5744 100.183 89.5531 107.656C89.7498 108.394 89.318 109.156 88.5911 109.356C87.8641 109.556 87.1153 109.117 86.924 108.378C85.8418 104.3 85.8144 99.9778 86.853 95.8889C87.9188 91.6722 90.0942 87.8111 93.1387 84.7167C97.6808 80.1 103.715 77.5555 110.143 77.5555C116.565 77.5555 122.605 80.1 127.147 84.7167C131.689 89.3333 134.193 95.4722 134.193 102C134.193 108.528 131.689 114.667 127.147 119.283C122.605 123.9 116.565 126.444 110.143 126.444Z" fill="#808EA4"/>
<path d="M125.617 93.25C124.349 90.9389 122.589 88.9555 120.495 87.4111L120.102 87.3722C117.046 87.3722 114.57 89.8889 114.57 93C114.57 96.1055 117.046 98.6222 120.102 98.6222C123.075 98.6222 125.48 96.2389 125.617 93.25Z" fill="#808EA4"/>
<path fill-rule="evenodd" clip-rule="evenodd" d="M129.218 102C129.218 102.594 129.191 103.194 129.136 103.783C128.705 108.578 126.54 113.022 123.037 116.289C119.506 119.578 114.931 121.389 110.143 121.389C99.6209 121.389 91.0669 112.689 91.0669 102C91.0669 91.3055 99.6209 82.6111 110.143 82.6111C117.057 82.6111 123.441 86.4278 126.813 92.5722C126.972 92.8555 127.016 93.1777 126.967 93.4777C126.721 97.1555 123.736 100.011 120.107 100.011H120.101C116.303 100.011 113.204 96.8666 113.204 93C113.204 90.3389 114.668 88.0278 116.816 86.8333C114.745 85.8944 112.482 85.3833 110.143 85.3833C101.13 85.3833 93.7943 92.8389 93.7943 102C93.7943 111.161 101.13 118.617 110.143 118.617C118.648 118.617 125.644 112.133 126.42 103.533C126.464 103.028 126.491 102.511 126.491 102C126.491 101.233 127.098 100.611 127.852 100.611C128.606 100.611 129.218 101.233 129.218 102ZM124.217 93.5611C123.14 91.7166 121.692 90.0666 119.992 88.7611C117.746 88.8222 115.931 90.7 115.931 93C115.931 95.3333 117.806 97.2389 120.101 97.2389H120.107C122.206 97.2389 123.944 95.65 124.217 93.5611Z" fill="#808EA4"/>
<path d="M120.293 107.878C120.293 109.978 118.544 111.672 116.445 111.522C114.668 111.394 113.236 109.933 113.116 108.133C112.968 106 114.63 104.222 116.702 104.222C118.686 104.222 120.293 105.856 120.293 107.878Z" fill="#808EA4"/>
<path fill-rule="evenodd" clip-rule="evenodd" d="M116.702 112.917C116.582 112.917 116.467 112.911 116.347 112.906C113.898 112.733 111.919 110.722 111.756 108.228C111.657 106.817 112.127 105.467 113.078 104.433C114.013 103.417 115.33 102.833 116.702 102.833C119.435 102.833 121.66 105.094 121.66 107.878C121.66 110.656 119.435 112.917 116.702 112.917ZM116.702 105.606C116.074 105.606 115.494 105.861 115.068 106.328C114.641 106.794 114.434 107.4 114.477 108.039C114.549 109.156 115.439 110.061 116.538 110.139C117.839 110.233 118.932 109.183 118.932 107.878C118.932 106.628 117.932 105.606 116.702 105.606Z" fill="#808EA4"/>
<path d="M104.65 92.0278C102.272 91.3833 99.8397 92.8111 99.2002 95.2111C98.5661 97.6111 99.9763 100.083 102.343 100.728C104.715 101.367 107.153 99.9444 107.792 97.5444C108.426 95.1389 107.016 92.6722 104.65 92.0278Z" fill="#808EA4"/>
<path fill-rule="evenodd" clip-rule="evenodd" d="M103.496 102.267C102.993 102.267 102.485 102.2 101.993 102.067C100.49 101.656 99.2383 100.678 98.4622 99.3167C97.6915 97.9556 97.4838 96.3667 97.8883 94.85C98.566 92.2833 100.873 90.4889 103.491 90.4889C103.999 90.4889 104.507 90.5556 104.999 90.6889C106.502 91.1 107.754 92.0722 108.53 93.4389C109.306 94.8 109.509 96.3889 109.11 97.9C108.426 100.472 106.12 102.267 103.496 102.267ZM103.491 93.2611C102.102 93.2611 100.878 94.2111 100.517 95.5722C100.31 96.3722 100.413 97.2111 100.823 97.9278C101.233 98.65 101.9 99.1667 102.698 99.3833C102.961 99.4556 103.228 99.4944 103.496 99.4944C104.89 99.4944 106.114 98.5444 106.475 97.1833C106.683 96.3833 106.579 95.5444 106.169 94.8278C105.759 94.1 105.092 93.5833 104.294 93.3667C104.032 93.2944 103.764 93.2611 103.491 93.2611Z" fill="#808EA4"/>
<path d="M107.546 109.511C107.546 110.961 106.393 112.133 104.967 112.133C103.545 112.133 102.387 110.961 102.387 109.511C102.387 108.067 103.545 106.889 104.967 106.889C106.393 106.889 107.546 108.067 107.546 109.511Z" fill="#808EA4"/>
<path fill-rule="evenodd" clip-rule="evenodd" d="M104.967 113.517C102.791 113.517 101.026 111.722 101.026 109.511C101.026 107.306 102.791 105.506 104.967 105.506C107.142 105.506 108.908 107.306 108.908 109.511C108.908 111.722 107.142 113.517 104.967 113.517ZM104.967 108.278C104.3 108.278 103.753 108.833 103.753 109.511C103.753 110.194 104.3 110.744 104.967 110.744C105.639 110.744 106.18 110.194 106.18 109.511C106.18 108.833 105.639 108.278 104.967 108.278Z" fill="#808EA4"/>
<path d="M148.819 104.967L146.753 113.667H140.981L146.195 90.3334H157.772L160.002 93.2L158.723 99.0667L155.148 102.1L157.411 104.967L156.067 110.833L152.558 113.667H149.737L151.607 104.967H148.819ZM150.688 96.2L150.131 99.0667H152.918L153.673 96.2H150.688ZM164.528 107.8H167.512L170.136 96.2H167.151L164.528 107.8ZM160.396 113.667L158.166 110.833L162.101 93.1667L165.643 90.3334H174.235L176.465 93.1667L172.563 110.833L169.021 113.667H160.396ZM180.696 107.8H183.68L187.583 90.3334H193.387L188.731 110.833L185.156 113.667H176.596L174.301 110.833L178.794 90.3334H184.598L180.696 107.8ZM203.685 96.2334H200.897L196.995 113.667H191.223L195.683 93.1667L199.225 90.3334H208.014L210.244 93.1667L205.587 113.667H199.815L203.685 96.2334ZM219.656 113.667H208.08L213.327 90.3334H224.871L227.134 93.1667L223.198 110.833L219.656 113.667ZM217.787 96.2L215.163 107.8H218.148L220.771 96.2H217.787ZM231.495 107.8H240.088L238.776 113.667H227.199L224.969 110.833L228.904 93.1667L232.414 90.3334H243.99L242.711 96.2H234.119L233.365 99.0667H242.154L240.842 104.933H232.053L231.495 107.8ZM248.68 104.967L246.614 113.667H240.842L246.056 90.3334H257.633L259.863 93.2L258.584 99.0667L255.009 102.1L257.272 104.967L255.928 110.833L252.418 113.667H249.598L251.467 104.967H248.68ZM250.549 96.2L249.992 99.0667H252.779L253.534 96.2H250.549Z" fill="#808EA4"/>
<rect x="31" y="27" width="283" height="151" rx="9" stroke="#1FA5FF" stroke-width="2"/>
</g>
<defs>
<filter id="filter0_d_823_1639" x="0" y="0" width="345" height="213" filterUnits="userSpaceOnUse" color-interpolation-filters="sRGB">
<feFlood flood-opacity="0" result="BackgroundImageFix"/>
<feColorMatrix in="SourceAlpha" type="matrix" values="0 0 0 0 0 0 0 0 0 0 0 0 0 0 0 0 0 0 127 0" result="hardAlpha"/>
<feOffset dy="4"/>
<feGaussianBlur stdDeviation="15"/>
<feComposite in2="hardAlpha" operator="out"/>
<feColorMatrix type="matrix" values="0 0 0 0 0.121569 0 0 0 0 0.647059 0 0 0 0 1 0 0 0 0.1 0"/>
<feBlend mode="normal" in2="BackgroundImageFix" result="effect1_dropShadow_823_1639"/>
<feBlend mode="normal" in="SourceGraphic" in2="effect1_dropShadow_823_1639" result="shape"/>
</filter>
</defs>
</svg>
