<svg width="176" height="50" viewBox="0 0 176 50" fill="none" xmlns="http://www.w3.org/2000/svg">
<path d="M25.1429 49.4444C18.7151 49.4444 12.6808 46.9 8.13867 42.2833C7.60302 41.7444 7.60302 40.8667 8.13867 40.3222C8.66885 39.7833 9.53246 39.7833 10.0626 40.3222C14.091 44.4167 19.4475 46.6722 25.1429 46.6722C30.8383 46.6722 36.1894 44.4167 40.2177 40.3222C44.246 36.2278 46.4651 30.7889 46.4651 25C46.4651 19.2111 44.246 13.7667 40.2177 9.67776C36.1894 5.58332 30.8383 3.32776 25.1429 3.32776C19.4475 3.32776 14.091 5.58332 10.0626 9.67776C4.68426 15.1444 2.57444 23.1833 4.55308 30.6555C4.74985 31.3944 4.31805 32.1555 3.59109 32.3555C2.86413 32.5555 2.11531 32.1167 1.92401 31.3778C0.841773 27.3 0.814444 22.9778 1.85295 18.8889C2.91879 14.6722 5.0942 10.8111 8.13867 7.71665C12.6808 3.09999 18.7151 0.555542 25.1429 0.555542C31.5653 0.555542 37.605 3.09999 42.1471 7.71665C46.6892 12.3333 49.1926 18.4722 49.1926 25C49.1926 31.5278 46.6892 37.6667 42.1471 42.2833C37.605 46.9 31.5653 49.4444 25.1429 49.4444Z" fill="#808EA4"/>
<path d="M40.6168 16.25C39.3487 13.9389 37.5887 11.9555 35.4953 10.4111L35.1017 10.3722C32.0463 10.3722 29.5703 12.8889 29.5703 16C29.5703 19.1055 32.0463 21.6222 35.1017 21.6222C38.0752 21.6222 40.4801 19.2389 40.6168 16.25Z" fill="#808EA4"/>
<path fill-rule="evenodd" clip-rule="evenodd" d="M44.2185 25C44.2185 25.5944 44.1911 26.1944 44.1365 26.7833C43.7047 31.5777 41.5402 36.0222 38.0366 39.2889C34.5057 42.5778 29.9308 44.3889 25.1427 44.3889C14.6209 44.3889 6.06689 35.6889 6.06689 25C6.06689 14.3055 14.6209 5.61108 25.1427 5.61108C32.057 5.61108 38.4411 9.42775 41.8135 15.5722C41.972 15.8555 42.0157 16.1777 41.9665 16.4777C41.7206 20.1555 38.7362 23.0111 35.1069 23.0111H35.1014C31.3027 23.0111 28.2035 19.8666 28.2035 16C28.2035 13.3389 29.6684 11.0278 31.8165 9.83331C29.7449 8.89442 27.4821 8.38331 25.1427 8.38331C16.1295 8.38331 8.79435 15.8389 8.79435 25C8.79435 34.1611 16.1295 41.6166 25.1427 41.6166C33.6475 41.6166 40.6438 35.1333 41.4199 26.5333C41.4637 26.0277 41.491 25.5111 41.491 25C41.491 24.2333 42.0977 23.6111 42.852 23.6111C43.6063 23.6111 44.2185 24.2333 44.2185 25ZM39.2172 16.5611C38.1404 14.7166 36.692 13.0666 34.9921 11.7611C32.7457 11.8222 30.931 13.7 30.931 16C30.931 18.3333 32.8058 20.2389 35.1014 20.2389H35.1069C37.2058 20.2389 38.9439 18.65 39.2172 16.5611Z" fill="#808EA4"/>
<path d="M35.2927 30.8778C35.2927 32.9778 33.5436 34.6722 31.4448 34.5222C29.6684 34.3945 28.2363 32.9333 28.1161 31.1333C27.9685 29 29.6301 27.2222 31.7017 27.2222C33.6858 27.2222 35.2927 28.8556 35.2927 30.8778Z" fill="#808EA4"/>
<path fill-rule="evenodd" clip-rule="evenodd" d="M31.7021 35.9167C31.5818 35.9167 31.4671 35.9112 31.3468 35.9056C28.8981 35.7334 26.9195 33.7223 26.7555 31.2278C26.6571 29.8167 27.1272 28.4667 28.0782 27.4334C29.0129 26.4167 30.3302 25.8334 31.7021 25.8334C34.435 25.8334 36.6596 28.0945 36.6596 30.8778C36.6596 33.6556 34.435 35.9167 31.7021 35.9167ZM31.7021 28.6056C31.0735 28.6056 30.4941 28.8612 30.0678 29.3278C29.6415 29.7945 29.4338 30.4 29.4775 31.0389C29.5485 32.1556 30.4395 33.0612 31.5381 33.1389C32.839 33.2334 33.9322 32.1834 33.9322 30.8778C33.9322 29.6278 32.9319 28.6056 31.7021 28.6056Z" fill="#808EA4"/>
<path d="M19.6496 15.0278C17.272 14.3833 14.8397 15.8111 14.2002 18.2111C13.5661 20.6111 14.9763 23.0833 17.343 23.7278C19.7152 24.3667 22.153 22.9444 22.7925 20.5444C23.4265 18.1389 22.0163 15.6722 19.6496 15.0278Z" fill="#808EA4"/>
<path fill-rule="evenodd" clip-rule="evenodd" d="M18.4962 25.2667C17.9934 25.2667 17.485 25.2 16.9931 25.0667C15.49 24.6556 14.2383 23.6778 13.4622 22.3167C12.6915 20.9556 12.4838 19.3667 12.8883 17.85C13.566 15.2833 15.8726 13.4889 18.4908 13.4889C18.9991 13.4889 19.5074 13.5556 19.9993 13.6889C21.5024 14.1 22.7541 15.0722 23.5303 16.4389C24.3064 17.8 24.5087 19.3889 24.1096 20.9C23.4264 23.4722 21.1198 25.2667 18.4962 25.2667ZM18.4908 16.2611C17.1024 16.2611 15.8781 17.2111 15.5173 18.5722C15.3096 19.3722 15.4135 20.2111 15.8234 20.9278C16.2334 21.65 16.9002 22.1667 17.6982 22.3833C17.9606 22.4556 18.2284 22.4944 18.4962 22.4944C19.89 22.4944 21.1144 21.5444 21.4751 20.1833C21.6828 19.3833 21.579 18.5444 21.169 17.8278C20.7591 17.1 20.0923 16.5833 19.2942 16.3667C19.0319 16.2944 18.7641 16.2611 18.4908 16.2611Z" fill="#808EA4"/>
<path d="M22.5465 32.5111C22.5465 33.9611 21.3932 35.1334 19.9666 35.1334C18.5455 35.1334 17.3867 33.9611 17.3867 32.5111C17.3867 31.0667 18.5455 29.8889 19.9666 29.8889C21.3932 29.8889 22.5465 31.0667 22.5465 32.5111Z" fill="#808EA4"/>
<path fill-rule="evenodd" clip-rule="evenodd" d="M19.9667 36.5167C17.7913 36.5167 16.0259 34.7222 16.0259 32.5111C16.0259 30.3056 17.7913 28.5056 19.9667 28.5056C22.1422 28.5056 23.9076 30.3056 23.9076 32.5111C23.9076 34.7222 22.1422 36.5167 19.9667 36.5167ZM19.9667 31.2778C19.2999 31.2778 18.7533 31.8333 18.7533 32.5111C18.7533 33.1944 19.2999 33.7444 19.9667 33.7444C20.639 33.7444 21.1802 33.1944 21.1802 32.5111C21.1802 31.8333 20.639 31.2778 19.9667 31.2778Z" fill="#808EA4"/>
<path d="M63.819 27.9667L61.7529 36.6667H55.981L61.1954 13.3334H72.772L75.0021 16.2L73.7231 22.0667L70.1484 25.1L72.4113 27.9667L71.0667 33.8334L67.5576 36.6667H64.7372L66.6065 27.9667H63.819ZM65.6883 19.2L65.1308 22.0667H67.9184L68.6726 19.2H65.6883ZM79.5278 30.8H82.5121L85.1357 19.2H82.1514L79.5278 30.8ZM75.3956 36.6667L73.1656 33.8334L77.101 16.1667L80.6428 13.3334H89.2351L91.4652 16.1667L87.5626 33.8334L84.0207 36.6667H75.3956ZM95.6957 30.8H98.6801L102.583 13.3334H108.387L103.731 33.8334L100.156 36.6667H91.5964L89.3007 33.8334L93.7936 13.3334H99.5983L95.6957 30.8ZM118.685 19.2334H115.897L111.995 36.6667H106.223L110.683 16.1667L114.225 13.3334H123.014L125.244 16.1667L120.587 36.6667H114.815L118.685 19.2334ZM134.656 36.6667H123.08L128.327 13.3334H139.871L142.134 16.1667L138.198 33.8334L134.656 36.6667ZM132.787 19.2L130.163 30.8H133.148L135.771 19.2H132.787ZM146.495 30.8H155.088L153.776 36.6667H142.199L139.969 33.8334L143.904 16.1667L147.414 13.3334H158.99L157.711 19.2H149.119L148.365 22.0667H157.154L155.842 27.9334H147.053L146.495 30.8ZM163.68 27.9667L161.614 36.6667H155.842L161.056 13.3334H172.633L174.863 16.2L173.584 22.0667L170.009 25.1L172.272 27.9667L170.928 33.8334L167.418 36.6667H164.598L166.467 27.9667H163.68ZM165.549 19.2L164.992 22.0667H167.779L168.533 19.2H165.549Z" fill="#808EA4"/>
</svg>
