<svg width="173" height="50" viewBox="0 0 173 50" fill="none" xmlns="http://www.w3.org/2000/svg">
<path d="M68.7342 36.462C67.2617 36.462 65.9515 36.0992 64.8039 35.3734C63.6815 34.6477 62.7933 33.6076 62.1393 32.2532C61.5064 30.8945 61.1899 29.2912 61.1899 27.4431C61.1899 25.5739 61.5064 23.9726 62.1393 22.6393C62.7933 21.2806 63.6815 20.2384 64.8039 19.5127C65.9515 18.7869 67.2617 18.4241 68.7342 18.4241C69.8355 18.4241 70.8418 18.6582 71.7532 19.1266C72.6899 19.5739 73.403 20.1582 73.8925 20.8798V14.1836C73.8925 12.0781 74.9347 11.0253 77.0191 11.0253C78.0233 11.0253 78.7954 11.2933 79.3355 11.8291C79.8714 12.3692 80.1393 13.154 80.1393 14.1836V33.2342C80.1393 35.3397 79.1098 36.3924 77.0507 36.3924C75.2026 36.3924 74.1857 35.5148 74.0001 33.7595C73.5317 34.5781 72.8186 35.2342 71.8608 35.7279C70.9241 36.2173 69.8819 36.462 68.7342 36.462ZM70.7342 31.8671C71.671 31.8671 72.4431 31.5148 73.0507 30.8101C73.6583 30.1097 73.9621 28.9874 73.9621 27.4431C73.9621 25.8777 73.6583 24.7553 73.0507 24.076C72.4431 23.3755 71.671 23.0253 70.7342 23.0253C69.7764 23.0253 68.9937 23.3755 68.3861 24.076C67.7785 24.7553 67.4747 25.8777 67.4747 27.4431C67.4747 28.9874 67.7785 30.1097 68.3861 30.8101C68.9937 31.5148 69.7764 31.8671 70.7342 31.8671ZM86.9494 36.3924C84.8186 36.3924 83.7532 35.3397 83.7532 33.2342V21.6203C83.7532 19.5359 84.7701 18.4937 86.8039 18.4937C87.7659 18.4937 88.5043 18.7637 89.019 19.3038C89.5549 19.8397 89.8228 20.6118 89.8228 21.6203V21.7279C90.2237 20.7194 90.8671 19.9241 91.7532 19.3418C92.6435 18.7553 93.6963 18.4494 94.9115 18.4241C95.5908 18.403 96.095 18.5802 96.4241 18.9557C96.7743 19.3059 96.96 19.9726 96.9811 20.9557C96.9811 21.7954 96.806 22.462 96.4557 22.9557C96.1055 23.4452 95.4389 23.7363 94.4558 23.8291L93.652 23.8987C92.4115 24.0169 91.5106 24.3692 90.9494 24.9557C90.3882 25.5169 90.1077 26.3587 90.1077 27.481V33.2342C90.1077 35.3397 89.0549 36.3924 86.9494 36.3924ZM105.437 36.462C103.192 36.462 101.532 35.8544 100.456 34.6393C99.4051 33.3987 98.8798 31.5148 98.8798 28.9874V21.6203C98.8798 19.5359 99.9199 18.4937 102 18.4937C103.004 18.4937 103.776 18.7637 104.317 19.3038C104.852 19.8397 105.12 20.6118 105.12 21.6203V29.1646C105.12 30.8481 105.846 31.6899 107.298 31.6899C108.141 31.6899 108.831 31.3861 109.367 30.7785C109.907 30.1709 110.177 29.3629 110.177 28.3544V21.6203C110.177 19.5359 111.217 18.4937 113.298 18.4937C114.306 18.4937 115.078 18.7637 115.614 19.3038C116.154 19.8397 116.424 20.6118 116.424 21.6203V33.2342C116.424 35.3397 115.418 36.3924 113.405 36.3924C111.603 36.3924 110.587 35.5506 110.354 33.8671C109.228 35.5971 107.589 36.462 105.437 36.462ZM127.722 36.3924C126.106 36.3924 124.935 35.5739 124.209 33.9367L119.196 22.462C118.749 21.4072 118.749 20.4831 119.196 19.6899C119.639 18.8924 120.538 18.4937 121.892 18.4937C122.618 18.4937 123.215 18.6709 123.684 19.0253C124.152 19.3502 124.574 20.0042 124.949 20.9874L127.899 28.6013L131.019 20.9557C131.395 19.9937 131.816 19.3502 132.285 19.0253C132.749 18.6709 133.39 18.4937 134.209 18.4937C134.888 18.4937 135.439 18.6814 135.861 19.057C136.304 19.4072 136.574 19.8861 136.671 20.4937C136.785 21.1055 136.679 21.7616 136.354 22.462L131.228 33.9684C130.527 35.5844 129.359 36.3924 127.722 36.3924ZM148.038 36.462C145.933 36.462 144.108 36.0992 142.563 35.3734C141.044 34.6266 139.876 33.5739 139.057 32.2152C138.234 30.8608 137.823 29.2595 137.823 27.4114C137.823 25.6561 138.209 24.0992 138.981 22.7405C139.779 21.3861 140.854 20.3333 142.209 19.5823C143.593 18.8101 145.16 18.4241 146.911 18.4241C148.646 18.4241 150.144 18.7869 151.405 19.5127C152.692 20.2384 153.675 21.2806 154.354 22.6393C155.055 23.9726 155.405 25.5401 155.405 27.3418C155.405 28.2532 154.867 28.7089 153.791 28.7089H143.791C144.002 29.8312 144.471 30.6371 145.196 31.1266C145.922 31.6203 146.926 31.8671 148.209 31.8671C148.703 31.8671 149.289 31.808 149.968 31.6899C150.643 31.5717 151.287 31.384 151.899 31.1266C152.646 30.8481 153.276 30.8481 153.791 31.1266C154.306 31.384 154.646 31.7933 154.81 32.3544C154.996 32.8945 154.973 33.4557 154.741 34.038C154.53 34.6034 154.097 35.038 153.443 35.3418C152.625 35.7384 151.747 36.0296 150.81 36.2152C149.899 36.3798 148.975 36.462 148.038 36.462ZM147.196 22.462C146.26 22.462 145.487 22.7426 144.88 23.3038C144.293 23.865 143.918 24.6836 143.753 25.7595H150.285C150.213 24.6582 149.907 23.8397 149.367 23.3038C148.852 22.7426 148.129 22.462 147.196 22.462ZM161.298 36.3924C159.171 36.3924 158.108 35.3397 158.108 33.2342V21.6203C158.108 19.5359 159.125 18.4937 161.158 18.4937C162.12 18.4937 162.859 18.7637 163.373 19.3038C163.909 19.8397 164.177 20.6118 164.177 21.6203V21.7279C164.574 20.7194 165.217 19.9241 166.108 19.3418C166.998 18.7553 168.051 18.4494 169.266 18.4241C169.945 18.403 170.447 18.5802 170.772 18.9557C171.122 19.3059 171.31 19.9726 171.335 20.9557C171.335 21.7954 171.16 22.462 170.81 22.9557C170.46 23.4452 169.793 23.7363 168.81 23.8291L168 23.8987C166.76 24.0169 165.859 24.3692 165.298 24.9557C164.736 25.5169 164.456 26.3587 164.456 27.481V33.2342C164.456 35.3397 163.403 36.3924 161.298 36.3924Z" fill="#808EA4"/>
<path fill-rule="evenodd" clip-rule="evenodd" d="M49.3673 25C49.3673 38.0886 38.7217 48.7342 25.6331 48.7342C12.5445 48.7342 1.89893 38.0886 1.89893 25C1.89893 11.9114 12.5445 1.26581 25.6331 1.26581C38.7217 1.26581 49.3673 11.9114 49.3673 25ZM46.7344 25C46.7344 13.3671 37.266 3.89872 25.6331 3.89872C14.0002 3.89872 4.53184 13.3671 4.53184 25C4.53184 36.6329 14.0002 46.1012 25.6331 46.1012C37.266 46.1012 46.7344 36.6329 46.7344 25Z" fill="#808EA4"/>
<path fill-rule="evenodd" clip-rule="evenodd" d="M40.7153 25C40.7153 33.3165 33.9495 40.0823 25.6331 40.0823C17.3166 40.0823 10.5508 33.3165 10.5508 25C10.5508 16.6835 17.3166 9.91772 25.6331 9.91772C33.9495 9.91772 40.7153 16.6835 40.7153 25ZM38.0824 25C38.0824 18.1392 32.4938 12.5506 25.6331 12.5506C18.7723 12.5506 13.1837 18.1329 13.1837 25C13.1837 31.8671 18.7723 37.4494 25.6331 37.4494C32.4938 37.4494 38.0824 31.8608 38.0824 25Z" fill="#808EA4"/>
<path fill-rule="evenodd" clip-rule="evenodd" d="M30.6013 25C30.6013 27.7468 28.3734 29.9683 25.6329 29.9683C22.8924 29.9683 20.6646 27.7468 20.6646 25C20.6646 22.2531 22.8924 20.0316 25.6329 20.0316C28.3734 20.0316 30.6013 22.2531 30.6013 25ZM27.962 25C27.962 23.7215 26.924 22.6709 25.6329 22.6709C24.3544 22.6709 23.3038 23.7088 23.3038 25C23.3038 26.2785 24.3418 27.3291 25.6329 27.3291C26.924 27.3291 27.962 26.2911 27.962 25Z" fill="#808EA4"/>
<path d="M25.6329 17.962C24.7342 17.962 24.0063 17.2342 24.0063 16.3355C24.0063 15.4367 24.7342 14.7152 25.6329 14.7152C26.5317 14.7152 27.2595 15.4367 27.2595 16.3355C27.2595 17.2342 26.5317 17.962 25.6329 17.962Z" fill="#808EA4"/>
<path d="M25.6329 35.2848C24.7342 35.2848 24.0063 34.5633 24.0063 33.6645C24.0063 32.7658 24.7342 32.038 25.6329 32.038C26.5317 32.038 27.2595 32.7658 27.2595 33.6645C27.2595 34.5633 26.5317 35.2848 25.6329 35.2848Z" fill="#808EA4"/>
<path d="M34.2975 26.6266C33.3987 26.6266 32.6709 25.8987 32.6709 25C32.6709 24.1013 33.3987 23.3734 34.2975 23.3734C35.1962 23.3734 35.9177 24.1013 35.9177 25C35.9177 25.8987 35.1962 26.6266 34.2975 26.6266Z" fill="#808EA4"/>
<path d="M16.9684 26.6266C16.0697 26.6266 15.3481 25.8987 15.3481 25C15.3481 24.1013 16.0697 23.3734 16.9684 23.3734C17.8671 23.3734 18.595 24.1013 18.595 25C18.595 25.8987 17.8671 26.6266 16.9684 26.6266Z" fill="#808EA4"/>
<path d="M31.7535 20.5063C30.8548 20.5063 30.127 19.7785 30.127 18.8798C30.127 17.981 30.8548 17.2532 31.7535 17.2532C32.6523 17.2532 33.3801 17.981 33.3801 18.8798C33.3801 19.7785 32.6523 20.5063 31.7535 20.5063Z" fill="#808EA4"/>
<path d="M19.5128 32.7468C18.6141 32.7468 17.8862 32.019 17.8862 31.1202C17.8862 30.2215 18.6141 29.4937 19.5128 29.4937C20.4115 29.4937 21.1394 30.2215 21.1394 31.1202C21.1394 32.019 20.4115 32.7468 19.5128 32.7468Z" fill="#808EA4"/>
<path d="M31.7535 32.7468C30.8548 32.7468 30.127 32.019 30.127 31.1202C30.127 30.2215 30.8548 29.4937 31.7535 29.4937C32.6523 29.4937 33.3801 30.2215 33.3801 31.1202C33.3801 32.019 32.6523 32.7468 31.7535 32.7468Z" fill="#808EA4"/>
<path d="M19.5128 20.5063C18.6141 20.5063 17.8862 19.7785 17.8862 18.8798C17.8862 17.981 18.6141 17.2532 19.5128 17.2532C20.4115 17.2532 21.1394 17.981 21.1394 18.8798C21.1394 19.7785 20.4115 20.5063 19.5128 20.5063Z" fill="#808EA4"/>
</svg>
