<svg width="189" height="50" viewBox="0 0 189 50" fill="none" xmlns="http://www.w3.org/2000/svg">
<path fill-rule="evenodd" clip-rule="evenodd" d="M49.2499 26.5625C48.9166 31.7569 46.8957 36.625 43.4652 40.5347C39.236 45.3472 33.4721 48.1458 27.2707 48.5486C14.1388 49.4166 2.97906 39.4583 2.13184 26.5625C2.06934 25.5277 2.06934 24.4444 2.13184 23.4166C2.47211 18.2222 4.486 13.3541 7.9235 9.44441C12.9096 3.7708 19.9929 0.944408 27.2707 1.43052C33.6666 1.84719 39.3679 4.78469 43.4652 9.44441C47.7152 14.2847 49.6596 20.4305 49.2499 26.5625ZM43.9929 23.4166C43.6596 19.5277 42.1179 15.9861 39.7429 13.1666C39.0624 12.368 38.3193 11.625 37.5138 10.9444C34.6943 8.56941 31.1527 7.0208 27.2707 6.69441C26.7499 6.6458 26.2221 6.62496 25.6943 6.62496C25.1666 6.62496 24.6388 6.6458 24.1179 6.69441C20.236 7.0208 16.6943 8.56941 13.8749 10.9444C13.0693 11.625 12.3263 12.368 11.6457 13.1666C9.27073 15.9861 7.72906 19.5277 7.39572 23.4166C7.30545 24.4652 7.30545 25.5069 7.39572 26.5625C7.72906 30.4444 9.27073 33.9861 11.6457 36.8055C12.3263 37.6111 13.0693 38.3541 13.8749 39.0347C17.6179 42.1875 22.4027 43.7013 27.2707 43.2847C31.1527 42.9583 34.6943 41.4097 37.5138 39.0347C42.1527 35.1111 44.4929 29.3194 43.9929 23.4166Z" fill="#808EA4"/>
<path d="M43.4652 9.44444C39.3679 4.78472 33.6666 1.84722 27.2707 1.43056C26.7429 1.39583 26.2152 1.38194 25.6943 1.375V6.625C26.2221 6.625 26.7499 6.64583 27.2707 6.69444C31.1527 7.02083 34.6943 8.56944 37.5138 10.9444C38.3193 11.625 39.0624 12.3681 39.7429 13.1667C42.1179 15.9861 43.6596 19.5278 43.9929 23.4167C44.4929 29.3194 42.1527 35.1111 37.5138 39.0347C34.6943 41.4097 31.1527 42.9583 27.2707 43.2847C26.7429 43.3333 26.2152 43.3542 25.6943 43.3542V48.5972C26.2152 48.5972 26.7429 48.5833 27.2707 48.5486C33.4721 48.1458 39.236 45.3472 43.4652 40.5347C46.8957 36.625 48.9166 31.7569 49.2499 26.5625C49.6596 20.4306 47.7152 14.2847 43.4652 9.44444Z" fill="#808EA4"/>
<path d="M27.2709 1.43056V6.69445C26.7501 6.64584 26.2223 6.62501 25.6946 6.62501C25.1668 6.62501 24.639 6.64584 24.1182 6.69445V1.43056C25.1529 1.36112 26.2362 1.36112 27.2709 1.43056Z" fill="#808EA4"/>
<path d="M27.2709 43.2847V48.5486C26.2362 48.6181 25.1529 48.6181 24.1182 48.5486V43.2847C25.1598 43.375 26.2015 43.375 27.2709 43.2847Z" fill="#808EA4"/>
<path d="M13.8747 10.9444C13.0692 11.625 12.3261 12.368 11.6456 13.1667L7.92334 9.44444C8.62473 8.63888 9.34695 7.9236 10.1456 7.21527L13.8747 10.9444Z" fill="#808EA4"/>
<path d="M7.39572 26.5625H2.13184C2.06934 25.5278 2.06934 24.4514 2.13184 23.4167H7.39572C7.30545 24.4653 7.30545 25.507 7.39572 26.5625Z" fill="#808EA4"/>
<path d="M13.8747 39.0347L10.1456 42.7639C9.34695 42.0555 8.62473 41.3403 7.92334 40.5347L11.6456 36.8055C12.3261 37.6111 13.0692 38.3542 13.8747 39.0347Z" fill="#808EA4"/>
<path d="M25.6943 1.375V6.625C26.2221 6.625 26.7499 6.64583 27.2707 6.69444V1.43056C26.7499 1.39583 26.2221 1.375 25.6943 1.375Z" fill="#808EA4"/>
<path d="M25.6943 43.3542V48.5972C26.2221 48.5972 26.7499 48.5833 27.2707 48.5486V43.2847C26.736 43.3333 26.2152 43.3542 25.6943 43.3542Z" fill="#808EA4"/>
<path d="M43.4651 40.5347C42.7637 41.3333 42.0414 42.0555 41.2428 42.7639L37.5137 39.0347C38.3192 38.3542 39.0623 37.6111 39.7428 36.8055L43.4651 40.5347Z" fill="#808EA4"/>
<path d="M49.2501 26.5625H43.9932C44.0834 25.5069 44.0834 24.4652 43.9932 23.4166H49.2501C49.3196 24.4444 49.3196 25.5277 49.2501 26.5625Z" fill="#808EA4"/>
<path d="M43.4651 9.44444L39.7428 13.1667C39.0623 12.368 38.3192 11.625 37.5137 10.9444L41.2428 7.21527C42.0414 7.9236 42.7637 8.63888 43.4651 9.44444Z" fill="#808EA4"/>
<path d="M68.764 35.1528C71.6807 35.1528 74.4723 34.6528 77.139 33.6528L78.5557 38.1528C76.3057 38.8472 74.014 39.1945 71.6807 39.1945C69.3473 39.1945 67.264 38.9445 65.4307 38.4445C63.6251 37.9445 62.2362 37.2917 61.264 36.4861C60.7918 34.1528 60.5557 31.8472 60.5557 29.5695C60.5557 24.9306 61.4307 20.7222 63.1807 16.9445C64.9307 13.1667 66.9446 10.5278 69.2223 9.02779L77.264 14.1111C73.4307 16.5556 70.389 19.6667 68.139 23.4445C65.889 27.2222 64.764 31.0278 64.764 34.8611C65.9584 35.0556 67.2918 35.1528 68.764 35.1528ZM98.0973 16.4028C98.5973 16.4028 99.0973 16.4861 99.5973 16.6528C101.014 18.375 101.986 21.3611 102.514 25.6111C103.042 29.8333 103.306 34.0278 103.306 38.1945L95.8057 38.8195C95.8057 32.4306 95.5696 26.6111 95.0973 21.3611C91.4029 22.7222 88.9446 28.4167 87.7223 38.4445L83.5973 38.8195L81.4723 9.73613L90.389 8.36112L88.8473 25.5278H89.2223C90.3612 22.7222 91.6946 20.5 93.2223 18.8611C94.7779 17.2222 96.4029 16.4028 98.0973 16.4028ZM111.889 39.1528C111.417 39.1528 111.07 39.1389 110.847 39.1111C109.903 38.4722 109.139 37.5278 108.556 36.2778C108 35 107.722 33.6806 107.722 32.3195C107.722 30.5417 108.389 29.25 109.722 28.4445C111.083 27.6389 113.57 27.2361 117.181 27.2361C118.514 27.2361 119.903 27.3333 121.347 27.5278L121.264 26.6111C121.153 25.5 120.625 24.625 119.681 23.9861C118.736 23.3195 117.528 22.9861 116.056 22.9861C114.583 22.9861 113.111 23.4445 111.639 24.3611L109.806 18.3195C112.195 17.3472 114.917 16.8611 117.972 16.8611C121.028 16.8611 123.445 17.5556 125.222 18.9445C127 20.3056 127.889 22.4445 127.889 25.3611C127.889 26.0278 127.861 26.5556 127.806 26.9445L126.639 38.4445L122.514 38.8195L121.889 32.7778H121.556C120.611 34.7778 119.306 36.3472 117.639 37.4861C115.972 38.5972 114.056 39.1528 111.889 39.1528ZM121.514 29.2778L119.306 29.2361C117.472 29.2361 115.972 29.3333 114.806 29.5278C114.417 30.3056 114.222 31 114.222 31.6111C114.222 32.2222 114.306 32.8056 114.472 33.3611C114.639 33.9167 114.82 34.2917 115.014 34.4861C118.347 33.9583 120.514 32.2222 121.514 29.2778ZM149.556 15.8611L152.347 18.0278L145.889 24.7778L154.931 38.2778L147.014 38.8195L141.806 29.0695L140.306 30.4861L139.597 38.4445L135.472 38.8195L133.347 9.73613L142.264 8.36112L140.681 26.3611L149.556 15.8611ZM171.306 24.4861C169.417 24.4861 167.986 25.1528 167.014 26.4861C166.042 27.7917 165.333 30.2083 164.889 33.7361L164.306 38.4445L160.181 38.8195L158.056 18.1528L166.972 16.7778L166.139 23.4445H166.431C168.653 18.6667 171.486 16.125 174.931 15.8195L173.764 24.6945C172.736 24.5556 171.917 24.4861 171.306 24.4861ZM184.097 38.4445L179.972 38.8195L177.847 18.1945L186.764 16.8195L184.097 38.4445ZM179.139 13.5695C178.389 12.7917 178.014 11.875 178.014 10.8195C178.014 9.7639 178.389 8.86113 179.139 8.11112C179.917 7.33335 180.833 6.94446 181.889 6.94446C182.945 6.94446 183.847 7.33335 184.597 8.11112C185.375 8.86113 185.764 9.7639 185.764 10.8195C185.764 11.875 185.375 12.7917 184.597 13.5695C183.847 14.3195 182.945 14.6945 181.889 14.6945C180.833 14.6945 179.917 14.3195 179.139 13.5695Z" fill="#808EA4"/>
</svg>
