<svg width="67" height="39" viewBox="0 0 67 39" fill="none" xmlns="http://www.w3.org/2000/svg">
<path d="M14.0587 7.83721C24.7909 -2.11957 42.1913 -2.11957 52.9235 7.83721L54.2151 9.03553C54.7517 9.53337 54.7517 10.3405 54.2151 10.8384L49.7967 14.9376C49.5284 15.1865 49.0934 15.1865 48.8251 14.9376L47.0476 13.2885C39.5605 6.34244 27.4216 6.34244 19.9345 13.2885L18.031 15.0545C17.7627 15.3034 17.3277 15.3034 17.0594 15.0545L12.641 10.9553C12.1043 10.4575 12.1043 9.65031 12.641 9.15247L14.0587 7.83721ZM62.0613 16.3148L65.9937 19.9631C66.5303 20.4609 66.5303 21.2681 65.9937 21.7659L48.2621 38.2166C47.7255 38.7144 46.8555 38.7144 46.3189 38.2166C46.3189 38.2166 46.3189 38.2166 46.3189 38.2166L33.7341 26.5411C33.5999 26.4166 33.3824 26.4166 33.2482 26.5411C33.2482 26.5411 33.2482 26.5411 33.2482 26.5411L20.6637 38.2166C20.1271 38.7144 19.2571 38.7144 18.7205 38.2166C18.7205 38.2166 18.7205 38.2166 18.7205 38.2166L0.988396 21.7657C0.451785 21.2679 0.451785 20.4607 0.988396 19.9629L4.92083 16.3146C5.45744 15.8167 6.32746 15.8167 6.86407 16.3146L19.449 27.9902C19.5832 28.1147 19.8007 28.1147 19.9349 27.9902C19.9349 27.9902 19.9349 27.9902 19.9349 27.9902L32.5192 16.3146C33.0558 15.8167 33.9258 15.8167 34.4625 16.3145C34.4625 16.3145 34.4625 16.3145 34.4625 16.3146L47.0474 27.9902C47.1816 28.1147 47.3991 28.1147 47.5332 27.9902L60.118 16.3148C60.6546 15.8169 61.5246 15.8169 62.0613 16.3148Z" fill="#3B99FC"/>
</svg>
