<svg width="37" height="36" viewBox="0 0 37 36" fill="none" xmlns="http://www.w3.org/2000/svg">
<rect x="0.5" width="36" height="36" rx="18" fill="#0C2650"/>
<path d="M23.19 8H14.81C11.17 8 9 10.17 9 13.81V22.18C9 25.83 11.17 28 14.81 28H23.18C26.82 28 28.99 25.83 28.99 22.19V13.81C29 10.17 26.83 8 23.19 8ZM24 23.25H14C13.59 23.25 13.25 22.91 13.25 22.5C13.25 22.09 13.59 21.75 14 21.75H24C24.41 21.75 24.75 22.09 24.75 22.5C24.75 22.91 24.41 23.25 24 23.25ZM24 18.75H14C13.59 18.75 13.25 18.41 13.25 18C13.25 17.59 13.59 17.25 14 17.25H24C24.41 17.25 24.75 17.59 24.75 18C24.75 18.41 24.41 18.75 24 18.75ZM24 14.25H14C13.59 14.25 13.25 13.91 13.25 13.5C13.25 13.09 13.59 12.75 14 12.75H24C24.41 12.75 24.75 13.09 24.75 13.5C24.75 13.91 24.41 14.25 24 14.25Z" fill="#1FA5FF"/>
</svg>
