<svg width="32" height="32" viewBox="0 0 32 32" fill="none" xmlns="http://www.w3.org/2000/svg">
<path d="M15.9998 0V32C24.8366 32 32 24.8366 32 16.0002C32 7.16289 24.8366 0 15.9998 0Z" fill="#252F6B"/>
<path d="M15.9998 0C7.16343 0 0 7.16316 0 16C0 24.8363 7.16343 31.9997 15.9998 31.9997C24.8366 31.9997 24.8366 0 15.9998 0Z" fill="#273375"/>
<path d="M10.9729 24.5269L12.0519 23.1818L10.3851 23.4837L9.80677 21.8691L9.17822 23.4837L7.47647 23.1818L8.55798 24.4973L7.43506 25.8113L9.1466 25.5425L9.72388 27.1237L10.3527 25.5432L12.0984 25.8552L10.9729 24.5269Z" fill="#F3F4F5"/>
<path d="M23.7263 25.715L24.3382 24.9527L23.3933 25.1238L23.0657 24.209L22.7095 25.1238L21.7452 24.9527L22.358 25.6977L21.7219 26.4427L22.6916 26.2902L23.0187 27.1858L23.3749 26.2907L24.3642 26.4675L23.7263 25.715Z" fill="#F3F4F5"/>
<path d="M23.7263 8.87267L24.3382 8.11023L23.3933 8.28148L23.0657 7.3667L22.7095 8.28148L21.7452 8.11023L22.358 8.85571L21.7219 9.60026L22.6916 9.44792L23.0187 10.344L23.3749 9.44839L24.3642 9.62498L23.7263 8.87267Z" fill="#F3F4F5"/>
<path d="M27.6846 13.2295L28.296 12.4671L27.3516 12.6384L27.0239 11.7236L26.6678 12.6384L25.7029 12.4671L26.3158 13.2126L25.6797 13.9574L26.6493 13.8048L26.9764 14.7009L27.3327 13.8053L28.322 13.9819L27.6846 13.2295Z" fill="#F3F4F5"/>
<path d="M20.3025 15.1664L20.9144 14.4041L19.9696 14.5754L19.6418 13.6606L19.2857 14.5754L18.3216 14.4041L18.9342 15.1491L18.2983 15.8941L19.268 15.7418L19.5952 16.6371L19.9513 15.7423L20.9407 15.9189L20.3025 15.1664Z" fill="#F3F4F5"/>
<path d="M3.36027 6.1958C3.10917 6.5194 2.86941 6.85164 2.64282 7.19395H4.35795L3.36027 6.1958Z" fill="#29337A"/>
<path d="M11.6226 15.9998H13.1639L11.6226 14.4585V15.9998Z" fill="#29337A"/>
<path d="M6.51348 3.1167C6.14638 3.38753 5.79299 3.67478 5.45068 3.97514L6.51348 5.03747V3.1167Z" fill="#29337A"/>
<path d="M4.97192 15.9998H6.5137V14.458L4.97192 15.9998Z" fill="#29337A"/>
<path d="M15.9997 0C14.4814 0 13.0146 0.215978 11.6226 0.611387V5.03749L16.0002 0.660095V0H15.9997Z" fill="#29337A"/>
<path d="M16.0002 14.5251V12.3037H13.7788L16.0002 14.5251Z" fill="#29337A"/>
<path d="M0.660163 16.0002L4.3574 12.3037H0.434254C0.153083 13.4908 0 14.7274 0 16.0002H0.660163Z" fill="#29337A"/>
<path d="M13.7773 7.19409H16.0002V4.97168L13.7773 7.19409Z" fill="#29337A"/>
<path d="M16.0004 14.9919V14.5252L13.779 12.3038H16.0004V11.5083H12.5168L16.0004 14.9919Z" fill="white"/>
<path d="M4.35811 7.19428H2.64298C2.47173 7.45376 2.30898 7.71926 2.15259 7.98908H5.52197L3.52209 5.98975C3.46731 6.05798 3.41346 6.12695 3.36016 6.19586L4.35811 7.19428Z" fill="white"/>
<path d="M6.51364 14.4583V16.0001H7.30871V13.2944L4.60327 16.0001H4.97186L6.51364 14.4583Z" fill="white"/>
<path d="M11.6227 0.611328C11.3546 0.687397 11.0899 0.770221 10.8279 0.859396V6.20157L16.0003 1.02944V0.660847L11.6227 5.03743V0.611328Z" fill="white"/>
<path d="M6.48564 12.3036L6.51367 12.2755L7.28091 11.5083H0.644022C0.56748 11.7708 0.497492 12.0358 0.434326 12.3036H4.35747L0.660235 16.0001H2.78894L6.48564 12.3036Z" fill="white"/>
<path d="M0.660156 16.0002L4.35739 12.3037L0.660156 16.0002Z" fill="white"/>
<path d="M16.0003 7.9894V7.19432H13.7775L16.0003 4.97192V2.84375L10.8545 7.9894H16.0003Z" fill="white"/>
<path d="M16.0003 4.97168L13.7773 7.1941L16.0003 4.97168Z" fill="white"/>
<path d="M6.51379 5.03806L5.45099 3.97573C5.07409 4.30696 4.71226 4.65555 4.36792 5.0209L6.51379 7.16676L6.53655 7.19L7.30886 7.96231V2.56934C7.03857 2.74492 6.77253 2.92603 6.51406 3.11702V5.03806H6.51379Z" fill="white"/>
<path d="M11.6227 14.4587L13.164 16H15.1947L10.8276 11.6333V16H11.6227V14.4587Z" fill="white"/>
<path d="M6.51367 7.1665L6.53644 7.18974L6.51367 7.1665Z" fill="#D32030"/>
<path d="M13.3116 12.3034L12.5168 11.5081H16.0003V7.98896H10.8545L10.8279 8.01598V7.98896H10.8545L16.0003 2.84358V1.02914L10.8277 6.20155V0.859375C9.5774 1.2866 8.39759 1.86306 7.30851 2.56916V7.96187L7.33607 7.98889H7.30851V7.96187L6.5362 7.18963L6.54073 7.19416H6.5137V7.16659L4.36783 5.02073C4.07329 5.3325 3.7911 5.65535 3.52202 5.98982L5.52184 7.98916H2.15252C1.51586 9.08662 1.00682 10.2659 0.644043 11.5083H7.28094L7.30851 11.4803V11.5083H7.28094L6.5137 12.2756V12.3037H6.48567L2.7889 16H4.60334L7.30878 13.2942V16H10.8279V11.6332L15.1947 16H15.7952C15.8637 15.9285 15.9335 15.8575 16.0006 15.784V14.9914L13.3116 12.3034Z" fill="#D32030"/>
<path d="M10.8276 6.20171L16.0003 1.0293L10.8276 6.20171Z" fill="#D32030"/>
<path d="M6.51363 12.3032V12.2749L6.4856 12.3032H6.51363Z" fill="#D32030"/>
<path d="M7.30876 11.48L7.28101 11.508H7.30876V11.48Z" fill="#D32030"/>
<path d="M10.8276 8.01578L10.8545 7.98877H10.8276V8.01578Z" fill="#D32030"/>
<path d="M6.51367 7.194H6.54096L6.53644 7.18974L6.51367 7.1665V7.194Z" fill="#D32030"/>
<path d="M7.33633 7.98872L7.30884 7.96143V7.98872H7.33633Z" fill="#D32030"/>
</svg>
