<svg width="30" height="30" viewBox="0 0 30 30" fill="none" xmlns="http://www.w3.org/2000/svg">
<rect width="30" height="30" rx="15" fill="#0C2650"/>
<path d="M21.6136 18.1667C21.3936 19.9401 19.9402 21.3934 18.1669 21.6134C17.0936 21.7467 16.0936 21.4534 15.3136 20.8801C14.8669 20.5534 14.9736 19.8601 15.5069 19.7001C17.5136 19.0934 19.0936 17.5067 19.7069 15.5001C19.8669 14.9734 20.5602 14.8667 20.8869 15.3067C21.4536 16.0934 21.7469 17.0934 21.6136 18.1667Z" fill="#1FA5FF"/>
<path d="M13.6602 8.33301C10.7202 8.33301 8.3335 10.7197 8.3335 13.6597C8.3335 16.5997 10.7202 18.9863 13.6602 18.9863C16.6002 18.9863 18.9868 16.5997 18.9868 13.6597C18.9802 10.7197 16.6002 8.33301 13.6602 8.33301ZM13.0335 12.913L14.6402 13.473C15.2202 13.6797 15.5002 14.0863 15.5002 14.713C15.5002 15.433 14.9268 16.0263 14.2268 16.0263H14.1668V16.0597C14.1668 16.333 13.9402 16.5597 13.6668 16.5597C13.3935 16.5597 13.1668 16.333 13.1668 16.0597V16.0197C12.4268 15.9863 11.8335 15.3663 11.8335 14.593C11.8335 14.3197 12.0602 14.093 12.3335 14.093C12.6068 14.093 12.8335 14.3197 12.8335 14.593C12.8335 14.833 13.0068 15.0263 13.2202 15.0263H14.2202C14.3735 15.0263 14.4935 14.8863 14.4935 14.713C14.4935 14.4797 14.4535 14.4663 14.3002 14.413L12.6935 13.853C12.1202 13.653 11.8335 13.2463 11.8335 12.613C11.8335 11.893 12.4068 11.2997 13.1068 11.2997H13.1668V11.273C13.1668 10.9997 13.3935 10.773 13.6668 10.773C13.9402 10.773 14.1668 10.9997 14.1668 11.273V11.313C14.9068 11.3463 15.5002 11.9663 15.5002 12.7397C15.5002 13.013 15.2735 13.2397 15.0002 13.2397C14.7268 13.2397 14.5002 13.013 14.5002 12.7397C14.5002 12.4997 14.3268 12.3063 14.1135 12.3063H13.1135C12.9602 12.3063 12.8402 12.4463 12.8402 12.6197C12.8335 12.8463 12.8735 12.8597 13.0335 12.913Z" fill="#1FA5FF"/>
</svg>
