<svg width="30" height="30" viewBox="0 0 30 30" fill="none" xmlns="http://www.w3.org/2000/svg">
<rect width="30" height="30" rx="15" fill="#0C2650"/>
<path d="M18.333 9.33301H11.6663C9.66634 9.33301 8.33301 10.333 8.33301 12.6663V17.333C8.33301 19.6663 9.66634 20.6663 11.6663 20.6663H18.333C20.333 20.6663 21.6663 19.6663 21.6663 17.333V12.6663C21.6663 10.333 20.333 9.33301 18.333 9.33301ZM12.333 18.833H10.333C10.0597 18.833 9.83301 18.6063 9.83301 18.333C9.83301 18.0597 10.0597 17.833 10.333 17.833H12.333C12.6063 17.833 12.833 18.0597 12.833 18.333C12.833 18.6063 12.6063 18.833 12.333 18.833ZM14.9997 16.9997C13.893 16.9997 12.9997 16.1063 12.9997 14.9997C12.9997 13.893 13.893 12.9997 14.9997 12.9997C16.1063 12.9997 16.9997 13.893 16.9997 14.9997C16.9997 16.1063 16.1063 16.9997 14.9997 16.9997ZM19.6663 12.1663H17.6663C17.393 12.1663 17.1663 11.9397 17.1663 11.6663C17.1663 11.393 17.393 11.1663 17.6663 11.1663H19.6663C19.9397 11.1663 20.1663 11.393 20.1663 11.6663C20.1663 11.9397 19.9397 12.1663 19.6663 12.1663Z" fill="#1FA5FF"/>
</svg>
