<svg width="108" height="108" viewBox="0 0 108 108" fill="none" xmlns="http://www.w3.org/2000/svg">
<circle cx="54" cy="54" r="52.5" fill="white" stroke="#F6FAFF" stroke-width="3"/>
<path d="M59.5197 19.1749C48.967 21.7021 46.2421 31.5083 38.8197 39.4149C34.2903 44.2398 23.1845 53.0006 20.8797 59.1949C15.7002 73.1152 29.0793 89.2322 43.8797 87.7149C54.4987 86.6262 61.0536 82.916 70.5597 78.0549C82.1996 72.1026 86.3485 73.591 93.0997 62.4149C98.9529 52.7253 87.9937 44.2571 81.1397 35.2749C72.7281 24.2515 73.0471 15.9351 59.5197 19.1749Z" fill="#ECF5FF"/>
<path d="M57 82C43.469 82 32.5 69.464 32.5 54C32.5 38.536 43.469 26 57 26C70.531 26 81.5 38.536 81.5 54C81.5 69.464 70.531 82 57 82Z" fill="#4BB7FF"/>
<path d="M32.5 54C32.5 39.698 41.885 27.908 54 26.216C53.016 26.079 52.016 26 51 26C37.469 26 26.5 38.536 26.5 54C26.5 69.464 37.469 82 51 82C52.016 82 53.016 81.921 54 81.784C41.885 80.092 32.5 68.302 32.5 54Z" fill="#4BB7FF"/>
<path d="M57 78C45.696 78 36.5 67.234 36.5 54C36.5 40.766 45.696 30 57 30C68.304 30 77.5 40.766 77.5 54C77.5 67.234 68.304 78 57 78Z" fill="#4BB7FF"/>
<path fill-rule="evenodd" clip-rule="evenodd" d="M55.8531 34.9999C53.7083 37.1448 52.6269 40.1315 52.9015 43.1524L53.8786 53.8996L52.4681 46.8474L49.7925 53.5365C49.4527 54.3861 50.0782 55.31 50.9931 55.31L54.0067 55.31L54.1606 57.0025L57.5456 57.0025L57.6995 55.31L60.7131 55.31C61.6279 55.31 62.2535 54.386 61.9138 53.5366L59.2381 46.8475L57.8277 53.8996L58.8047 43.1524C59.0794 40.1316 57.998 37.1448 55.8531 34.9999ZM55.8533 44.3088C56.7879 44.3088 57.5457 43.551 57.5457 42.6163C57.5457 41.6815 56.7879 40.9238 55.8533 40.9238C54.9185 40.9238 54.1607 41.6815 54.1608 42.6163C54.1607 43.551 54.9184 44.3088 55.8533 44.3088Z" fill="#048EEB"/>
<path d="M32.498 55H26.501C26.521 55.673 26.559 56.34 26.62 57H32.623C32.56 56.34 32.519 55.673 32.498 55Z" fill="#1FA5FF"/>
<path d="M32.7269 50H26.7309C26.6479 50.659 26.5879 51.327 26.5469 52H32.5459C32.5879 51.327 32.6439 50.659 32.7269 50Z" fill="#1FA5FF"/>
<path d="M33.0479 60H27.0469C27.1769 60.676 27.3269 61.343 27.4979 62H33.4969C33.3269 61.343 33.1779 60.676 33.0479 60Z" fill="#1FA5FF"/>
<path d="M34.4474 65H28.4434C28.6984 65.682 28.9804 66.347 29.2804 67H35.2814C34.9814 66.348 34.7024 65.681 34.4474 65Z" fill="#1FA5FF"/>
<path d="M33.772 45H27.779C27.584 45.657 27.402 46.322 27.25 47H33.257C33.409 46.324 33.578 45.655 33.772 45Z" fill="#1FA5FF"/>
<path d="M35.7639 40H29.7639C29.4339 40.651 29.1229 41.317 28.8389 42H34.8429C35.1269 41.318 35.4339 40.651 35.7639 40Z" fill="#1FA5FF"/>
<path d="M39.8448 34H33.8378C33.2688 34.636 32.7278 35.303 32.2158 36H38.2208C38.7338 35.303 39.2758 34.636 39.8448 34Z" fill="#1FA5FF"/>
<path d="M45.9597 29H39.9467C38.9247 29.59 37.9447 30.258 37.0107 31H43.0197C43.9547 30.258 44.9367 29.59 45.9597 29Z" fill="#1FA5FF"/>
<path d="M37.5186 71H31.5156C31.9796 71.693 32.4696 72.36 32.9876 73H38.9946C38.4766 72.36 37.9836 71.693 37.5186 71Z" fill="#1FA5FF"/>
<path d="M35.832 76C36.635 76.723 37.476 77.394 38.356 78H44.37C43.486 77.393 42.636 76.726 41.83 76H35.832Z" fill="#1FA5FF"/>
<path d="M59 61C59 62.6569 57.6569 64 56 64C54.3431 64 53 62.6569 53 61C53 59.3431 54.3431 58 56 58C57.6569 58 59 59.3431 59 61Z" fill="#1FA5FF"/>
<path d="M57 66C57 68.2091 55.2091 70 53 70C50.7909 70 49 68.2091 49 66C49 63.7909 50.7909 62 53 62C55.2091 62 57 63.7909 57 66Z" fill="#1FA5FF"/>
<path d="M63 66C63 68.2091 61.2091 70 59 70C56.7909 70 55 68.2091 55 66C55 63.7909 56.7909 62 59 62C61.2091 62 63 63.7909 63 66Z" fill="#1FA5FF"/>
<path d="M54 71C54 73.7614 51.7614 76 49 76C46.2386 76 44 73.7614 44 71C44 68.2386 46.2386 66 49 66C51.7614 66 54 68.2386 54 71Z" fill="#1FA5FF"/>
<path d="M59 73C59 75.7614 56.7614 78 54 78C51.2386 78 49 75.7614 49 73C49 70.2386 51.2386 68 54 68C56.7614 68 59 70.2386 59 73Z" fill="#1FA5FF"/>
<path d="M64 73C64 75.7614 61.7614 78 59 78C56.2386 78 54 75.7614 54 73C54 70.2386 56.2386 68 59 68C61.7614 68 64 70.2386 64 73Z" fill="#1FA5FF"/>
<path d="M69 71C69 73.7614 66.7614 76 64 76C61.2386 76 59 73.7614 59 71C59 68.2386 61.2386 66 64 66C66.7614 66 69 68.2386 69 71Z" fill="#1FA5FF"/>
<path d="M57 79C45.145 79 35.5 67.785 35.5 54C35.5 40.215 45.145 29 57 29C68.855 29 78.5 40.215 78.5 54C78.5 67.785 68.855 79 57 79ZM57 31C46.248 31 37.5 41.318 37.5 54C37.5 66.682 46.248 77 57 77C67.752 77 76.5 66.682 76.5 54C76.5 41.318 67.752 31 57 31Z" fill="#1FA5FF"/>
</svg>
