<svg width="108" height="108" viewBox="0 0 108 108" fill="none" xmlns="http://www.w3.org/2000/svg">
<circle cx="54" cy="54" r="52.5" fill="white" stroke="#F6FAFF" stroke-width="3"/>
<path d="M59.5197 19.1749C48.967 21.7021 46.2421 31.5083 38.8197 39.4149C34.2903 44.2398 23.1845 53.0006 20.8797 59.1949C15.7002 73.1152 29.0793 89.2322 43.8797 87.7149C54.4987 86.6262 61.0536 82.916 70.5597 78.0549C82.1996 72.1026 86.3485 73.591 93.0997 62.4149C98.9529 52.7253 87.9937 44.2571 81.1397 35.2749C72.7281 24.2515 73.0471 15.9351 59.5197 19.1749Z" fill="#ECF5FF"/>
<g clip-path="url(#clip0_9_315)">
<path d="M45.8898 81.399C41.5398 82.9393 36.5864 80.1579 34.8261 75.1865C33.0657 70.2151 35.165 64.9364 39.5149 63.3961C43.8649 61.8558 48.8183 64.6372 50.5786 69.6085C52.339 74.5799 50.2397 79.8586 45.8898 81.399Z" fill="#4BB7FF"/>
<path d="M34.8263 75.1866C33.1982 70.5888 34.8731 65.7302 38.5753 63.8071C38.2433 63.8751 37.9128 63.9635 37.5862 64.0792C33.2363 65.6195 31.137 70.8982 32.8974 75.8696C34.6577 80.841 39.6111 83.6224 43.961 82.0821C44.2877 81.9664 44.6002 81.8272 44.9009 81.6711C40.8136 82.5063 36.4543 79.7844 34.8263 75.1866Z" fill="#4BB7FF"/>
<path d="M45.4344 80.113C41.8003 81.3998 37.6185 78.9856 36.1119 74.7312C34.6054 70.4767 36.3362 65.9688 39.9702 64.682C43.6042 63.3952 47.7861 65.8094 49.2926 70.0639C50.7991 74.3183 49.0684 78.8262 45.4344 80.113Z" fill="#4BB7FF"/>
<path fill-rule="evenodd" clip-rule="evenodd" d="M40.1708 66.42C39.7255 67.3537 39.7178 68.4369 40.15 69.3768L41.6875 72.7206L40.4313 70.6141L40.3326 73.069C40.3201 73.3808 40.6263 73.6066 40.9205 73.5025L41.8893 73.1594L42.1314 73.686L43.2196 73.3007L43.0764 72.7391L44.0452 72.396C44.3393 72.2919 44.4353 71.9236 44.2293 71.6892L42.6077 69.8434L42.9571 72.2711L42.0478 68.7048C41.7922 67.7024 41.1045 66.8653 40.1708 66.42ZM41.2306 69.4126C41.531 69.3062 41.6884 68.9763 41.582 68.6758C41.4756 68.3753 41.1457 68.218 40.8452 68.3244C40.5447 68.4308 40.3874 68.7606 40.4938 69.0611C40.6002 69.3616 40.93 69.519 41.2306 69.4126Z" fill="#048EEB"/>
<path d="M34.9396 75.5082L33.0117 76.1909C33.0948 76.405 33.1829 76.6151 33.2776 76.8203L35.2075 76.137C35.1121 75.932 35.023 75.7222 34.9396 75.5082Z" fill="#1FA5FF"/>
<path d="M34.4438 73.8749L32.5162 74.5574C32.5645 74.7787 32.6213 75.0003 32.6847 75.2213L34.6133 74.5384C34.5502 74.3173 34.4921 74.0962 34.4438 73.8749Z" fill="#1FA5FF"/>
<path d="M35.686 77.0532L33.7568 77.7363C33.8756 77.9388 33.9997 78.1362 34.1295 78.3279L36.0581 77.645C35.9286 77.4532 35.8048 77.2557 35.686 77.0532Z" fill="#1FA5FF"/>
<path d="M36.7046 78.5013L34.7744 79.1848C34.934 79.375 35.1004 79.5567 35.2712 79.7325L37.2004 79.0494C37.0297 78.8739 36.8641 78.6912 36.7046 78.5013Z" fill="#1FA5FF"/>
<path d="M34.211 72.1484L32.2843 72.8306C32.2964 73.0641 32.3136 73.2986 32.3419 73.5338L34.2731 72.85C34.245 72.6154 34.2231 72.3811 34.211 72.1484Z" fill="#1FA5FF"/>
<path d="M34.2819 70.3142L32.353 70.9972C32.3211 71.2441 32.2969 71.4936 32.2833 71.7455L34.2135 71.062C34.2272 70.8104 34.2499 70.5611 34.2819 70.3142Z" fill="#1FA5FF"/>
<path d="M34.9106 67.9209L32.9794 68.6047C32.8689 68.8739 32.7709 69.1499 32.6857 69.4323L34.6162 68.7487C34.7017 68.4662 34.8001 68.1901 34.9106 67.9209Z" fill="#1FA5FF"/>
<path d="M36.3076 65.6173L34.3745 66.3018C34.1131 66.6078 33.8741 66.9341 33.6583 67.2789L35.5901 66.5949C35.8062 66.2499 36.0459 65.9234 36.3076 65.6173Z" fill="#1FA5FF"/>
<path d="M38.3752 80.0803L36.4453 80.7637C36.6734 80.9336 36.9068 81.0923 37.1462 81.2391L39.0773 80.5553C38.838 80.4085 38.6035 80.2502 38.3752 80.0803Z" fill="#1FA5FF"/>
<path d="M38.4014 81.8799C38.7418 82.0209 39.0886 82.1409 39.4405 82.2355L41.3738 81.5509C41.0206 81.4564 40.6714 81.3387 40.3296 81.1971L38.4014 81.8799Z" fill="#1FA5FF"/>
<path d="M44.1432 74.4202C44.3318 74.9529 44.0529 75.5376 43.5203 75.7262C42.9876 75.9148 42.4029 75.6359 42.2143 75.1032C42.0257 74.5706 42.3046 73.9859 42.8373 73.7973C43.3699 73.6087 43.9546 73.8876 44.1432 74.4202Z" fill="#1FA5FF"/>
<path d="M44.0694 76.2553C44.3209 76.9655 43.949 77.7451 43.2388 77.9966C42.5287 78.248 41.7491 77.8762 41.4976 77.166C41.2461 76.4558 41.618 75.6762 42.3282 75.4247C43.0384 75.1732 43.8179 75.5451 44.0694 76.2553Z" fill="#1FA5FF"/>
<path d="M45.9983 75.5723C46.2498 76.2825 45.8779 77.0621 45.1677 77.3136C44.4575 77.565 43.6779 77.1932 43.4265 76.483C43.175 75.7728 43.5468 74.9932 44.257 74.7417C44.9672 74.4902 45.7468 74.8621 45.9983 75.5723Z" fill="#1FA5FF"/>
<path d="M43.6742 78.2042C43.9885 79.092 43.5237 80.0664 42.6359 80.3808C41.7482 80.6951 40.7737 80.2303 40.4594 79.3426C40.145 78.4548 40.6098 77.4803 41.4976 77.166C42.3853 76.8516 43.3598 77.3165 43.6742 78.2042Z" fill="#1FA5FF"/>
<path d="M45.5092 78.278C45.8236 79.1657 45.3588 80.1402 44.471 80.4546C43.5833 80.7689 42.6088 80.3041 42.2944 79.4164C41.9801 78.5286 42.4449 77.5541 43.3327 77.2398C44.2204 76.9254 45.1949 77.3902 45.5092 78.278Z" fill="#1FA5FF"/>
<path d="M47.1166 77.7088C47.431 78.5966 46.9662 79.571 46.0784 79.8854C45.1907 80.1997 44.2162 79.7349 43.9018 78.8472C43.5875 77.9594 44.0523 76.9849 44.9401 76.6706C45.8278 76.3562 46.8023 76.8211 47.1166 77.7088Z" fill="#1FA5FF"/>
<path d="M48.4964 76.4967C48.8107 77.3844 48.3459 78.3589 47.4581 78.6733C46.5704 78.9876 45.5959 78.5228 45.2816 77.635C44.9672 76.7473 45.432 75.7728 46.3198 75.4585C47.2075 75.1441 48.182 75.6089 48.4964 76.4967Z" fill="#1FA5FF"/>
<path d="M45.5489 80.4346C41.7378 81.7842 37.3604 79.2767 35.7912 74.8451C34.222 70.4135 36.046 65.7102 39.8571 64.3606C43.6683 63.0111 48.0456 65.5186 49.6149 69.9502C51.1841 74.3818 49.3601 79.0851 45.5489 80.4346ZM40.0848 65.0036C36.6283 66.2276 34.9905 70.5404 36.4342 74.6174C37.8778 78.6944 41.8647 81.0156 45.3213 79.7917C48.7778 78.5677 50.4156 74.2548 48.9719 70.1778C47.5282 66.1008 43.5414 63.7796 40.0848 65.0036Z" fill="#1FA5FF"/>
</g>
<g clip-path="url(#clip1_9_315)">
<path d="M61.262 88.0349C58.6908 84.97 59.446 80.1033 62.9487 77.1648C66.4515 74.2264 71.3754 74.3288 73.9465 77.3937C76.5177 80.4586 75.7626 85.3253 72.2598 88.2638C68.7571 91.2023 63.8332 91.0999 61.262 88.0349Z" fill="#4BB7FF"/>
<path d="M62.9492 77.1648C66.1888 74.4471 70.6427 74.3325 73.328 76.7552C73.1721 76.5063 73 76.2647 72.8069 76.0346C70.2357 72.9697 65.3118 72.8672 61.8091 75.8057C58.3063 78.7442 57.5512 83.6109 60.1224 86.6758C60.3154 86.906 60.5233 87.1174 60.7413 87.3143C58.8225 84.2486 59.7097 79.8825 62.9492 77.1648Z" fill="#4BB7FF"/>
<path d="M62.1685 87.2747C60.0205 84.7143 60.7116 80.5855 63.7093 78.0708C66.7069 75.556 70.8929 75.5932 73.041 78.1537C75.189 80.7142 74.4978 84.8429 71.5002 87.3577C68.5025 89.8724 64.3165 89.8352 62.1685 87.2747Z" fill="#4BB7FF"/>
<path fill-rule="evenodd" clip-rule="evenodd" d="M71.6906 78.844C70.7972 78.7657 69.9152 79.0883 69.2831 79.7246L67.0345 81.9881L68.3638 80.3285L66.3403 80.9936C66.0833 81.078 65.9929 81.3953 66.1667 81.6025L66.7394 82.2851L66.3852 82.6416L67.0285 83.4083L67.4411 83.1216L68.0137 83.8042C68.1875 84.0114 68.5157 83.9775 68.6436 83.7392L69.6503 81.862L67.7849 82.8826L70.4049 81.0617C71.1413 80.5499 71.6124 79.7374 71.6906 78.844ZM69.5821 80.6129C69.7597 80.8246 70.0754 80.8523 70.2871 80.6747C70.4988 80.497 70.5265 80.1814 70.3489 79.9697C70.1712 79.7579 69.8556 79.7303 69.6439 79.9079C69.4321 80.0855 69.4045 80.4012 69.5821 80.6129Z" fill="#048EEB"/>
<path d="M62.7226 77.3542L61.583 75.9958C61.4344 76.1283 61.2905 76.2636 61.1526 76.4028L62.2933 77.7626C62.4308 77.6229 62.5741 77.4869 62.7226 77.3542Z" fill="#1FA5FF"/>
<path d="M63.8989 76.4562L62.7596 75.0981C62.5945 75.2045 62.4318 75.3178 62.2716 75.4364L63.4115 76.7953C63.572 76.6769 63.7339 76.5627 63.8989 76.4562Z" fill="#1FA5FF"/>
<path d="M61.694 78.4291L60.5537 77.0698C60.4253 77.2277 60.3027 77.3884 60.1864 77.552L61.3263 78.9109C61.4428 78.7475 61.5656 78.587 61.694 78.4291Z" fill="#1FA5FF"/>
<path d="M60.8274 79.6961L59.6865 78.3362C59.5805 78.5235 59.4835 78.7138 59.3926 78.9058L60.5329 80.2651C60.6236 80.0733 60.7216 79.8833 60.8274 79.6961Z" fill="#1FA5FF"/>
<path d="M65.2296 75.7427L64.0908 74.3852C63.9049 74.4659 63.7197 74.551 63.5372 74.6454L64.6787 76.0061C64.8607 75.912 65.0443 75.8232 65.2296 75.7427Z" fill="#1FA5FF"/>
<path d="M66.7407 75.2439L65.6006 73.8848C65.3904 73.9338 65.1805 73.9899 64.9718 74.0553L66.1127 75.4153C66.3211 75.35 66.5305 75.2928 66.7407 75.2439Z" fill="#1FA5FF"/>
<path d="M68.8755 75.0281L67.734 73.6674C67.4818 73.6594 67.2279 73.6636 66.9728 73.6801L68.1138 75.0403C68.3692 75.024 68.6233 75.0201 68.8755 75.0281Z" fill="#1FA5FF"/>
<path d="M71.1693 75.4631L70.0267 74.1011C69.6988 73.9817 69.3613 73.8866 69.0157 73.8161L70.1576 75.1772C70.5033 75.248 70.8412 75.3435 71.1693 75.4631Z" fill="#1FA5FF"/>
<path d="M60.0528 81.5321L58.9121 80.1724C58.8433 80.4091 58.7853 80.6469 58.7388 80.8858L59.8803 82.2465C59.9268 82.0075 59.9842 81.7691 60.0528 81.5321Z" fill="#1FA5FF"/>
<path d="M58.5996 82.1001C58.5884 82.4194 58.5962 82.7374 58.6262 83.0519L59.769 84.4141C59.7385 84.0985 59.7281 83.7792 59.7394 83.4587L58.5996 82.1001Z" fill="#1FA5FF"/>
<path d="M66.3993 84.4975C66.024 84.8123 65.4646 84.7633 65.1497 84.388C64.8349 84.0127 64.8839 83.4533 65.2592 83.1384C65.6345 82.8236 66.1939 82.8726 66.5088 83.2479C66.8236 83.6232 66.7746 84.1827 66.3993 84.4975Z" fill="#1FA5FF"/>
<path d="M64.8867 84.9946C64.3863 85.4144 63.6404 85.349 63.2206 84.8486C62.8008 84.3482 62.8662 83.6023 63.3665 83.1825C63.8669 82.7627 64.6129 82.8281 65.0327 83.3285C65.4525 83.8289 65.3871 84.5748 64.8867 84.9946Z" fill="#1FA5FF"/>
<path d="M66.0268 86.3536C65.5265 86.7734 64.7805 86.7081 64.3607 86.2077C63.9409 85.7073 64.0063 84.9614 64.5067 84.5416C65.0071 84.1218 65.753 84.1871 66.1728 84.6875C66.5926 85.1879 66.5272 85.9339 66.0268 86.3536Z" fill="#1FA5FF"/>
<path d="M63.1841 85.2652C62.5586 85.7899 61.6262 85.7082 61.1014 85.0827C60.5767 84.4572 60.6584 83.5248 61.2839 83.0001C61.9094 82.4753 62.8418 82.557 63.3665 83.1825C63.8913 83.808 63.8096 84.7404 63.1841 85.2652Z" fill="#1FA5FF"/>
<path d="M63.6812 86.7778C63.0557 87.3025 62.1233 87.2208 61.5985 86.5953C61.0738 85.9698 61.1555 85.0374 61.781 84.5127C62.4065 83.9879 63.3389 84.0696 63.8636 84.6951C64.3884 85.3206 64.3067 86.253 63.6812 86.7778Z" fill="#1FA5FF"/>
<path d="M64.6313 87.9103C64.0058 88.435 63.0734 88.3534 62.5486 87.7279C62.0239 87.1024 62.1056 86.1699 62.7311 85.6452C63.3566 85.1205 64.289 85.2022 64.8137 85.8276C65.3385 86.4531 65.2568 87.3856 64.6313 87.9103Z" fill="#1FA5FF"/>
<path d="M66.0344 88.6628C65.4089 89.1875 64.4765 89.1059 63.9518 88.4804C63.427 87.8549 63.5087 86.9224 64.1342 86.3977C64.7597 85.873 65.6921 85.9547 66.2169 86.5802C66.7416 87.2056 66.6599 88.1381 66.0344 88.6628Z" fill="#1FA5FF"/>
<path d="M61.9426 87.4648C59.6899 84.7795 60.3974 80.4637 63.5199 77.8443C66.6423 75.2248 71.0154 75.2784 73.2681 77.9637C75.5208 80.649 74.8132 84.9648 71.6908 87.5842C68.5684 90.2037 64.1953 90.1501 61.9426 87.4648ZM72.8151 78.3438C70.772 75.9083 66.7725 75.8875 63.8999 78.2973C61.0273 80.7072 60.3525 84.6493 62.3956 87.0848C64.4387 89.5202 68.4382 89.5411 71.3108 87.1312C74.1834 84.7213 74.8582 80.7792 72.8151 78.3438Z" fill="#1FA5FF"/>
</g>
<g clip-path="url(#clip2_9_315)">
<path d="M54.7353 64.5038C45.2164 61.4636 40.3165 50.1801 43.7909 39.3014C47.2654 28.4227 57.7986 22.0683 67.3175 25.1085C76.8364 28.1486 81.7363 39.4321 78.2618 50.3108C74.7874 61.1895 64.2542 67.5439 54.7353 64.5038Z" fill="#4BB7FF"/>
<path d="M43.7912 39.3014C47.0046 29.2401 56.2558 23.0546 65.1587 24.5863C64.4973 24.2689 63.8115 23.9886 63.0968 23.7603C53.5779 20.7201 43.0447 27.0745 39.5702 37.9533C36.0958 48.832 40.9957 60.1154 50.5146 63.1556C51.2293 63.3839 51.9506 63.553 52.6736 63.6777C44.531 59.7654 40.5778 49.3626 43.7912 39.3014Z" fill="#4BB7FF"/>
<path d="M55.6338 61.6898C47.6816 59.15 43.6313 49.5101 46.6047 40.2001C49.5781 30.8902 58.4663 25.3826 66.4186 27.9224C74.3708 30.4622 78.4211 40.1021 75.4477 49.4121C72.4743 58.722 63.5861 64.2296 55.6338 61.6898Z" fill="#4BB7FF"/>
<path fill-rule="evenodd" clip-rule="evenodd" d="M64.4885 31.182C62.4977 32.209 61.0659 34.0672 60.5803 36.2541L58.853 44.0341L59.4452 38.7561L56.06 42.8606C55.6301 43.3819 55.8626 44.1724 56.5062 44.378L58.6262 45.0551L58.3542 46.2803L60.7355 47.0408L61.224 45.8848L63.3441 46.5619C63.9877 46.7674 64.6354 46.258 64.5872 45.5841L64.2078 40.2772L61.6312 44.9214L64.7332 37.5804C65.6051 35.517 65.5154 33.1728 64.4885 31.182ZM62.397 37.7307C63.0546 37.9407 63.7579 37.5779 63.9679 36.9204C64.1779 36.2628 63.8151 35.5594 63.1576 35.3494C62.4999 35.1394 61.7966 35.5022 61.5866 36.1598C61.3766 36.8174 61.7394 37.5207 62.397 37.7307Z" fill="#048EEB"/>
<path d="M43.5655 40.0044L39.3467 38.657C39.2095 39.1349 39.0864 39.6127 38.981 40.0907L43.2041 41.4395C43.308 40.961 43.4291 40.4826 43.5655 40.0044Z" fill="#1FA5FF"/>
<path d="M44.8495 36.5384L40.6314 35.1912C40.4249 35.6362 40.2326 36.0926 40.0526 36.5569L44.2728 37.9047C44.4536 37.4407 44.6431 36.9834 44.8495 36.5384Z" fill="#1FA5FF"/>
<path d="M42.8291 43.6454L38.6074 42.2971C38.547 42.8019 38.5027 43.3048 38.4753 43.8054L42.6956 45.1533C42.7236 44.6529 42.7686 44.1502 42.8291 43.6454Z" fill="#1FA5FF"/>
<path d="M42.6896 47.4772L38.4658 46.1282C38.492 46.6652 38.5409 47.1964 38.6053 47.7232L42.8269 49.0715C42.7624 48.5454 42.7159 48.0135 42.6896 47.4772Z" fill="#1FA5FF"/>
<path d="M46.7083 33.2557L42.4923 31.9091C42.2075 32.3275 41.93 32.7544 41.6708 33.1973L45.8966 34.5469C46.1554 34.1055 46.4246 33.6729 46.7083 33.2557Z" fill="#1FA5FF"/>
<path d="M49.233 30.1858L45.0121 28.8377C44.6336 29.2215 44.2652 29.6202 43.912 30.0369L48.1357 31.3858C48.4887 30.9699 48.8546 30.5696 49.233 30.1858Z" fill="#1FA5FF"/>
<path d="M53.4519 26.8818L49.226 25.5322C48.6828 25.8517 48.1524 26.1994 47.6356 26.5747L51.86 27.9239C52.3775 27.5488 52.9087 27.2014 53.4519 26.8818Z" fill="#1FA5FF"/>
<path d="M58.8766 24.7385L54.6465 23.3874C53.795 23.5729 52.9555 23.8226 52.1317 24.1348L56.3589 25.4849C57.1834 25.173 58.0243 24.9237 58.8766 24.7385Z" fill="#1FA5FF"/>
<path d="M43.5023 52.3883L39.2793 51.0396C39.45 51.6313 39.6449 52.2106 39.8655 52.7773L44.0913 54.1269C43.8707 53.5603 43.6737 52.9803 43.5023 52.3883Z" fill="#1FA5FF"/>
<path d="M41.1924 55.5266C41.5948 56.2157 42.0357 56.8767 42.5186 57.5007L46.7494 58.8519C46.2639 58.2263 45.8158 57.5661 45.4119 56.8743L41.1924 55.5266Z" fill="#1FA5FF"/>
<path d="M60.8607 50.1799C60.4884 51.3455 59.2418 51.9886 58.0762 51.6163C56.9106 51.2441 56.2675 49.9974 56.6398 48.8318C57.012 47.6662 58.2587 47.0231 59.4243 47.3954C60.5898 47.7677 61.233 49.0143 60.8607 50.1799Z" fill="#1FA5FF"/>
<path d="M58.3303 53.248C57.834 54.8021 56.1717 55.6596 54.6176 55.1632C53.0635 54.6668 52.2061 53.0046 52.7024 51.4505C53.1988 49.8964 54.861 49.039 56.4151 49.5353C57.9692 50.0317 58.8267 51.6939 58.3303 53.248Z" fill="#1FA5FF"/>
<path d="M62.5512 54.5961C62.0549 56.1502 60.3927 57.0076 58.8386 56.5113C57.2845 56.0149 56.427 54.3527 56.9233 52.7986C57.4197 51.2445 59.0819 50.387 60.636 50.8834C62.1901 51.3797 63.0476 53.042 62.5512 54.5961Z" fill="#1FA5FF"/>
<path d="M55.0964 56.0914C54.476 58.034 52.3982 59.1058 50.4556 58.4854C48.513 57.865 47.4411 55.7872 48.0616 53.8446C48.682 51.9019 50.7598 50.8301 52.7024 51.4505C54.645 52.071 55.7169 54.1487 55.0964 56.0914Z" fill="#1FA5FF"/>
<path d="M58.1645 58.6218C57.5441 60.5644 55.4663 61.6362 53.5237 61.0158C51.581 60.3953 50.5092 58.3176 51.1296 56.3749C51.7501 54.4323 53.8279 53.3605 55.7705 53.9809C57.7131 54.6014 58.7849 56.6791 58.1645 58.6218Z" fill="#1FA5FF"/>
<path d="M61.6819 59.7452C61.0615 61.6878 58.9837 62.7596 57.0411 62.1392C55.0985 61.5188 54.0266 59.441 54.6471 57.4983C55.2675 55.5557 57.3453 54.4839 59.2879 55.1043C61.2305 55.7248 62.3024 57.8025 61.6819 59.7452Z" fill="#1FA5FF"/>
<path d="M65.6487 59.4616C65.0283 61.4042 62.9505 62.4761 61.0079 61.8556C59.0653 61.2352 57.9934 59.1574 58.6139 57.2148C59.2343 55.2722 61.3121 54.2003 63.2547 54.8208C65.1973 55.4412 66.2692 57.519 65.6487 59.4616Z" fill="#1FA5FF"/>
<path d="M55.4095 62.3932C47.0696 59.7296 42.8043 49.6729 45.9015 39.9754C48.9987 30.2778 58.3037 24.5552 66.6435 27.2188C74.9834 29.8824 79.2487 39.9391 76.1515 49.6367C73.0542 59.3343 63.7493 65.0568 55.4095 62.3932ZM66.1942 28.6258C58.6303 26.21 50.1579 31.5031 47.3085 40.4247C44.4591 49.3464 48.2949 58.5705 55.8588 60.9862C63.4227 63.402 71.8951 58.1089 74.7445 49.1873C77.5939 40.2657 73.7581 31.0416 66.1942 28.6258Z" fill="#1FA5FF"/>
</g>
<defs>
<clipPath id="clip0_9_315">
<rect width="19.0982" height="19.0982" fill="white" transform="translate(29.5498 66.925) rotate(-19.499)"/>
</clipPath>
<clipPath id="clip1_9_315">
<rect width="16.557" height="16.557" fill="white" transform="translate(68.0566 70.3718) rotate(50.0063)"/>
</clipPath>
<clipPath id="clip2_9_315">
<rect width="41.3558" height="41.3558" fill="white" transform="translate(45.5098 18.1433) rotate(17.7126)"/>
</clipPath>
</defs>
</svg>
