<svg width="108" height="108" viewBox="0 0 108 108" fill="none" xmlns="http://www.w3.org/2000/svg">
<circle cx="54" cy="54" r="52.5" fill="white" stroke="#F6FAFF" stroke-width="3"/>
<path d="M57.6994 19.96C47.1467 22.4873 44.4218 32.2934 36.9994 40.2001C32.47 45.0249 21.3642 53.7857 19.0594 59.98C13.8799 73.9003 27.2589 90.0174 42.0594 88.5C52.6784 87.4113 59.2333 83.7011 68.7394 78.84C80.3793 72.8877 84.5282 74.3762 91.2794 63.2C97.1326 53.5104 86.1734 45.0422 79.3194 36.06C70.9078 25.0366 71.2268 16.7203 57.6994 19.96Z" fill="#ECF5FF"/>
<path d="M35.121 28.9604H44.8512V31.8609H35.121C34.2262 31.8609 33.4135 32.2312 32.817 32.8175C32.2307 33.414 31.8605 34.2267 31.8605 35.1215V44.8516H28.96V35.1215C28.96 33.4244 29.649 31.8816 30.7703 30.7706C31.8913 29.6497 33.4341 28.9604 35.121 28.9604ZM63.0982 28.9604H72.8283C74.5254 28.9604 76.0683 29.6495 77.1793 30.7707C78.3005 31.892 78.9896 33.4244 78.9896 35.1217V44.8518H76.0891V35.1217C76.0891 34.2268 75.7188 33.4142 75.1325 32.8177C74.536 32.2314 73.7234 31.8611 72.8285 31.8611H63.0984V28.9604H63.0982ZM78.9998 63.0987V72.8288C78.9998 74.5259 78.3107 76.0687 77.1895 77.1798C76.0683 78.301 74.5358 78.9901 72.8386 78.9901H63.1084V76.0896H72.8386C73.7334 76.0896 74.5461 75.7193 75.1426 75.133C75.7288 74.5365 76.0991 73.7239 76.0991 72.829V63.0987H78.9998ZM44.8616 79.0005H35.1314C33.4343 79.0005 31.8915 78.3114 30.7805 77.1902C29.6593 76.0689 28.9702 74.5261 28.9702 72.8392V63.1091H31.8707V72.8392C31.8707 73.7341 32.241 74.5467 32.8272 75.1432C33.4237 75.7295 34.2364 76.0998 35.1312 76.0998H44.8614L44.8616 79.0005Z" fill="#1FA5FF"/>
<path d="M45.3449 58.316H45.9518L49.4901 56.3925L50.0661 54.1398C49.2226 53.286 48.3586 51.846 47.5563 50.077C47.4946 50.0872 47.4227 50.0976 47.3608 50.0976C46.4249 50.0976 45.4992 49.0794 45.2934 47.8245C45.1287 46.8475 45.4581 46.004 46.0546 45.6852C45.2626 41.6532 44.738 35.4611 51.6809 33.9287C55.8465 33.0133 57.338 36.2225 57.5129 36.5824C60.0329 35.163 61.6374 37.2921 62.0489 38.4131C62.7897 40.4394 62.5531 44.2143 62.1724 45.8805C62.594 46.2817 62.7997 47.0018 62.6558 47.8143C62.4501 49.0485 61.5552 50.0565 60.6296 50.0874C59.8888 51.723 58.8912 53.1113 57.8833 54.1298L58.4594 56.3824H58.5107L61.9461 58.3059H62.6044C67.1404 58.3059 70.8534 61.8853 70.8534 66.226V72.6443H37.0854V66.226C37.0854 61.8648 40.7986 58.3059 45.3345 58.3059L45.3449 58.316Z" fill="#1FA5FF"/>
</svg>
