<svg width="108" height="108" viewBox="0 0 108 108" fill="none" xmlns="http://www.w3.org/2000/svg">
<circle cx="54" cy="54" r="52.5" fill="white" stroke="#F6FAFF" stroke-width="3"/>
<path d="M59.5197 19.1749C48.967 21.7021 46.2421 31.5083 38.8197 39.4149C34.2903 44.2398 23.1845 53.0006 20.8797 59.1949C15.7002 73.1152 29.0793 89.2322 43.8797 87.7149C54.4987 86.6262 61.0536 82.916 70.5597 78.0549C82.1996 72.1026 86.3485 73.591 93.0997 62.4149C98.9529 52.7253 87.9937 44.2571 81.1397 35.2749C72.7281 24.2515 73.0471 15.9351 59.5197 19.1749Z" fill="#ECF5FF"/>
<path d="M75.8749 49.3125V39.9377C75.8749 38.2127 74.475 36.8127 72.7499 36.8127H32.1249C30.3999 36.8126 29 38.2127 29 39.9377V66.5002C29 68.2252 30.3999 69.6251 32.1249 69.6251H72.7499C74.475 69.6251 75.8749 68.2252 75.8749 66.5002V57.1252C77.5999 57.1252 78.9998 55.7252 78.9998 54.0002V52.4377C79.0002 50.7126 77.6014 49.3125 75.8749 49.3125Z" fill="#4BB7FF"/>
<path d="M36.8124 29H68.0624C69.7874 29 71.1874 30.3999 71.1874 32.1265V53.9999C71.1874 55.7265 69.7874 57.1249 68.0624 57.1249H36.8124C35.0874 57.1249 33.6875 55.7249 33.6875 53.9999V32.1265C33.6875 30.3999 35.0874 29 36.8124 29Z" fill="#CCEAFF"/>
<path d="M43.4747 36.8455C43.4747 36.8455 45.37 36.8127 47.1607 36.8127C48.9529 36.8127 49.2701 39.8253 49.2701 39.8253C49.2701 39.8253 49.3028 42.9768 49.3028 43.7534C49.3028 44.5316 47.7606 46.0738 47.7606 46.0738V47.6566L52.4497 49.5315V52.4378H38.3652L38.3808 49.4707L43.0745 47.6723V46.1223C43.0745 46.1223 41.5152 44.727 41.5152 43.7536V39.8251C41.5152 39.8251 41.6496 36.8455 43.4747 36.8455Z" fill="#4BB7FF"/>
<path d="M64.9376 43.0625H54V46.1874H64.9376V43.0625Z" fill="#4BB7FF"/>
<path d="M64.9376 36.8125H54V39.939H64.9376V36.8125Z" fill="#4BB7FF"/>
<path d="M68.0624 29H36.8124C35.0874 29 33.6875 30.3999 33.6875 32.1265V33.6875H71.1875V32.1265C71.1874 30.3999 69.789 29 68.0624 29Z" fill="#4BB7FF"/>
<path d="M32.1249 41.5015L66.4999 46.1874C68.2249 46.1874 69.6248 47.5874 69.6248 49.3124V75.8749C69.6248 77.5999 68.2249 78.9998 66.4999 78.9998L32.1249 74.3125C30.3999 74.3125 29 72.9124 29 71.1874V38.375C29 40.1125 30.3999 41.5015 32.1249 41.5015Z" fill="#1FA5FF"/>
<path d="M62.5937 57.125C63.8873 57.125 64.9373 58.175 64.9373 59.4687C64.9373 60.7623 63.8873 61.8123 62.5937 61.8123C61.3 61.8123 60.25 60.7639 60.25 59.4687C60.25 58.1734 61.3 57.125 62.5937 57.125Z" fill="#E4E7E7"/>
<path d="M32.1249 74.3125L66.4999 79C68.2249 79 69.6248 77.6 69.6248 75.875V69.625L32.1249 64.9374C30.3999 64.9374 29 63.5483 29 61.8125V71.1875C29 72.9139 30.3999 74.3125 32.1249 74.3125Z" fill="#4BB7FF"/>
<path d="M71.1874 55.5624C71.1874 55.5624 78.9999 53.9327 78.9999 52.4375V57.125C78.9999 57.125 77.6 60.25 75.875 60.25L71.1874 61.8125C69.4609 61.8125 68.0625 60.4126 68.0625 58.6876C68.0625 56.9624 69.4626 55.5624 71.1874 55.5624Z" fill="#1FA5FF"/>
</svg>
