<svg width="317" height="47" viewBox="0 0 317 47" fill="none" xmlns="http://www.w3.org/2000/svg">
<path fill-rule="evenodd" clip-rule="evenodd" d="M27.4699 1.2825C25.7586 -0.427993 22.9849 -0.427432 21.2744 1.28377L6.99897 15.5651L6.9868 15.5615L6.94169 15.5663C6.96027 15.5753 6.97851 15.5841 6.99638 15.593C4.49217 15.8553 3.42967 16.6079 3.41764 17.5743C3.42188 17.9338 3.56938 18.322 3.84029 18.725L3.82727 18.7381C6.10385 22.1717 17.382 26.7012 25.3609 23.6323C19.381 26.6223 5.29802 27.2149 1.16162 21.4096C0.263331 22.3814 -0.11251 23.6584 0.0290265 24.8857C1.12175 30.9085 13.3384 32.5516 25.5552 23.8254L28.1988 26.469C24.9092 29.8487 20.05 49.4799 27.2702 46.4826C27.4415 46.3663 27.5869 46.2623 27.7846 46.1127L28.1064 45.8089C28.0878 45.8134 28.0694 45.8178 28.0511 45.8222L47.3884 27.5666C49.1839 25.8715 49.2245 23.0283 47.4781 21.2825L27.4699 1.2825ZM25.3641 7.23182L26.025 4.58818L26.6859 7.23182L28.6686 7.89274L26.6859 8.55366L26.025 11.1973L25.3641 8.55366L23.3813 7.89274L25.3641 7.23182ZM17.1837 15.8619L17.6242 14.0994L18.0648 15.8619L19.3867 16.3025L18.0648 16.7431L17.6242 18.5055L17.1837 16.7431L15.8619 16.3025L17.1837 15.8619ZM32.5294 30.7279L32.0888 32.4903L30.767 32.931L32.0888 33.3716L32.5294 35.1339L32.9699 33.3716L34.2918 32.931L32.9699 32.4903L32.5294 30.7279Z" fill="#F6FAFF"/>
<path fill-rule="evenodd" clip-rule="evenodd" d="M48.8778 3.03125C44.7438 3.03125 40.8233 4.86751 38.1766 8.04339L28.7611 19.3421L34.1981 11.1866L25.1732 15.0545C24.027 15.5457 23.7395 17.0389 24.6211 17.9207L27.5254 20.8248L26.0426 22.6043L29.3048 25.8664L31.0841 24.3836L33.9884 27.2878C34.87 28.1695 36.3634 27.8819 36.8545 26.7359L40.7223 17.711L32.567 23.148L43.8657 13.7323C47.0416 11.0858 48.8778 7.16532 48.8778 3.03125ZM39.9069 12.0024C40.8077 12.9032 42.2682 12.9032 43.1691 12.0024C44.0698 11.1015 44.0698 9.64102 43.1691 8.74026C42.2682 7.83939 40.8077 7.83939 39.9069 8.74026C39.006 9.64102 39.006 11.1015 39.9069 12.0024Z" fill="#9ED8FF"/>
<path opacity="0.6" d="M1.05664 21.2578C3.21658 28.658 16.3486 28.2722 25.3583 23.6336C19.3252 26.6483 5.05358 27.2241 1.05664 21.2578Z" fill="#EEEEEE"/>
<path opacity="0.6" d="M27.2696 46.4832C21.1857 49.0088 23.6785 35.4676 26.5818 29.1211C24.4655 34.7621 22.6589 47.1975 28.1058 45.8095L27.784 46.1133C27.5862 46.2629 27.4409 46.367 27.2696 46.4832Z" fill="#EEEEEE"/>
<path d="M66.4064 33.2667C66.2048 33.2667 66.0306 33.1934 65.884 33.0468C65.7374 32.9001 65.6641 32.726 65.6641 32.5244V14.7634C65.6641 14.5617 65.7374 14.3876 65.884 14.241C66.0306 14.0943 66.2048 14.021 66.4064 14.021H74.737C77.3031 14.021 79.3193 14.5892 80.7857 15.7257C82.2704 16.8621 83.0127 18.5392 83.0127 20.757C83.0127 22.9565 82.2795 24.597 80.8132 25.6784C79.3468 26.7415 77.3215 27.2731 74.737 27.2731H72.8125V32.5244C72.8125 32.726 72.7391 32.9001 72.5925 33.0468C72.4459 33.1934 72.2718 33.2667 72.0701 33.2667H66.4064ZM74.5996 22.1867C74.9295 22.1867 75.2228 22.0676 75.4794 21.8293C75.736 21.5727 75.8643 21.1969 75.8643 20.702C75.8643 20.2805 75.7635 19.9139 75.5618 19.6023C75.3602 19.2907 75.0395 19.1349 74.5996 19.1349H72.675V22.1867H74.5996Z" fill="#F6FAFF"/>
<path d="M85.7917 33.2667C85.5901 33.2667 85.416 33.1934 85.2693 33.0468C85.1227 32.9001 85.0494 32.726 85.0494 32.5244V14.7634C85.0494 14.5617 85.1227 14.3876 85.2693 14.241C85.416 14.0943 85.5901 14.021 85.7917 14.021H93.9299C96.5693 14.021 98.6313 14.6167 100.116 15.8081C101.601 16.9812 102.343 18.6125 102.343 20.702C102.343 21.8934 102.077 22.9474 101.546 23.8638C101.014 24.762 100.29 25.5043 99.3737 26.0908L102.755 32.3594C102.81 32.4694 102.838 32.5702 102.838 32.6619C102.838 32.8268 102.774 32.9735 102.645 33.1018C102.535 33.2117 102.398 33.2667 102.233 33.2667H96.5968C96.2669 33.2667 96.0011 33.1934 95.7995 33.0468C95.6162 32.8818 95.4879 32.7077 95.4146 32.5244L93.0501 27.2731H91.9228V32.5244C91.9228 32.726 91.8495 32.9001 91.7029 33.0468C91.5563 33.1934 91.3821 33.2667 91.1805 33.2667H85.7917ZM93.9299 22.0492C94.3331 22.0492 94.6447 21.9209 94.8647 21.6643C95.0846 21.3894 95.1946 21.0503 95.1946 20.6471C95.1946 20.2438 95.0846 19.8956 94.8647 19.6023C94.6631 19.2907 94.3515 19.1349 93.9299 19.1349H91.9228V22.0492H93.9299Z" fill="#F6FAFF"/>
<path d="M113.445 33.5417C110.696 33.5417 108.505 32.9093 106.874 31.6446C105.243 30.3799 104.372 28.5378 104.262 26.1183C104.244 25.6234 104.235 24.8261 104.235 23.7264C104.235 22.6083 104.244 21.7926 104.262 21.2794C104.317 19.7031 104.729 18.3467 105.499 17.2103C106.287 16.0739 107.36 15.2124 108.716 14.6259C110.072 14.0394 111.649 13.7461 113.445 13.7461C115.241 13.7461 116.818 14.0394 118.174 14.6259C119.53 15.2124 120.593 16.0739 121.363 17.2103C122.151 18.3467 122.573 19.7031 122.628 21.2794C122.665 22.3058 122.683 23.1215 122.683 23.7264C122.683 24.3312 122.665 25.1285 122.628 26.1183C122.518 28.5378 121.647 30.3799 120.016 31.6446C118.385 32.9093 116.194 33.5417 113.445 33.5417ZM113.445 28.1804C114.068 28.1804 114.554 27.9971 114.902 27.6305C115.269 27.2639 115.461 26.7049 115.479 25.9534C115.516 24.8903 115.534 24.1113 115.534 23.6164C115.534 23.0848 115.516 22.3242 115.479 21.3344C115.461 20.5829 115.269 20.0239 114.902 19.6573C114.536 19.2907 114.05 19.1074 113.445 19.1074C112.84 19.1074 112.354 19.2907 111.988 19.6573C111.621 20.0239 111.429 20.5829 111.41 21.3344C111.392 21.8293 111.383 22.59 111.383 23.6164C111.383 24.6428 111.392 25.4218 111.41 25.9534C111.429 26.7049 111.612 27.2639 111.96 27.6305C112.327 27.9971 112.822 28.1804 113.445 28.1804Z" fill="#F6FAFF"/>
<path d="M132.641 33.5417C131.101 33.5417 129.671 33.2759 128.352 32.7443C127.032 32.2128 125.969 31.443 125.162 30.4349C124.356 29.4084 123.944 28.1987 123.925 26.8057C123.925 26.6407 123.98 26.5032 124.09 26.3933C124.219 26.265 124.365 26.2008 124.53 26.2008H130.139C130.432 26.2008 130.652 26.2741 130.799 26.4208C130.964 26.5491 131.119 26.769 131.266 27.0806C131.449 27.4839 131.651 27.768 131.871 27.9329C132.109 28.0979 132.439 28.1804 132.861 28.1804C133.392 28.1804 133.796 28.0154 134.07 27.6855C134.345 27.3372 134.483 26.7599 134.483 25.9534V19.6023H126.317C126.116 19.6023 125.941 19.529 125.795 19.3823C125.648 19.2357 125.575 19.0616 125.575 18.86V14.7634C125.575 14.5617 125.648 14.3876 125.795 14.241C125.941 14.0943 126.116 14.021 126.317 14.021H140.861C141.063 14.021 141.237 14.0943 141.384 14.241C141.53 14.3876 141.604 14.5617 141.604 14.7634V26.1733C141.604 27.8046 141.21 29.1793 140.422 30.2974C139.652 31.3971 138.589 32.2128 137.232 32.7443C135.894 33.2759 134.364 33.5417 132.641 33.5417Z" fill="#F6FAFF"/>
<path d="M145.21 33.2667C145.008 33.2667 144.834 33.1934 144.687 33.0468C144.541 32.9001 144.467 32.726 144.467 32.5244V14.7634C144.467 14.5617 144.541 14.3876 144.687 14.241C144.834 14.0943 145.008 14.021 145.21 14.021H159.314C159.516 14.021 159.69 14.0943 159.836 14.241C159.983 14.3876 160.056 14.5617 160.056 14.7634V18.64C160.056 18.8416 159.983 19.0157 159.836 19.1624C159.69 19.309 159.516 19.3823 159.314 19.3823H151.066V21.1144H158.709C158.911 21.1144 159.085 21.1878 159.231 21.3344C159.378 21.481 159.451 21.6552 159.451 21.8568V25.431C159.451 25.6326 159.378 25.8067 159.231 25.9534C159.085 26.1 158.911 26.1733 158.709 26.1733H151.066V27.9054H159.534C159.735 27.9054 159.91 27.9787 160.056 28.1254C160.203 28.272 160.276 28.4461 160.276 28.6478V32.5244C160.276 32.726 160.203 32.9001 160.056 33.0468C159.91 33.1934 159.735 33.2667 159.534 33.2667H145.21Z" fill="#F6FAFF"/>
<path d="M171.387 33.5417C168.619 33.5417 166.42 32.9368 164.788 31.7271C163.157 30.499 162.286 28.6203 162.176 26.0908C162.158 25.5959 162.149 24.7895 162.149 23.6714C162.149 22.535 162.158 21.7101 162.176 21.1969C162.286 18.7408 163.175 16.8896 164.843 15.6432C166.511 14.3785 168.692 13.7461 171.387 13.7461C173.036 13.7461 174.549 13.9935 175.923 14.4884C177.316 14.9833 178.443 15.7623 179.305 16.8254C180.185 17.8702 180.634 19.1899 180.652 20.7845C180.652 20.9495 180.588 21.0961 180.46 21.2244C180.35 21.3344 180.212 21.3894 180.047 21.3894H174.439C174.145 21.3894 173.925 21.3344 173.779 21.2244C173.65 21.1144 173.531 20.9037 173.421 20.5921C173.22 20.0422 172.954 19.6573 172.624 19.4373C172.294 19.2174 171.872 19.1074 171.359 19.1074C170.718 19.1074 170.223 19.2815 169.875 19.6298C169.526 19.9597 169.343 20.5279 169.325 21.3344C169.306 21.8293 169.297 22.59 169.297 23.6164C169.297 24.6428 169.306 25.4218 169.325 25.9534C169.343 26.7599 169.526 27.3372 169.875 27.6855C170.223 28.0154 170.718 28.1804 171.359 28.1804C172.404 28.1804 173.091 27.6855 173.421 26.6957C173.513 26.3841 173.623 26.1733 173.751 26.0633C173.898 25.9534 174.127 25.8984 174.439 25.8984H180.047C180.212 25.8984 180.35 25.9625 180.46 26.0908C180.588 26.2008 180.652 26.3383 180.652 26.5032C180.634 28.0979 180.185 29.4268 179.305 30.4899C178.443 31.5346 177.316 32.3044 175.923 32.7993C174.549 33.2942 173.036 33.5417 171.387 33.5417Z" fill="#F6FAFF"/>
<path d="M187.839 33.2667C187.637 33.2667 187.463 33.1934 187.317 33.0468C187.17 32.9001 187.097 32.726 187.097 32.5244V19.9322H182.533C182.331 19.9322 182.157 19.8589 182.01 19.7123C181.864 19.5656 181.79 19.3915 181.79 19.1899V14.7634C181.79 14.5617 181.864 14.3876 182.01 14.241C182.157 14.0943 182.331 14.021 182.533 14.021H198.644C198.846 14.021 199.02 14.0943 199.166 14.241C199.313 14.3876 199.386 14.5617 199.386 14.7634V19.1899C199.386 19.3915 199.313 19.5656 199.166 19.7123C199.02 19.8589 198.846 19.9322 198.644 19.9322H194.08V32.5244C194.08 32.726 194.007 32.9001 193.86 33.0468C193.714 33.1934 193.539 33.2667 193.338 33.2667H187.839Z" fill="#F6FAFF"/>
<path d="M208.427 33.5417C206.906 33.5417 205.586 33.3034 204.468 32.8268C203.368 32.3503 202.525 31.7271 201.939 30.9572C201.352 30.1691 201.04 29.3259 201.004 28.4278C201.004 28.2812 201.059 28.1529 201.169 28.0429C201.297 27.9146 201.444 27.8504 201.609 27.8504H203.011C203.359 27.8504 203.597 28.0337 203.726 28.4003C203.891 29.1701 204.358 29.83 205.128 30.3799C205.916 30.9298 207.016 31.2047 208.427 31.2047C209.949 31.2047 211.094 30.9389 211.864 30.4074C212.634 29.8575 213.019 29.0968 213.019 28.1254C213.019 27.5022 212.826 26.9981 212.441 26.6132C212.075 26.2283 211.525 25.8892 210.792 25.5959C210.058 25.3027 208.959 24.9361 207.492 24.4962C206.063 24.0929 204.926 23.6622 204.083 23.204C203.24 22.7457 202.608 22.1775 202.186 21.4994C201.765 20.8212 201.554 19.9689 201.554 18.9424C201.554 17.9527 201.819 17.0637 202.351 16.2755C202.901 15.4874 203.68 14.8733 204.688 14.4334C205.696 13.9752 206.897 13.7461 208.29 13.7461C209.719 13.7461 210.947 14.0027 211.974 14.5159C213 15.0108 213.779 15.6432 214.311 16.413C214.842 17.1828 215.127 17.9527 215.163 18.7225C215.163 18.8691 215.108 18.9974 214.998 19.1074C214.907 19.2174 214.769 19.2724 214.586 19.2724H213.129C212.744 19.2724 212.505 19.0982 212.414 18.75C212.304 17.9801 211.873 17.3478 211.122 16.8529C210.37 16.3397 209.426 16.0831 208.29 16.0831C207.043 16.0831 206.063 16.3214 205.348 16.7979C204.633 17.2745 204.276 17.9801 204.276 18.9149C204.276 19.5381 204.441 20.0514 204.77 20.4546C205.119 20.8578 205.641 21.2153 206.338 21.5269C207.034 21.8201 208.051 22.1592 209.389 22.5441C210.947 22.9657 212.176 23.4056 213.074 23.8638C213.972 24.3037 214.641 24.8628 215.081 25.541C215.521 26.2008 215.741 27.044 215.741 28.0704C215.741 29.775 215.081 31.113 213.761 32.0845C212.441 33.0559 210.663 33.5417 208.427 33.5417Z" fill="#F6FAFF"/>
<path d="M223.968 33.2667C223.785 33.2667 223.629 33.2117 223.501 33.1018C223.391 32.9735 223.336 32.8177 223.336 32.6344V16.468H218.057C217.874 16.468 217.718 16.413 217.59 16.303C217.48 16.1747 217.425 16.0189 217.425 15.8356V14.6809C217.425 14.4976 217.48 14.3418 217.59 14.2135C217.718 14.0852 217.874 14.021 218.057 14.021H231.309C231.511 14.021 231.667 14.0852 231.777 14.2135C231.905 14.3235 231.969 14.4793 231.969 14.6809V15.8356C231.969 16.0189 231.905 16.1747 231.777 16.303C231.648 16.413 231.492 16.468 231.309 16.468H226.058V32.6344C226.058 32.8177 225.994 32.9735 225.865 33.1018C225.737 33.2117 225.581 33.2667 225.398 33.2667H223.968Z" fill="#F6FAFF"/>
<path d="M231.718 33.2667C231.572 33.2667 231.443 33.2117 231.333 33.1018C231.223 32.9918 231.168 32.8635 231.168 32.7169C231.168 32.5702 231.178 32.4694 231.196 32.4144L238.014 14.6259C238.161 14.2227 238.454 14.021 238.894 14.021H240.764C241.204 14.021 241.497 14.2227 241.644 14.6259L248.435 32.4144L248.49 32.7169C248.49 32.8635 248.435 32.9918 248.325 33.1018C248.215 33.2117 248.086 33.2667 247.94 33.2667H246.538C246.336 33.2667 246.18 33.2209 246.07 33.1293C245.96 33.0193 245.887 32.9093 245.85 32.7993L244.338 28.8952H235.32L233.808 32.7993C233.771 32.9093 233.689 33.0193 233.56 33.1293C233.45 33.2209 233.304 33.2667 233.121 33.2667H231.718ZM243.541 26.5307L239.829 16.7704L236.117 26.5307H243.541Z" fill="#F6FAFF"/>
<path d="M252.062 33.2667C251.878 33.2667 251.723 33.2117 251.594 33.1018C251.484 32.9735 251.429 32.8177 251.429 32.6344V14.6809C251.429 14.4793 251.484 14.3235 251.594 14.2135C251.723 14.0852 251.878 14.021 252.062 14.021H258.77C260.878 14.021 262.528 14.5159 263.719 15.5057C264.91 16.4955 265.506 17.9252 265.506 19.7947C265.506 21.1878 265.158 22.3333 264.461 23.2315C263.783 24.1296 262.821 24.7528 261.575 25.1011L265.809 32.4144C265.864 32.5244 265.891 32.6252 265.891 32.7169C265.891 32.8635 265.827 32.9918 265.699 33.1018C265.589 33.2117 265.46 33.2667 265.314 33.2667H263.994C263.719 33.2667 263.499 33.2026 263.334 33.0743C263.188 32.946 263.05 32.7627 262.922 32.5244L258.935 25.541H254.124V32.6344C254.124 32.8177 254.06 32.9735 253.931 33.1018C253.803 33.2117 253.647 33.2667 253.464 33.2667H252.062ZM258.66 23.204C261.391 23.204 262.757 22.0584 262.757 19.7672C262.757 17.4761 261.391 16.3305 258.66 16.3305H254.124V23.204H258.66Z" fill="#F6FAFF"/>
<path d="M274.069 33.2667C273.886 33.2667 273.73 33.2117 273.602 33.1018C273.492 32.9735 273.437 32.8177 273.437 32.6344V16.468H268.158C267.975 16.468 267.819 16.413 267.691 16.303C267.581 16.1747 267.526 16.0189 267.526 15.8356V14.6809C267.526 14.4976 267.581 14.3418 267.691 14.2135C267.819 14.0852 267.975 14.021 268.158 14.021H281.41C281.612 14.021 281.768 14.0852 281.878 14.2135C282.006 14.3235 282.07 14.4793 282.07 14.6809V15.8356C282.07 16.0189 282.006 16.1747 281.878 16.303C281.749 16.413 281.594 16.468 281.41 16.468H276.159V32.6344C276.159 32.8177 276.095 32.9735 275.966 33.1018C275.838 33.2117 275.682 33.2667 275.499 33.2667H274.069Z" fill="#F6FAFF"/>
<path d="M285.785 33.2667C285.601 33.2667 285.445 33.2117 285.317 33.1018C285.207 32.9735 285.152 32.8177 285.152 32.6344V14.6809C285.152 14.4793 285.207 14.3235 285.317 14.2135C285.445 14.0852 285.601 14.021 285.785 14.021H297.14C297.323 14.021 297.469 14.0852 297.579 14.2135C297.708 14.3235 297.772 14.4793 297.772 14.6809V15.7257C297.772 15.9089 297.717 16.0647 297.607 16.193C297.497 16.303 297.341 16.358 297.14 16.358H287.792V22.3792H296.535C296.718 22.3792 296.865 22.4433 296.975 22.5716C297.103 22.6816 297.167 22.8374 297.167 23.039V24.0563C297.167 24.2396 297.103 24.3954 296.975 24.5237C296.865 24.6337 296.718 24.6886 296.535 24.6886H287.792V30.9298H297.359C297.561 30.9298 297.717 30.9847 297.827 31.0947C297.937 31.2047 297.992 31.3605 297.992 31.5621V32.6344C297.992 32.8177 297.928 32.9735 297.799 33.1018C297.689 33.2117 297.543 33.2667 297.359 33.2667H285.785Z" fill="#F6FAFF"/>
<path d="M302.458 33.2667C302.275 33.2667 302.119 33.2117 301.991 33.1018C301.881 32.9735 301.826 32.8177 301.826 32.6344V14.6809C301.826 14.4793 301.881 14.3235 301.991 14.2135C302.119 14.0852 302.275 14.021 302.458 14.021H309.167C311.274 14.021 312.924 14.5159 314.115 15.5057C315.307 16.4955 315.903 17.9252 315.903 19.7947C315.903 21.1878 315.554 22.3333 314.858 23.2315C314.18 24.1296 313.217 24.7528 311.971 25.1011L316.205 32.4144C316.26 32.5244 316.287 32.6252 316.287 32.7169C316.287 32.8635 316.223 32.9918 316.095 33.1018C315.985 33.2117 315.857 33.2667 315.71 33.2667H314.39C314.115 33.2667 313.896 33.2026 313.731 33.0743C313.584 32.946 313.446 32.7627 313.318 32.5244L309.332 25.541H304.52V32.6344C304.52 32.8177 304.456 32.9735 304.328 33.1018C304.199 33.2117 304.044 33.2667 303.86 33.2667H302.458ZM309.057 23.204C311.788 23.204 313.153 22.0584 313.153 19.7672C313.153 17.4761 311.788 16.3305 309.057 16.3305H304.52V23.204H309.057Z" fill="#F6FAFF"/>
</svg>
