<svg width="359" height="50" viewBox="0 0 359 50" fill="none" xmlns="http://www.w3.org/2000/svg">
<path d="M67.4312 19.5576C66.7303 19.3848 65.9064 19.2012 64.9593 19.0066C63.9552 18.8063 62.9336 18.7065 61.9097 18.7088C61.3209 18.7163 60.7331 18.76 60.1497 18.8398C59.6259 18.9008 59.1073 19.0003 58.5981 19.1376V40.2823H50.7656V14.0986C52.3949 13.545 54.0532 13.0807 55.7331 12.7079C57.8311 12.2496 59.9739 12.0288 62.1212 12.0497C62.5412 12.0497 63.0504 12.0765 63.646 12.1271C64.2416 12.1778 64.8373 12.2522 65.4329 12.3386C66.0285 12.425 66.6241 12.5322 67.2198 12.6543C67.7401 12.7541 68.2498 12.9037 68.7416 13.101L67.4312 19.5576Z" fill="#1FA5FF"/>
<path d="M98.2932 26.3955C98.3149 28.4198 97.9957 30.4333 97.3491 32.3517C96.771 34.0691 95.8386 35.6458 94.6122 36.9797C93.4149 38.2683 91.9544 39.284 90.3297 39.9579C86.7462 41.3597 82.766 41.3597 79.1825 39.9579C77.5569 39.284 76.0954 38.2683 74.897 36.9797C73.6682 35.6387 72.7203 34.065 72.1095 32.3517C71.4274 30.4409 71.0897 28.4243 71.1118 26.3955C71.0846 24.364 71.4319 22.3449 72.1363 20.4392C72.7656 18.7386 73.732 17.1827 74.9774 15.8648C76.1955 14.5966 77.6627 13.5938 79.2868 12.9195C82.7972 11.5177 86.712 11.5177 90.2224 12.9195C91.8417 13.5897 93.3019 14.5933 94.508 15.8648C95.7367 17.1856 96.6849 18.7417 97.2955 20.4392C97.9821 22.3489 98.3201 24.3663 98.2932 26.3955V26.3955ZM90.3028 26.3955C90.3028 23.9733 89.8204 22.0712 88.8554 20.6894C87.8905 19.3075 86.5157 18.6126 84.7308 18.6047C82.9439 18.6047 81.5541 19.2996 80.5614 20.6894C79.5687 22.0792 79.0773 23.9812 79.0873 26.3955C79.0873 28.8137 79.5786 30.7326 80.5614 32.1522C81.0144 32.8359 81.6361 33.3912 82.3665 33.7642C83.097 34.1373 83.9113 34.3154 84.7308 34.2815C86.5177 34.2815 87.8925 33.5717 88.8554 32.1522C89.8184 30.7326 90.3018 28.8137 90.3058 26.3955H90.3028Z" fill="#1FA5FF"/>
<path d="M101.763 50C101.034 49.9847 100.307 49.932 99.583 49.8421C98.6626 49.747 97.7551 49.5533 96.876 49.2644L97.9273 42.9031C98.3981 43.0647 98.881 43.1882 99.3716 43.2724C99.9202 43.3487 100.474 43.3836 101.027 43.3767C102.254 43.3767 103.113 43.0083 103.604 42.2717C104.094 41.5352 104.34 40.466 104.342 39.0643V12.6186H112.175V39.2758C112.175 42.921 111.281 45.6201 109.494 47.3733C107.707 49.1264 105.13 50.002 101.763 50ZM112.91 4.6283C112.91 6.06376 112.446 7.19346 111.516 8.01741C110.608 8.81427 109.44 9.25359 108.232 9.25359C107.023 9.25359 105.855 8.81427 104.947 8.01741C104.017 7.19545 103.553 6.06575 103.553 4.6283C103.553 3.19086 104.017 2.06017 104.947 1.23622C105.855 0.43936 107.023 0 108.232 0C109.44 0 110.608 0.43936 111.516 1.23622C112.446 2.06215 112.91 3.19285 112.91 4.6283V4.6283Z" fill="#1FA5FF"/>
<path d="M118.22 26.6575C118.173 24.457 118.557 22.2686 119.351 20.2158C120.027 18.4985 121.039 16.9339 122.329 15.6147C123.534 14.4054 124.974 13.4575 126.561 12.8301C128.125 12.2048 129.794 11.8834 131.478 11.8831C135.403 11.8831 138.506 13.0832 140.785 15.4836C143.064 17.884 144.203 21.416 144.201 26.0797C144.201 26.5354 144.183 27.0327 144.15 27.5688C144.117 28.1049 144.079 28.5933 144.043 29.0132H126.272C126.342 29.7804 126.581 30.5227 126.972 31.1865C127.362 31.8503 127.896 32.4191 128.533 32.852C129.867 33.7991 131.654 34.2726 133.894 34.2726C135.314 34.2747 136.73 34.1421 138.125 33.8765C139.288 33.6788 140.426 33.3532 141.517 32.9056L142.569 39.2669C142.026 39.5223 141.463 39.7334 140.886 39.8982C140.117 40.1234 139.337 40.3073 138.548 40.4492C137.689 40.608 136.768 40.7391 135.788 40.8423C134.809 40.9483 133.826 41.001 132.842 41.0002C130.353 41.0002 128.188 40.6328 126.35 39.8982C124.623 39.2369 123.061 38.2051 121.775 36.8754C120.556 35.5756 119.641 34.0214 119.095 32.3249C118.502 30.4947 118.207 28.5813 118.22 26.6575V26.6575ZM136.621 23.6585C136.587 22.9987 136.472 22.3457 136.279 21.7138C136.094 21.0998 135.791 20.5281 135.386 20.0312C134.966 19.5279 134.447 19.1163 133.861 18.8221C133.147 18.4846 132.363 18.3222 131.574 18.3485C130.796 18.33 130.025 18.4825 129.313 18.7953C128.709 19.0767 128.171 19.4826 127.735 19.9865C127.307 20.4898 126.978 21.0686 126.764 21.693C126.538 22.3338 126.371 22.9936 126.264 23.6645L136.621 23.6585Z" fill="#1FA5FF"/>
<path d="M148.924 26.4461C148.911 24.5171 149.241 22.6013 149.898 20.7876C150.51 19.0636 151.473 17.4854 152.726 16.1526C153.98 14.8198 155.496 13.7615 157.179 13.0445C159.075 12.2465 161.117 11.8529 163.174 11.889C164.533 11.8779 165.89 12.0096 167.221 12.2821C168.446 12.5459 169.642 12.9249 170.795 13.4138L169.163 19.6678C168.374 19.3706 167.566 19.1249 166.745 18.9322C165.779 18.7114 164.79 18.6054 163.799 18.6166C161.488 18.6166 159.763 19.3343 158.623 20.7697C157.484 22.2052 156.914 24.0983 156.914 26.449C156.914 28.9387 157.448 30.8666 158.516 32.2325C159.584 33.5985 161.451 34.2825 164.115 34.2845C165.137 34.2775 166.157 34.1889 167.165 34.0194C168.195 33.8628 169.202 33.5808 170.164 33.1796L171.266 39.5944C170.162 40.0364 169.018 40.3705 167.85 40.5921C166.361 40.8837 164.846 41.0243 163.329 41.012C160.803 41.012 158.629 40.6358 156.807 39.8833C155.097 39.208 153.561 38.1566 152.313 36.8069C151.122 35.4845 150.242 33.9124 149.737 32.2057C149.179 30.3374 148.905 28.3958 148.924 26.4461Z" fill="#1FA5FF"/>
<path d="M176.267 5.7302L184.099 4.47046V12.6186H193.51V19.1377H184.099V28.8643C184.099 30.5142 184.388 31.8285 184.966 32.8073C185.544 33.7861 186.709 34.2775 188.462 34.2815C189.335 34.2782 190.206 34.1985 191.065 34.0432C191.899 33.9021 192.717 33.6827 193.51 33.388L194.615 39.4842C193.59 39.8962 192.536 40.2307 191.461 40.4849C190.063 40.7898 188.633 40.9308 187.202 40.9048C185.064 40.9048 183.294 40.6159 181.892 40.0382C180.585 39.5289 179.427 38.697 178.527 37.6199C177.654 36.5211 177.05 35.2328 176.764 33.8586C176.418 32.253 176.251 30.6139 176.267 28.9715V5.7302Z" fill="#1FA5FF"/>
<path d="M208.758 37.9625C211.597 37.9625 213.805 37.4443 215.381 36.408C216.958 35.3716 217.747 33.6939 217.749 31.3749C217.789 30.212 217.526 29.0587 216.987 28.0275C216.48 27.137 215.79 26.3645 214.962 25.7612C214.067 25.1183 213.095 24.5891 212.07 24.1857C210.984 23.7509 209.845 23.2893 208.654 22.8009C207.271 22.2679 205.918 21.6574 204.604 20.9724C203.496 20.4048 202.471 19.6906 201.554 18.849C200.734 18.089 200.081 17.1671 199.636 16.1418C199.174 15.0082 198.95 13.7918 198.978 12.5681C198.978 9.45097 200.012 7.08536 202.081 5.47122C204.15 3.85707 207.024 3.051 210.703 3.05298C211.671 3.05256 212.637 3.12322 213.595 3.26442C214.49 3.39432 215.377 3.57833 216.251 3.8154C217.019 4.0258 217.773 4.28033 218.511 4.57778C219.111 4.8139 219.683 5.11341 220.218 5.47122L218.958 8.46722C217.82 7.71273 216.568 7.14471 215.25 6.78458C213.719 6.35466 212.135 6.14312 210.545 6.1562C209.475 6.14685 208.408 6.26077 207.364 6.49571C206.467 6.69591 205.618 7.07138 204.866 7.60058C204.172 8.10215 203.605 8.7589 203.21 9.51847C202.789 10.3857 202.584 11.3423 202.614 12.306C202.583 13.2901 202.8 14.2662 203.246 15.1442C203.678 15.9325 204.28 16.615 205.009 17.1425C205.834 17.747 206.724 18.2583 207.662 18.6673C208.677 19.1239 209.781 19.5974 210.974 20.0878C212.411 20.6835 213.769 21.2791 215.048 21.8747C216.251 22.4235 217.374 23.1306 218.389 23.9773C219.339 24.7918 220.109 25.7948 220.65 26.9226C221.247 28.2607 221.534 29.7166 221.49 31.1813C221.49 34.4791 220.342 36.95 218.047 38.5939C215.752 40.2378 212.641 41.0618 208.713 41.0657C207.429 41.0744 206.146 40.9868 204.875 40.8037C203.828 40.6508 202.793 40.431 201.774 40.1455C200.986 39.9269 200.213 39.6552 199.46 39.3325C198.955 39.1164 198.464 38.8697 197.989 38.5939L199.145 35.4937C199.496 35.7022 199.967 35.9493 200.565 36.2293C201.249 36.5433 201.951 36.8158 202.668 37.0453C204.64 37.6692 206.698 37.9797 208.767 37.9655L208.758 37.9625Z" fill="#1FA5FF"/>
<path d="M231.103 13.104H241.934V15.9958H231.103V30.4546C231.072 31.7191 231.204 32.9823 231.496 34.213C231.688 35.0385 232.076 35.8057 232.628 36.4495C233.107 36.9674 233.729 37.333 234.414 37.5008C235.172 37.6827 235.949 37.7707 236.728 37.7629C237.905 37.8028 239.08 37.6333 240.198 37.2625C240.904 37.0077 241.59 36.7001 242.25 36.3423L243.09 39.1834C242.274 39.6368 241.41 39.9974 240.514 40.2586C239.222 40.6695 237.873 40.8706 236.517 40.8542C235.078 40.8943 233.644 40.6722 232.285 40.199C231.204 39.8026 230.257 39.1101 229.551 38.2007C228.826 37.2099 228.333 36.0691 228.107 34.8622C227.803 33.3036 227.662 31.7177 227.684 30.13V5.11373L231.103 4.48535V13.104Z" fill="#1FA5FF"/>
<path d="M256.486 12.4608C258.037 12.4207 259.581 12.6795 261.033 13.2233C262.194 13.6733 263.23 14.3942 264.056 15.3258C264.843 16.2499 265.418 17.3357 265.739 18.5064C266.1 19.8076 266.277 21.1528 266.266 22.5031V39.6422C265.764 39.7832 265.255 39.8975 264.741 39.9847C264.074 40.1097 263.303 40.2418 262.427 40.3807C261.552 40.5197 260.579 40.6329 259.509 40.7202C258.439 40.8096 257.343 40.8513 256.233 40.8513C254.895 40.8644 253.561 40.7062 252.263 40.3807C251.122 40.1004 250.048 39.5941 249.106 38.8917C248.204 38.1982 247.482 37.2971 247.003 36.265C246.463 35.031 246.202 33.6925 246.241 32.3458C246.204 31.0337 246.494 29.733 247.084 28.5606C247.644 27.5102 248.456 26.6156 249.449 25.9577C250.555 25.2407 251.785 24.7358 253.076 24.4686C254.578 24.1424 256.113 23.9836 257.65 23.9951C258.142 23.9951 258.657 24.0219 259.202 24.0755C259.747 24.1291 260.271 24.1976 260.78 24.287C261.289 24.3763 261.727 24.4627 262.094 24.5491C262.355 24.602 262.61 24.6808 262.856 24.7843V23.1017C262.857 22.1773 262.786 21.2544 262.645 20.341C262.515 19.4785 262.203 18.6539 261.727 17.9227C261.225 17.1799 260.535 16.5822 259.729 16.1895C258.869 15.7527 257.739 15.5333 256.337 15.5313C254.338 15.5313 252.848 15.6713 251.87 15.9512C250.89 16.249 250.169 16.4605 249.717 16.6362L249.243 13.6372C250.129 13.2716 251.055 13.0078 252.001 12.851C253.48 12.5775 254.982 12.4468 256.486 12.4608V12.4608ZM256.801 37.8047C258.134 37.8047 259.299 37.76 260.298 37.6707C261.153 37.6037 262.004 37.4904 262.847 37.3311V27.7624C262.252 27.5218 261.636 27.3364 261.007 27.2085C259.864 26.9866 258.701 26.8868 257.537 26.9107C256.657 26.9139 255.779 26.9756 254.907 27.0953C254.027 27.2089 253.173 27.4761 252.385 27.8845C251.628 28.2736 250.978 28.8421 250.491 29.5404C250 30.2392 249.755 31.1674 249.755 32.3249C249.729 33.2111 249.9 34.092 250.256 34.904C250.569 35.5817 251.06 36.1621 251.676 36.5836C252.345 37.0306 253.095 37.3432 253.883 37.5039C254.846 37.7122 255.828 37.8131 256.813 37.8047H256.801Z" fill="#1FA5FF"/>
<path d="M284.256 12.5649C285.322 12.5606 286.386 12.6493 287.436 12.83C288.148 12.9278 288.848 13.1035 289.521 13.3542L288.836 16.2995C288.286 16.0846 287.712 15.9347 287.127 15.8528C286.006 15.6747 284.872 15.595 283.738 15.6146C282.546 15.5886 281.356 15.6945 280.188 15.9302C279.586 16.0506 278.997 16.2271 278.428 16.4574V40.2823H275.009V14.3727C276.186 13.8843 277.399 13.486 278.636 13.1814C280.476 12.7416 282.364 12.5345 284.256 12.5649V12.5649Z" fill="#1FA5FF"/>
<path d="M297.881 13.1041H308.709V15.9958H297.881V30.4546C297.85 31.7191 297.982 32.9823 298.274 34.213C298.465 35.0391 298.853 35.8065 299.406 36.4496C299.884 36.9689 300.506 37.3347 301.193 37.5009C301.95 37.6828 302.727 37.7708 303.507 37.763C304.684 37.8028 305.858 37.6334 306.976 37.2626C307.681 37.0078 308.366 36.7002 309.025 36.3424L309.868 39.1835C309.052 39.6368 308.188 39.9975 307.292 40.2586C306 40.6694 304.651 40.8704 303.295 40.8542C301.86 40.8952 300.429 40.6752 299.072 40.205C297.991 39.8102 297.043 39.1174 296.338 38.2067C295.611 37.2168 295.116 36.0757 294.891 34.8682C294.59 33.3092 294.449 31.7236 294.471 30.1359V5.11972L297.881 4.46753V13.1041Z" fill="#1FA5FF"/>
<path d="M313.382 26.6574C313.337 24.5351 313.686 22.4228 314.409 20.4272C315.011 18.7888 315.921 17.2807 317.089 15.9838C318.141 14.831 319.433 13.924 320.875 13.3273C322.267 12.755 323.759 12.4606 325.264 12.4607C328.594 12.4607 331.249 13.5527 333.231 15.7366C335.212 17.9206 336.205 21.268 336.209 25.7789C336.209 26.0588 336.209 26.3388 336.182 26.6187C336.155 26.8986 336.138 27.1637 336.102 27.4079H317.018C317.123 30.7375 317.946 33.2967 319.487 35.0855C321.028 36.8744 323.481 37.7678 326.849 37.7658C328.707 37.7658 330.179 37.5901 331.265 37.2387C332.074 36.9977 332.864 36.6991 333.63 36.3453L334.261 39.2906C333.378 39.7177 332.453 40.052 331.501 40.2883C329.947 40.7008 328.343 40.8952 326.736 40.866C324.353 40.866 322.32 40.5156 320.636 39.8147C319.033 39.1778 317.604 38.1694 316.467 36.8724C315.357 35.5663 314.549 34.0305 314.102 32.3754C313.599 30.5119 313.356 28.5876 313.382 26.6574V26.6574ZM332.68 24.5013C332.608 21.6621 331.942 19.4543 330.682 17.8779C329.421 16.3015 327.634 15.5073 325.321 15.4954C324.186 15.477 323.063 15.7292 322.045 16.231C321.084 16.7194 320.227 17.3888 319.52 18.2025C318.79 19.0482 318.22 20.0188 317.837 21.0675C317.432 22.1654 317.193 23.3178 317.128 24.4864L332.68 24.5013Z" fill="#1FA5FF"/>
<path d="M45.3964 8.72912C42.3945 4.8933 36.4621 3.96411 34.9909 3.72288L34.8539 3.69907H34.8241C33.0006 3.42532 31.1585 3.29386 29.3146 3.30594C27.8076 3.30594 26.0555 3.37644 24.0582 3.51741C22.1517 3.64483 20.255 3.89049 18.3789 4.253V35.7049L26.5807 43.5046V27.9648C33.4452 31.0531 43.4487 28.7302 46.7366 21.684C48.452 18.006 48.5264 12.7287 45.3964 8.72912ZM26.5807 10.4564C27.0006 10.4207 27.5009 10.3849 28.0697 10.3492C28.6385 10.3135 29.2371 10.2986 29.8328 10.2986C30.9292 10.2899 32.0247 10.3686 33.1087 10.5338C33.9861 10.6557 34.8328 10.9416 35.6044 11.3766C36.2674 11.756 36.8134 12.3103 37.1828 12.9789C37.5786 13.7601 37.7692 14.6292 37.7367 15.5044C37.7367 17.6069 37.018 19.0443 35.5805 19.8167C34.1431 20.589 32.0038 20.9742 29.1627 20.9722H26.5747L26.5807 10.4564Z" fill="#BDE7FF"/>
<path d="M45.3958 8.72909C42.2628 4.7265 35.9373 3.88666 34.8205 3.69606C38.0309 5.1196 41.6702 7.71652 42.2658 12.3654C42.7185 15.7783 41.0418 18.8219 39.2013 20.5492C36.1517 23.4112 31.0085 24.0664 25.773 22.214L26.3686 21.5886C26.4733 21.4858 26.5468 21.3555 26.5805 21.2126C26.6142 21.0698 26.6068 20.9203 26.5592 20.7815C26.443 20.4837 25.5675 19.0334 24.5311 17.3537L26.452 15.3435L31.6309 15.7426L25.5228 9.78631L20.0907 10.647C19.4922 9.93336 18.8444 9.26263 18.152 8.63974C14.2804 5.16427 8.91977 2.33505 1.77228 2.38568C1.66007 2.38634 1.54919 2.40973 1.44626 2.45442C1.34333 2.49912 1.25047 2.56421 1.17338 2.64576C1.09629 2.7273 1.03657 2.82361 0.997722 2.92888C0.958869 3.03415 0.941702 3.14618 0.947335 3.25825C1.14554 7.7193 2.60927 12.0318 5.16738 15.6919C6.60859 17.7416 8.36448 19.5507 10.3702 21.0525L9.77453 26.2315L15.9839 32.0775L15.3555 26.9195L17.1424 25.0581C18.9114 26.0081 20.4481 26.8152 20.7548 26.9165C20.8964 26.9549 21.0459 26.9529 21.1864 26.9108C21.3269 26.8687 21.4528 26.7881 21.55 26.6782L22.7412 25.4185C23.8683 26.4689 25.1588 27.3289 26.5622 27.9648C33.4267 31.0531 43.4302 28.7302 46.7181 21.6839C48.4513 18.0059 48.5258 12.7287 45.3958 8.72909ZM14.2149 14.7687C13.8029 15.1994 13.2724 15.4984 12.6906 15.6276C12.1087 15.7569 11.5016 15.7107 10.9459 15.495C10.3903 15.2792 9.91112 14.9035 9.56898 14.4154C9.22685 13.9274 9.03715 13.3488 9.02382 12.7529C9.01049 12.157 9.17412 11.5705 9.4941 11.0676C9.81407 10.5647 10.276 10.168 10.8215 9.92761C11.3669 9.68723 11.9713 9.61396 12.5584 9.71709C13.1454 9.82022 13.6887 10.0951 14.1196 10.507C14.4057 10.7806 14.6352 11.1078 14.7948 11.47C14.9544 11.8322 15.0412 12.2224 15.05 12.6181C15.0589 13.0139 14.9896 13.4075 14.8464 13.7765C14.7031 14.1455 14.4885 14.4826 14.2149 14.7687V14.7687Z" fill="#1FA5FF"/>
<path d="M353.081 12.5649C354.147 12.5609 355.211 12.6496 356.262 12.83C356.974 12.928 357.673 13.1037 358.346 13.3541L357.661 16.2995C357.112 16.0849 356.539 15.935 355.955 15.8528C354.833 15.6747 353.698 15.595 352.563 15.6146C351.372 15.5888 350.181 15.6946 349.013 15.9302C348.411 16.0506 347.822 16.2271 347.253 16.4574V40.2823H343.834V14.3727C345.011 13.8843 346.224 13.486 347.461 13.1814C349.301 12.7417 351.189 12.5346 353.081 12.5649Z" fill="#1FA5FF"/>
</svg>
