<svg width="344" height="51" viewBox="0 0 344 51" fill="none" xmlns="http://www.w3.org/2000/svg">
<path fill-rule="evenodd" clip-rule="evenodd" d="M29.8518 1.3937C27.9921 -0.465103 24.9778 -0.464493 23.119 1.39509L7.60583 16.9147L7.59261 16.9108L7.54359 16.916C7.56378 16.9257 7.5836 16.9353 7.60302 16.945C4.88168 17.2301 3.72705 18.0479 3.71398 19.0981C3.71859 19.4888 3.87887 19.9107 4.17327 20.3486L4.15912 20.3628C6.6331 24.0942 18.8891 29.0164 27.5599 25.6814C21.0615 28.9306 5.75739 29.5746 1.26235 23.2659C0.286164 24.322 -0.122265 25.7098 0.0315433 27.0435C1.21901 33.5885 14.495 35.374 27.771 25.8912L30.6439 28.7641C27.069 32.4368 21.7885 53.7701 29.6348 50.513C29.8209 50.3866 29.9789 50.2736 30.1937 50.111L30.5434 49.7808C30.5233 49.7858 30.5032 49.7905 30.4833 49.7953L51.4973 29.9568C53.4485 28.1147 53.4927 25.025 51.5948 23.1279L29.8518 1.3937ZM27.5634 7.85887L28.2816 4.98601L28.9997 7.85887L31.1544 8.57709L28.9997 9.29533L28.2816 12.1682L27.5634 9.29533L25.4087 8.57709L27.5634 7.85887ZM18.6736 17.2372L19.1524 15.3219L19.6312 17.2372L21.0677 17.716L19.6312 18.1948L19.1524 20.1101L18.6736 18.1948L17.2372 17.716L18.6736 17.2372ZM35.3499 33.3923L34.8711 35.3074L33.4347 35.7863L34.8711 36.2651L35.3499 38.1803L35.8287 36.2651L37.2652 35.7863L35.8287 35.3074L35.3499 33.3923Z" fill="#1FA5FF"/>
<path fill-rule="evenodd" clip-rule="evenodd" d="M53.1157 3.29492C48.6232 3.29492 44.3628 5.2904 41.4866 8.74165L31.2548 21.0201L37.1631 12.1574L27.3557 16.3606C26.1102 16.8944 25.7977 18.5172 26.7558 19.4754L29.9119 22.6313L28.3005 24.5651L31.8456 28.1101L33.7792 26.4986L36.9353 29.6547C37.8933 30.6128 39.5162 30.3003 40.0499 29.0549L44.2531 19.2476L35.3906 25.1559L47.669 14.9239C51.1202 12.0479 53.1157 7.78744 53.1157 3.29492ZM43.3669 13.0439C44.3458 14.0228 45.933 14.0228 46.9119 13.0439C47.8908 12.0649 47.8908 10.4778 46.9119 9.49894C45.933 8.51996 44.3458 8.51996 43.3669 9.49894C42.388 10.4778 42.388 12.0649 43.3669 13.0439Z" fill="#048EEB"/>
<path opacity="0.6" d="M1.14844 23.1011C3.49566 31.1429 17.7663 30.7236 27.5572 25.6829C21.0011 28.959 5.49194 29.5847 1.14844 23.1011Z" fill="#696969"/>
<path opacity="0.6" d="M29.6346 50.5131C23.0231 53.2576 25.732 38.5423 28.8871 31.6455C26.5873 37.7757 24.6241 51.2893 30.5432 49.7809L30.1935 50.1111C29.9786 50.2737 29.8207 50.3867 29.6346 50.5131Z" fill="#696969"/>
<path d="M72.1651 36.1522C71.946 36.1522 71.7568 36.0725 71.5974 35.9132C71.4381 35.7538 71.3584 35.5646 71.3584 35.3455V16.0444C71.3584 15.8253 71.4381 15.6361 71.5974 15.4768C71.7568 15.3174 71.946 15.2377 72.1651 15.2377H81.2181C84.0067 15.2377 86.1977 15.8552 87.7912 17.0902C89.4046 18.3251 90.2113 20.1477 90.2113 22.5578C90.2113 24.948 89.4145 26.7307 87.8211 27.9059C86.2276 29.0612 84.0266 29.6388 81.2181 29.6388H79.1266V35.3455C79.1266 35.5646 79.0469 35.7538 78.8876 35.9132C78.7283 36.0725 78.539 36.1522 78.3199 36.1522H72.1651ZM81.0687 24.1114C81.4272 24.1114 81.7459 23.982 82.0248 23.723C82.3036 23.4442 82.4431 23.0358 82.4431 22.498C82.4431 22.0399 82.3335 21.6415 82.1144 21.3029C81.8953 20.9643 81.5467 20.795 81.0687 20.795H78.9772V24.1114H81.0687Z" fill="#212121"/>
<path d="M93.2313 36.1522C93.0122 36.1522 92.8229 36.0725 92.6636 35.9132C92.5042 35.7538 92.4246 35.5646 92.4246 35.3455V16.0444C92.4246 15.8253 92.5042 15.6361 92.6636 15.4768C92.8229 15.3174 93.0122 15.2377 93.2313 15.2377H102.075C104.943 15.2377 107.184 15.8851 108.798 17.1798C110.411 18.4546 111.218 20.2273 111.218 22.498C111.218 23.7927 110.929 24.9381 110.351 25.934C109.774 26.91 108.987 27.7167 107.991 28.3541L111.666 35.1662C111.726 35.2857 111.755 35.3953 111.755 35.4949C111.755 35.6741 111.686 35.8335 111.546 35.9729C111.427 36.0924 111.277 36.1522 111.098 36.1522H104.973C104.615 36.1522 104.326 36.0725 104.107 35.9132C103.908 35.7339 103.768 35.5447 103.688 35.3455L101.119 29.6388H99.894V35.3455C99.894 35.5646 99.8143 35.7538 99.655 35.9132C99.4956 36.0725 99.3064 36.1522 99.0873 36.1522H93.2313ZM102.075 23.9621C102.513 23.9621 102.852 23.8226 103.091 23.5438C103.33 23.245 103.449 22.8765 103.449 22.4383C103.449 22.0001 103.33 21.6216 103.091 21.3029C102.872 20.9643 102.533 20.795 102.075 20.795H99.894V23.9621H102.075Z" fill="#212121"/>
<path d="M123.282 36.451C120.294 36.451 117.914 35.7638 116.141 34.3894C114.369 33.015 113.423 31.0132 113.303 28.384C113.283 27.8462 113.273 26.9797 113.273 25.7846C113.273 24.5696 113.283 23.6832 113.303 23.1255C113.363 21.4125 113.811 19.9385 114.648 18.7036C115.504 17.4686 116.669 16.5324 118.143 15.8951C119.617 15.2577 121.33 14.939 123.282 14.939C125.234 14.939 126.947 15.2577 128.421 15.8951C129.895 16.5324 131.05 17.4686 131.887 18.7036C132.744 19.9385 133.202 21.4125 133.261 23.1255C133.301 24.2409 133.321 25.1273 133.321 25.7846C133.321 26.4419 133.301 27.3084 133.261 28.384C133.142 31.0132 132.196 33.015 130.423 34.3894C128.65 35.7638 126.27 36.451 123.282 36.451ZM123.282 30.6248C123.959 30.6248 124.487 30.4256 124.866 30.0272C125.264 29.6289 125.473 29.0214 125.493 28.2047C125.533 27.0494 125.553 26.2029 125.553 25.6651C125.553 25.0874 125.533 24.2608 125.493 23.1852C125.473 22.3686 125.264 21.7611 124.866 21.3627C124.467 20.9643 123.94 20.7651 123.282 20.7651C122.625 20.7651 122.097 20.9643 121.699 21.3627C121.3 21.7611 121.091 22.3686 121.071 23.1852C121.051 23.723 121.041 24.5496 121.041 25.6651C121.041 26.7805 121.051 27.6271 121.071 28.2047C121.091 29.0214 121.29 29.6289 121.669 30.0272C122.067 30.4256 122.605 30.6248 123.282 30.6248Z" fill="#212121"/>
<path d="M144.143 36.451C142.469 36.451 140.916 36.1621 139.482 35.5845C138.047 35.0069 136.892 34.1703 136.016 33.0748C135.139 31.9593 134.691 30.6447 134.671 29.1309C134.671 28.9516 134.731 28.8023 134.851 28.6827C134.99 28.5433 135.149 28.4736 135.329 28.4736H141.424C141.742 28.4736 141.981 28.5533 142.141 28.7126C142.32 28.852 142.489 29.0911 142.649 29.4297C142.848 29.8679 143.067 30.1766 143.306 30.3559C143.565 30.5352 143.923 30.6248 144.382 30.6248C144.959 30.6248 145.397 30.4455 145.696 30.087C145.995 29.7085 146.144 29.0811 146.144 28.2047V21.3029H137.271C137.052 21.3029 136.862 21.2233 136.703 21.0639C136.544 20.9046 136.464 20.7153 136.464 20.4962V16.0444C136.464 15.8253 136.544 15.6361 136.703 15.4768C136.862 15.3174 137.052 15.2377 137.271 15.2377H153.076C153.295 15.2377 153.484 15.3174 153.644 15.4768C153.803 15.6361 153.883 15.8253 153.883 16.0444V28.4437C153.883 30.2165 153.454 31.7104 152.598 32.9254C151.761 34.1205 150.606 35.0069 149.132 35.5845C147.678 36.1621 146.015 36.451 144.143 36.451Z" fill="#212121"/>
<path d="M157.801 36.1522C157.582 36.1522 157.393 36.0725 157.233 35.9132C157.074 35.7538 156.994 35.5646 156.994 35.3455V16.0444C156.994 15.8253 157.074 15.6361 157.233 15.4768C157.393 15.3174 157.582 15.2377 157.801 15.2377H173.128C173.348 15.2377 173.537 15.3174 173.696 15.4768C173.855 15.6361 173.935 15.8253 173.935 16.0444V20.2572C173.935 20.4763 173.855 20.6655 173.696 20.8249C173.537 20.9842 173.348 21.0639 173.128 21.0639H164.165V22.9462H172.471C172.69 22.9462 172.879 23.0259 173.039 23.1852C173.198 23.3446 173.278 23.5338 173.278 23.7529V27.637C173.278 27.8561 173.198 28.0453 173.039 28.2047C172.879 28.364 172.69 28.4437 172.471 28.4437H164.165V30.326H173.367C173.587 30.326 173.776 30.4057 173.935 30.565C174.094 30.7244 174.174 30.9136 174.174 31.1327V35.3455C174.174 35.5646 174.094 35.7538 173.935 35.9132C173.776 36.0725 173.587 36.1522 173.367 36.1522H157.801Z" fill="#212121"/>
<path d="M186.248 36.451C183.24 36.451 180.85 35.7937 179.077 34.479C177.305 33.1445 176.358 31.1028 176.239 28.3541C176.219 27.8163 176.209 26.9399 176.209 25.7248C176.209 24.4899 176.219 23.5936 176.239 23.0358C176.358 20.3668 177.325 18.355 179.137 17.0005C180.95 15.6262 183.32 14.939 186.248 14.939C188.041 14.939 189.684 15.2079 191.178 15.7457C192.692 16.2835 193.917 17.13 194.853 18.2853C195.809 19.4206 196.297 20.8548 196.317 22.5877C196.317 22.7669 196.247 22.9263 196.108 23.0657C195.988 23.1852 195.839 23.245 195.66 23.245H189.564C189.246 23.245 189.007 23.1852 188.847 23.0657C188.708 22.9462 188.578 22.7171 188.459 22.3785C188.24 21.781 187.951 21.3627 187.593 21.1237C187.234 20.8846 186.776 20.7651 186.218 20.7651C185.521 20.7651 184.983 20.9544 184.605 21.3328C184.226 21.6913 184.027 22.3088 184.007 23.1852C183.987 23.723 183.977 24.5496 183.977 25.6651C183.977 26.7805 183.987 27.6271 184.007 28.2047C184.027 29.0811 184.226 29.7085 184.605 30.087C184.983 30.4455 185.521 30.6248 186.218 30.6248C187.353 30.6248 188.1 30.087 188.459 29.0114C188.559 28.6728 188.678 28.4437 188.817 28.3242C188.977 28.2047 189.226 28.1449 189.564 28.1449H195.66C195.839 28.1449 195.988 28.2147 196.108 28.3541C196.247 28.4736 196.317 28.623 196.317 28.8023C196.297 30.5352 195.809 31.9793 194.853 33.1345C193.917 34.2699 192.692 35.1065 191.178 35.6443C189.684 36.1821 188.041 36.451 186.248 36.451Z" fill="#212121"/>
<path d="M204.127 36.1522C203.908 36.1522 203.718 36.0725 203.559 35.9132C203.4 35.7538 203.32 35.5646 203.32 35.3455V21.6615H198.36C198.141 21.6615 197.952 21.5818 197.793 21.4224C197.633 21.2631 197.554 21.0739 197.554 20.8548V16.0444C197.554 15.8253 197.633 15.6361 197.793 15.4768C197.952 15.3174 198.141 15.2377 198.36 15.2377H215.869C216.088 15.2377 216.277 15.3174 216.436 15.4768C216.596 15.6361 216.675 15.8253 216.675 16.0444V20.8548C216.675 21.0739 216.596 21.2631 216.436 21.4224C216.277 21.5818 216.088 21.6615 215.869 21.6615H210.909V35.3455C210.909 35.5646 210.829 35.7538 210.67 35.9132C210.511 36.0725 210.321 36.1522 210.102 36.1522H204.127Z" fill="#212121"/>
<path d="M226.5 36.451C224.847 36.451 223.413 36.192 222.198 35.6741C221.003 35.1563 220.086 34.479 219.449 33.6425C218.812 32.786 218.473 31.8697 218.433 30.8937C218.433 30.7343 218.493 30.5949 218.612 30.4754C218.752 30.336 218.911 30.2663 219.09 30.2663H220.614C220.993 30.2663 221.252 30.4654 221.391 30.8638C221.57 31.7004 222.078 32.4175 222.915 33.015C223.771 33.6126 224.966 33.9114 226.5 33.9114C228.153 33.9114 229.398 33.6225 230.235 33.0449C231.071 32.4473 231.49 31.6207 231.49 30.565C231.49 29.8878 231.281 29.3401 230.862 28.9218C230.464 28.5035 229.866 28.135 229.07 27.8163C228.273 27.4976 227.078 27.0992 225.484 26.6212C223.931 26.183 222.696 25.7149 221.779 25.2169C220.863 24.719 220.176 24.1015 219.718 23.3645C219.26 22.6275 219.031 21.7013 219.031 20.5859C219.031 19.5103 219.32 18.5442 219.897 17.6877C220.495 16.8312 221.341 16.164 222.437 15.6859C223.532 15.1879 224.837 14.939 226.351 14.939C227.904 14.939 229.239 15.2178 230.354 15.7755C231.47 16.3133 232.316 17.0005 232.894 17.8371C233.472 18.6737 233.78 19.5103 233.82 20.3468C233.82 20.5062 233.76 20.6456 233.641 20.7651C233.541 20.8846 233.392 20.9444 233.193 20.9444H231.609C231.191 20.9444 230.932 20.7552 230.832 20.3767C230.713 19.5401 230.245 18.853 229.428 18.3152C228.612 17.7574 227.586 17.4786 226.351 17.4786C224.996 17.4786 223.931 17.7375 223.154 18.2554C222.377 18.7733 221.989 19.5401 221.989 20.556C221.989 21.2332 222.168 21.7909 222.526 22.2291C222.905 22.6673 223.473 23.0558 224.229 23.3944C224.986 23.7131 226.092 24.0816 227.546 24.4999C229.239 24.958 230.573 25.436 231.549 25.934C232.525 26.412 233.253 27.0195 233.731 27.7565C234.209 28.4736 234.448 29.3898 234.448 30.5053C234.448 32.3577 233.731 33.8118 232.296 34.8674C230.862 35.9231 228.93 36.451 226.5 36.451Z" fill="#212121"/>
<path d="M243.389 36.1522C243.19 36.1522 243.02 36.0924 242.881 35.9729C242.761 35.8335 242.702 35.6642 242.702 35.465V17.8969H236.965C236.766 17.8969 236.597 17.8371 236.457 17.7176C236.338 17.5782 236.278 17.4089 236.278 17.2097V15.9548C236.278 15.7556 236.338 15.5863 236.457 15.4469C236.597 15.3075 236.766 15.2377 236.965 15.2377H251.366C251.585 15.2377 251.755 15.3075 251.874 15.4469C252.014 15.5664 252.083 15.7357 252.083 15.9548V17.2097C252.083 17.4089 252.014 17.5782 251.874 17.7176C251.735 17.8371 251.565 17.8969 251.366 17.8969H245.659V35.465C245.659 35.6642 245.59 35.8335 245.45 35.9729C245.311 36.0924 245.142 36.1522 244.942 36.1522H243.389Z" fill="#212121"/>
<path d="M251.811 36.1522C251.651 36.1522 251.512 36.0924 251.393 35.9729C251.273 35.8534 251.213 35.714 251.213 35.5546C251.213 35.3953 251.223 35.2857 251.243 35.226L258.653 15.8951C258.812 15.4568 259.131 15.2377 259.609 15.2377H261.641C262.119 15.2377 262.437 15.4568 262.597 15.8951L269.976 35.226L270.036 35.5546C270.036 35.714 269.977 35.8534 269.857 35.9729C269.737 36.0924 269.598 36.1522 269.439 36.1522H267.915C267.696 36.1522 267.527 36.1024 267.407 36.0028C267.288 35.8833 267.208 35.7638 267.168 35.6443L265.525 31.4016H255.725L254.082 35.6443C254.042 35.7638 253.952 35.8833 253.813 36.0028C253.693 36.1024 253.534 36.1522 253.335 36.1522H251.811ZM264.658 28.8321L260.625 18.2255L256.591 28.8321H264.658Z" fill="#212121"/>
<path d="M273.918 36.1522C273.719 36.1522 273.55 36.0924 273.41 35.9729C273.291 35.8335 273.231 35.6642 273.231 35.465V15.9548C273.231 15.7357 273.291 15.5664 273.41 15.4469C273.55 15.3075 273.719 15.2377 273.918 15.2377H281.208C283.499 15.2377 285.292 15.7755 286.586 16.8511C287.881 17.9267 288.528 19.4804 288.528 21.5121C288.528 23.0259 288.15 24.2708 287.393 25.2468C286.656 26.2228 285.61 26.9 284.256 27.2785L288.857 35.226C288.917 35.3455 288.947 35.455 288.947 35.5546C288.947 35.714 288.877 35.8534 288.737 35.9729C288.618 36.0924 288.478 36.1522 288.319 36.1522H286.885C286.586 36.1522 286.347 36.0825 286.168 35.943C286.009 35.8036 285.859 35.6044 285.72 35.3455L281.387 27.7565H276.159V35.465C276.159 35.6642 276.089 35.8335 275.95 35.9729C275.81 36.0924 275.641 36.1522 275.442 36.1522H273.918ZM281.089 25.2169C284.057 25.2169 285.54 23.972 285.54 21.4822C285.54 18.9924 284.057 17.7475 281.089 17.7475H276.159V25.2169H281.089Z" fill="#212121"/>
<path d="M297.834 36.1522C297.635 36.1522 297.466 36.0924 297.326 35.9729C297.207 35.8335 297.147 35.6642 297.147 35.465V17.8969H291.41C291.211 17.8969 291.042 17.8371 290.902 17.7176C290.783 17.5782 290.723 17.4089 290.723 17.2097V15.9548C290.723 15.7556 290.783 15.5863 290.902 15.4469C291.042 15.3075 291.211 15.2377 291.41 15.2377H305.811C306.03 15.2377 306.2 15.3075 306.319 15.4469C306.459 15.5664 306.528 15.7357 306.528 15.9548V17.2097C306.528 17.4089 306.459 17.5782 306.319 17.7176C306.18 17.8371 306.011 17.8969 305.811 17.8969H300.105V35.465C300.105 35.6642 300.035 35.8335 299.896 35.9729C299.756 36.0924 299.587 36.1522 299.388 36.1522H297.834Z" fill="#212121"/>
<path d="M310.565 36.1522C310.366 36.1522 310.197 36.0924 310.057 35.9729C309.938 35.8335 309.878 35.6642 309.878 35.465V15.9548C309.878 15.7357 309.938 15.5664 310.057 15.4469C310.197 15.3075 310.366 15.2377 310.565 15.2377H322.905C323.104 15.2377 323.263 15.3075 323.383 15.4469C323.522 15.5664 323.592 15.7357 323.592 15.9548V17.0902C323.592 17.2894 323.532 17.4587 323.412 17.5981C323.293 17.7176 323.124 17.7774 322.905 17.7774H312.746V24.3206H322.247C322.446 24.3206 322.606 24.3903 322.725 24.5297C322.865 24.6492 322.934 24.8185 322.934 25.0377V26.1431C322.934 26.3423 322.865 26.5116 322.725 26.6511C322.606 26.7706 322.446 26.8303 322.247 26.8303H312.746V33.6126H323.144C323.363 33.6126 323.532 33.6723 323.651 33.7918C323.771 33.9114 323.831 34.0807 323.831 34.2998V35.465C323.831 35.6642 323.761 35.8335 323.622 35.9729C323.502 36.0924 323.343 36.1522 323.144 36.1522H310.565Z" fill="#212121"/>
<path d="M328.684 36.1522C328.485 36.1522 328.316 36.0924 328.176 35.9729C328.057 35.8335 327.997 35.6642 327.997 35.465V15.9548C327.997 15.7357 328.057 15.5664 328.176 15.4469C328.316 15.3075 328.485 15.2377 328.684 15.2377H335.974C338.265 15.2377 340.058 15.7755 341.352 16.8511C342.647 17.9267 343.294 19.4804 343.294 21.5121C343.294 23.0259 342.916 24.2708 342.159 25.2468C341.422 26.2228 340.376 26.9 339.022 27.2785L343.623 35.226C343.683 35.3455 343.713 35.455 343.713 35.5546C343.713 35.714 343.643 35.8534 343.504 35.9729C343.384 36.0924 343.245 36.1522 343.085 36.1522H341.651C341.352 36.1522 341.113 36.0825 340.934 35.943C340.775 35.8036 340.625 35.6044 340.486 35.3455L336.154 27.7565H330.925V35.465C330.925 35.6642 330.855 35.8335 330.716 35.9729C330.576 36.0924 330.407 36.1522 330.208 36.1522H328.684ZM335.855 25.2169C338.823 25.2169 340.307 23.972 340.307 21.4822C340.307 18.9924 338.823 17.7475 335.855 17.7475H330.925V25.2169H335.855Z" fill="#212121"/>
</svg>
