<svg width="244" height="232" viewBox="0 0 244 232" fill="none" xmlns="http://www.w3.org/2000/svg">
<path d="M110.219 28.0013C136.107 15.351 150.483 48.0255 176.297 60.8265C189.415 67.3315 205.901 63.3843 209.893 77.4717C214.325 93.1088 202.977 103.951 200.622 120.033C197.741 139.715 214.782 144.848 211.497 164.466C206.446 194.639 158.053 154.939 132.158 171.228C113.988 182.658 121.12 202.466 101.626 211.452C69.5447 226.241 24.2498 164.332 35.2606 130.766C43.4174 105.901 69.8183 113.031 85.937 92.4149C103.31 70.1943 84.8765 40.3846 110.219 28.0013Z" fill="#000F28"/>
<circle cx="121.994" cy="116.031" r="59.9568" fill="#1FA5FF"/>
<circle cx="196.075" cy="102.075" r="3.07471" fill="url(#paint0_linear_629_1417)"/>
<circle cx="164" cy="184" r="4" fill="url(#paint1_linear_629_1417)"/>
<circle cx="52" cy="161" r="5" fill="url(#paint2_linear_629_1417)"/>
<circle cx="163.504" cy="45.3135" r="6.14941" fill="url(#paint3_linear_629_1417)"/>
<circle cx="57" cy="56" r="8" fill="url(#paint4_linear_629_1417)"/>
<path d="M81.6464 115.917L95.8841 115.726L96.945 116.008C99.8203 117.689 102.527 119.611 105.055 121.785C106.88 123.355 108.625 125.066 110.28 126.918C115.387 118.574 120.83 110.915 126.58 103.869C132.876 96.1492 139.559 89.1439 146.579 82.7525L147.967 82.209H163.503L160.37 85.7419C150.743 96.6022 142.008 107.825 134.116 119.4C126.224 130.985 119.164 142.942 112.888 155.252L110.935 159.077L109.14 155.181C105.829 147.965 101.863 141.342 97.1334 135.424C92.404 129.505 86.9012 124.251 80.4863 119.782L81.6464 115.917Z" fill="white"/>
<defs>
<linearGradient id="paint0_linear_629_1417" x1="196.075" y1="99" x2="196.075" y2="105.149" gradientUnits="userSpaceOnUse">
<stop stop-color="#1FA5FF"/>
<stop offset="1" stop-color="#0080D6"/>
</linearGradient>
<linearGradient id="paint1_linear_629_1417" x1="164" y1="180" x2="164" y2="188" gradientUnits="userSpaceOnUse">
<stop stop-color="#1FA5FF"/>
<stop offset="1" stop-color="#0080D6"/>
</linearGradient>
<linearGradient id="paint2_linear_629_1417" x1="52" y1="156" x2="52" y2="166" gradientUnits="userSpaceOnUse">
<stop stop-color="#1FA5FF"/>
<stop offset="1" stop-color="#0080D6"/>
</linearGradient>
<linearGradient id="paint3_linear_629_1417" x1="163.504" y1="39.1641" x2="163.504" y2="51.4629" gradientUnits="userSpaceOnUse">
<stop stop-color="#1FA5FF"/>
<stop offset="1" stop-color="#0080D6"/>
</linearGradient>
<linearGradient id="paint4_linear_629_1417" x1="57" y1="48" x2="57" y2="64" gradientUnits="userSpaceOnUse">
<stop stop-color="#1FA5FF"/>
<stop offset="1" stop-color="#0080D6"/>
</linearGradient>
</defs>
</svg>
