<svg width="222" height="46" viewBox="0 0 222 46" fill="none" xmlns="http://www.w3.org/2000/svg">
<path d="M43.027 36.8058H10.2191C6.79181 36.8058 4.00537 33.9701 4.00537 30.4823V7.58708C4.00537 4.36708 6.58011 1.74683 9.74419 1.74683H46.3284C49.4925 1.74683 52.0672 4.36708 52.0672 7.58708V29.178C52.0672 29.9699 51.4378 30.6162 50.654 30.6162C49.8758 30.6162 49.2465 29.9699 49.2465 29.178V7.58708C49.2465 5.95088 47.9362 4.61746 46.3284 4.61746H9.74419C8.1364 4.61746 6.82614 5.95088 6.82614 7.58708V30.4823C6.82614 32.3863 8.3481 33.9294 10.2191 33.9294H43.027C43.8052 33.9294 44.4345 34.5757 44.4345 35.3676C44.4345 36.1595 43.8052 36.8058 43.027 36.8058Z" fill="#808EA4"/>
<path d="M28.0361 21.7306L50.6538 7.58708C50.6538 5.15316 48.7199 3.18506 46.3283 3.18506H9.74402C7.35237 3.18506 5.41846 5.15316 5.41846 7.58708L28.0361 21.7306Z" fill="#808EA4"/>
<path fill-rule="evenodd" clip-rule="evenodd" d="M28.0363 23.1689C27.7788 23.1689 27.5214 23.0932 27.2982 22.9534L4.68053 8.80987C4.26285 8.54784 4.00537 8.08202 4.00537 7.58708C4.00537 4.36708 6.58011 1.74683 9.74419 1.74683H46.3284C49.4925 1.74683 52.0672 4.36708 52.0672 7.58708C52.0672 8.08202 51.8098 8.54784 51.3921 8.80987L28.7744 22.9534C28.5512 23.0932 28.2938 23.1689 28.0363 23.1689ZM6.92341 6.84176L28.0363 20.042L49.1492 6.84176C48.8231 5.56657 47.6844 4.61746 46.3284 4.61746H9.74419C8.38816 4.61746 7.24955 5.56657 6.92341 6.84176Z" fill="#808EA4"/>
<path d="M41.1847 41.6096H15.5231C14.745 41.6096 14.1099 40.9633 14.1099 40.1714C14.1099 39.3795 14.745 38.739 15.5231 38.739H41.1847C41.9686 38.739 42.598 39.3795 42.598 40.1714C42.598 40.9633 41.9686 41.6096 41.1847 41.6096Z" fill="#808EA4"/>
<path d="M40.8867 31.7749L49.8354 37.8422L40.8867 43.9038V31.7749Z" fill="#808EA4"/>
<path fill-rule="evenodd" clip-rule="evenodd" d="M40.887 45.342C40.6582 45.342 40.4293 45.2838 40.2233 45.1732C39.7656 44.9228 39.4795 44.4337 39.4795 43.9038V31.7749C39.4795 31.2451 39.7656 30.756 40.2233 30.5114C40.681 30.261 41.236 30.2843 41.6709 30.5813L50.6195 36.6428C51.0143 36.9106 51.2489 37.359 51.2489 37.8423C51.2489 38.3198 51.0143 38.7681 50.6195 39.036L41.6709 45.1033C41.4363 45.2605 41.1617 45.342 40.887 45.342ZM42.3003 34.4592V41.2253L47.2895 37.8423L42.3003 34.4592Z" fill="#808EA4"/>
<path d="M66.4512 28.4618C66.1536 27.7165 65.9133 27.1924 65.7302 26.8896C65.57 26.5868 65.4442 26.3539 65.3526 26.1909C65.284 26.0046 65.2267 25.8066 65.181 25.597C65.1581 25.3873 65.1466 25.003 65.1466 24.444V15.1858C65.1466 15.0461 65.1352 14.9646 65.1123 14.9413C65.1123 14.918 65.1123 14.8248 65.1123 14.6618C65.1123 14.2425 65.2382 13.8815 65.4899 13.5787C65.7646 13.2759 65.9477 12.9266 66.0392 12.5306C66.085 12.321 66.2566 12.0415 66.5542 11.6921C66.8517 11.3428 67.1835 10.9934 67.5497 10.644C67.9159 10.2714 68.2821 9.93367 68.6483 9.63088C69.0145 9.3281 69.3006 9.10683 69.5065 8.96708C69.8269 8.64101 70.1931 8.51291 70.6051 8.58278C70.7882 8.5362 70.9598 8.50126 71.12 8.47797C71.2802 8.45468 71.429 8.44303 71.5663 8.44303C71.7952 8.44303 72.0469 8.43139 72.3216 8.4081C72.6191 8.3848 73.1341 8.34987 73.8664 8.30329C73.8893 8.30329 74.0037 8.34987 74.2097 8.44303C74.4386 8.51291 74.656 8.59442 74.862 8.68759C75.0909 8.78075 75.2854 8.86227 75.4456 8.93215C75.6287 9.00202 75.7088 9.03696 75.6859 9.03696C75.7775 9.08354 75.8461 9.11848 75.8919 9.14177C75.9377 9.14177 76.0178 9.16506 76.1322 9.21164C76.5899 9.46784 76.9561 9.74734 77.2308 10.0501C77.5283 10.3529 77.7686 10.679 77.9517 11.0283C78.1577 11.3544 78.3179 11.6921 78.4323 12.0415C78.5696 12.3909 78.6955 12.7286 78.8099 13.0547L78.9472 16.0942C78.9472 16.2106 78.9015 16.362 78.8099 16.5483C78.7413 16.7114 78.6497 16.8861 78.5353 17.0724C78.4209 17.2354 78.295 17.3752 78.1577 17.4916C78.0203 17.6081 77.883 17.6663 77.7457 17.6663C77.4482 17.6663 77.185 17.678 76.9561 17.7013C76.7501 17.7013 76.5327 17.7129 76.3038 17.7362C76.075 17.7362 75.8232 17.7478 75.5486 17.7711C75.2968 17.7711 74.9879 17.7595 74.6217 17.7362C74.5759 17.7129 74.5187 17.7013 74.45 17.7013C74.4043 17.7013 74.3585 17.643 74.3127 17.5266C74.0839 17.1539 73.9008 16.9327 73.7634 16.8628C73.6261 16.7929 73.5575 16.6532 73.5575 16.4435C73.5575 16.3737 73.5689 16.1757 73.5918 15.8496C73.6147 15.5235 73.6261 15.3139 73.6261 15.2208V14.2425C73.6719 14.1028 73.5918 14.0096 73.3858 13.963C73.1798 13.9165 72.9395 13.8815 72.6649 13.8582C72.3902 13.8349 72.127 13.8349 71.8753 13.8582C71.6235 13.8582 71.4862 13.8466 71.4633 13.8233C71.326 13.8699 71.1887 13.9165 71.0514 13.963C70.9141 14.0096 70.8683 14.161 70.9141 14.4172L71.12 25.7018C71.1658 26.0046 71.3146 26.2142 71.5663 26.3306C71.8181 26.4238 72.0813 26.482 72.3559 26.5053C72.6534 26.5053 72.9281 26.482 73.1798 26.4354C73.4545 26.3889 73.6147 26.3772 73.6604 26.4005C73.7978 26.3306 73.8664 26.2491 73.8664 26.1559C73.8893 26.0395 73.8779 25.923 73.8321 25.8066C73.8092 25.6901 73.7634 25.5737 73.6948 25.4572C73.649 25.3175 73.6261 25.1777 73.6261 25.038C73.6261 24.9448 73.649 24.8516 73.6948 24.7585C73.7406 24.642 73.7634 24.5372 73.7634 24.444C73.7634 24.3742 73.7406 24.2228 73.6948 23.9899C73.649 23.7337 73.6261 23.5473 73.6261 23.4309C73.6261 23.2911 73.649 23.1048 73.6948 22.8719C73.7634 22.6157 73.8435 22.3711 73.9351 22.1382C74.0495 21.882 74.1868 21.6608 74.347 21.4744C74.5301 21.2881 74.7476 21.1949 74.9993 21.1949C75.2053 21.1949 75.4342 21.2182 75.6859 21.2648C75.9377 21.2881 76.4068 21.2997 77.0934 21.2997C77.2308 21.2997 77.3337 21.2881 77.4024 21.2648C77.494 21.2415 77.6656 21.2182 77.9173 21.1949C78.1233 21.3813 78.3293 21.5676 78.5353 21.7539C78.7413 21.9402 78.89 22.1965 78.9816 22.5225V27.0643C78.9358 27.2739 78.8671 27.4952 78.7756 27.7281C78.7069 27.961 78.6268 28.1706 78.5353 28.357C78.4209 28.6365 78.1691 28.9975 77.78 29.44C77.391 29.8592 76.9676 30.2785 76.5098 30.6977C76.0521 31.0937 75.6058 31.443 75.171 31.7458C74.7361 32.0253 74.4271 32.1651 74.2441 32.1651C74.1525 32.1651 73.8664 32.1651 73.3858 32.1651C72.9052 32.1418 72.3788 32.1068 71.8066 32.0602C71.2574 31.9904 70.731 31.9089 70.2275 31.8157C69.7468 31.6992 69.4608 31.5478 69.3692 31.3615C69.2777 31.2916 69.209 31.2567 69.1632 31.2567C69.1175 31.2334 69.0717 31.2101 69.0259 31.1868C69.003 31.1635 68.9687 31.1286 68.9229 31.082C68.9 31.0354 68.8428 30.9539 68.7513 30.8375L66.4512 28.4618ZM82.6549 31.6061L82.1056 19.6927L82.0026 13.1944C82.0026 13.1246 81.9912 12.88 81.9683 12.4608C81.9683 12.0415 81.9912 11.5873 82.0369 11.0982C82.0827 10.6091 82.1857 10.1666 82.3459 9.77063C82.529 9.37468 82.8151 9.15341 83.2042 9.10683C83.2957 9.10683 83.3987 9.13012 83.5131 9.1767C83.6276 9.19999 83.9709 9.18835 84.543 9.14177C84.6346 9.07189 84.8062 9.07189 85.058 9.14177C85.3326 9.21164 85.6874 9.19999 86.1222 9.10683C86.1909 9.1767 86.2824 9.25822 86.3968 9.35139C86.5342 9.44455 86.66 9.56101 86.7745 9.70075C86.9118 9.81721 87.0148 9.94531 87.0834 10.0851C87.1521 10.2015 87.1635 10.318 87.1178 10.4344L87.4267 15.0461C87.4038 15.1625 87.381 15.3372 87.3581 15.5701C87.3581 15.7797 87.3581 15.9894 87.3581 16.199C87.3581 16.4086 87.3581 16.6066 87.3581 16.7929C87.3581 16.9559 87.3581 17.0608 87.3581 17.1073C87.3581 17.2238 87.4611 17.317 87.667 17.3868C87.873 17.4567 88.1019 17.5149 88.3536 17.5615C88.6054 17.5848 88.8457 17.6081 89.0746 17.6314C89.3034 17.6314 89.4408 17.6314 89.4865 17.6314C89.5552 17.6314 89.5895 17.6081 89.5895 17.5615C89.5895 17.4916 89.6124 17.4567 89.6582 17.4567L91.615 17.317C91.6379 17.317 91.7065 17.3286 91.821 17.3519C91.9354 17.3519 92.0613 17.3519 92.1986 17.3519C92.3588 17.3286 92.5076 17.2937 92.6449 17.2471C92.8051 17.2005 92.931 17.119 93.0225 17.0025C93.0912 17.0957 93.1598 17.0258 93.2285 16.7929C93.2971 16.56 93.3315 16.362 93.3315 16.199C93.3544 16.3154 93.3544 16.1757 93.3315 15.7797C93.3086 15.3605 93.2743 14.8714 93.2285 14.3124C93.2056 13.7534 93.1713 13.2177 93.1255 12.7053C93.1026 12.1929 93.0912 11.9018 93.0912 11.8319C93.0912 11.5524 93.1026 11.3428 93.1255 11.203C93.1484 11.04 93.1255 10.8537 93.0568 10.644C93.0568 10.2947 93.1827 9.95696 93.4345 9.63088C93.6862 9.28151 93.938 9.02531 94.1897 8.86227C94.4186 8.81569 94.6703 8.76911 94.945 8.72253C95.4714 8.65265 96.1351 8.6643 96.9361 8.75746C97.3023 8.80405 97.5769 8.89721 97.76 9.03696C97.966 9.15341 98.1148 9.31645 98.2063 9.52607C98.3208 9.7124 98.3894 9.92202 98.4123 10.1549C98.4581 10.3646 98.481 10.5742 98.481 10.7838L99.0989 28.7413C99.0989 28.8111 99.0531 28.9858 98.9616 29.2653C98.8929 29.5448 98.7899 29.8476 98.6526 30.1737C98.5153 30.4765 98.3665 30.7559 98.2063 31.0121C98.069 31.2683 97.9317 31.3964 97.7944 31.3964L96.1122 31.5013C95.9978 31.5013 95.8604 31.5246 95.7002 31.5711C95.5629 31.6177 95.4485 31.6527 95.3569 31.6759C94.945 31.6992 94.6246 31.5595 94.3957 31.2567C94.1668 30.9539 93.8922 30.6278 93.5718 30.2785L93.4345 25.9463C93.5031 25.3175 93.526 24.6304 93.5031 23.8851C93.4802 23.1397 93.526 22.4527 93.6404 21.8238C93.526 21.8704 93.3887 21.8704 93.2285 21.8238C93.0912 21.7772 92.8852 21.7423 92.6105 21.719C92.3359 21.6957 91.9583 21.6957 91.4777 21.719C91.0199 21.7423 90.4134 21.8238 89.6582 21.9635C89.5437 21.8471 89.4293 21.8238 89.3149 21.8937C89.2233 21.9635 89.1203 22.0101 89.0059 22.0334C88.9144 22.0334 88.8343 22.0101 88.7656 21.9635C88.7198 21.917 88.6397 21.9053 88.5253 21.9286C88.4566 21.9286 88.3651 21.9402 88.2507 21.9635C88.1591 21.9868 88.0676 22.0334 87.976 22.1033C87.8845 22.1499 87.8044 22.2081 87.7357 22.278C87.6899 22.3478 87.7014 22.4294 87.77 22.5225L87.873 29.7195C87.8273 29.9291 87.8044 30.1737 87.8044 30.4532C87.8273 30.7094 87.8158 30.9656 87.77 31.2218C87.7243 31.478 87.6327 31.7109 87.4954 31.9205C87.3581 32.1068 87.1407 32.2349 86.8431 32.3048C86.4083 32.4213 86.0535 32.5028 85.7789 32.5494C85.5271 32.5727 85.3212 32.5843 85.161 32.5843C85.0008 32.5843 84.8749 32.5727 84.7833 32.5494C84.7147 32.5261 84.6689 32.5144 84.646 32.5144C84.1425 32.561 83.7878 32.5261 83.5818 32.4096C83.3987 32.2932 83.1584 32.1418 82.8609 31.9554C82.7235 31.8856 82.6549 31.7691 82.6549 31.6061ZM101.605 30.523C101.605 30.3833 101.651 30.0339 101.742 29.4749C101.834 28.8927 101.948 28.2056 102.086 27.4137C102.246 26.6218 102.417 25.76 102.601 24.8283C102.784 23.8967 102.955 22.9883 103.115 22.1033C103.299 21.2182 103.459 20.403 103.596 19.6577C103.756 18.9124 103.882 18.3301 103.974 17.9109C104.042 17.6314 104.111 17.2005 104.18 16.6182C104.248 16.0359 104.34 15.3954 104.454 14.6967C104.569 13.9747 104.695 13.241 104.832 12.4957C104.992 11.7271 105.175 11.04 105.381 10.4344C105.61 9.80556 105.862 9.29316 106.137 8.89721C106.411 8.50126 106.732 8.30329 107.098 8.30329C107.418 8.30329 107.945 8.31493 108.677 8.33822C109.409 8.36151 110.165 8.41974 110.943 8.51291L110.977 8.61772C111.114 8.80405 111.217 8.95544 111.286 9.07189C111.355 9.16506 111.4 9.25822 111.423 9.35139C111.446 9.44455 111.458 9.52607 111.458 9.59594C111.481 9.66582 111.515 9.74734 111.561 9.8405C112.018 10.6557 112.304 11.3311 112.419 11.8668C112.556 12.3792 112.671 12.7635 112.762 13.0197C113.105 14.2542 113.369 15.1975 113.552 15.8496C113.735 16.5018 113.872 16.9792 113.964 17.282C114.055 17.6314 114.124 17.8177 114.17 17.841C114.215 18.0273 114.25 18.2137 114.273 18.4C114.318 18.5863 114.376 18.761 114.444 18.924C114.444 18.8775 114.444 18.8891 114.444 18.959C114.467 19.0056 114.479 19.0172 114.479 18.9939L116.95 28.6365C116.928 28.683 116.95 28.8111 117.019 29.0208C117.088 29.2071 117.156 29.4167 117.225 29.6496C117.317 29.8592 117.397 30.0805 117.465 30.3134C117.534 30.523 117.568 30.6744 117.568 30.7676C117.568 31.0937 117.488 31.3382 117.328 31.5013C117.168 31.6643 116.973 31.7808 116.744 31.8506C116.538 31.8972 116.321 31.9205 116.092 31.9205C115.886 31.8972 115.726 31.8856 115.612 31.8856C115.245 31.8856 114.856 31.8739 114.444 31.8506C114.055 31.804 113.723 31.5478 113.449 31.082C113.243 30.7559 113.083 30.4066 112.968 30.0339C112.877 29.638 112.762 29.2537 112.625 28.881C112.51 28.5083 112.362 28.159 112.179 27.8329C112.018 27.5068 111.767 27.2273 111.423 26.9944C111.378 26.9944 111.332 26.9828 111.286 26.9595C111.24 26.9362 111.103 26.9246 110.874 26.9246C110.645 26.9013 110.279 26.8896 109.775 26.8896C109.295 26.8896 108.597 26.9246 107.681 26.9944C107.613 26.9944 107.533 26.9828 107.441 26.9595C107.35 26.9129 107.292 26.8663 107.269 26.8197C107.086 27.2856 106.949 27.8096 106.857 28.3919C106.789 28.9509 106.709 29.4866 106.617 29.999C106.594 30.0456 106.583 30.0689 106.583 30.0689C106.583 30.0689 106.583 30.1271 106.583 30.2435C106.583 30.919 106.4 31.3848 106.034 31.641C105.69 31.8972 105.198 32.0253 104.557 32.0253H103.424C103.333 32.0253 103.184 31.9904 102.978 31.9205C102.795 31.8506 102.601 31.7575 102.395 31.641C102.189 31.5246 102.005 31.3732 101.845 31.1868C101.685 31.0005 101.605 30.7792 101.605 30.523ZM108.025 22.6623C107.979 22.6856 108.036 22.6856 108.196 22.6623C108.379 22.639 108.585 22.6157 108.814 22.5924C109.043 22.5691 109.261 22.5458 109.467 22.5225C109.695 22.4992 109.844 22.4876 109.913 22.4876H110.908C111.046 22.4876 111.137 22.441 111.183 22.3478V22.0334C111.183 21.8238 111.091 21.3813 110.908 20.7058C110.725 20.0304 110.519 19.3083 110.29 18.5397C110.062 17.7478 109.844 17.0142 109.638 16.3387C109.432 15.64 109.318 15.1625 109.295 14.9063C109.158 15.442 109.055 15.8496 108.986 16.1291C108.94 16.4086 108.894 16.6182 108.849 16.758C108.826 16.8977 108.814 16.9909 108.814 17.0375C108.814 17.0608 108.814 17.0957 108.814 17.1423C108.746 17.5382 108.608 18.0506 108.402 18.6795C108.219 19.3084 108.059 19.9256 107.922 20.5311C107.784 21.1134 107.704 21.6142 107.681 22.0334C107.658 22.4527 107.773 22.6623 108.025 22.6623ZM121.001 31.1519L120.795 19.9721L120.898 13.5787C120.853 13.602 120.773 13.6137 120.658 13.6137C120.544 13.6137 120.429 13.6137 120.315 13.6137C119.994 13.5205 119.571 13.5205 119.045 13.6137C118.518 13.6835 117.969 13.6835 117.397 13.6137C117.305 13.5671 117.111 13.4856 116.813 13.3691C116.516 13.2527 116.241 13.1013 115.989 12.9149C115.898 12.7286 115.852 12.5656 115.852 12.4258C115.852 12.2628 115.863 11.9949 115.886 11.6223C115.932 11.2496 115.932 11.0051 115.886 10.8886C115.726 10.3529 115.772 9.86379 116.024 9.42126C116.298 8.97873 116.63 8.59442 117.019 8.26835L117.465 8.30329C117.465 8.27999 117.648 8.26835 118.015 8.26835C118.404 8.24506 118.873 8.22177 119.422 8.19848C119.994 8.17518 120.601 8.16354 121.242 8.16354C121.883 8.14025 122.478 8.1286 123.027 8.1286C123.599 8.10531 124.08 8.09367 124.469 8.09367C124.858 8.09367 125.064 8.09367 125.087 8.09367C125.819 8.09367 126.563 8.09367 127.318 8.09367C128.073 8.09367 128.851 8.04708 129.653 7.95392C129.973 8.09367 130.293 8.27999 130.614 8.51291C130.957 8.72253 131.277 8.95544 131.575 9.21164C131.575 9.65417 131.575 10.0035 131.575 10.2597C131.575 10.5159 131.575 10.7023 131.575 10.8187C131.598 10.9352 131.609 11.0167 131.609 11.0633C131.632 11.1099 131.644 11.1448 131.644 11.1681C131.598 11.3078 131.518 11.5058 131.403 11.762C131.312 11.9949 131.186 12.2395 131.026 12.4957C130.888 12.7286 130.74 12.9499 130.579 13.1595C130.419 13.3458 130.282 13.4739 130.167 13.5438C130.099 13.5205 129.847 13.5205 129.412 13.5438C128.977 13.5438 128.497 13.5671 127.97 13.6137C127.467 13.637 126.998 13.6719 126.563 13.7185C126.128 13.7418 125.888 13.7534 125.842 13.7534L126.117 30.3833C126.162 30.523 126.128 30.6977 126.014 30.9073C125.922 31.0937 125.785 31.2916 125.602 31.5013C125.441 31.7109 125.27 31.9089 125.087 32.0952C124.904 32.2582 124.755 32.3747 124.64 32.4446C124.503 32.5144 124.308 32.5377 124.057 32.5144C123.805 32.4911 123.599 32.5028 123.439 32.5494L122.237 32.5843C122.169 32.5144 122.066 32.4213 121.928 32.3048C121.791 32.1883 121.654 32.0602 121.516 31.9205C121.379 31.7808 121.253 31.6527 121.139 31.5362C121.047 31.3965 121.001 31.2683 121.001 31.1519ZM133.944 31.4314C133.578 31.1053 133.291 30.8258 133.085 30.5929C132.88 30.36 132.731 30.1387 132.639 29.9291C132.548 29.7195 132.49 29.4982 132.468 29.2653C132.445 29.0091 132.433 28.7063 132.433 28.357C132.433 28.0076 132.433 27.7514 132.433 27.5883C132.456 27.4253 132.513 27.2856 132.605 27.1691C132.696 27.0527 132.845 26.9246 133.051 26.7848C133.257 26.6218 133.555 26.3772 133.944 26.0511L142.183 26.3306C142.458 26.3306 142.652 26.2375 142.767 26.0511C142.904 25.8415 142.984 25.6086 143.007 25.3524C143.053 25.0729 143.064 24.7934 143.041 24.5139C143.041 24.2344 143.041 24.0132 143.041 23.8501C143.041 23.7104 143.03 23.4775 143.007 23.1514C143.007 22.8253 142.984 22.6273 142.938 22.5575L137.205 22.4876C135.832 21.882 134.699 21.0319 133.806 19.9372C132.914 18.8425 132.468 17.6081 132.468 16.2339C132.468 15.8613 132.479 15.5119 132.502 15.1858C132.525 14.8365 132.536 14.4754 132.536 14.1028C132.536 13.7534 132.765 13.2876 133.223 12.7053C133.703 12.123 134.241 11.5524 134.836 10.9934C135.431 10.4111 136.004 9.91037 136.553 9.49113C137.102 9.07189 137.468 8.86227 137.651 8.86227C137.789 8.7924 138.018 8.75746 138.338 8.75746C138.681 8.75746 139.173 8.75746 139.814 8.75746C140.455 8.75746 141.29 8.74582 142.32 8.72253C143.35 8.69923 144.643 8.61772 146.2 8.47797C146.337 8.47797 146.486 8.54784 146.646 8.68759C146.829 8.80405 147.001 8.95544 147.161 9.14177C147.321 9.3048 147.47 9.47949 147.607 9.66582C147.744 9.85215 147.859 10.0035 147.95 10.12V12.5306C147.561 12.9266 147.287 13.241 147.126 13.4739C146.989 13.6835 146.863 13.8466 146.749 13.963C146.657 14.0562 146.543 14.1144 146.405 14.1377C146.291 14.161 146.062 14.1727 145.719 14.1727C145.49 14.1727 145.112 14.1727 144.586 14.1727C144.082 14.1494 143.545 14.1377 142.973 14.1377C142.4 14.1144 141.874 14.1028 141.393 14.1028C140.913 14.1028 140.604 14.1028 140.466 14.1028C139.94 14.1028 139.551 14.1028 139.299 14.1028C139.047 14.0795 138.864 14.0795 138.75 14.1028C138.635 14.1261 138.544 14.161 138.475 14.2076C138.407 14.2542 138.292 14.324 138.132 14.4172C138.132 14.3706 138.121 14.5686 138.098 15.0111C138.075 15.4537 138.052 16.2456 138.029 17.3868C138.372 17.3635 138.635 17.3985 138.819 17.4916C139.025 17.5848 139.345 17.643 139.78 17.6663C141.222 17.6663 142.469 17.8876 143.522 18.3301C144.575 18.7494 145.444 19.2967 146.131 19.9721C146.84 20.6476 147.355 21.3929 147.676 22.2081C148.019 23 148.191 23.7686 148.191 24.5139V26.4005C148.191 26.7499 147.985 27.1808 147.573 27.6932C147.184 28.2056 146.726 28.6947 146.2 29.1605C145.696 29.6263 145.204 30.0339 144.723 30.3833C144.266 30.7094 143.98 30.8724 143.865 30.8724C143.819 30.8724 143.682 30.9073 143.453 30.9772C143.247 31.0238 143.03 31.0937 142.801 31.1868C142.572 31.2567 142.355 31.3266 142.149 31.3964C141.965 31.443 141.874 31.4663 141.874 31.4663C140.569 31.4197 139.482 31.3964 138.613 31.3964C137.766 31.3732 137.079 31.3615 136.553 31.3615C136.026 31.3615 135.626 31.3732 135.351 31.3964C135.077 31.3964 134.859 31.4081 134.699 31.4314C134.539 31.4314 134.413 31.443 134.321 31.4663C134.23 31.4663 134.104 31.4547 133.944 31.4314ZM151.658 31.6061L151.109 19.6927L151.006 13.1944C151.006 13.1246 150.994 12.88 150.971 12.4608C150.971 12.0415 150.994 11.5873 151.04 11.0982C151.086 10.6091 151.189 10.1666 151.349 9.77063C151.532 9.37468 151.818 9.15341 152.207 9.10683C152.299 9.10683 152.402 9.13012 152.516 9.1767C152.631 9.19999 152.974 9.18835 153.546 9.14177C153.638 9.07189 153.809 9.07189 154.061 9.14177C154.336 9.21164 154.69 9.19999 155.125 9.10683C155.194 9.1767 155.285 9.25822 155.4 9.35139C155.537 9.44455 155.663 9.56101 155.778 9.70075C155.915 9.81721 156.018 9.94531 156.087 10.0851C156.155 10.2015 156.167 10.318 156.121 10.4344L156.43 15.0461C156.407 15.1625 156.384 15.3372 156.361 15.5701C156.361 15.7797 156.361 15.9894 156.361 16.199C156.361 16.4086 156.361 16.6066 156.361 16.7929C156.361 16.9559 156.361 17.0608 156.361 17.1073C156.361 17.2238 156.464 17.317 156.67 17.3868C156.876 17.4567 157.105 17.5149 157.357 17.5615C157.608 17.5848 157.849 17.6081 158.078 17.6314C158.307 17.6314 158.444 17.6314 158.49 17.6314C158.558 17.6314 158.593 17.6081 158.593 17.5615C158.593 17.4916 158.615 17.4567 158.661 17.4567L160.618 17.317C160.641 17.317 160.71 17.3286 160.824 17.3519C160.938 17.3519 161.064 17.3519 161.202 17.3519C161.362 17.3286 161.511 17.2937 161.648 17.2471C161.808 17.2005 161.934 17.119 162.026 17.0025C162.094 17.0957 162.163 17.0258 162.232 16.7929C162.3 16.56 162.335 16.362 162.335 16.199C162.357 16.3154 162.357 16.1757 162.335 15.7797C162.312 15.3605 162.277 14.8714 162.232 14.3124C162.209 13.7534 162.174 13.2177 162.129 12.7053C162.106 12.1929 162.094 11.9018 162.094 11.8319C162.094 11.5524 162.106 11.3428 162.129 11.203C162.151 11.04 162.129 10.8537 162.06 10.644C162.06 10.2947 162.186 9.95696 162.438 9.63088C162.689 9.28151 162.941 9.02531 163.193 8.86227C163.422 8.81569 163.673 8.76911 163.948 8.72253C164.474 8.65265 165.138 8.6643 165.939 8.75746C166.305 8.80405 166.58 8.89721 166.763 9.03696C166.969 9.15341 167.118 9.31645 167.209 9.52607C167.324 9.7124 167.393 9.92202 167.415 10.1549C167.461 10.3646 167.484 10.5742 167.484 10.7838L168.102 28.7413C168.102 28.8111 168.056 28.9858 167.965 29.2653C167.896 29.5448 167.793 29.8476 167.656 30.1737C167.518 30.4765 167.37 30.7559 167.209 31.0121C167.072 31.2683 166.935 31.3964 166.797 31.3964L165.115 31.5013C165.001 31.5013 164.864 31.5246 164.703 31.5711C164.566 31.6177 164.452 31.6527 164.36 31.6759C163.948 31.6992 163.628 31.5595 163.399 31.2567C163.17 30.9539 162.895 30.6278 162.575 30.2785L162.438 25.9463C162.506 25.3175 162.529 24.6304 162.506 23.8851C162.483 23.1397 162.529 22.4527 162.644 21.8238C162.529 21.8704 162.392 21.8704 162.232 21.8238C162.094 21.7772 161.888 21.7423 161.614 21.719C161.339 21.6957 160.961 21.6957 160.481 21.719C160.023 21.7423 159.417 21.8238 158.661 21.9635C158.547 21.8471 158.432 21.8238 158.318 21.8937C158.226 21.9635 158.123 22.0101 158.009 22.0334C157.917 22.0334 157.837 22.0101 157.769 21.9635C157.723 21.917 157.643 21.9053 157.528 21.9286C157.46 21.9286 157.368 21.9402 157.254 21.9635C157.162 21.9868 157.071 22.0334 156.979 22.1033C156.888 22.1499 156.807 22.2081 156.739 22.278C156.693 22.3478 156.704 22.4294 156.773 22.5225L156.876 29.7195C156.83 29.9291 156.807 30.1737 156.807 30.4532C156.83 30.7094 156.819 30.9656 156.773 31.2218C156.727 31.478 156.636 31.7109 156.498 31.9205C156.361 32.1068 156.144 32.2349 155.846 32.3048C155.411 32.4213 155.057 32.5028 154.782 32.5494C154.53 32.5727 154.324 32.5843 154.164 32.5843C154.004 32.5843 153.878 32.5727 153.786 32.5494C153.718 32.5261 153.672 32.5144 153.649 32.5144C153.146 32.561 152.791 32.5261 152.585 32.4096C152.402 32.2932 152.161 32.1418 151.864 31.9554C151.727 31.8856 151.658 31.7691 151.658 31.6061ZM170.883 31.117C170.928 30.4881 170.951 29.9058 170.951 29.3701C170.951 28.8111 170.963 28.5083 170.986 28.4618C171.031 28.2987 171.054 28.1939 171.054 28.1473C171.077 28.1008 171.054 27.9843 170.986 27.798C171.077 27.1691 171.123 26.5752 171.123 26.0162C171.146 25.4572 171.157 24.7468 171.157 23.8851C171.18 23.8618 171.192 23.757 171.192 23.5706C171.192 23.3843 171.18 23.1747 171.157 22.9418C171.157 22.6856 171.157 22.4177 171.157 22.1382C171.157 21.8587 171.157 21.5909 171.157 21.3347C171.18 21.3347 171.192 21.2066 171.192 20.9504C171.192 20.6942 171.192 20.3797 171.192 20.0071C171.192 19.6111 171.18 19.2035 171.157 18.7843C171.157 18.3418 171.157 17.9691 171.157 17.6663C171.157 17.643 171.157 17.5266 171.157 17.317C171.157 17.1073 171.146 16.8744 171.123 16.6182C171.1 16.3387 171.089 16.0592 171.089 15.7797C171.089 15.5002 171.089 15.2673 171.089 15.081C171.112 14.6152 171.134 14.3124 171.157 14.1727C171.203 14.0096 171.203 13.9048 171.157 13.8582C171.157 13.602 171.146 13.3342 171.123 13.0547C171.1 12.7752 171.1 12.4724 171.123 12.1463C171.169 12.1463 171.192 12.0881 171.192 11.9716C171.192 11.8552 171.18 11.7271 171.157 11.5873C171.134 11.4476 171.112 11.3195 171.089 11.203C171.089 11.0633 171.089 10.9701 171.089 10.9235V9.8405C171.112 9.74734 171.169 9.63088 171.26 9.49113C171.375 9.3281 171.501 9.1767 171.638 9.03696C171.775 8.89721 171.913 8.78075 172.05 8.68759C172.21 8.59442 172.359 8.54784 172.496 8.54784L173.286 8.65265C173.377 8.67594 173.686 8.68759 174.213 8.68759C174.739 8.68759 175.368 8.68759 176.101 8.68759C176.833 8.6643 177.611 8.65265 178.435 8.65265C179.259 8.62936 180.014 8.61772 180.701 8.61772C181.411 8.61772 181.994 8.61772 182.452 8.61772C182.933 8.59442 183.184 8.58278 183.207 8.58278C183.253 8.58278 183.344 8.64101 183.482 8.75746C183.642 8.87392 183.791 9.01367 183.928 9.1767C184.088 9.31645 184.226 9.46784 184.34 9.63088C184.454 9.77063 184.512 9.87544 184.512 9.94531C184.512 9.99189 184.5 10.1083 184.477 10.2947C184.477 10.4577 184.477 10.644 184.477 10.8537C184.477 11.0633 184.466 11.2613 184.443 11.4476C184.443 11.6339 184.443 11.7387 184.443 11.762C184.42 11.8785 184.317 12.0182 184.134 12.1813C183.951 12.321 183.859 12.4025 183.859 12.4258C183.837 12.5656 183.665 12.6704 183.344 12.7402C183.047 12.8101 182.658 12.8683 182.177 12.9149C181.697 12.9382 181.159 12.9499 180.564 12.9499C179.969 12.9499 179.385 12.9499 178.813 12.9499C178.241 12.9499 177.703 12.9499 177.199 12.9499C176.719 12.9499 176.33 12.9615 176.032 12.9848C176.032 13.4273 176.021 13.8116 175.998 14.1377C175.998 14.4638 175.998 14.6618 175.998 14.7316C175.792 15.0344 175.735 15.2906 175.826 15.5002C175.918 15.6866 175.964 15.838 175.964 15.9544C175.918 16.0942 175.895 16.1873 175.895 16.2339C175.895 16.2805 175.895 16.3737 175.895 16.5134L175.758 17.8759C175.803 17.9225 175.803 18.0739 175.758 18.3301C175.712 18.563 175.666 18.7144 175.62 18.7843C175.62 18.8775 175.666 18.9473 175.758 18.9939C175.872 19.0405 175.975 19.0754 176.067 19.0987C176.181 19.0987 176.261 19.0987 176.307 19.0987C176.375 19.0754 176.375 19.0638 176.307 19.0638L181.353 19.1337C181.536 19.157 181.8 19.1802 182.143 19.2035C182.486 19.2035 182.749 19.2268 182.932 19.2734C183.001 19.2734 183.047 19.2501 183.07 19.2035C183.116 19.157 183.173 19.1337 183.241 19.1337C183.31 19.1337 183.447 19.2268 183.653 19.4132C183.859 19.5995 184.042 19.7509 184.203 19.8673C184.248 20.0304 184.271 20.2167 184.271 20.4263C184.294 20.6359 184.306 20.8456 184.306 21.0552C184.306 21.2415 184.306 21.4162 184.306 21.5792C184.306 21.719 184.329 21.8238 184.374 21.8937C184.374 21.9868 184.374 22.0567 184.374 22.1033C184.397 22.1266 184.409 22.1732 184.409 22.243C184.386 22.3129 184.271 22.4643 184.065 22.6972C183.882 22.9301 183.711 23.1397 183.55 23.3261C183.07 23.3028 182.509 23.2911 181.868 23.2911C181.25 23.2678 180.655 23.2562 180.083 23.2562C179.511 23.2329 179.007 23.2213 178.573 23.2213C178.161 23.198 177.943 23.1863 177.92 23.1863L177.199 23.1514C177.154 23.1514 177.062 23.1514 176.925 23.1514C176.81 23.1281 176.673 23.1165 176.513 23.1165C176.375 23.0932 176.238 23.0932 176.101 23.1165C175.986 23.1165 175.929 23.1281 175.929 23.1514C175.655 23.1048 175.517 23.1397 175.517 23.2562C175.517 23.3494 175.506 23.4192 175.483 23.4658C175.506 23.6754 175.54 23.9316 175.586 24.2344C175.655 24.5372 175.689 24.7352 175.689 24.8283C175.689 24.8749 175.677 24.9914 175.655 25.1777C175.632 25.364 175.609 25.5737 175.586 25.8066C175.563 26.0395 175.54 26.284 175.517 26.5402C175.494 26.7732 175.471 26.9711 175.449 27.1342C175.426 27.1808 175.414 27.2273 175.414 27.2739C175.414 27.2972 175.403 27.3089 175.38 27.3089L176.135 27.4486L182.212 27.5534C182.395 27.6 182.566 27.6233 182.727 27.6233C182.887 27.6233 183.001 27.6 183.07 27.5534C183.161 27.5068 183.264 27.5534 183.379 27.6932C183.425 27.763 183.562 27.8329 183.791 27.9028C184.02 27.9727 184.203 28.1473 184.34 28.4268L184.237 29.1954C184.237 29.3352 184.237 29.4982 184.237 29.6846C184.237 29.8709 184.237 30.0456 184.237 30.2086C184.26 30.3716 184.271 30.5114 184.271 30.6278C184.271 30.721 184.271 30.7443 184.271 30.6977L184.237 31.0121C183.985 31.2218 183.745 31.4547 183.516 31.7109C183.287 31.9671 183.035 32.1068 182.761 32.1301C181.868 32.1767 180.815 32.2 179.602 32.2C178.39 32.2 177.222 32.2 176.101 32.2C174.979 32.1767 174.018 32.1534 173.217 32.1301C172.439 32.0835 172.027 32.0602 171.981 32.0602C171.913 32.0602 171.81 32.0253 171.672 31.9554C171.558 31.8856 171.432 31.804 171.295 31.7109C171.18 31.5944 171.077 31.4896 170.986 31.3964C170.917 31.28 170.883 31.1868 170.883 31.117ZM187.361 31.117C187.407 30.4881 187.43 29.9058 187.43 29.3701C187.43 28.8111 187.441 28.5083 187.464 28.4618C187.51 28.2987 187.533 28.1939 187.533 28.1473C187.556 28.1008 187.533 27.9843 187.464 27.798C187.556 27.1691 187.601 26.5752 187.601 26.0162C187.624 25.4572 187.636 24.7468 187.636 23.8851C187.659 23.8618 187.67 23.757 187.67 23.5706C187.67 23.3843 187.659 23.1747 187.636 22.9418C187.636 22.6856 187.636 22.4177 187.636 22.1382C187.636 21.8587 187.636 21.5909 187.636 21.3347C187.659 21.3347 187.67 21.2066 187.67 20.9504C187.67 20.6942 187.67 20.3797 187.67 20.0071C187.67 19.6111 187.659 19.2035 187.636 18.7843C187.636 18.3418 187.636 17.9691 187.636 17.6663C187.636 17.643 187.636 17.5266 187.636 17.317C187.636 17.1073 187.624 16.8744 187.601 16.6182C187.578 16.3387 187.567 16.0592 187.567 15.7797C187.567 15.5002 187.567 15.2673 187.567 15.081C187.59 14.6152 187.613 14.3124 187.636 14.1727C187.681 14.0096 187.681 13.9048 187.636 13.8582C187.636 13.602 187.624 13.3342 187.601 13.0547C187.578 12.7752 187.578 12.4724 187.601 12.1463C187.647 12.1463 187.67 12.0881 187.67 11.9716C187.67 11.8552 187.659 11.7271 187.636 11.5873C187.613 11.4476 187.59 11.3195 187.567 11.203C187.567 11.0633 187.567 10.9701 187.567 10.9235V9.8405C187.59 9.74734 187.647 9.63088 187.739 9.49113C187.853 9.3281 187.979 9.1767 188.116 9.03696C188.254 8.89721 188.391 8.78075 188.528 8.68759C188.688 8.59442 188.837 8.54784 188.975 8.54784L189.764 8.65265C189.856 8.67594 190.165 8.68759 190.691 8.68759C191.217 8.68759 191.847 8.68759 192.579 8.68759C193.312 8.6643 194.09 8.65265 194.914 8.65265C195.738 8.62936 196.493 8.61772 197.179 8.61772C197.889 8.61772 198.472 8.61772 198.93 8.61772C199.411 8.59442 199.663 8.58278 199.685 8.58278C199.731 8.58278 199.823 8.64101 199.96 8.75746C200.12 8.87392 200.269 9.01367 200.406 9.1767C200.567 9.31645 200.704 9.46784 200.818 9.63088C200.933 9.77063 200.99 9.87544 200.99 9.94531C200.99 9.99189 200.979 10.1083 200.956 10.2947C200.956 10.4577 200.956 10.644 200.956 10.8537C200.956 11.0633 200.944 11.2613 200.921 11.4476C200.921 11.6339 200.921 11.7387 200.921 11.762C200.898 11.8785 200.795 12.0182 200.612 12.1813C200.429 12.321 200.338 12.4025 200.338 12.4258C200.315 12.5656 200.143 12.6704 199.823 12.7402C199.525 12.8101 199.136 12.8683 198.656 12.9149C198.175 12.9382 197.637 12.9499 197.042 12.9499C196.447 12.9499 195.863 12.9499 195.291 12.9499C194.719 12.9499 194.181 12.9499 193.678 12.9499C193.197 12.9499 192.808 12.9615 192.511 12.9848C192.511 13.4273 192.499 13.8116 192.476 14.1377C192.476 14.4638 192.476 14.6618 192.476 14.7316C192.27 15.0344 192.213 15.2906 192.305 15.5002C192.396 15.6866 192.442 15.838 192.442 15.9544C192.396 16.0942 192.373 16.1873 192.373 16.2339C192.373 16.2805 192.373 16.3737 192.373 16.5134L192.236 17.8759C192.282 17.9225 192.282 18.0739 192.236 18.3301C192.19 18.563 192.144 18.7144 192.099 18.7843C192.099 18.8775 192.144 18.9473 192.236 18.9939C192.35 19.0405 192.453 19.0754 192.545 19.0987C192.659 19.0987 192.739 19.0987 192.785 19.0987C192.854 19.0754 192.854 19.0638 192.785 19.0638L197.832 19.1337C198.015 19.157 198.278 19.1802 198.621 19.2035C198.965 19.2035 199.228 19.2268 199.411 19.2734C199.48 19.2734 199.525 19.2501 199.548 19.2035C199.594 19.157 199.651 19.1337 199.72 19.1337C199.788 19.1337 199.926 19.2268 200.132 19.4132C200.338 19.5995 200.521 19.7509 200.681 19.8673C200.727 20.0304 200.75 20.2167 200.75 20.4263C200.773 20.6359 200.784 20.8456 200.784 21.0552C200.784 21.2415 200.784 21.4162 200.784 21.5792C200.784 21.719 200.807 21.8238 200.853 21.8937C200.853 21.9868 200.853 22.0567 200.853 22.1033C200.876 22.1266 200.887 22.1732 200.887 22.243C200.864 22.3129 200.75 22.4643 200.544 22.6972C200.361 22.9301 200.189 23.1397 200.029 23.3261C199.548 23.3028 198.987 23.2911 198.347 23.2911C197.729 23.2678 197.134 23.2562 196.561 23.2562C195.989 23.2329 195.486 23.2213 195.051 23.2213C194.639 23.198 194.422 23.1863 194.399 23.1863L193.678 23.1514C193.632 23.1514 193.54 23.1514 193.403 23.1514C193.289 23.1281 193.151 23.1165 192.991 23.1165C192.854 23.0932 192.717 23.0932 192.579 23.1165C192.465 23.1165 192.408 23.1281 192.408 23.1514C192.133 23.1048 191.996 23.1397 191.996 23.2562C191.996 23.3494 191.984 23.4192 191.961 23.4658C191.984 23.6754 192.018 23.9316 192.064 24.2344C192.133 24.5372 192.167 24.7352 192.167 24.8283C192.167 24.8749 192.156 24.9914 192.133 25.1777C192.11 25.364 192.087 25.5737 192.064 25.8066C192.041 26.0395 192.018 26.284 191.996 26.5402C191.973 26.7732 191.95 26.9711 191.927 27.1342C191.904 27.1808 191.893 27.2273 191.893 27.2739C191.893 27.2972 191.881 27.3089 191.858 27.3089L192.614 27.4486L198.69 27.5534C198.873 27.6 199.045 27.6233 199.205 27.6233C199.365 27.6233 199.48 27.6 199.548 27.5534C199.64 27.5068 199.743 27.5534 199.857 27.6932C199.903 27.763 200.04 27.8329 200.269 27.9028C200.498 27.9727 200.681 28.1473 200.818 28.4268L200.715 29.1954C200.715 29.3352 200.715 29.4982 200.715 29.6846C200.715 29.8709 200.715 30.0456 200.715 30.2086C200.738 30.3716 200.75 30.5114 200.75 30.6278C200.75 30.721 200.75 30.7443 200.75 30.6977L200.715 31.0121C200.464 31.2218 200.223 31.4547 199.994 31.7109C199.766 31.9671 199.514 32.1068 199.239 32.1301C198.347 32.1767 197.294 32.2 196.081 32.2C194.868 32.2 193.701 32.2 192.579 32.2C191.458 32.1767 190.497 32.1534 189.695 32.1301C188.917 32.0835 188.505 32.0602 188.46 32.0602C188.391 32.0602 188.288 32.0253 188.151 31.9554C188.036 31.8856 187.91 31.804 187.773 31.7109C187.659 31.5944 187.556 31.4896 187.464 31.3964C187.395 31.28 187.361 31.1868 187.361 31.117ZM208.234 31.1519L208.028 19.9721L208.131 13.5787C208.085 13.602 208.005 13.6137 207.89 13.6137C207.776 13.6137 207.661 13.6137 207.547 13.6137C207.227 13.5205 206.803 13.5205 206.277 13.6137C205.75 13.6835 205.201 13.6835 204.629 13.6137C204.537 13.5671 204.343 13.4856 204.045 13.3691C203.748 13.2527 203.473 13.1013 203.221 12.9149C203.13 12.7286 203.084 12.5656 203.084 12.4258C203.084 12.2628 203.096 11.9949 203.118 11.6223C203.164 11.2496 203.164 11.0051 203.118 10.8886C202.958 10.3529 203.004 9.86379 203.256 9.42126C203.53 8.97873 203.862 8.59442 204.251 8.26835L204.698 8.30329C204.698 8.27999 204.881 8.26835 205.247 8.26835C205.636 8.24506 206.105 8.22177 206.654 8.19848C207.227 8.17518 207.833 8.16354 208.474 8.16354C209.115 8.14025 209.71 8.1286 210.259 8.1286C210.831 8.10531 211.312 8.09367 211.701 8.09367C212.09 8.09367 212.296 8.09367 212.319 8.09367C213.051 8.09367 213.795 8.09367 214.55 8.09367C215.306 8.09367 216.084 8.04708 216.885 7.95392C217.205 8.09367 217.526 8.27999 217.846 8.51291C218.189 8.72253 218.51 8.95544 218.807 9.21164C218.807 9.65417 218.807 10.0035 218.807 10.2597C218.807 10.5159 218.807 10.7023 218.807 10.8187C218.83 10.9352 218.842 11.0167 218.842 11.0633C218.864 11.1099 218.876 11.1448 218.876 11.1681C218.83 11.3078 218.75 11.5058 218.636 11.762C218.544 11.9949 218.418 12.2395 218.258 12.4957C218.121 12.7286 217.972 12.9499 217.812 13.1595C217.651 13.3458 217.514 13.4739 217.4 13.5438C217.331 13.5205 217.079 13.5205 216.644 13.5438C216.21 13.5438 215.729 13.5671 215.203 13.6137C214.699 13.637 214.23 13.6719 213.795 13.7185C213.36 13.7418 213.12 13.7534 213.074 13.7534L213.349 30.3833C213.395 30.523 213.36 30.6977 213.246 30.9073C213.154 31.0937 213.017 31.2916 212.834 31.5013C212.674 31.7109 212.502 31.9089 212.319 32.0952C212.136 32.2582 211.987 32.3747 211.873 32.4446C211.735 32.5144 211.541 32.5377 211.289 32.5144C211.037 32.4911 210.831 32.5028 210.671 32.5494L209.47 32.5843C209.401 32.5144 209.298 32.4213 209.161 32.3048C209.023 32.1883 208.886 32.0602 208.749 31.9205C208.611 31.7808 208.485 31.6527 208.371 31.5362C208.279 31.3965 208.234 31.2683 208.234 31.1519Z" fill="#808EA4"/>
</svg>
