<svg width="73" height="69" viewBox="0 0 73 69" fill="none" xmlns="http://www.w3.org/2000/svg">
<path d="M17.0587 22.8372C27.7909 12.8804 45.1913 12.8804 55.9235 22.8372L57.2151 24.0355C57.7517 24.5334 57.7517 25.3405 57.2151 25.8384L52.7967 29.9376C52.5284 30.1865 52.0934 30.1865 51.8251 29.9376L50.0476 28.2885C42.5605 21.3424 30.4216 21.3424 22.9345 28.2885L21.031 30.0545C20.7627 30.3034 20.3277 30.3034 20.0594 30.0545L15.641 25.9553C15.1043 25.4575 15.1043 24.6503 15.641 24.1525L17.0587 22.8372ZM65.0613 31.3148L68.9937 34.9631C69.5303 35.4609 69.5303 36.2681 68.9937 36.7659L51.2621 53.2166C50.7255 53.7144 49.8555 53.7144 49.3189 53.2166C49.3189 53.2166 49.3189 53.2166 49.3189 53.2166L36.7341 41.5411C36.5999 41.4166 36.3824 41.4166 36.2482 41.5411C36.2482 41.5411 36.2482 41.5411 36.2482 41.5411L23.6637 53.2166C23.1271 53.7144 22.2571 53.7144 21.7205 53.2166C21.7205 53.2166 21.7205 53.2166 21.7205 53.2166L3.9884 36.7657C3.45178 36.2679 3.45178 35.4607 3.9884 34.9629L7.92083 31.3146C8.45744 30.8167 9.32746 30.8167 9.86407 31.3146L22.449 42.9902C22.5832 43.1147 22.8007 43.1147 22.9349 42.9902C22.9349 42.9902 22.9349 42.9902 22.9349 42.9902L35.5192 31.3146C36.0558 30.8167 36.9258 30.8167 37.4625 31.3145C37.4625 31.3145 37.4625 31.3145 37.4625 31.3146L50.0474 42.9902C50.1816 43.1147 50.3991 43.1147 50.5332 42.9902L63.118 31.3148C63.6546 30.8169 64.5246 30.8169 65.0613 31.3148Z" fill="#3B99FC"/>
</svg>
