<svg width="28" height="28" viewBox="0 0 28 28" fill="none" xmlns="http://www.w3.org/2000/svg">
<path fill-rule="evenodd" clip-rule="evenodd" d="M14 28C21.732 28 28 21.732 28 14C28 6.26801 21.732 0 14 0C6.26801 0 0 6.26801 0 14C0 21.732 6.26801 28 14 28Z" fill="white"/>
<path d="M14.4 22.8C19.0392 22.8 22.8 19.0392 22.8 14.4C22.8 9.76081 19.0392 6 14.4 6C9.76081 6 6 9.76081 6 14.4C6 19.0392 9.76081 22.8 14.4 22.8Z" stroke="#1FA5FF" stroke-width="2" stroke-linecap="round" stroke-linejoin="round"/>
<path d="M6 14.3999H22.8" stroke="#1FA5FF" stroke-width="2" stroke-linecap="round" stroke-linejoin="round"/>
<path d="M14.4 6C16.5011 8.30022 17.6952 11.2853 17.76 14.4C17.6952 17.5147 16.5011 20.4998 14.4 22.8C12.299 20.4998 11.1049 17.5147 11.04 14.4C11.1049 11.2853 12.299 8.30022 14.4 6V6Z" stroke="#1FA5FF" stroke-width="2" stroke-linecap="round" stroke-linejoin="round"/>
</svg>
