<svg width="189" height="26" viewBox="0 0 189 26" fill="none" xmlns="http://www.w3.org/2000/svg">
<path fill-rule="evenodd" clip-rule="evenodd" d="M12.6266 25.3171C16.1339 25.3171 19.2934 23.8154 21.5076 21.4147L23.9645 18.5554L32.2767 10.1717C33.1441 8.87085 34.6171 8.01498 36.2883 8.01498C37.9093 8.01498 39.3438 8.82023 40.2201 10.0558L45.4253 5.04446C43.2024 2.47729 39.9331 0.855469 36.2883 0.855469C32.6893 0.855469 29.4565 2.43677 27.2356 4.94809C27.1743 5.01743 27.1027 5.08243 27.0222 5.14309L24.4575 7.8161L21.9131 5.15818C21.8242 5.09325 21.7457 5.02322 21.6793 4.94809C19.4584 2.43677 16.2256 0.855469 12.6266 0.855469C5.92927 0.855469 0.5 6.3314 0.5 13.0863C0.5 19.8412 5.92927 25.3171 12.6266 25.3171ZM16.5243 15.7666C15.6451 16.9752 14.2267 17.7599 12.6266 17.7599C9.95857 17.7599 7.79569 15.5784 7.79569 12.8874C7.79569 10.1964 9.95857 8.01498 12.6266 8.01498C14.2978 8.01498 15.7708 8.87085 16.6382 10.1717L19.4293 12.9869L16.5243 15.7666Z" fill="url(#paint0_linear_819_11781)"/>
<path d="M31.7022 14.4231L26.1537 19.8571L27.5778 21.5958C29.7822 23.8907 32.8701 25.3171 36.2883 25.3171C39.9872 25.3171 43.2993 23.6468 45.5236 21.0132L40.1364 15.8336C39.2541 17.0041 37.8587 17.7599 36.2883 17.7599C34.1522 17.7599 32.34 16.3616 31.7022 14.4231Z" fill="url(#paint1_linear_819_11781)"/>
<path d="M55.5996 12.989C55.5996 11.9073 55.7866 10.9192 56.1605 10.0245C56.5477 9.12982 57.0818 8.35532 57.7629 7.701C58.4573 7.04668 59.2585 6.54592 60.1665 6.19873C61.0879 5.83819 62.0827 5.65792 63.151 5.65792C64.2326 5.65792 65.2341 5.83819 66.1555 6.19873C67.0769 6.54592 67.8714 7.04668 68.5391 7.701C69.2201 8.35532 69.7476 9.12982 70.1215 10.0245C70.5088 10.9192 70.7024 11.9073 70.7024 12.989C70.7024 14.0706 70.5154 15.0654 70.1415 15.9735C69.781 16.8815 69.2602 17.6694 68.5792 18.337C67.8982 19.0047 67.0969 19.5255 66.1756 19.8994C65.2675 20.2599 64.2593 20.4402 63.151 20.4402C62.056 20.4402 61.0478 20.2599 60.1264 19.8994C59.205 19.5255 58.4038 19.0047 57.7228 18.337C57.0418 17.6694 56.5143 16.8815 56.1404 15.9735C55.7799 15.0654 55.5996 14.0706 55.5996 12.989ZM59.185 12.989C59.185 13.8169 59.3453 14.5513 59.6657 15.1923C59.9996 15.8199 60.4669 16.314 61.0679 16.6745C61.6688 17.0351 62.3631 17.2153 63.151 17.2153C63.9522 17.2153 64.6466 17.0351 65.2341 16.6745C65.8217 16.314 66.2757 15.8199 66.5962 15.1923C66.93 14.5513 67.0969 13.8169 67.0969 12.989C67.0969 12.1611 66.9367 11.4333 66.6162 10.8057C66.2957 10.1647 65.8417 9.66396 65.2542 9.30341C64.6666 8.94287 63.9656 8.7626 63.151 8.7626C62.3631 8.7626 61.6688 8.94287 61.0679 9.30341C60.4669 9.66396 59.9996 10.1647 59.6657 10.8057C59.3453 11.4333 59.185 12.1611 59.185 12.989Z" fill="white"/>
<path d="M72.8514 5.9784H77.7187C79.5081 5.9784 80.8635 6.38568 81.7849 7.20024C82.7063 8.0148 83.167 9.1365 83.167 10.5653C83.167 11.9808 82.7063 13.1025 81.7849 13.9304C80.8635 14.745 79.5081 15.1522 77.7187 15.1522H76.2365V19.9995H72.8514V5.9784ZM77.7187 8.7626H76.2365V12.348H77.7187C78.3998 12.348 78.9339 12.1944 79.3212 11.8873C79.7084 11.5802 79.902 11.1395 79.902 10.5653C79.902 9.97776 79.7084 9.53042 79.3212 9.22329C78.9339 8.91616 78.3998 8.7626 77.7187 8.7626Z" fill="white"/>
<path d="M85.3312 5.9784H94.6452V8.7626H88.5961V11.2664H94.2446V14.0105H88.5961V17.2153H94.6452V19.9995H85.3312V5.9784Z" fill="white"/>
<path d="M107.075 5.9784H110.34V20.7006L100.665 12.1277V19.9995H97.4001V5.27734L107.075 13.8503V5.9784Z" fill="white"/>
<path d="M114.405 12.989C114.405 14.0706 114.646 15.0254 115.126 15.8533C115.62 16.6812 116.261 17.3288 117.049 17.7962C117.837 18.2636 118.692 18.4973 119.613 18.4973C120.601 18.4973 121.476 18.3036 122.237 17.9164C122.998 17.5291 123.626 17.0284 124.12 16.4141V18.6575C123.532 19.1783 122.891 19.5656 122.197 19.8193C121.503 20.073 120.641 20.1998 119.613 20.1998C118.638 20.1998 117.723 20.0262 116.869 19.6791C116.028 19.3185 115.286 18.8178 114.646 18.1768C114.005 17.5225 113.504 16.7546 113.143 15.8733C112.783 14.992 112.602 14.0305 112.602 12.989C112.602 11.9474 112.783 10.9859 113.143 10.1046C113.504 9.22329 114.005 8.46215 114.646 7.82118C115.286 7.16686 116.028 6.6661 116.869 6.31891C117.723 5.95837 118.638 5.7781 119.613 5.7781C120.641 5.7781 121.503 5.90496 122.197 6.15867C122.891 6.41239 123.532 6.79964 124.12 7.32042V9.56381C123.626 8.93619 122.998 8.43544 122.237 8.06154C121.476 7.67429 120.601 7.48067 119.613 7.48067C118.692 7.48067 117.837 7.71435 117.049 8.18172C116.261 8.64909 115.62 9.29674 115.126 10.1247C114.646 10.9392 114.405 11.894 114.405 12.989Z" fill="white"/>
<path d="M136.437 19.9995L134.654 15.7932H129.006L127.223 19.9995H125.32L131.83 5.27734L138.34 19.9995H136.437ZM131.83 9.14317L129.687 14.1908H133.973L131.83 9.14317Z" fill="white"/>
<path d="M150.661 5.9784H152.364V20.7006L141.748 9.56381V19.9995H140.045V5.27734L150.661 16.4141V5.9784Z" fill="white"/>
<path d="M160.584 16.8348L165.191 5.9784H167.094L160.584 20.7006L154.074 5.9784H155.977L160.584 16.8348Z" fill="white"/>
<path d="M176.419 19.9995L174.636 15.7932H168.988L167.205 19.9995H165.302L171.812 5.27734L178.322 19.9995H176.419ZM171.812 9.14317L169.669 14.1908H173.955L171.812 9.14317Z" fill="white"/>
<path d="M180.548 15.7531C181.016 16.6078 181.536 17.2955 182.111 17.8162C182.698 18.337 183.413 18.5974 184.254 18.5974C185.002 18.5974 185.603 18.3904 186.057 17.9765C186.511 17.5625 186.738 17.0351 186.738 16.3941C186.738 15.7665 186.591 15.2657 186.297 14.8918C186.003 14.5179 185.616 14.2175 185.135 13.9905C184.668 13.7501 184.167 13.5365 183.633 13.3495C183.286 13.2293 182.898 13.0758 182.471 12.8888C182.044 12.6885 181.637 12.4415 181.249 12.1477C180.862 11.8406 180.542 11.4667 180.288 11.026C180.048 10.5853 179.927 10.0445 179.927 9.40356C179.927 8.70918 180.101 8.08825 180.448 7.54076C180.795 6.99326 181.276 6.56595 181.89 6.25882C182.505 5.93834 183.206 5.7781 183.993 5.7781C184.755 5.7781 185.416 5.92499 185.976 6.21876C186.551 6.49919 187.038 6.86641 187.439 7.32042C187.839 7.76109 188.153 8.22846 188.38 8.72254L186.918 9.56381C186.744 9.21662 186.524 8.8761 186.257 8.54227C185.99 8.20843 185.663 7.93468 185.275 7.72103C184.902 7.50737 184.441 7.40054 183.893 7.40054C183.132 7.40054 182.578 7.58749 182.231 7.96139C181.884 8.32193 181.71 8.72921 181.71 9.18323C181.71 9.77078 181.944 10.2849 182.411 10.7256C182.878 11.1662 183.726 11.6002 184.955 12.0275C185.329 12.1611 185.723 12.3347 186.137 12.5483C186.551 12.762 186.931 13.0357 187.278 13.3695C187.639 13.69 187.933 14.084 188.16 14.5513C188.387 15.0053 188.5 15.5528 188.5 16.1938C188.5 17.0084 188.293 17.7161 187.879 18.317C187.479 18.9179 186.951 19.3853 186.297 19.7191C185.643 20.0396 184.942 20.1998 184.194 20.1998C183.433 20.1998 182.725 20.0396 182.071 19.7191C181.43 19.3853 180.862 18.9513 180.368 18.4172C179.887 17.8697 179.493 17.2888 179.186 16.6745L180.548 15.7531Z" fill="white"/>
<defs>
<linearGradient id="paint0_linear_819_11781" x1="44.0578" y1="0.85547" x2="2.24709" y2="22.8416" gradientUnits="userSpaceOnUse">
<stop stop-color="#FFBA02"/>
<stop offset="0.5" stop-color="#F41E5E"/>
<stop offset="1" stop-color="#6C01C3"/>
</linearGradient>
<linearGradient id="paint1_linear_819_11781" x1="44.0578" y1="0.85547" x2="2.24709" y2="22.8416" gradientUnits="userSpaceOnUse">
<stop stop-color="#FFBA02"/>
<stop offset="0.5" stop-color="#F41E5E"/>
<stop offset="1" stop-color="#6C01C3"/>
</linearGradient>
</defs>
</svg>
