<svg width="51" height="51" viewBox="0 0 51 51" fill="none" xmlns="http://www.w3.org/2000/svg">
<rect x="0.75" y="0.75" width="49.5" height="49.5" rx="24.75" fill="#000915"/>
<path d="M33.8386 28.9392C33.6986 28.7029 33.3049 28.3354 32.3249 28.5104C31.7824 28.6067 31.2311 28.6504 30.6799 28.6242C28.6411 28.5367 26.7949 27.6004 25.5086 26.1567C24.3711 24.8879 23.6711 23.2342 23.6624 21.4492C23.6624 20.4517 23.8549 19.4892 24.2486 18.5792C24.6336 17.6954 24.3624 17.2317 24.1699 17.0392C23.9686 16.8379 23.4961 16.5579 22.5686 16.9429C18.9899 18.4479 16.7761 22.0354 17.0386 25.8767C17.3011 29.4904 19.8386 32.5792 23.1986 33.7429C24.0036 34.0229 24.8524 34.1892 25.7274 34.2242C25.8674 34.2329 26.0074 34.2417 26.1474 34.2417C29.0786 34.2417 31.8261 32.8592 33.5586 30.5054C34.1449 29.6917 33.9874 29.1754 33.8386 28.9392Z" fill="white"/>
<rect x="0.75" y="0.75" width="49.5" height="49.5" rx="24.75" stroke="#253446" stroke-width="1.5"/>
</svg>
