<svg width="37" height="36" viewBox="0 0 37 36" fill="none" xmlns="http://www.w3.org/2000/svg">
<rect x="0.5" width="36" height="36" rx="18" fill="#EFF6FF"/>
<path d="M26.9098 12.9599V14.7899C26.9098 15.4299 26.6098 16.0299 26.0898 16.3999L15.0898 24.4599C14.3798 24.9799 13.4098 24.9799 12.7098 24.4499L11.2698 23.3699C10.6198 22.8799 10.0898 21.8199 10.0898 21.0099V12.9599C10.0898 11.8399 10.9498 10.5999 11.9998 10.2099L17.4698 8.15994C18.0398 7.94994 18.9598 7.94994 19.5298 8.15994L24.9998 10.2099C26.0498 10.5999 26.9098 11.8399 26.9098 12.9599Z" fill="#1FA5FF"/>
<path d="M25.3196 18.3399C25.9796 17.8599 26.9096 18.3299 26.9096 19.1499V21.0299C26.9096 21.8399 26.3796 22.8899 25.7296 23.3799L20.2596 27.4699C19.7796 27.8199 19.1396 27.9999 18.4996 27.9999C17.8596 27.9999 17.2196 27.8199 16.7396 27.4599L15.9096 26.8399C15.3696 26.4399 15.3696 25.6299 15.9196 25.2299L25.3196 18.3399Z" fill="#1FA5FF"/>
</svg>
