<svg width="37" height="36" viewBox="0 0 37 36" fill="none" xmlns="http://www.w3.org/2000/svg">
<rect x="0.5" width="36" height="36" rx="18" fill="#EFF6FF"/>
<path d="M25.5002 10.1098L20.5102 8.23982C19.6802 7.92982 18.3202 7.92982 17.4902 8.23982L12.5002 10.1098C11.3502 10.5398 10.4102 11.8998 10.4102 13.1198V20.5498C10.4102 21.7298 11.1902 23.2798 12.1402 23.9898L16.4402 27.1998C17.8502 28.2598 20.1702 28.2598 21.5802 27.1998L25.8802 23.9898C26.8302 23.2798 27.6102 21.7298 27.6102 20.5498V13.1198C27.5902 11.8998 26.6502 10.5398 25.5002 10.1098ZM18.9302 13.0298C20.1102 13.0298 21.0702 13.9898 21.0702 15.1698C21.0702 16.3298 20.1602 17.2598 19.0102 17.2998H18.9902H18.9702C18.9502 17.2998 18.9302 17.2998 18.9102 17.2998C17.7102 17.2598 16.8102 16.3298 16.8102 15.1698C16.8002 13.9898 17.7602 13.0298 18.9302 13.0298ZM21.1902 22.3598C20.5802 22.7598 19.7902 22.9698 19.0002 22.9698C18.2102 22.9698 17.4102 22.7698 16.8102 22.3598C16.2402 21.9798 15.9302 21.4598 15.9202 20.8898C15.9202 20.3298 16.2402 19.7898 16.8102 19.4098C18.0202 18.6098 19.9902 18.6098 21.2002 19.4098C21.7702 19.7898 22.0902 20.3098 22.0902 20.8798C22.0802 21.4398 21.7602 21.9798 21.1902 22.3598Z" fill="#1FA5FF"/>
</svg>
