<svg width="37" height="36" viewBox="0 0 37 36" fill="none" xmlns="http://www.w3.org/2000/svg">
<rect x="0.5" width="36" height="36" rx="18" fill="#0C2650"/>
<path d="M19 8C16.38 8 14.25 10.13 14.25 12.75C14.25 15.32 16.26 17.4 18.88 17.49C18.96 17.48 19.04 17.48 19.1 17.49C19.12 17.49 19.13 17.49 19.15 17.49C19.16 17.49 19.16 17.49 19.17 17.49C21.73 17.4 23.74 15.32 23.75 12.75C23.75 10.13 21.62 8 19 8Z" fill="#1FA5FF"/>
<path d="M24.08 20.1606C21.29 18.3006 16.74 18.3006 13.93 20.1606C12.66 21.0006 11.96 22.1506 11.96 23.3806C11.96 24.6106 12.66 25.7506 13.92 26.5906C15.32 27.5306 17.16 28.0006 19 28.0006C20.84 28.0006 22.68 27.5306 24.08 26.5906C25.34 25.7406 26.04 24.6006 26.04 23.3606C26.03 22.1406 25.34 20.9906 24.08 20.1606ZM21.33 22.5606L18.81 25.0806C18.69 25.2006 18.53 25.2606 18.37 25.2606C18.21 25.2606 18.05 25.1906 17.93 25.0806L16.67 23.8206C16.43 23.5806 16.43 23.1806 16.67 22.9406C16.91 22.7006 17.31 22.7006 17.55 22.9406L18.37 23.7606L20.45 21.6806C20.69 21.4406 21.09 21.4406 21.33 21.6806C21.58 21.9206 21.58 22.3206 21.33 22.5606Z" fill="#1FA5FF"/>
</svg>
