<svg width="36" height="36" viewBox="0 0 36 36" fill="none" xmlns="http://www.w3.org/2000/svg">
<rect width="36" height="36" rx="18" fill="#0C2650"/>
<path d="M27.9199 22.7506C27.5899 25.4106 25.4099 27.5906 22.7499 27.9206C21.1399 28.1206 19.6399 27.6806 18.4699 26.8206C17.7999 26.3306 17.9599 25.2906 18.7599 25.0506C21.7699 24.1406 24.1399 21.7606 25.0599 18.7506C25.2999 17.9606 26.3399 17.8006 26.8299 18.4606C27.6799 19.6406 28.1199 21.1406 27.9199 22.7506Z" fill="#1FA5FF"/>
<path d="M15.99 8C11.58 8 8 11.58 8 15.99C8 20.4 11.58 23.98 15.99 23.98C20.4 23.98 23.98 20.4 23.98 15.99C23.97 11.58 20.4 8 15.99 8ZM15.05 14.87L17.46 15.71C18.33 16.02 18.75 16.63 18.75 17.57C18.75 18.65 17.89 19.54 16.84 19.54H16.75V19.59C16.75 20 16.41 20.34 16 20.34C15.59 20.34 15.25 20 15.25 19.59V19.53C14.14 19.48 13.25 18.55 13.25 17.39C13.25 16.98 13.59 16.64 14 16.64C14.41 16.64 14.75 16.98 14.75 17.39C14.75 17.75 15.01 18.04 15.33 18.04H16.83C17.06 18.04 17.24 17.83 17.24 17.57C17.24 17.22 17.18 17.2 16.95 17.12L14.54 16.28C13.68 15.98 13.25 15.37 13.25 14.42C13.25 13.34 14.11 12.45 15.16 12.45H15.25V12.41C15.25 12 15.59 11.66 16 11.66C16.41 11.66 16.75 12 16.75 12.41V12.47C17.86 12.52 18.75 13.45 18.75 14.61C18.75 15.02 18.41 15.36 18 15.36C17.59 15.36 17.25 15.02 17.25 14.61C17.25 14.25 16.99 13.96 16.67 13.96H15.17C14.94 13.96 14.76 14.17 14.76 14.43C14.75 14.77 14.81 14.79 15.05 14.87Z" fill="#1FA5FF"/>
</svg>
