<svg width="36" height="36" viewBox="0 0 36 36" fill="none" xmlns="http://www.w3.org/2000/svg">
<rect width="36" height="36" rx="18" fill="#EFF6FF"/>
<path d="M27.5299 16.8699L26.0099 15.3499C25.7499 15.0899 25.5399 14.5799 25.5399 14.2199V12.0599C25.5399 11.1799 24.8199 10.4599 23.9399 10.4599H21.7899C21.4299 10.4599 20.9199 10.2499 20.6599 9.98988L19.1399 8.46988C18.5199 7.84988 17.4999 7.84988 16.8799 8.46988L15.3399 9.98988C15.0899 10.2499 14.5799 10.4599 14.2099 10.4599H12.0599C11.1799 10.4599 10.4599 11.1799 10.4599 12.0599V14.2099C10.4599 14.5699 10.2499 15.0799 9.98988 15.3399L8.46988 16.8599C7.84988 17.4799 7.84988 18.4999 8.46988 19.1199L9.98988 20.6399C10.2499 20.8999 10.4599 21.4099 10.4599 21.7699V23.9199C10.4599 24.7999 11.1799 25.5199 12.0599 25.5199H14.2099C14.5699 25.5199 15.0799 25.7299 15.3399 25.9899L16.8599 27.5099C17.4799 28.1299 18.4999 28.1299 19.1199 27.5099L20.6399 25.9899C20.8999 25.7299 21.4099 25.5199 21.7699 25.5199H23.9199C24.7999 25.5199 25.5199 24.7999 25.5199 23.9199V21.7699C25.5199 21.4099 25.7299 20.8999 25.9899 20.6399L27.5099 19.1199C28.1599 18.5099 28.1599 17.4899 27.5299 16.8699ZM13.9999 14.9999C13.9999 14.4499 14.4499 13.9999 14.9999 13.9999C15.5499 13.9999 15.9999 14.4499 15.9999 14.9999C15.9999 15.5499 15.5599 15.9999 14.9999 15.9999C14.4499 15.9999 13.9999 15.5499 13.9999 14.9999ZM15.5299 21.5299C15.3799 21.6799 15.1899 21.7499 14.9999 21.7499C14.8099 21.7499 14.6199 21.6799 14.4699 21.5299C14.1799 21.2399 14.1799 20.7599 14.4699 20.4699L20.4699 14.4699C20.7599 14.1799 21.2399 14.1799 21.5299 14.4699C21.8199 14.7599 21.8199 15.2399 21.5299 15.5299L15.5299 21.5299ZM20.9999 21.9999C20.4399 21.9999 19.9899 21.5499 19.9899 20.9999C19.9899 20.4499 20.4399 19.9999 20.9899 19.9999C21.5399 19.9999 21.9899 20.4499 21.9899 20.9999C21.9899 21.5499 21.5499 21.9999 20.9999 21.9999Z" fill="#1FA5FF"/>
</svg>
