<svg width="24" height="25" viewBox="0 0 24 25" fill="none" xmlns="http://www.w3.org/2000/svg">
<path fill-rule="evenodd" clip-rule="evenodd" d="M13.1111 3.56211C13.1111 7.48017 16.0235 10.7231 19.7949 11.2617C19.8372 13.4076 20.7896 15.4247 22.4316 16.8141C22.8755 17.1934 23.1236 17.733 23.1236 18.3026C23.1236 19.3763 22.2503 20.2496 21.1766 20.2496H16.4486C16.4486 20.2496 16.4486 20.2497 16.4486 20.2497C16.4486 22.7074 14.4561 24.6997 11.9984 24.6997C9.54073 24.6997 7.5485 22.7074 7.5485 20.2497C7.5485 20.2497 7.5485 20.2496 7.5485 20.2496H2.82034C1.74682 20.2496 0.873535 19.3763 0.873535 18.3026C0.873535 17.733 1.12165 17.1934 1.55432 16.8241C3.24649 15.3935 4.21104 13.3153 4.21104 11.1136V8.01204C4.21104 3.71774 7.70437 0.224609 11.9985 0.224609C12.6094 0.224609 13.2011 0.302425 13.7707 0.435851C13.349 1.39387 13.1111 2.44947 13.1111 3.56211Z" fill="#F1F5F9"/>
</svg>
