<svg width="27" height="27" viewBox="0 0 27 27" fill="none" xmlns="http://www.w3.org/2000/svg">
<g clip-path="url(#clip0_819_19308)">
<path fill-rule="evenodd" clip-rule="evenodd" d="M13.1111 5.56211C13.1111 9.48017 16.0235 12.7231 19.7949 13.2617C19.8372 15.4076 20.7896 17.4247 22.4316 18.8141C22.8755 19.1934 23.1236 19.733 23.1236 20.3026C23.1236 21.3763 22.2503 22.2496 21.1766 22.2496H16.4486C16.4486 22.2496 16.4486 22.2497 16.4486 22.2497C16.4486 24.7074 14.4561 26.6997 11.9984 26.6997C9.54073 26.6997 7.5485 24.7074 7.5485 22.2497C7.5485 22.2497 7.5485 22.2496 7.5485 22.2496H2.82034C1.74682 22.2496 0.873535 21.3763 0.873535 20.3026C0.873535 19.733 1.12165 19.1934 1.55432 18.8241C3.24649 17.3935 4.21104 15.3153 4.21104 13.1136V10.012C4.21104 5.71774 7.70437 2.22461 11.9985 2.22461C12.6094 2.22461 13.2011 2.30242 13.7707 2.43585C13.349 3.39387 13.1111 4.44947 13.1111 5.56211Z" fill="#F1F5F9"/>
<path d="M26.4621 5.56257C26.4621 8.63464 23.9716 11.1249 20.8995 11.1249C17.8274 11.1249 15.3369 8.63464 15.3369 5.56257C15.3369 2.4905 17.8274 0 20.8995 0C23.9716 0 26.4621 2.4905 26.4621 5.56257Z" fill="url(#paint0_linear_819_19308)"/>
</g>
<defs>
<linearGradient id="paint0_linear_819_19308" x1="15.0991" y1="0.0338707" x2="27.2711" y2="0.97981" gradientUnits="userSpaceOnUse">
<stop stop-color="#6C01C3"/>
<stop offset="1" stop-color="#901CEE"/>
</linearGradient>
<clipPath id="clip0_819_19308">
<rect width="26.7" height="26.7" fill="white" transform="translate(0.299805)"/>
</clipPath>
</defs>
</svg>
